<svg id="Layer_1" data-name="Layer 1" xmlns="http://www.w3.org/2000/svg" viewBox="0 0 655.72 138.7"><defs><style>.cls-1{fill:#17ce54;}.cls-2{fill:#20e45c;opacity:0.7;}.cls-3{fill:#fff;}</style></defs><title>fte-ancillary-logo-bar</title><polygon class="cls-1" points="655.72 0 655.72 93.84 610.87 138.7 0 138.7 0 44.85 44.85 0 655.72 0"/><path class="cls-2" d="M4331.17,1155.66a9.81,9.81,0,0,1,5.46,1.66h-10.91A9.79,9.79,0,0,1,4331.17,1155.66Zm-405.83-137h-9.41A9.81,9.81,0,0,0,3925.34,1018.62Zm410.54,0h-9.41A9.81,9.81,0,0,0,4335.89,1018.62Zm-237.58,138.7H4108A10.38,10.38,0,0,0,4098.31,1157.31Zm-183.12,0h10.91A9.81,9.81,0,0,0,3915.19,1157.31ZM4421.45,1145l-3.32,3.32L4384.77,1115H4227.14l23.66,23.66h42.27a6.14,6.14,0,0,1,9.73-4.08l7.48-7.48h18.31l19,19h34.23l11.2,11.2h-2l-9.79-9.79H4349l9.79,9.79h-2L4328,1128.53h-17.14l-7,7h0a6.16,6.16,0,1,1-10.81,4.53h-42.81L4225.14,1115h-35.67l-22.55-22.55h-15.26l24.27,24.27h9.29l9.57,9.57h20.45a6.13,6.13,0,1,1,.11,1.41H4194.2l-9.57-9.57h-7.29l19.22,19.22h38.06l13.84,13.84h33.49l5.62,5.62h18.51l0.48,0.48h-21.84l-3.75-3.75h-15.31l3.75,3.75h-3.32l-3.75-3.75h-14.85l-13.84-13.84h-38.06l-47.25-47.25h-6.27l52.87,52.87h29.15l8.13,8h0a6.15,6.15,0,0,1,10.08,4h-1.44a4.73,4.73,0,0,0-9.36,0h-1.42a6.13,6.13,0,0,1,1.18-3l-7.74-7.57h-21.6l10.38,10.38v0.19h-1.81l-10.57-10.57h-5.56l-27.6-27.6v9.53l19.69,19.69,0.21,0.21v3.37a6.15,6.15,0,0,1,5.13,5.38h-1.42a4.73,4.73,0,0,0-9.36,0h-1.44a6.16,6.16,0,0,1,5.67-5.44v-2.73l-19.69-19.69-0.21-.21v-11.52l-15.3-15.3v25l10.52,10.53v6.16h0.18a6.19,6.19,0,1,1-1.59.22v-5.78L4148.62,1128v-12.52l-12.78,12.78v11.1a6.17,6.17,0,1,1-1.41.05v-11.74l14.1-14.1,0.09,0.09V1101l-8.55-8.55h-5.47v5h-17.38v-5h-5.47l-8.55,8.55v12.64l0.09-.09,14.1,14.1v11.74a6.15,6.15,0,1,1-1.41-.05v-11.1l-12.78-12.78V1128l-10.53,10.53v5.78a6.14,6.14,0,1,1-1.59-.22h0.18v-6.16l10.53-10.53v-25l-15.3,15.3v11.52l-0.21.21-19.69,19.69v2.73a6.17,6.17,0,0,1,5.67,5.44h-1.44a4.73,4.73,0,0,0-9.36,0H4060a6.15,6.15,0,0,1,5.13-5.38v-3.37l0.21-.21,19.69-19.69v-9.53l-27.6,27.6h-5.56l-10.57,10.57h-1.81v-0.19l10.38-10.38h-21.6l-7.74,7.57a6.14,6.14,0,0,1,1.18,3h-1.42a4.73,4.73,0,0,0-9.36,0h-1.44a6.15,6.15,0,0,1,10.07-4h0l8.13-8h29.15l52.87-52.87h-6.27l-47.25,47.25h-38.06l-13.85,13.84h-14.85l-3.75,3.75h-3.32l3.75-3.75h-15.31l-3.75,3.75h-21.84l0.48-.48h18.51l5.62-5.62h33.49l13.84-13.84h38.06l19.22-19.22h-7.29l-9.57,9.57h-21.15a6.18,6.18,0,1,1,.11-1.41H4057l9.57-9.57h9.29l24.27-24.27H4084.9L4062.35,1115h-35.67l-25.07,25.07H3958.8a6.16,6.16,0,1,1-10.81-4.53h0l-7-7h-17.14L3895,1157.31h-2l9.79-9.79h-32.23l-9.79,9.79h-2l11.2-11.2h34.23l19-19h18.31l7.48,7.48a6.14,6.14,0,0,1,9.73,4.08H4001l23.66-23.66H3867l-35.28,35.28a15.32,15.32,0,0,1,3.1,7h-4.8a10.65,10.65,0,0,0-20.71,0h-4.78a15.33,15.33,0,0,1,23.76-10.23l18-18-3.22-3.22H3812.5a9.84,9.84,0,0,1-14.18,7.66v-2.73a7.52,7.52,0,1,0,0-12.21v-2.73a9.84,9.84,0,0,1,14.18,7.66H3844l3.91,3.91,17.14-17.14H4060.4l17.85-17.85h-88.08L3975.59,1107h-65.8l-14.6-14.6h-79a20.09,20.09,0,0,1-17.87,15.29v-9.47a10.64,10.64,0,0,0,0-21v-9.47a20.09,20.09,0,0,1,17.87,15.29h82.9l14.6,14.6h58l14.58-14.58h92l-17.9-17.9H4008l-11.18,11.18H3942.1l-2.65,2.65a9.87,9.87,0,1,1-1.44-1.89l3.12-3.12h54.69l8.82-8.83H3881.45a15.35,15.35,0,1,1-27.63-11.28L3848,1048l-3.91,3.91H3812.5a9.79,9.79,0,0,1-11.22,8.58l2.29-2.29a7.52,7.52,0,0,0,6.61-6.61l2.29-2.29c0,0.08,0,.16,0,0.25h30.58l3.22-3.22-15.43-15.43,3.32-3.32,22.92,22.92h0a15.31,15.31,0,0,1,24.34,9.93h143.23L4001,1036.8h-42.27a6.14,6.14,0,0,1-9.73,4.08l-7.48,7.48h-18.31l-0.21-.21-18.79-18.79H3870l-0.21-.21-10.54-10.54h2l9.33,9.33h32.23l-9.33-9.33h2l28.33,28.33h17.14l7-7a6.16,6.16,0,1,1,10.81-4.53h42.81l0.21,0.21,24.86,24.86h35.67l22.61,22.61h15.26l-24.32-24.32h-9.29l-9.57-9.57h-20.45a6.13,6.13,0,1,1-.11-1.41h21.15l9.57,9.57h7.29l-19.22-19.22H4017.2l-13.84-13.84h-33.49l-5.62-5.62h-18.51l0,0h21.84l3.3,3.3h15.31l-3.3-3.3h3.32l3.3,3.3h14.85l13.85,13.84h38.06l47.3,47.3h6.27l-52.92-52.92h-29.15l-8.13-8h0a6.15,6.15,0,0,1-10-3.57h1.46a4.73,4.73,0,0,0,9.19,0h1.45a6.16,6.16,0,0,1-1.12,2.54l7.74,7.57h21.6l-10.12-10.12h2l10.12,10.12h5.56l0.21,0.21,27.4,27.4v-9.52l-19.89-19.89v-3.37a6.17,6.17,0,0,1-5.09-4.93h1.46a4.73,4.73,0,0,0,9.19,0h1.46a6.17,6.17,0,0,1-5.6,5v2.73l19.89,19.89v11.52l15.3,15.3v-25l-10.53-10.53v-6.16h-0.18a6.19,6.19,0,1,1,1.59-.22V1037l10.53,10.53V1060l12.78-12.78v-11.1a6.17,6.17,0,1,1,1.41-.05v11.74l-14.1,14.1-0.09-.09v12.64l8.6,8.6h5.42v-5h17.38v5H4140l8.6-8.6v-12.64l-0.09.09-14.1-14.1v-11.74a6.15,6.15,0,1,1,1.41.05v11.1l12.78,12.78v-12.52l10.53-10.53v-5.78a6.14,6.14,0,1,1,1.59.22h-0.18v6.16L4150,1048.06v25l15.3-15.3v-11.52l19.89-19.89v-2.73a6.17,6.17,0,0,1-5.6-5h1.46a4.73,4.73,0,0,0,9.19,0h1.46a6.17,6.17,0,0,1-5.09,4.93v3.37l-19.89,19.89v9.52l27.4-27.4,0.21-.21h5.56l10.12-10.12h2l-10.12,10.12h21.6l7.74-7.57a6.15,6.15,0,0,1-1.12-2.54h1.45a4.73,4.73,0,0,0,9.19,0h1.46a6.15,6.15,0,0,1-10,3.57h0l-8.13,8h-29.15L4142,1083.06h6.27l47.3-47.3h38.06l13.84-13.84h14.85l3.3-3.3H4269l-3.3,3.3H4281l3.3-3.3h21.84l0,0h-18.51l-5.62,5.62h-33.49l-13.84,13.84h-38.06l-19.22,19.22h7.29l9.57-9.57h21.15a6.19,6.19,0,1,1-.11,1.41h-20.45l-9.57,9.57h-9.29l-24.32,24.32h15.26l22.61-22.61h35.67l24.86-24.86,0.21-.21H4293a6.16,6.16,0,1,1,10.81,4.53l7,7H4328l28.33-28.33h2l-9.33,9.33h32.23l9.33-9.33h2L4382,1029.15l-0.21.21H4347.6l-18.79,18.79-0.21.21h-18.31l-7.48-7.48a6.14,6.14,0,0,1-9.73-4.08H4250.8l-23.66,23.66h143.23a15.31,15.31,0,0,1,24.34-9.93h0l25.35-25.35a15.34,15.34,0,0,1-3-6.56h4.83a10.65,10.65,0,0,0,20.48,0h4.83a15.34,15.34,0,0,1-23.69,9.78l-18,18,3.22,3.22h30.58a9.85,9.85,0,0,1,14.72-7.37v2.87a7.52,7.52,0,1,0,0,11.37v2.87a9.85,9.85,0,0,1-14.72-7.37h-31.55l-3.91-3.91-5.86,5.86a15.34,15.34,0,1,1-27.63,11.28H4247.18L4256,1074h54.69l3.12,3.12a10,10,0,1,1-1.44,1.89l-2.65-2.65H4255l-11.18-11.18h-52.44l-17.9,17.9h92l14.58,14.58h58l14.6-14.6h82.9a20.08,20.08,0,0,1,18.41-15.31v9.41a10.66,10.66,0,0,0,0,21.21v9.41a20.08,20.08,0,0,1-18.41-15.31h-79L4342,1107h-65.8l-14.57-14.58h-88.08l17.85,17.85h195.31l17.14,17.14,3.91-3.91h31.55a9.83,9.83,0,0,1,12.06-8.43l-2.09,2.09h-0.17a7.52,7.52,0,0,0-7.52,7.52c0,0.06,0,.12,0,0.17l-2.08,2.08a9.8,9.8,0,0,1-.2-1.08h-30.58l-3.22,3.22ZM4313.36,1084a7.52,7.52,0,1,0,7.52-7.52A7.52,7.52,0,0,0,4313.36,1084Zm61.51-21.17a10.66,10.66,0,1,0,10.66-10.66A10.66,10.66,0,0,0,4374.87,1062.81Zm-80.46-26.89a4.75,4.75,0,1,0,4.75-4.75A4.75,4.75,0,0,0,4294.41,1035.92ZM4216.64,1049a4.75,4.75,0,1,0,4.75-4.75A4.75,4.75,0,0,0,4216.64,1049Zm-55.9-19a4.75,4.75,0,1,0-4.75-4.75A4.75,4.75,0,0,0,4160.74,1030Zm-25.39,4.75a4.75,4.75,0,1,0-4.75-4.75A4.75,4.75,0,0,0,4135.35,1034.73Zm-18.88,0a4.75,4.75,0,1,0-4.75-4.75A4.75,4.75,0,0,0,4116.47,1034.73Zm-20.64-9.5a4.75,4.75,0,1,0-4.75,4.75A4.75,4.75,0,0,0,4095.83,1025.23ZM4035.18,1049a4.75,4.75,0,1,0-4.75,4.75A4.75,4.75,0,0,0,4035.18,1049Zm-77.77-13.07a4.75,4.75,0,1,0-4.75,4.75A4.75,4.75,0,0,0,3957.41,1035.92Zm-80.46,26.89a10.66,10.66,0,1,0-10.66,10.66A10.66,10.66,0,0,0,3876.95,1062.81Zm61.51,21.17a7.52,7.52,0,1,0-7.52,7.52A7.52,7.52,0,0,0,3938.46,1084Zm19,55.58a4.75,4.75,0,1,0-4.75,4.75A4.75,4.75,0,0,0,3957.41,1139.56Zm77.77-13.07a4.75,4.75,0,1,0-4.75,4.75A4.75,4.75,0,0,0,4035.18,1126.48Zm55.9,19a4.75,4.75,0,1,0,4.75,4.75A4.75,4.75,0,0,0,4091.08,1145.49Zm25.39-4.75a4.75,4.75,0,1,0,4.75,4.75A4.75,4.75,0,0,0,4116.47,1140.74Zm18.88,0a4.75,4.75,0,1,0,4.75,4.75A4.75,4.75,0,0,0,4135.35,1140.74Zm20.64,9.5a4.75,4.75,0,1,0,4.75-4.75A4.75,4.75,0,0,0,4156,1150.24Zm60.65-23.76a4.75,4.75,0,1,0,4.75-4.75A4.75,4.75,0,0,0,4216.64,1126.48Zm77.77,13.07a4.75,4.75,0,1,0,4.75-4.75A4.75,4.75,0,0,0,4294.41,1139.56Z" transform="translate(-3798.32 -1018.62)"/><path class="cls-3" d="M3900.3,1116.23L3882,1074l-18.3,42.2h-12.29l24.46-56.37h12.25l24.46,56.37H3900.3Z" transform="translate(-3798.32 -1018.62)"/><path class="cls-3" d="M3930.78,1077v39.27h-11.27v-56.37H3931l33.6,39.27v-39.27h11.27v56.37h-11.46Z" transform="translate(-3798.32 -1018.62)"/><path class="cls-3" d="M4043.52,1105v11.27h-37.58q-18.79,0-18.79-18.79v-18.79q0-18.79,18.79-18.79h37.58v11.27h-36q-9.06,0-9.06,9v15.75q0,9.06,9.09,9.06h36Z" transform="translate(-3798.32 -1018.62)"/><path class="cls-3" d="M4066.07,1116.23h-11.27v-56.37h11.27v56.37Z" transform="translate(-3798.32 -1018.62)"/><path class="cls-3" d="M4133.71,1105v11.27h-56.37v-56.37h11.27V1105h45.1Z" transform="translate(-3798.32 -1018.62)"/><path class="cls-3" d="M4201.36,1105v11.27H4145v-56.37h11.27V1105h45.1Z" transform="translate(-3798.32 -1018.62)"/><path class="cls-3" d="M4257.31,1116.23L4239,1074l-18.3,42.2h-12.29l24.46-56.37h12.25l24.46,56.37h-12.25Z" transform="translate(-3798.32 -1018.62)"/><path class="cls-3" d="M4293.28,1093.68h-16.76v-11.27h35.7q9.39,0,9.4-5.64t-9.4-5.64h-35.7v-11.27h37.58q18.79,0,18.79,16.91t-18.79,16.91h-3.5l26.46,22.55h-17.32Z" transform="translate(-3798.32 -1018.62)"/><path class="cls-3" d="M4376.1,1090.11v26.12h-11.27v-26.12l-25.29-30.25h14.73l16.2,19.35,16.2-19.35h14.73Z" transform="translate(-3798.32 -1018.62)"/><rect class="cls-3" x="478.2" y="41.25" width="11.15" height="56.37"/></svg>