<svg id="Layer_1" data-name="Layer 1" xmlns="http://www.w3.org/2000/svg" viewBox="0 0 181.25 212.96"><defs><style>.cls-1{fill:#295c7f;}</style></defs><title>fte-otg-icon-alt</title><path class="cls-1" d="M748.65,2171.25c-0.12,1.05-2.84,2.17-4.29,2.81a32,32,0,0,1-9.92,2.52,24.8,24.8,0,0,1-4.89.29c-1.14-.12-2.08-0.9-2.82-0.88s-1,.51-1.77.59c-1.56.18-3.51-.36-5.33-0.59s-3.64-.4-5.19-0.74a13.51,13.51,0,0,1-1.63-9c0.3-1.43,1.54-1.86,1.48-3.25,0-1.14-1.12-1.68-1.77-2.52a28.41,28.41,0,0,1-1.78-2.82,54.92,54.92,0,0,1-3.56-8.29c-0.65-1.74-1.51-3.33-2.22-5-1.46-3.54-2.81-7.12-4-10.66a61.41,61.41,0,0,0-4-8.37c-1.81-6.18-4.88-11.91-6.65-18.1,0-.09,0-0.18,0-0.27s0-.11,0-0.16h0c-0.09-.11-0.19-0.2-0.27-0.32a26.31,26.31,0,0,1-1.8-3.32,61,61,0,0,0-3.83,5.8c-0.93,3.55-2.21,7-3.51,10.52a95.07,95.07,0,0,0-6.31,13.2h0c-2.52,3.65-3.79,7.71-6.21,11.85-1,1.62-2.15,3.45-3.55,5.48-1,1.38-3.4,3.77-3.7,5.32s0.37,3.93-.15,5.48c-0.3.87-1.13,1.07-1.19,1.92a14.87,14.87,0,0,0,1,2.81,10.93,10.93,0,0,0,3.55,3.11c2.78,1,6-.41,8.14.59,0.61,0.28,1.89,1.59,1.78,2.51s-2.44,2.34-3.56,2.66a41,41,0,0,1-6.06.6,34.46,34.46,0,0,1-6.67.15c-2-.31-1.85-1.4-3.26-2.22-0.79-.47-1.51-0.44-2.37-0.89-0.73.1-1,.67-1.77,0.74-3.43-1.21-7.89-1.4-10.51-3.41,0.07-.82.49-1.46,0.59-2.22s-0.07-1.29,0-1.92c0.11-1,.51-2.18.74-3.26s0.32-2.53.59-3.54c0.69-2.56,2.6-4.76,3.55-7,0.29-.66.3-1.45,0.59-2.07,1.09-2.34,3.38-3.82,4.29-6.08,0.55-1.35.86-2.86,1.33-4.29,1-2.89,1.86-5.73,2.81-8.58a15.83,15.83,0,0,0,1.19-4.29c-0.09-.08-0.2-0.13-0.29-0.2,3.24-5.32,4.6-11.92,6.75-17.64,1.37-3.63,4.49-8.44,6.43-13.24-1,1-1.93,1.92-2.79,3-3.73,4.49-8,8.43-12.06,12.6-3.41,3.52-7,6.9-10.52,10.4,0,0.53,0,1.08,0,1.64a6.08,6.08,0,0,1-1.84,5q-2.59,2.5-5.22,5c-2.46,2.3-5,4.57-7.42,6.87L614.19,2153c-0.9.84-1.72,1.76-2.69,2.5a69.23,69.23,0,0,0-7.92,7.17c-1.83,1.93-3.68,3.81-5.64,5.59-1.77,1.61-3.57,3.2-5.33,4.82a7.28,7.28,0,0,0-.94,1.2c-1.78,2.54-4.21,3.08-7,2.22-2.48-.76-3.38-3.83-3.1-5.87,0-.3.13-0.59,0.19-0.86a7.78,7.78,0,0,1-3.42-3.33,9.65,9.65,0,0,0-1.3-1.69c-0.67-.82-1.36-1.64-2-2.43-1.6.31-2.7,1.86-4.53,1.52-0.85-.39-0.84-1.21-0.76-2.25l1.86-2.47-1.11-1a0.87,0.87,0,0,0-.36-0.27c-1.52-.11-1.94-1.46-2.75-2.31a1.23,1.23,0,0,1,.06-0.53,28.81,28.81,0,0,0,3.15-5.38,37.92,37.92,0,0,1,3.65-5.27,130.47,130.47,0,0,1,12.71-14.1c2.07-2,4.27-3.8,6.43-5.68,1.77-1.54,3.58-3,5.36-4.57a2.16,2.16,0,0,0,.57-0.7,7.09,7.09,0,0,1,1.62-2.19,6.17,6.17,0,0,0,1-1.69,38.89,38.89,0,0,1,6.57-8.8,2,2,0,0,1,2.31-.7l3.48-3.2-0.61-.63c1.76-.7,3.42-1.37,5.24-0.39a1.61,1.61,0,0,0,1.47,0,3.62,3.62,0,0,1,2.08-.2c1.52,0.26,3-.23,4.67-0.06,1.54,0.86,3.23,1.72,2.58,4.22l2,1.47,1-.5,2.42,3.32,2.22-.83,1.87,1.48a4.89,4.89,0,0,1-.47,3.55l1.58,1.9c0.81-.75,1.59-1.46,2.35-2.18,0.33-.32.65-0.65,1-1l15.76-15.89a2.71,2.71,0,0,1,1.93-1.16l8.82-8.75a8.83,8.83,0,0,0-.4-2.23,6,6,0,0,0-2.32-3.41,2.46,2.46,0,0,0,.1-0.31c-1.1-.43-2.52-0.55-3.41-1.18,0.91-7.38,3.17-15.33,3.7-23.25,0.18-2.67-.55-4.62-0.6-6.66s0.76-4.27.75-6.37-0.91-3.88-.75-5.78,1.57-3.7,1.63-5.62a16.6,16.6,0,0,0-.44-2.37,19,19,0,0,1,.15-3.71,24.74,24.74,0,0,1,.44-3.4c0.23-.86,1.12-1.68,1.34-2.67,0.29-1.41-.08-3,0-4.29,0.4-6.53,3.15-11.48,6.07-15.7,1.32-1.92,2.75-4.09,4.59-5,1-.51,2.37-0.47,3.26-1.49,0.74-.85.57-2.24,1.33-3.11s1.49-.39,2.08-1.48c-1.64-1.56-2.52-3.54-3.71-5.77a16.83,16.83,0,0,1-1.77-3.55,22.21,22.21,0,0,1,.45-8.74,15.47,15.47,0,0,1,2.07-3.11,10.86,10.86,0,0,1,2.52-2.67c1.42-.83,4.7-1.18,7.41-1.34a10.89,10.89,0,0,1,4.59.74,27.25,27.25,0,0,1,2.81.74c1,0.52,1.38,1.66,2.21,2.67-0.1,1.28-.8,2.29-0.73,3.55,0.07,1.41,1.11,2.53,1.47,3.7-0.54,2.23.06,2.78,1.34,4,0.53,0.51,1.6,1.22,1.63,1.78,0,0.88-1.54,1.36-1.78,2.37-0.16.67,0.19,1.8,0,2.81a15.61,15.61,0,0,0-.44,1.63c0,0.68.47,1.37,0.29,2.07-1.22,1.94-4.62,1.69-6.52,3,0.32,2.52-2,4.12-1,5.92,0.2,0.37.49,0.34,0.44,0.3,1.11,1,1.31,1.83,2.08,3.26,0.43,0.79,1,1.36,1.33,2.07,0.53,1.33.36,3,1,4.59,0.37,0.89,1.16,1.34,1.63,2.22,1,2,1.47,4.39,2.37,6.51a106,106,0,0,1,5.19,16,29.09,29.09,0,0,0,.74,3.56c0.17,0.41.72,1.06,1,1.63s0.63,1.45.89,1.78c1,1.24,3.3,2,4.88,3a24,24,0,0,1,2.07,1.78c0.79,0.65,1.75,1.09,2.37,1.62,1.42,1.23,2.4,3.07,3.7,3.85,1.07,0.65,2.19.66,3.12,1.33,0.07,0.75,1.11,1.19,1.18,2.07,0,0.41-.48,1.1-0.6,1.93-0.07.5,0.08,1.12,0,1.49-0.16.71-1.08,2.35-1.62,2.51a4.68,4.68,0,0,1-2.36-1.48c-0.63-.72-0.78-1.72-1.64-2.22-1.45.51-1.36,1.69-3,1.78-2.35.12-3.55-2.81-5.77-3.12-0.47,2,.15,4.19.44,6.51,0.56,4.42,1.52,8.22,2.37,12.74,0.38,2,1.31,5.2.45,6.66-1.24,2.08-6.08.42-8.89,1.19a27.54,27.54,0,0,0-.6,8.73c0.05,1.13,0,2.28.15,3.27,0.1,0.66.47,1.27,0.59,1.92s0.22,1.51.31,2.22c0.52,4.59,1.5,9.18,1.77,13.62a20.39,20.39,0,0,0,0,3c0.19,0.85,1.24,1.59,1.19,2.81s-1.56,2-1.63,3.4c-0.09,1.76,2,4,2.37,6.52,0.13,0.93-.18,1.91,0,3,0.22,1.29,1.39,3,1.92,4.45,0.71,1.94.68,3.82,1.33,5,0.46,0.85,1.44,1.24,2.22,1.92,3.27,2.84,3.72,8.91,5.48,13.33a37.4,37.4,0,0,1,1.33,3.54,15.51,15.51,0,0,0,.3,1.78,10.57,10.57,0,0,0,2.52,2.81,24.67,24.67,0,0,0,6.66,4.14,14.13,14.13,0,0,0,4.3,1.18c1.83,0.12,2.86-.7,4.29-0.29C746.89,2168.87,748.79,2170.09,748.65,2171.25Z" transform="translate(-567.4 -1963.96)"/></svg>