<svg id="Layer_1" data-name="Layer 1" xmlns="http://www.w3.org/2000/svg" viewBox="0 0 655.72 138.7"><defs><style>.cls-1{fill:#126fe7;}.cls-2{fill:#fce914;}.cls-3{fill:#fff;}</style></defs><title>fte-europe-logo-bar</title><polygon class="cls-1" points="655.72 0 655.72 93.84 610.87 138.7 0 138.7 0 44.85 44.85 0 655.72 0"/><polygon class="cls-2" points="369.14 32.78 373.27 29.77 377.4 32.78 375.83 27.91 380.03 24.89 374.86 24.89 373.27 19.96 371.69 24.9 366.52 24.89 370.72 27.91 369.14 32.78"/><polygon class="cls-2" points="347.77 38.53 351.9 35.51 356.03 38.53 354.46 33.65 358.65 30.64 353.48 30.64 351.9 25.7 350.31 30.64 345.15 30.64 349.34 33.65 347.77 38.53"/><polygon class="cls-2" points="336.26 41.37 334.68 46.32 329.51 46.32 333.7 49.33 332.13 54.2 336.26 51.19 340.39 54.2 338.82 49.33 343.01 46.32 337.84 46.32 336.26 41.37"/><polygon class="cls-2" points="330.52 72.53 334.65 75.55 333.08 70.67 337.27 67.66 332.11 67.66 330.52 62.72 328.94 67.67 323.77 67.66 327.96 70.67 326.39 75.55 330.52 72.53"/><polygon class="cls-2" points="337.84 89.07 336.26 84.13 334.68 89.08 329.51 89.07 333.7 92.09 332.13 96.96 336.26 93.94 340.39 96.96 338.82 92.09 343.01 89.07 337.84 89.07"/><polygon class="cls-2" points="353.51 104.74 351.93 99.81 350.35 104.75 345.18 104.74 349.37 107.76 347.8 112.63 351.93 109.61 356.06 112.63 354.49 107.76 358.69 104.74 353.51 104.74"/><polygon class="cls-2" points="374.86 110.42 373.28 105.48 371.7 110.42 366.53 110.42 370.72 113.43 369.15 118.31 373.28 115.29 377.41 118.31 375.83 113.43 380.03 110.42 374.86 110.42"/><polygon class="cls-2" points="396.21 104.74 394.63 99.81 393.04 104.75 387.88 104.74 392.06 107.76 390.5 112.63 394.63 109.61 398.76 112.63 397.18 107.76 401.38 104.74 396.21 104.74"/><polygon class="cls-2" points="411.88 89.07 410.3 84.13 408.71 89.08 403.55 89.07 407.74 92.09 406.17 96.96 410.3 93.94 414.43 96.96 412.85 92.09 417.05 89.07 411.88 89.07"/><polygon class="cls-2" points="422.73 67.6 417.56 67.6 415.97 62.66 414.39 67.6 409.22 67.6 413.41 70.61 411.85 75.49 415.97 72.47 420.1 75.49 418.53 70.61 422.73 67.6"/><polygon class="cls-2" points="406.17 54.14 410.3 51.13 414.43 54.14 412.85 49.26 417.05 46.25 411.88 46.25 410.3 41.31 408.71 46.26 403.55 46.25 407.74 49.26 406.17 54.14"/><polygon class="cls-2" points="394.69 25.7 393.11 30.65 387.94 30.64 392.13 33.66 390.55 38.53 394.69 35.51 398.82 38.53 397.25 33.66 401.44 30.64 396.27 30.64 394.69 25.7"/><path class="cls-3" d="M2013.11,421.49v15.65h62.61v15.65h-78.26V378.44h78.26V394.1h-62.61v11.74h62.61v15.65h-62.61Z" transform="translate(-1944.41 -346.65)"/><path class="cls-3" d="M2484.09,421.49v15.65h62.61v15.65h-78.26V378.44h78.26V394.1h-62.61v11.74h62.61v15.65h-62.61Z" transform="translate(-1944.41 -346.65)"/><path class="cls-3" d="M2256.07,421.52h-15.65l15.65,31.31h-18.59l-15.65-31.31h-28.37v43.3h-15.65V378.48h78.26v43Zm-62.61-27.39v11.74h47V394.13h-47Z" transform="translate(-1944.41 -346.65)"/><path class="cls-3" d="M2166.12,452.83h-78.26V378.48h15.65v58.7h47v-58.7h15.65v74.35Z" transform="translate(-1944.41 -346.65)"/><path class="cls-3" d="M2378.55,378.44h78.26v43h-62.61v43.34h-15.65V378.44Zm62.61,27.39V394.1h-47v11.74h47Z" transform="translate(-1944.41 -346.65)"/></svg>