<svg id="Layer_1" data-name="Layer 1" xmlns="http://www.w3.org/2000/svg" viewBox="0 0 655.72 138.7"><defs><style>.cls-1{fill:#ffb500;}.cls-2{fill:#fff;}</style></defs><title>fte-awards-logo-bar</title><polygon class="cls-1" points="655.72 0 655.72 93.84 610.87 138.7 0 138.7 0 44.85 44.85 0 655.72 0"/><path class="cls-2" d="M2943.2,1957.31h76.28v72.46h-15.26v-30.51h-45.77v30.51H2943.2v-72.46Zm15.25,15.26V1984h45.77v-11.44h-45.77Z" transform="translate(-2890.14 -1924.72)"/><path class="cls-2" d="M3111,2029.78L3080.49,1996,3050,2029.78h-15.25v-72.46H3050v51.3l22.88-24.6h15.25l22.88,24.6v-51.3h15.25v72.46H3111Z" transform="translate(-2890.14 -1924.72)"/><path class="cls-2" d="M3141.51,1957.31h76.28v72.46h-15.26v-30.51h-45.77v30.51h-15.25v-72.46Zm15.25,15.26V1984h45.77v-11.44h-45.77Z" transform="translate(-2890.14 -1924.72)"/><path class="cls-2" d="M3309.32,1999.26h-15.26l15.26,30.51H3291.2l-15.25-30.51H3248.3v30.51H3233v-72.46h76.28v42Zm-61-26.7V1984h45.77v-11.44H3248.3Z" transform="translate(-2890.14 -1924.72)"/><path class="cls-2" d="M3324.58,2029.78v-72.46h61l15.26,57.21v15.25h-76.28Zm15.25-15.25h44.81l-11.15-42h-33.66v42Z" transform="translate(-2890.14 -1924.72)"/><path class="cls-2" d="M3492.38,1984v45.77H3416.1v-15.25h61v-15.26h-61v-42h76.28v15.26h-61V1984h61Z" transform="translate(-2890.14 -1924.72)"/></svg>