<svg id="Layer_1" data-name="Layer 1" xmlns="http://www.w3.org/2000/svg" viewBox="0 0 655.72 138.7"><defs><style>.cls-1{fill:#17ce54;}.cls-2{fill:#20e45c;opacity:0.7;}.cls-3{fill:#fff;}</style></defs><title>fte-retail-logo-bar</title><polygon class="cls-1" points="655.72 0 655.72 93.84 610.87 138.7 0 138.7 0 44.85 44.85 0 655.72 0"/><path class="cls-2" d="M4322.78,483.69a9.81,9.81,0,0,1,5.46,1.66h-10.91A9.79,9.79,0,0,1,4322.78,483.69Zm-405.83-137h-9.41A9.81,9.81,0,0,0,3916.95,346.65Zm410.54,0h-9.41A9.81,9.81,0,0,0,4327.49,346.65Zm-237.58,138.7h9.71A10.38,10.38,0,0,0,4089.92,485.35Zm-183.12,0h10.91A9.81,9.81,0,0,0,3906.79,485.35Zm506.27-12.27-3.32,3.32-33.35-33.35H4218.74l23.66,23.66h42.27a6.14,6.14,0,0,1,9.73-4.08l7.48-7.48h18.31l19,19h34.23l11.2,11.2h-2l-9.79-9.79h-32.23l9.79,9.79h-2l-28.79-28.79h-17.14l-7,7h0a6.16,6.16,0,1,1-10.81,4.53h-42.81l-25.07-25.07h-35.67l-22.55-22.55h-15.26l24.27,24.27h9.29l9.57,9.57h20.45a6.13,6.13,0,1,1,.11,1.41h-21.15l-9.57-9.57h-7.29l19.22,19.22h38.06l13.84,13.84h33.49l5.62,5.62h18.51l0.48,0.48h-21.84l-3.75-3.75h-15.31l3.75,3.75h-3.32l-3.75-3.75H4239.1l-13.84-13.84h-38.06l-47.25-47.25h-6.27l52.87,52.87h29.15l8.13,8h0a6.15,6.15,0,0,1,10.08,4h-1.44a4.73,4.73,0,0,0-9.36,0h-1.42a6.13,6.13,0,0,1,1.18-3l-7.74-7.57h-21.6l10.38,10.38v0.19h-1.81l-10.57-10.57H4186l-27.6-27.6v9.53L4178,476.38l0.21,0.21V480a6.15,6.15,0,0,1,5.13,5.38H4182a4.73,4.73,0,0,0-9.36,0h-1.44a6.16,6.16,0,0,1,5.67-5.44v-2.73l-19.69-19.69-0.21-.21V445.76l-15.3-15.3v25L4152.16,466v6.16h0.18a6.19,6.19,0,1,1-1.59.22v-5.78L4140.23,456V443.51l-12.78,12.78v11.1a6.17,6.17,0,1,1-1.41.05V455.7l14.1-14.1,0.09,0.09V429.05l-8.55-8.55h-5.47v5h-17.38v-5h-5.47l-8.55,8.55v12.64l0.09-.09,14.1,14.1v11.74a6.15,6.15,0,1,1-1.41-.05v-11.1l-12.78-12.78V456l-10.53,10.53v5.78a6.14,6.14,0,1,1-1.59-.22h0.18V466l10.53-10.53v-25l-15.3,15.3v11.52l-0.21.21-19.69,19.69v2.73a6.17,6.17,0,0,1,5.67,5.44h-1.44a4.73,4.73,0,0,0-9.36,0h-1.42a6.15,6.15,0,0,1,5.13-5.38v-3.37l0.21-.21,19.69-19.69v-9.53l-27.6,27.6h-5.56l-10.57,10.57h-1.81v-0.19l10.38-10.38h-21.6l-7.74,7.57a6.14,6.14,0,0,1,1.18,3h-1.42a4.73,4.73,0,0,0-9.36,0h-1.44a6.15,6.15,0,0,1,10.07-4h0l8.13-8h29.15l52.87-52.87h-6.27l-47.25,47.25h-38.06l-13.85,13.84h-14.85l-3.75,3.75H3974l3.75-3.75h-15.31l-3.75,3.75h-21.84l0.48-.48h18.51l5.62-5.62H3995l13.84-13.84h38.06l19.22-19.22h-7.29l-9.57,9.57h-21.15a6.18,6.18,0,1,1,.11-1.41h20.45l9.57-9.57h9.29l24.27-24.27h-15.26L4054,443.05h-35.67l-25.07,25.07H3950.4a6.16,6.16,0,1,1-10.81-4.53h0l-7-7h-17.14l-28.79,28.79h-2l9.79-9.79h-32.23l-9.79,9.79h-2l11.2-11.2h34.23l19-19h18.31l7.48,7.48a6.14,6.14,0,0,1,9.73,4.08h42.27l23.66-23.66H3858.65l-35.28,35.28a15.32,15.32,0,0,1,3.1,7h-4.8a10.65,10.65,0,0,0-20.71,0h-4.78a15.33,15.33,0,0,1,23.76-10.23l18-18-3.22-3.22H3804.1a9.84,9.84,0,0,1-14.18,7.66v-2.73a7.52,7.52,0,1,0,0-12.21v-2.73a9.84,9.84,0,0,1,14.18,7.66h31.55l3.91,3.91,17.14-17.14H4052l17.85-17.85h-88.08l-14.57,14.58h-65.8l-14.6-14.6h-79a20.09,20.09,0,0,1-17.87,15.29v-9.47a10.64,10.64,0,0,0,0-21v-9.47a20.09,20.09,0,0,1,17.87,15.29h82.9l14.6,14.6h58l14.58-14.58h92l-17.9-17.9h-52.43l-11.18,11.18H3933.7L3931,407a9.87,9.87,0,1,1-1.44-1.89l3.12-3.12h54.69l8.82-8.83H3873.06a15.35,15.35,0,1,1-27.63-11.28l-5.86-5.86-3.91,3.91H3804.1a9.79,9.79,0,0,1-11.22,8.58l2.29-2.29a7.52,7.52,0,0,0,6.61-6.61l2.29-2.29c0,0.08,0,.16,0,0.25h30.58l3.22-3.22L3822.47,359l3.32-3.32,22.92,22.92h0a15.31,15.31,0,0,1,24.34,9.93h143.23l-23.66-23.66h-42.27a6.14,6.14,0,0,1-9.73,4.08l-7.48,7.48h-18.31l-0.21-.21-18.79-18.79H3861.6l-0.21-.21-10.54-10.54h2l9.33,9.33h32.23l-9.33-9.33h2L3915.41,375h17.14l7-7a6.16,6.16,0,1,1,10.81-4.53h42.81l0.21,0.21,24.86,24.86H4054l22.61,22.61h15.26l-24.32-24.32h-9.29l-9.57-9.57h-20.45a6.13,6.13,0,1,1-.11-1.41h21.15l9.57,9.57h7.29l-19.22-19.22h-38.06L3995,352.3h-33.49l-5.62-5.62h-18.51l0,0h21.84l3.3,3.3h15.31l-3.3-3.3h3.32l3.3,3.3h14.85l13.85,13.84h38.06l47.3,47.3h6.27l-52.92-52.92h-29.15l-8.13-8h0a6.15,6.15,0,0,1-10-3.57h1.46a4.73,4.73,0,0,0,9.19,0h1.45a6.16,6.16,0,0,1-1.12,2.54l7.74,7.57h21.6l-10.12-10.12h2l10.12,10.12h5.56l0.21,0.21,27.4,27.4v-9.52L4056.79,355v-3.37a6.17,6.17,0,0,1-5.09-4.93h1.46a4.73,4.73,0,0,0,9.19,0h1.46a6.17,6.17,0,0,1-5.6,5v2.73l19.89,19.89v11.52l15.3,15.3v-25l-10.53-10.53v-6.16h-0.18a6.19,6.19,0,1,1,1.59-.22V365l10.53,10.53V388l12.78-12.78v-11.1a6.17,6.17,0,1,1,1.41-.05v11.74l-14.1,14.1-0.09-.09v12.64l8.6,8.6h5.42v-5h17.38v5h5.42l8.6-8.6V389.85l-0.09.09-14.1-14.1V364.1a6.15,6.15,0,1,1,1.41.05v11.1L4140.23,388V375.51L4150.75,365v-5.78a6.14,6.14,0,1,1,1.59.22h-0.18v6.16l-10.52,10.53v25l15.3-15.3V374.26l19.89-19.89v-2.73a6.17,6.17,0,0,1-5.6-5h1.46a4.73,4.73,0,0,0,9.19,0h1.46a6.17,6.17,0,0,1-5.09,4.93V355l-19.89,19.89v9.52l27.4-27.4,0.21-.21h5.56l10.12-10.12h2l-10.12,10.12h21.6l7.74-7.57a6.15,6.15,0,0,1-1.12-2.54h1.45a4.73,4.73,0,0,0,9.19,0h1.46a6.15,6.15,0,0,1-10,3.57h0l-8.13,8h-29.15l-52.92,52.92h6.27l47.3-47.3h38.06l13.84-13.84h14.85l3.3-3.3h3.32l-3.3,3.3h15.31l3.3-3.3h21.84l0,0h-18.51l-5.62,5.62h-33.49l-13.84,13.84h-38.06l-19.22,19.22h7.29l9.57-9.57H4207a6.19,6.19,0,1,1-.11,1.41h-20.45l-9.57,9.57h-9.29l-24.32,24.32h15.26l22.61-22.61h35.67l24.86-24.86,0.21-.21h42.81a6.16,6.16,0,1,1,10.81,4.53l7,7h17.14l28.33-28.33h2l-9.33,9.33h32.23l9.33-9.33h2l-10.54,10.54-0.21.21H4339.2l-18.79,18.79-0.21.21h-18.31l-7.48-7.48a6.14,6.14,0,0,1-9.73-4.08H4242.4l-23.66,23.66H4362a15.31,15.31,0,0,1,24.34-9.93h0l25.35-25.35a15.34,15.34,0,0,1-3-6.56h4.83a10.65,10.65,0,0,0,20.48,0h4.83a15.34,15.34,0,0,1-23.69,9.78l-18,18,3.22,3.22h30.58a9.85,9.85,0,0,1,14.72-7.37v2.87a7.52,7.52,0,1,0,0,11.37v2.87a9.85,9.85,0,0,1-14.72-7.37h-31.55l-3.91-3.91-5.86,5.86A15.34,15.34,0,1,1,4362,393.19H4238.78l8.82,8.83h54.69l3.12,3.12A10,10,0,1,1,4304,407l-2.65-2.65h-54.69l-11.18-11.18H4183l-17.9,17.9h92l14.58,14.58h58l14.6-14.6h82.9a20.08,20.08,0,0,1,18.41-15.31v9.41a10.66,10.66,0,0,0,0,21.21v9.41a20.08,20.08,0,0,1-18.41-15.31h-79l-14.6,14.6h-65.8l-14.57-14.58h-88.08L4183,438.35h195.31l17.14,17.14,3.91-3.91h31.55a9.83,9.83,0,0,1,12.06-8.43l-2.09,2.09h-0.17a7.52,7.52,0,0,0-7.52,7.52c0,0.06,0,.12,0,0.17l-2.08,2.08a9.8,9.8,0,0,1-.2-1.08h-30.58l-3.22,3.22ZM4305,412a7.52,7.52,0,1,0,7.52-7.52A7.52,7.52,0,0,0,4305,412Zm61.51-21.17a10.66,10.66,0,1,0,10.66-10.66A10.66,10.66,0,0,0,4366.47,390.84ZM4286,364a4.75,4.75,0,1,0,4.75-4.75A4.75,4.75,0,0,0,4286,364ZM4208.24,377a4.75,4.75,0,1,0,4.75-4.75A4.75,4.75,0,0,0,4208.24,377Zm-55.9-19a4.75,4.75,0,1,0-4.75-4.75A4.75,4.75,0,0,0,4152.34,358ZM4127,362.77a4.75,4.75,0,1,0-4.75-4.75A4.75,4.75,0,0,0,4127,362.77Zm-18.88,0a4.75,4.75,0,1,0-4.75-4.75A4.75,4.75,0,0,0,4108.08,362.77Zm-20.64-9.5a4.75,4.75,0,1,0-4.75,4.75A4.75,4.75,0,0,0,4087.44,353.27ZM4026.79,377a4.75,4.75,0,1,0-4.75,4.75A4.75,4.75,0,0,0,4026.79,377ZM3949,364a4.75,4.75,0,1,0-4.75,4.75A4.75,4.75,0,0,0,3949,364Zm-80.46,26.89a10.66,10.66,0,1,0-10.66,10.66A10.66,10.66,0,0,0,3868.56,390.84ZM3930.07,412a7.52,7.52,0,1,0-7.52,7.52A7.52,7.52,0,0,0,3930.07,412Zm19,55.58a4.75,4.75,0,1,0-4.75,4.75A4.75,4.75,0,0,0,3949,467.59Zm77.77-13.07a4.75,4.75,0,1,0-4.75,4.75A4.75,4.75,0,0,0,4026.79,454.52Zm55.9,19a4.75,4.75,0,1,0,4.75,4.75A4.75,4.75,0,0,0,4082.69,473.53Zm25.39-4.75a4.75,4.75,0,1,0,4.75,4.75A4.75,4.75,0,0,0,4108.08,468.78Zm18.88,0a4.75,4.75,0,1,0,4.75,4.75A4.75,4.75,0,0,0,4127,468.78Zm20.64,9.5a4.75,4.75,0,1,0,4.75-4.75A4.75,4.75,0,0,0,4147.59,478.28Zm60.65-23.76a4.75,4.75,0,1,0,4.75-4.75A4.75,4.75,0,0,0,4208.24,454.52ZM4286,467.59a4.75,4.75,0,1,0,4.75-4.75A4.75,4.75,0,0,0,4286,467.59Z" transform="translate(-3789.92 -346.65)"/><rect class="cls-3" x="163.07" y="23.42" width="22.71" height="90.92"/><path class="cls-3" d="M3851.17,370.07h90.46V426.9h-34.09v11.36h34.09V461h-56.82V404.17h34.09V392.8h-45.46V461h-22.73Zm192.75,0V392.8H3953V370.07h90.92Zm0,68.19V461H3953V438.26h90.92ZM4112.1,461h-22.73V392.8h-34.09V370.07h90.92V392.8H4112.1V461Zm45.46-68.19V370.07h90.92V392.8h-90.92ZM4248.48,461h-22.73V426.9h-45.46V461h-22.73V404.17h90.92V461Zm34.09-90.92V461h-22.73V370.07h22.73ZM4293.94,461V370.07h22.73v68.19h68.19V461h-90.92Zm-250-56.82H3953V426.9h90.95V404.17Z" transform="translate(-3789.92 -346.65)"/></svg>