<svg id="Layer_1" data-name="Layer 1" xmlns="http://www.w3.org/2000/svg" xmlns:xlink="http://www.w3.org/1999/xlink" viewBox="0 0 453.42 258.2"><defs><style>.cls-1{fill:url(#linear-gradient);}.cls-2{fill:#3eb8a7;}.cls-3{fill:none;}</style><linearGradient id="linear-gradient" x1="214.84" y1="150.44" x2="341.77" y2="277.38" gradientUnits="userSpaceOnUse"><stop offset="0" stop-color="#3eb8a7" stop-opacity="0"/><stop offset="0.2" stop-color="#3eb8a7" stop-opacity="0.02"/><stop offset="0.41" stop-color="#3eb8a7" stop-opacity="0.09"/><stop offset="0.63" stop-color="#3eb8a7" stop-opacity="0.2"/><stop offset="0.84" stop-color="#3eb8a7" stop-opacity="0.36"/><stop offset="1" stop-color="#3eb8a7" stop-opacity="0.5"/></linearGradient></defs><title>fte-otg-icon-r</title><path class="cls-1" d="M156.27,261.8a4.45,4.45,0,0,1,2.46-1.08q22.3-6,44.61-12c1.25-.33,2-0.63,2.07-2.28,0.06-1.81,1.64-3.05,2.88-4.28,2.58-2.55,2.76-1.73.85-5.32L189,198.92c-0.24-.45-0.49-0.9-0.7-1.36-0.52-1.11-.23-1.64,1.08-1.77l54.25-17.91a9,9,0,0,0,.71,2.2c0.25,0.55.54,1.09,0.83,1.62l0.19,0.35,17,31.93,8,15.14h0l-0.57.55c-1.41,1.34-3.59,3.43-4.39,6.51-16.35,4.36-34.07,9.12-54.12,14.53l-0.32.07a9.92,9.92,0,0,0-5.31,2.77l-5,5.12a6.61,6.61,0,0,1-1.07-.13l-20,1.5-2.38.45a6.68,6.68,0,0,1-3,0l0,0-13.11,1-1.95.37A6.26,6.26,0,0,1,156.27,261.8ZM481.13,138h0ZM371.78,200.26l51.06-9.13a2.91,2.91,0,0,0,1.71-1c10.33-10.28,20.36-21.17,29.8-32.35a113.87,113.87,0,0,0,14-21.18,4.54,4.54,0,0,0,.34-4.1l-0.06-.14a10.05,10.05,0,0,1-.73-2.78L370,157.15a1.35,1.35,0,0,0-1,.27c-0.75.55-.32,1.39-0.06,2a8.21,8.21,0,0,1-.45,7.09,96,96,0,0,1-11.82,17.89q-9.63,11.41-20.09,22.1Zm-35.35,66.31h0ZM75.85,289.92q0.67,0.26,1.36.48-0.68-.22-1.36-0.48l-0.36-.12Zm211.48,15.77c-5-4.65-7.18-11.24-6.22-18.67-1.51-1.56-3.06-3.22-4.62-5-8.1,1.34-16.86,2.74-27.52,4.39-10.16,1.58-20.46,3-30.6,4.3a11.47,11.47,0,0,0,3.52,6.48,27.17,27.17,0,0,0,14.18,7.11v0l0.34,0a29.73,29.73,0,0,0,5,.39l49.38,3.79A43.69,43.69,0,0,1,287.32,305.69Zm-137-22.27c8.21-.61,16.61-1.73,24.74-2.81l4-.53c24.63-3.24,49.9-7.5,77.27-13,11.14-2.24,21.47-4.51,31.26-6.86a148.87,148.87,0,0,1-12.78-8.71,0.85,0.85,0,0,0-.66-0.25,4.51,4.51,0,0,0-.56,0c-14.69,1.9-29.47,5.32-43.76,8.63l-2.6.6c-1.21.28-2.42,0.53-3.64,0.78a39.42,39.42,0,0,0,8.27,3.3,0.44,0.44,0,0,1,.4.49,2.56,2.56,0,0,1-1.66.66c-11.88,3.11-23.85,5.79-35.88,8.21-20.72,4.17-41.54,7.75-62.49,10.51l-0.65.09C137.25,284.31,143.44,283.93,150.28,283.42Z" transform="translate(-72.59 -103.8)"/><g id="Dreamliner"><path class="cls-2" d="M311.22,270.45c2.31,0.69,4.75.45,7.09,0.91,3.82,0.75,7.66,1.6,10.83,4,6.36,4.79,7.92,11.52,7.31,19-0.8,9.83-8.78,15.52-17.41,16.36-10.58,1-20.05-1.91-27.85-9.19-4-3.74-5.22-8.79-4.42-14.19a4.28,4.28,0,0,0-1.31-4q-2.67-2.72-5.2-5.58a4.33,4.33,0,0,0-4.36-1.38q-13.89,2.3-27.8,4.44c-16.25,2.52-32.56,4.55-48.86,6.66-15.83,2.05-31.74,3.19-47.63,4.42a386.21,386.21,0,0,1-44.67.8c-6.63-.26-13.28,0-19.9-0.63a41.26,41.26,0,0,1-11.18-2.2c-0.69-.27-1.55-0.31-2-1.15,0.48-.89,1.29-0.51,1.86-0.36,12.92,3.43,26.08,2.21,39.19,2.2,11.94,0,23.86-.66,35.75-1.55,9.7-.72,19.36-2.1,29-3.37,26-3.43,51.9-7.89,77.64-13.06,14.94-3,29.83-6.34,44.58-10.2,0.72-.19,1.56-0.15,2.06-0.81a0.54,0.54,0,0,0-.5-0.61c-9.65-2.56-17.55-8.28-25.41-14.06a6.72,6.72,0,0,0-5.3-1.26c-15.85,2.05-31.36,5.74-46.9,9.32-4.19,1-8.44,1.71-12.66,2.53a7.78,7.78,0,0,1-3.54,0,5.52,5.52,0,0,1,3.06-1.34q27.71-7.47,55.43-14.88c1.55-.41,2.51-0.79,2.57-2.83,0.07-2.25,2-3.79,3.58-5.32,3.2-3.17,3.43-2.15,1.06-6.61l-25-47.14c-0.3-.56-0.61-1.12-0.88-1.69-0.64-1.38-.29-2,1.34-2.2,2.91-.28,4.69,1.24,6.4,3.32q14.31,17.45,28.75,34.78a55.88,55.88,0,0,0,5,5.2,7.2,7.2,0,0,0,7.34,1.47,131.49,131.49,0,0,1,14.79-3.65,6.34,6.34,0,0,0,2.46-1.2c2.14-1.49,4.27-3,6.43-4.48a3.44,3.44,0,0,1,3.28-.79c-0.27,2.08-2.6,2.48-3.33,4.17,0.7,0.86,1.59.3,2.32,0.17q49.81-8.89,99.61-17.82a8.5,8.5,0,0,0,4.71-2.55q15.78-15.7,30.13-32.72a119.27,119.27,0,0,0,14.69-22.23,10.21,10.21,0,0,0,.56-8.81c-0.33-.81-0.86-1.85.08-2.54s2-.19,2.92.46c3.25,2.43,4.89,5.55,4.21,9.72a37.42,37.42,0,0,1-2.43,8.51,216.1,216.1,0,0,1-24.32,43.54c-0.25.34-.48,0.7-0.71,1.05-0.81,1.24-.42,1.82,1,1.85,2.4,0,4.81,0,7.2.16a74.29,74.29,0,0,1,27.37,6.77,30.6,30.6,0,0,1,5.69,3.66c7.46,5.8,15.31,11.15,21.62,18.31a44.57,44.57,0,0,1,5.65,7.9c3.89,7,1.08,12.08-4.37,16.34-3.94,3.08-8.65,4.8-13.35,6.3A166.2,166.2,0,0,1,464.86,260c-18.48,1.25-37,1.35-55.47,1.19-4.72,0-9,1.47-13.49,2.42-19.67,4.21-39.53,4.39-59.45,3-6-.42-11.58,1.36-17.36,2-2.63.3-5.22,0.87-7.83,1.32Z" transform="translate(-72.59 -103.8)"/></g><rect class="cls-3" width="453.42" height="258.2"/></svg>