<svg id="Layer_1" data-name="Layer 1" xmlns="http://www.w3.org/2000/svg" xmlns:xlink="http://www.w3.org/1999/xlink" viewBox="0 0 655.72 374.85"><defs><style>.cls-1{fill:#0d628d;}.cls-2{fill:#ff8798;}.cls-11,.cls-3{fill:#fff;}.cls-4{fill:none;stroke:#00e6b1;stroke-miterlimit:10;stroke-width:3px;}.cls-10,.cls-5,.cls-6,.cls-7,.cls-8,.cls-9{fill-rule:evenodd;}.cls-5{fill:url(#linear-gradient);}.cls-6{fill:url(#linear-gradient-2);}.cls-7{fill:url(#linear-gradient-3);}.cls-8{fill:url(#linear-gradient-4);}.cls-9{fill:url(#linear-gradient-5);}.cls-10{fill:url(#linear-gradient-6);}.cls-11{opacity:0.6;}.cls-12{fill:#f89;}.cls-13{fill:#00e7b2;}</style><linearGradient id="linear-gradient" x1="1929.46" y1="2162.43" x2="2539.56" y2="2162.43" gradientUnits="userSpaceOnUse"><stop offset="0" stop-color="#1d1e1c" stop-opacity="0"/><stop offset="0.42" stop-color="#1d1e1c" stop-opacity="0.14"/><stop offset="0.85" stop-color="#1d1e1c" stop-opacity="0.55"/><stop offset="1" stop-color="#1d1e1c" stop-opacity="0.75"/></linearGradient><linearGradient id="linear-gradient-2" x1="2009.33" y1="2103.68" x2="2423.97" y2="2103.68" xlink:href="#linear-gradient"/><linearGradient id="linear-gradient-3" x1="2009.33" y1="2108.45" x2="2423.97" y2="2108.45" xlink:href="#linear-gradient"/><linearGradient id="linear-gradient-4" x1="2009.33" y1="2103.89" x2="2423.97" y2="2103.89" xlink:href="#linear-gradient"/><linearGradient id="linear-gradient-5" x1="2009.33" y1="2118.06" x2="2423.97" y2="2118.06" xlink:href="#linear-gradient"/><linearGradient id="linear-gradient-6" x1="2009.33" y1="2103.91" x2="2423.97" y2="2103.91" xlink:href="#linear-gradient"/></defs><title>fte-terminal-full-logo</title><polygon class="cls-1" points="655.72 236.15 655.72 330 610.87 374.85 0 374.85 0 281 44.85 236.15 655.72 236.15"/><path class="cls-2" d="M2116.58,2222.42h-14.25v26.72h-7.13v-26.72H2081v-7.13h35.63v7.13Z" transform="translate(-1944.14 -1961.7)"/><path class="cls-2" d="M2140.4,2234.89V2242h28.5v7.13h-35.63v-33.85h35.63v7.13h-28.5v5.34h28.5v7.13h-28.5Z" transform="translate(-1944.14 -1961.7)"/><path class="cls-2" d="M2221.24,2234.89h-7.13l7.13,14.25h-8.46l-7.12-14.25h-12.92v14.25h-7.12v-33.85h35.63v19.6Zm-28.5-12.47v5.34h21.38v-5.34h-21.38Z" transform="translate(-1944.14 -1961.7)"/><path class="cls-2" d="M2273.56,2249.14v-19l-10.69,19h-7.12l-10.69-19v19h-7.12v-33.85h7.12l14.25,26.19,14.25-26.19h7.12v33.85h-7.12Z" transform="translate(-1944.14 -1961.7)"/><path class="cls-2" d="M2304.51,2249.14h-7.12v-33.85h7.12v33.85Z" transform="translate(-1944.14 -1961.7)"/><path class="cls-2" d="M2356.84,2249.14h-7.13l-21.38-23.6v23.6h-7.12v-33.85h7.12l21.38,23.6v-23.6h7.13v33.85Z" transform="translate(-1944.14 -1961.7)"/><path class="cls-2" d="M2373.54,2215.29h35.63v33.85H2402v-14.25h-21.38v14.25h-7.12v-33.85Zm7.12,7.13v5.34H2402v-5.34h-21.38Z" transform="translate(-1944.14 -1961.7)"/><path class="cls-2" d="M2425.87,2249.14v-33.85H2433V2242h28.5v7.13h-35.63Z" transform="translate(-1944.14 -1961.7)"/><path class="cls-3" d="M2025.93,2318.24v-52.62h44.31l11.08,41.54v11.08h-55.39Zm11.08-11.08h32.54l-8.1-30.46H2037v30.46Z" transform="translate(-1944.14 -1961.7)"/><path class="cls-3" d="M2133.25,2296.09v11.08h44.31v11.08h-55.39v-52.62h55.39v11.08h-44.31V2285h44.31v11.08h-44.31Z" transform="translate(-1944.14 -1961.7)"/><path class="cls-3" d="M2273.79,2285v33.23H2218.4v-11.08h44.31v-11.08H2218.4v-30.46h55.39v11.08h-44.31V2285h44.31Z" transform="translate(-1944.14 -1961.7)"/><path class="cls-3" d="M2325.71,2318.24h-11.08v-52.62h11.08v52.62Z" transform="translate(-1944.14 -1961.7)"/><path class="cls-3" d="M2377.64,2276.7v30.46h33.23v-11.08h-22.16V2285h33.23v33.23h-55.39v-52.62h55.39v11.08h-44.31Z" transform="translate(-1944.14 -1961.7)"/><path class="cls-3" d="M2518.18,2318.24h-11.08l-33.23-36.69v36.69H2462.8v-52.62h11.08l33.23,36.69v-36.69h11.08v52.62Z" transform="translate(-1944.14 -1961.7)"/><polyline class="cls-4" points="83.14 287.43 83.14 269.9 125.41 269.9"/><polyline class="cls-4" points="572.72 287.43 572.72 269.9 530.22 269.9"/><path class="cls-5" d="M2479.1,2162.47a2.08,2.08,0,0,1,.55-0.08h-0.11A2.06,2.06,0,0,0,2479.1,2162.47Z" transform="translate(-1944.14 -1961.7)"/><path class="cls-6" d="M2337.3,2103.68h0Z" transform="translate(-1944.14 -1961.7)"/><path class="cls-7" d="M2330.19,2108.41h0a1.63,1.63,0,0,0-.53.1A1.63,1.63,0,0,1,2330.19,2108.41Z" transform="translate(-1944.14 -1961.7)"/><path class="cls-8" d="M2346.81,2103.89a8,8,0,0,1,1,0c-0.26,0-.51,0-0.76,0Z" transform="translate(-1944.14 -1961.7)"/><path class="cls-9" d="M2361.46,2119h0l-1.61-1.94Z" transform="translate(-1944.14 -1961.7)"/><path class="cls-10" d="M2342.12,2103.92h0Z" transform="translate(-1944.14 -1961.7)"/><path class="cls-11" d="M2277.38,2010.72a1.94,1.94,0,0,0,.46-0.11Z" transform="translate(-1944.14 -1961.7)"/><path class="cls-11" d="M2276.56,2010.92l-1.87.46,0.87,0,0.75-.18A0.9,0.9,0,0,1,2276.56,2010.92Z" transform="translate(-1944.14 -1961.7)"/><path class="cls-12" d="M2413.59,2092.85l-0.42-.39a1.06,1.06,0,0,0-.14-0.18,1,1,0,0,0-1.41-.06c-1.21-.9-3.2-2.55-6.51-5.59-4.29-3.94-9.72-9.2-15-14.3l-4.85-4.7a1.23,1.23,0,0,0,.19-0.69c0-1.43-3.1-4.39-14.38-14.6l-3-2.74,2.54,2.25c3.5,3.11,7.12,6.32,9.89,8.62,1.51,1.25,2.65,2.14,3.5,2.72s2.08,1.42,2.94.57a1.22,1.22,0,0,0,.35-0.9c0-1.22-2.26-3.56-9.85-10.51,2.27,2,4.43,3.95,6.25,5.48,4.34,3.66,5.85,4.64,6.85,3.64a1.23,1.23,0,0,0,.36-0.91c0-.91-1-2.22-5.65-6.68,0.82,0.73,1.61,1.42,2.34,2.06,1.79,1.54,3.14,2.64,4.15,3.35s2.35,1.67,3.26.76a1.25,1.25,0,0,0,.36-0.93c0-1-1.49-2.79-5.66-6.79l0.88,0.77c4.88,4.25,6.68,5.49,7.77,4.4a1.26,1.26,0,0,0,.36-0.94c0-1-1.18-2.58-6.72-7.83l0.76,0.67c5,4.35,6.81,5.61,7.9,4.52a1.27,1.27,0,0,0,.37-0.94,1.55,1.55,0,0,0-.06-0.37,1.34,1.34,0,0,0,.19-0.73c0-1.23-2.1-3.67-7.78-9.07,1.21,1,2.21,1.84,3,2.43,1.36,1,2.75,1.89,3.66,1a1.3,1.3,0,0,0,.37-1c0-.84-0.56-2.09-6.82-8.1l-1.09-1c1.52,1.32,2.73,2.3,3.67,3,1.32,1,2.69,1.83,3.58.94a1.28,1.28,0,0,0,.37-1c0-1.24-1.7-3.31-10.46-11.43l1.84,1.63c5,4.4,6.87,5.67,8,4.57a1.27,1.27,0,0,0,.37-0.94c0-1.26-2.24-3.74-8.91-9.94l1.46,1.29c4.93,4.31,6.76,5.56,7.85,4.47a1.26,1.26,0,0,0,.36-0.94c0-1.7-4.14-5.66-18.23-18.41-4.23-3.83-8.6-7.78-11.9-10.93l-0.39-.37c3.37,3,7.51,6.79,11,10,4.21,3.89,8.56,7.91,11.88,10.78,1.81,1.56,3.18,2.67,4.2,3.4s2.37,1.69,3.29.77a1.25,1.25,0,0,0,.36-0.92c0-1.61-3.87-5.32-17-17.23-5.77-5.22-13.38-12.1-15.7-14.88l1.26,0c3,0.1,3.3.1,3.71-.31a1.07,1.07,0,0,0,.31-0.78,1.09,1.09,0,0,0-.05-0.33,1,1,0,0,0,1.57-.92,1.4,1.4,0,0,0-.64-1l-0.16-.14-0.1-.11a1.58,1.58,0,0,0,1.15-.2c0,1.21,2,3.18,12.12,12.37l1.56,1.41-1-.86c-3-2.51-6-5.1-8.36-7-1.28-1-2.25-1.73-3-2.2s-1.86-1.21-2.66-.42a1.2,1.2,0,0,0-.35.89c0,1.26,2.23,3.49,13,13.28,4.85,4.38,11.42,10.34,12.31,11.83a1,1,0,0,0,1.78.79,1.2,1.2,0,0,0,.35-0.89c0-1.26-2.23-3.49-13-13.28l-3.79-3.44,2.33,2c3,2.51,6,5.11,8.36,7,1.28,1,2.25,1.73,3,2.2s1.86,1.21,2.66.42a1.18,1.18,0,0,0,.34-0.88c0-.82-0.91-2-4.66-5.53,0.77,0.61,1.41,1.09,1.94,1.45,0.78,0.53,2.07,1.41,2.92.56a1.23,1.23,0,0,0,.36-0.91c0-1.35-2.11-3.61-15.76-16-2.33-2.11-5-4.52-7.42-6.77,1.94,1.7,4,3.49,5.75,5.09,3.55,3.16,7.21,6.42,10,8.75,1.52,1.27,2.68,2.17,3.54,2.76s2.1,1.44,3,.58a1.23,1.23,0,0,0,.36-0.91c0-1.36-2.12-3.64-15.88-16.08-3.79-3.43-8.43-7.63-11.59-10.71l3.2,2.3c2,1.43,4,2.92,5.61,4,2.17,1.46,3.34,2.18,4.14,1.38a1.12,1.12,0,0,0,.33-0.83c0-.87-0.67-1.64-7.52-7.83l-1.21-1.1,0.45,0.31c1.82,1.25,3.7,2.54,5.13,3.46,2,1.29,3.11,1.93,3.88,1.16a1.1,1.1,0,0,0,.32-0.82c0-.76-0.49-1.33-5.85-6.19l-2.39-2.17,0.56,0.25c4.56,2,5.26,2.31,5.94,1.63a1.08,1.08,0,0,0,.31-0.78c0-.59-0.32-0.86-2-2.37-0.47-.42-1.15-1-1.39-1.3a1,1,0,0,0-1.68-.3,1.08,1.08,0,0,0-.31.78,1,1,0,0,0,.14.53l-0.18-.08c-4.56-2-5.26-2.31-5.94-1.62a1.1,1.1,0,0,0-.32.82c0,0.7.42,1.24,4.69,5.13-1.74-1.19-3.51-2.41-4.88-3.28-2-1.29-3.11-1.93-3.88-1.16a1.12,1.12,0,0,0-.33.83c0,0.87.67,1.64,7.52,7.83l0.21,0.19-0.15-.11c-2-1.43-4-2.92-5.61-4-2.17-1.46-3.34-2.18-4.14-1.38a1.23,1.23,0,0,0-.36.91c0,1.36,2.12,3.64,15.88,16.08,2.43,2.2,5.21,4.71,7.73,7-2-1.75-4.08-3.6-5.93-5.25-3.55-3.16-7.21-6.42-10-8.75-1.52-1.27-2.68-2.17-3.54-2.76s-2.1-1.44-3-.58a1.23,1.23,0,0,0-.36.91c0,1.35,2.11,3.61,15.76,16,2.4,2.17,5.15,4.66,7.65,7-1.92-1.67-3.91-3.43-5.68-5-3.48-3.08-7.07-6.27-9.82-8.54-1.5-1.24-2.63-2.12-3.48-2.69s-2.08-1.41-2.92-.56a1.07,1.07,0,0,0-.31.78c0,0.58.26,0.83,2.19,2.58l-0.35,0c-3.18-.38-3.59-0.43-4.06,0a1.07,1.07,0,0,0-.31.78c0,0.59.29,0.87,2.44,2.81l0.33,0.3h-0.44c-3-.1-3.3-0.1-3.71.31a1.25,1.25,0,0,0-.36.92c0,1.16,2,3.4,8,9-1-.87-1.9-1.69-2.75-2.42-1.81-1.56-3.18-2.67-4.2-3.4s-2.37-1.69-3.29-.77a1.26,1.26,0,0,0-.36.94c0,1.09,1.73,3.11,6.67,7.79l-0.75-.66c-4.93-4.31-6.76-5.56-7.85-4.47a1.27,1.27,0,0,0-.37.94c0,1.15,1.86,3.3,7.23,8.37l-0.38-.34c-5-4.4-6.87-5.67-8-4.57a1.28,1.28,0,0,0-.37,1c0,1,1,2.41,5.49,6.74-1.5-1.3-2.69-2.27-3.62-2.95-1.32-1-2.69-1.83-3.58-.94a1.3,1.3,0,0,0-.37,1c0,0.79.5,2,5.82,7.14-1.16-1-2.11-1.76-2.89-2.33-1.36-1-2.75-1.89-3.66-1a1.31,1.31,0,0,0-.38,1c0,1.12,1.74,3.24,6.32,7.67,0.2,1.1,1.74,3,7.75,8.62l-1-.9c-5-4.35-6.81-5.61-7.9-4.52a1.26,1.26,0,0,0-.36.94c0,1.1,1.4,2.88,8.4,9.41l-1.79-1.58c-4.88-4.25-6.69-5.49-7.77-4.4a1.25,1.25,0,0,0-.36.93c0,1.64,4,5.44,17.48,17.66,3.4,3.08,7.43,6.72,10.69,9.81-3.15-2.78-6.82-6.17-9.93-9-4.16-3.84-8.47-7.81-11.75-10.64-1.79-1.54-3.14-2.64-4.15-3.35s-2.35-1.67-3.26-.76a1.23,1.23,0,0,0-.36.91c0,1.36,2.12,3.64,15.89,16.09,2.18,2,4.65,4.2,6.95,6.33-2.08-1.85-4.23-3.79-6.15-5.53-3.78-3.42-7.69-7-10.68-9.47-4.34-3.66-5.85-4.64-6.85-3.64a1.22,1.22,0,0,0-.35.9c0,1.45,3.16,4.48,14.68,14.9l4.32,3.92-3.53-3.13c-3.5-3.11-7.12-6.32-9.89-8.62-1.51-1.25-2.65-2.14-3.5-2.72s-2.08-1.42-2.94-.57a1.21,1.21,0,0,0-.35.9c0,1.29,2.53,3.83,11.31,11.82l-0.38-.16c-2-1.73-3.86-3.35-5.45-4.66s-2.6-2.09-3.43-2.65-2.06-1.4-2.9-.55a1.07,1.07,0,0,0-.31.78c0,0.6.3,0.89,2.56,2.93,0.66,0.6,1.63,1.47,1.94,1.82a1,1,0,0,0,1.71.35,1.06,1.06,0,0,0,.16-0.21c1.16,1,2.43,2.07,3.71,3.19a1.44,1.44,0,0,0,0,.24c0,1,1.15,2.68,5.88,7.3q-0.83-.68-1.5-1.18c-1.51-1.12-2.94-2-3.88-1.1a1.31,1.31,0,0,0-.38,1c0,1.07,1.59,3.06,5.73,7.11-0.8-.67-1.5-1.23-2.1-1.67-1.4-1-2.85-2-3.77-1a1.31,1.31,0,0,0-.38,1c0,0.81.51,2,6,7.31-1-.84-1.83-1.51-2.52-2-1.37-1-2.79-1.92-3.71-1a1.14,1.14,0,0,0-.33.85c0,1,1.37,2.39,9,9.3l1.86,1.68-0.74-.55c-2.09-1.55-4.25-3.15-5.9-4.28-2.5-1.72-3.51-2.3-4.3-1.51a1.14,1.14,0,0,0-.33.84c0,0.93.83,1.87,8.69,9l2,1.84-0.75-.54c-2-1.42-4-2.88-5.56-3.93-2.16-1.44-3.32-2.16-4.12-1.36a1.14,1.14,0,0,0-.33.85c0,1,1.36,2.38,8.94,9.23l2.35,2.14-0.86-.62c-2-1.43-4-2.9-5.59-4-2.16-1.45-3.33-2.17-4.13-1.37a1.14,1.14,0,0,0-.33.84c0,0.94.84,1.89,8.8,9.09l2.65,2.4-0.9-.63c-1.89-1.32-3.83-2.69-5.32-3.66-2.08-1.36-3.2-2-4-1.25a1.13,1.13,0,0,0-.33.84c0,1,1.17,2.14,8.17,8.47l2.64,2.4-0.81-.54c-1.71-1.13-3.49-2.31-4.84-3.14-1.93-1.19-3-1.77-3.71-1a1.12,1.12,0,0,0-.33.83c0,0.86.67,1.63,7.49,7.8l2.94,2.68-0.76-.44c-1.46-.86-3-1.74-4.13-2.37-1.56-.84-2.59-1.4-3.3-0.69a1.09,1.09,0,0,0-.32.81c0,0.69.36,1.13,4.55,4.92l-0.06,0c-1.43-.82-2.91-1.67-4-2.27-1.53-.81-2.54-1.35-3.25-0.65a1.08,1.08,0,0,0-.31.79c0,0.54.21,0.83,2.15,2.6l0,0c-4.52-2-5.22-2.26-5.9-1.58a1.07,1.07,0,0,0-.31.78c0,0.46.18,0.74,1.31,1.78l-0.06,0c-4.15-1.53-4.78-1.76-5.42-1.13a1.07,1.07,0,0,0-.31.77c0,0.53.28,0.77,1.38,1.77,0.27,0.24.65,0.59,0.81,0.76a1,1,0,0,0,1.65.24,1.07,1.07,0,0,0,.31-0.76l0.85,0.31c4.15,1.53,4.78,1.76,5.42,1.13a1.07,1.07,0,0,0,.31-0.78,1.87,1.87,0,0,0-.84-1.34c4.5,1.95,5.19,2.25,5.87,1.57a1.08,1.08,0,0,0,.31-0.79,1.65,1.65,0,0,0-.68-1.2c1.35,0.78,2.73,1.57,3.8,2.13a6.34,6.34,0,0,0,2.46,1,1.07,1.07,0,0,0,.79-0.33,1.09,1.09,0,0,0,.32-0.81c0-.68-0.35-1.12-4.38-4.77h0c1.46,0.86,3,1.74,4.13,2.37,1.56,0.84,2.59,1.4,3.3.69a1.12,1.12,0,0,0,.33-0.83c0-.86-0.67-1.63-7.49-7.8l-1.72-1.56,0.57,0.38c1.71,1.13,3.49,2.31,4.84,3.14,1.93,1.19,3,1.77,3.71,1a1.13,1.13,0,0,0,.33-0.84c0-1-1.17-2.14-8.17-8.47l-1.76-1.59,0.63,0.45c1.89,1.32,3.83,2.69,5.32,3.66,2.08,1.36,3.2,2,4,1.25a1.14,1.14,0,0,0,.33-0.84c0-.94-0.84-1.89-8.8-9.09l-2.15-1.95,0.79,0.57c2,1.43,4,2.9,5.59,4,2.16,1.45,3.33,2.17,4.13,1.37a1.14,1.14,0,0,0,.33-0.85c0-1-1.36-2.38-8.94-9.23l-2.4-2.17,0.86,0.62c2,1.42,4,2.88,5.56,3.93,2.16,1.44,3.32,2.16,4.12,1.36a1.14,1.14,0,0,0,.33-0.84c0-.93-0.83-1.87-8.69-9l-1.36-1.23,0.56,0.42c2.09,1.55,4.25,3.15,5.9,4.28,2.5,1.72,3.51,2.3,4.3,1.51a1.14,1.14,0,0,0,.33-0.85,1.16,1.16,0,0,0,0-.2l2.58,2.46c5.07,4.85,10.32,9.86,14.32,13.43l1,0.88s0,0.05,0,.08c0,0.62.34,0.95,2.85,3.22l1.1,1-0.59.07c-2.59.3-2.84,0.34-3.18,0.68a1.07,1.07,0,0,0-.31.77c0,0.55.28,0.79,1.55,1.93,0.32,0.29.78,0.71,1,.91a1,1,0,0,0,1.66.26,1.07,1.07,0,0,0,.31-0.77c0-.5-0.23-0.74-1.23-1.65l0.48-.06c2.59-.3,2.84-0.34,3.18-0.68a1.08,1.08,0,0,0,.31-0.79,1.18,1.18,0,0,0,0-.26,1.23,1.23,0,0,0,.71-0.36,1.31,1.31,0,0,0,.38-1c0-.74-0.43-1.79-4.66-6,0.88,0.74,1.63,1.34,2.27,1.81,1.4,1,2.84,2,3.77,1a1.31,1.31,0,0,0,.38-1c0-.87-1.07-2.36-3.68-5.06,0.7,0.58,1.32,1.07,1.86,1.48,1.51,1.12,2.94,2,3.88,1.1a1.33,1.33,0,0,0,.38-1c0-.87-0.82-2.16-3.86-5.29q0.69,0.56,1.27,1c1.55,1.16,3,2.12,4,1.16a1.06,1.06,0,0,0,.31-0.77C2414.52,2093.69,2414.27,2093.46,2413.59,2092.85Zm-31.26-86.44c3.06,2.77,6.64,6,9.67,8.85-3.06-2.73-6.55-6-9.54-8.71l-0.82-.76Zm0.45-42.83a1,1,0,0,1-.09.17A1,1,0,0,0,2382.77,1963.58Zm-11.62,22.51,1.43,0.17-0.14.12a1,1,0,0,0-.3.76,1.14,1.14,0,0,0,0,.16l-1.29-1.18-0.08-.07Zm22.14,61c-3.39-3-7.67-7-11.81-10.89l-2.2-2.06,1.55,1.41c4.37,3.95,8.88,8,12.28,11.28l1.15,1.11Zm1.68-5.65c-0.84-.71-1.84-1.59-3-2.67-3.77-3.4-8.53-7.93-13.14-12.32l-1.81-1.72,0.95,0.86c4.93,4.46,10,9.07,13.86,12.74C2393.1,2039.57,2394.14,2040.6,2395,2041.45Zm-3.11-8.88c0.87,0.83,1.62,1.56,2.26,2.2-0.65-.56-1.4-1.22-2.24-2-3.64-3.27-8.24-7.62-12.69-11.84l-0.89-.84,0.51,0.46C2383.47,2024.79,2388.26,2029.13,2391.87,2032.58Zm0-5.86,1.37,1.32-1.19-1c-3.43-3-7.75-7.1-11.94-11l-2.11-2,1.44,1.3C2383.85,2019.3,2388.42,2023.43,2391.86,2026.72Zm-10.9-15.78c4.23,3.83,8.6,7.78,11.9,10.93l0.56,0.54-0.49-.43c-3.36-3-7.6-6.94-11.71-10.77l-0.95-.89Zm-13.87-9.87,1,0.89c3.36,3,7.6,6.94,11.71,10.77l3.66,3.41-2.63-2.38c-4.42-4-9-8.13-12.43-11.42Zm-0.35,5.4c3.43,3,7.75,7.1,11.94,11l5.33,5-3.78-3.43c-4.64-4.2-9.43-8.53-13-12-0.8-.76-1.5-1.44-2.1-2Zm-4.35,1.81c0.76,0.65,1.65,1.43,2.7,2.36,3.64,3.27,8.24,7.62,12.69,11.84l3.65,3.46-2.09-1.89c-4.93-4.46-10-9.07-13.86-12.74C2364.22,2010.12,2363.21,2009.12,2362.38,2008.29Zm1.84,7.37c3.77,3.4,8.53,7.93,13.14,12.32l3.76,3.58-2-1.79c-5.16-4.67-10.49-9.49-14.5-13.32l-0.66-.63-0.11-.13-0.17-.13c-1.14-1.1-2.07-2-2.81-2.8C2361.8,2013.5,2362.89,2014.45,2364.23,2015.65Zm4.07,11.31-0.76-.73,0.7,0.62c3.39,3,7.67,7,11.81,10.89l0.92,0.86-0.67-.6C2376,2034.14,2371.63,2030.15,2368.3,2027Zm-1.18,4.63c3.15,2.81,6.87,6.26,10.14,9.31C2374,2037.93,2370.21,2034.51,2367.13,2031.59Zm12.44,8.6-2.41-2.25,1.76,1.6c4.27,3.86,8.68,7.86,12,11l0.64,0.62C2388,2048,2383.37,2043.75,2379.56,2040.2Zm9.93,34.42-0.27-.24c-4.57-4.13-9.26-8.38-13.18-12,1,0.84,1.9,1.62,2.74,2.32s1.61,1.31,2.25,1.79c2.49,2.39,5.09,4.91,7.65,7.4Zm-20.31-13.16c1.09,0.91,2.5,2.14,4.32,3.8,4.12,3.76,9.33,8.78,14.36,13.64l0.34,0.33-0.14-.13c-5.24-4.74-10.66-9.65-14.73-13.54C2371.52,2063.84,2370.17,2062.49,2369.18,2061.46Zm3.45,9.27c-1.56-1.49-2.76-2.69-3.69-3.64,1,0.82,2.19,1.88,3.7,3.26,3.94,3.58,8.93,8.36,13.75,13l1,1-0.45-.41C2381.84,2079.26,2376.58,2074.5,2372.63,2070.73Zm14,15.78-2.12-2,1,0.93c5.09,4.6,10.35,9.36,14.3,13.14,1.52,1.46,2.7,2.63,3.62,3.57-0.92-.78-2-1.76-3.43-3C2396.18,2095.63,2391.32,2091,2386.63,2086.51Zm15,8.29c-3.94-3.58-8.93-8.36-13.75-13l-2.1-2,0.94,0.85c5.24,4.74,10.66,9.65,14.73,13.54,1.75,1.67,3.06,3,4,4C2404.44,2097.35,2403.17,2096.25,2401.58,2094.8Zm2.09-3.75c-4.12-3.76-9.33-8.78-14.36-13.64l-2.39-2.3,0.9,0.82c5.56,5,11.31,10.23,15.62,14.35,2.2,2.1,3.74,3.66,4.82,4.81C2407.14,2094.15,2405.65,2092.86,2403.67,2091Zm9.36,2.71a1,1,0,0,0,.23-0.34A1,1,0,0,1,2413,2093.76Zm23.34-12.23c-4-3.59-8.76-7.92-12.27-11.31,2.06,1.71,4.34,3.65,6.31,5.33,3,2.58,6.16,5.25,8.54,7.16,1.3,1,2.3,1.78,3,2.26s1.89,1.24,2.69.43a1.17,1.17,0,0,0,.34-0.87c0-1.16-1.85-3-11.45-11.71-3-2.69-6.7-6.06-8.91-8.27l1.26,0.5c4.32,1.72,5,2,5.63,1.33a1.08,1.08,0,0,0,.31-0.78c0-.57-0.29-0.83-1.84-2.23-0.42-.38-1-0.93-1.25-1.17a1,1,0,0,0-1.68-.29,1.08,1.08,0,0,0-.31.78,1,1,0,0,0,.13.51l-0.21-.09c-4.31-1.72-5-2-5.63-1.33a1.17,1.17,0,0,0-.34.87c0,1.12,1.71,2.88,10.4,10.76-2.82-2.41-5.68-4.84-7.9-6.61-1.3-1-2.3-1.78-3-2.26s-1.89-1.24-2.69-.43a1.26,1.26,0,0,0-.36.93c0,0.92,1.25,2.5,4.64,5.82l-0.12-.11c-5-4.4-6.88-5.68-8-4.58a1.27,1.27,0,0,0-.37.94,2.78,2.78,0,0,0,.61,1.46l-0.95-.86c-2.39-2.17-4.21-3.71-5.56-4.72-1.54-1.15-3-2.1-4-1.15a1.31,1.31,0,0,0-.38,1c0,2,5.34,7.07,22.29,22.41,5.23,4.73,10.64,9.63,14.7,13.51,1.5,1.43,2.67,2.6,3.6,3.54-3.63-3.08-8.84-7.9-13.05-11.8s-8.61-8-12-10.86c-1.82-1.57-3.2-2.69-4.22-3.42s-2.38-1.7-3.3-.78a1.24,1.24,0,0,0-.36.92c0,0.74.45,1.75,5.5,6.6,3.1,3,7.3,6.77,11.35,10.44,4.38,4,9.84,8.9,13.17,12.22l-3-2.06c-1.8-1.23-3.66-2.5-5.08-3.4-2.06-1.31-3.08-1.9-3.85-1.14a1.11,1.11,0,0,0-.32.82c0,0.78.57,1.45,6.35,6.67,2.15,1.94,5,4.57,5.66,5.38a1,1,0,0,0,1.76.57,1.11,1.11,0,0,0,.32-0.82c0-.77-0.55-1.42-6-6.35,1.79,1.22,3.64,2.48,5.06,3.38,2.06,1.31,3.08,1.9,3.85,1.14a1.24,1.24,0,0,0,.36-0.92c0-.74-0.45-1.75-5.5-6.6l-1.29-1.23,2.07,1.82c1.82,1.57,3.2,2.69,4.22,3.42s2.38,1.7,3.3.78a1.31,1.31,0,0,0,.38-1c0-.73-0.75-1.89-2.53-3.84,0.81,0.68,1.52,1.25,2.13,1.7,1.54,1.15,3,2.1,4,1.15a1.27,1.27,0,0,0,.37-0.94c0-1.08-1.33-2.81-7.73-8.83l0.65,0.57c5,4.4,6.88,5.68,8,4.58a1.26,1.26,0,0,0,.36-0.93C2454.17,2097.89,2450.16,2094,2436.36,2081.53Zm-7.57-18.52a1,1,0,0,1-.17.3A1,1,0,0,0,2428.79,2063Zm-8.93,20.48c2.8,2.51,5.93,5.4,8.7,8C2425.78,2088.93,2422.62,2086.07,2419.86,2083.49Zm-7.82-13.31c-1.85-1.77-3.22-3.13-4.21-4.18,1.15,1,2.66,2.27,4.64,4.09,4,3.7,9.09,8.59,14,13.39C2421.35,2078.82,2416,2074,2412,2070.19Zm9.25,3.19-1.49-1.44,1.28,1.13c3.43,3,7.77,7.11,12,11l2.4,2.25-1.62-1.47C2429.36,2080.85,2424.76,2076.68,2421.29,2073.37Zm25.92,26.77c-1-.85-2.2-1.92-3.67-3.27-2.72-2.49-5.91-5.53-9.21-8.71,3.83,3.47,7.64,6.93,10.61,9.77C2445.82,2098.77,2446.57,2099.5,2447.21,2100.14Zm-0.8-6.52c-3.05-2.71-6.81-6.22-10.55-9.73,3.57,3.23,7.65,6.94,10.84,10Z" transform="translate(-1944.14 -1961.7)"/><path class="cls-13" d="M2273.46,2108a166.59,166.59,0,0,1,28.38,2.35,111.14,111.14,0,0,1,23,6.37c6.54,2.69,11.66,5.79,15.19,9.22s5.2,6.84,5.2,10.38-1.75,7-5.2,10.38-8.65,6.53-15.19,9.22a111.14,111.14,0,0,1-23,6.37,172.56,172.56,0,0,1-56.77,0,111.14,111.14,0,0,1-23-6.37c-6.54-2.69-11.66-5.79-15.19-9.22s-5.2-6.84-5.2-10.38,1.75-7,5.2-10.38,8.65-6.53,15.19-9.22a111.14,111.14,0,0,1,23-6.37,166.59,166.59,0,0,1,28.38-2.35m0-2c-40.75,0-73.78,13.56-73.78,30.28s33,30.28,73.78,30.28,73.78-13.56,73.78-30.28-33-30.28-73.78-30.28h0Z" transform="translate(-1944.14 -1961.7)"/><rect class="cls-13" x="225.99" y="173.67" width="206.68" height="1.24"/><rect class="cls-13" x="328.71" y="137.5" width="1.24" height="82.78"/><path class="cls-1" d="M2268.69,1977.3v-11.89a3.71,3.71,0,0,1,3.71-3.71h2a3.71,3.71,0,0,1,3.71,3.71v11.89a3.71,3.71,0,0,1-3.71,3.71h-2A3.71,3.71,0,0,1,2268.69,1977.3ZM2255.51,2001a17.9,17.9,0,1,1,17.9,17.9A17.92,17.92,0,0,1,2255.51,2001Zm5.8,0A12.09,12.09,0,1,0,2273.4,1989,12.11,12.11,0,0,0,2261.31,2001Zm-61.11,134,8.39-6.44-7-4.05Zm61.53-116.83-58.67,101.61a3.35,3.35,0,0,0,1.22,4.57l3.25,1.88a3.35,3.35,0,0,0,4.57-1.22l59.65-103.31A20.67,20.67,0,0,1,2261.73,2018.25Zm52.86,34.08a2.18,2.18,0,1,0,0-4.35h-10.36l2.51,4.35h7.85Zm-82.39,0h8.51l2.51-4.35h-11A2.18,2.18,0,1,0,2232.21,2052.33Zm110.29,72.11a3.35,3.35,0,0,0,1.22-4.57l-58.66-101.61a20.67,20.67,0,0,1-10,3.52l59.65,103.31a3.35,3.35,0,0,0,4.57,1.22Zm2.72,0.15-7,4.05,8.39,6.44ZM2258,2048l-2.51,4.35h13.64c0-.72,0-1.44,0-2.18s0-1.46,0-2.18H2258Zm19.73,0c0,0.72,0,1.44,0,2.18s0,1.46,0,2.18h13l-2.51-4.35H2277.7Zm-4.3-12.23c-1.76,0-3.18,6.45-3.18,14.41s1.42,14.41,3.18,14.41,3.18-6.45,3.18-14.41S2275.16,2035.74,2273.4,2035.74Z" transform="translate(-1944.14 -1961.7)"/><path class="cls-13" d="M2172,2086.55c1.79,1.62,4.2,3.8,4.76,4.52a1.13,1.13,0,0,0,1.9.55,1.19,1.19,0,0,0,.35-0.88c0-.78-0.43-1.28-5.49-5.87l-2.1-1.91,0.54,0.2c4.5,1.66,5.2,1.92,5.88,1.23a1.17,1.17,0,0,0,.34-0.84c0-.61-0.33-0.89-1.82-2.24-0.39-.36-1-0.87-1.19-1.11a1.13,1.13,0,0,0-1.81-.3,1.17,1.17,0,0,0-.34.84,1.12,1.12,0,0,0,.08.42l-0.37-.14c-4.5-1.66-5.2-1.92-5.88-1.23a1.19,1.19,0,0,0-.35.88C2166.48,2081.46,2166.89,2082,2172,2086.55Zm3.24-5.54a1.09,1.09,0,0,1-.19.39A1.12,1.12,0,0,0,2175.2,2081Zm4.31,30.37a1.13,1.13,0,0,0,1.6,0,1.31,1.31,0,0,0,.38-1c0-.74-0.4-1.65-5-6.09-2.81-2.69-6.59-6.12-10.26-9.43-1.68-1.52-3.54-3.2-5.35-4.86l3.6,3.11c3.44,3,7,6,9.7,8.24,1.48,1.2,2.61,2,3.44,2.6s2.11,1.4,3,.52a1.27,1.27,0,0,0,.37-0.94c0-1.23-1.93-3.17-11.93-12.21l-3.91-3.55,1.68,1.31c2.53,2,5.15,4,7.15,5.47,2.76,2,4.13,2.93,5.08,2a1.23,1.23,0,0,0,.36-0.91c0-1-1.29-2.35-9-9.34-3.12-2.82-7.33-6.63-8.2-7.82a30.42,30.42,0,0,0,0-3.09c0-.94,0-2.33,0-2.74a1.15,1.15,0,0,0,.06-0.41c0-.56-0.28-0.8-1.26-1.69-0.22-.2-0.52-0.47-0.67-0.62a1.13,1.13,0,0,0-1.78-.23,1.15,1.15,0,0,0-.33.84c0,0.56.28,0.8,1.26,1.69l0.45,0.41c0,0.54,0,1.38,0,2.77,0,0.91,0,2.26,0,2.7a1.26,1.26,0,0,0-.09.51c0,1,1.17,2.23,8,8.38-2.41-1.88-4.87-3.79-6.76-5.17-2.76-2-4.13-2.93-5.08-2a1.27,1.27,0,0,0-.37.94c0,1,1.32,2.51,7.38,8.08-2.45-2.11-4.82-4.12-6.75-5.69-1.48-1.2-2.61-2-3.44-2.6s-1.67-1.11-2.49-.84c-0.18-.2-0.43-0.43-0.79-0.75l-0.35-.32c0-.57,0-1.45-0.1-2.92-0.05-1-.12-2.41-0.1-2.85a1.14,1.14,0,0,0,.05-0.38,1.29,1.29,0,0,0-.49-1l0.67-.27c2.28-.92,2.4-1,2.62-1.2a1.17,1.17,0,0,0,.34-0.84,1.28,1.28,0,0,0-.4-0.9l0.13,0c1.08,0.37,2.2.76,3.05,1,1.23,0.38,2.05.64,2.64,0a1.17,1.17,0,0,0,.34-0.87c0-.75-0.49-1.26-4.56-4.94-1-.92-2.27-2.06-3.1-2.86l0.85-.32c2.36-.87,2.47-0.92,2.7-1.16a1.17,1.17,0,0,0,.34-0.85c0-.67-0.36-1-3.05-3.46-0.54-.49-1.24-1.13-1.77-1.62l0.86-.58a20.34,20.34,0,0,0,2.06-1.44,1.18,1.18,0,0,0,.34-0.86c0-.53-0.22-0.87-1.79-2.33a1.3,1.3,0,0,0,.69-0.37,1.37,1.37,0,0,0,.39-1c0-.84-0.51-2-6.36-7.61-3.6-3.46-8.47-7.86-13.18-12.12-4.53-4.1-9.21-8.33-12.74-11.71-4.57-4.36-5.72-5.87-6-6.38a1.13,1.13,0,0,0,0-.34l0.44,0.39c3.82,3.41,8.65,8,13.31,12.34,5.06,4.76,10.29,9.69,14.28,13.2,5.57,4.91,7.63,6.33,8.84,5.12a1.4,1.4,0,0,0,.4-1c0-.88-0.58-2.18-7.07-8.41-4-3.86-9.47-8.79-14.73-13.54-5.08-4.6-10.34-9.36-14.3-13.14-0.83-.79-1.56-1.51-2.2-2.14,3,2.54,6.68,5.8,9.76,8.53,3.79,3.36,7.71,6.84,10.7,9.32,1.63,1.35,2.87,2.31,3.79,2.94s2.26,1.54,3.18.62a1.31,1.31,0,0,0,.38-1c0-.74-0.4-1.67-5.07-6.15-2.83-2.72-6.66-6.18-10.36-9.53l-4.16-3.77,3.2,2.81c3.66,3.22,7.44,6.54,10.33,8.92,1.57,1.29,2.77,2.21,3.66,2.81a6.33,6.33,0,0,0,1.62.87c0.13,0.57.77,1.19,3.58,3.74l1.52,1.39h-0.61c-3.13,0-3.43,0-3.86.46a1.18,1.18,0,0,0-.34.86c0,0.72.4,1.13,4,4.43,1.16,1,2.87,2.6,3.33,3.14a1.13,1.13,0,0,0,1.88.47,1.18,1.18,0,0,0,.34-0.86c0-.72-0.4-1.13-4-4.43-0.6-.54-1.34-1.21-2-1.81h0.64c3.13,0,3.43,0,3.86-.46a1.18,1.18,0,0,0,.34-0.86c0-.69-0.35-1.06-3.61-4-1-.91-2.49-2.26-2.91-2.75a1.12,1.12,0,0,0-.27-0.44l0,0s0-.06,0-0.08c0-1-1.25-2.49-6.26-7.17,1.88,1.66,3.66,3.21,5.21,4.5,4.52,3.78,6.1,4.79,7.17,3.72a1.3,1.3,0,0,0,.38-1c0-1.37-2.42-3.81-14.21-14.47l-3.68-3.34,2.39,2c3.29,2.81,6.7,5.72,9.3,7.8,1.42,1.13,2.5,1.94,3.3,2.46s2.06,1.35,2.93.47a1.3,1.3,0,0,0,.38-1c0-1.4-2.5-3.91-14.64-14.9l-3.16-2.86,2.29,2c3.49,3,7.1,6.17,9.86,8.41,1.5,1.22,2.65,2.09,3.5,2.66s2.14,1.43,3,.53a1.32,1.32,0,0,0,.38-1c0-1.55-3.38-4.79-15.67-15.91-3.42-3.09-7.54-6.82-10.6-9.76l3.1,2.23c2.17,1.57,4.41,3.19,6.12,4.35,2.37,1.6,3.64,2.39,4.52,1.51a1.23,1.23,0,0,0,.36-0.91c0-1-1.2-2.24-8.23-8.61,2.37,1.81,4.8,3.67,6.67,5,2.86,2,4,2.73,4.91,1.84a1.24,1.24,0,0,0,.36-0.92c0-1-.9-2-9.46-9.78l-2.32-2.1,0.85,0.61c2.13,1.52,4.33,3.1,6,4.22,2.33,1.56,3.59,2.33,4.45,1.46a1.21,1.21,0,0,0,.35-0.9c0-.94-1-2-7.46-7.8-1-.9-2.13-1.93-3.18-2.9l0.75,0.39c1.4,0.73,2.85,1.48,4,2,1.67,0.8,2.57,1.18,3.26.5a1.17,1.17,0,0,0,.34-0.85c0-.67-0.35-1-3-3.39-0.79-.71-1.95-1.76-2.31-2.17a1.13,1.13,0,0,0-1.86-.4,1.17,1.17,0,0,0-.34.85,1.91,1.91,0,0,0,.81,1.36c-1.35-.7-2.74-1.41-3.8-1.92-1.67-.8-2.57-1.18-3.26-0.5a1.21,1.21,0,0,0-.35.9c0,0.91.93,1.89,6.81,7.21-2.09-1.5-4.23-3-5.88-4.13-2.33-1.56-3.58-2.33-4.45-1.46a1.24,1.24,0,0,0-.36.92c0,1,.9,2,9.46,9.78l0.49,0.45-0.26-.2c-2.42-1.85-4.93-3.77-6.84-5.13-2.86-2-4-2.73-4.91-1.84a1.23,1.23,0,0,0-.36.91c0,1,1.26,2.31,8.81,9.14l1.13,1-0.47-.34c-2.17-1.57-4.41-3.19-6.12-4.35-2.36-1.6-3.64-2.39-4.52-1.51a1.32,1.32,0,0,0-.38,1c0,1.55,3.38,4.79,15.67,15.91,1.89,1.71,4,3.61,6,5.46l-4.1-3.55c-3.49-3-7.11-6.17-9.86-8.41-1.5-1.22-2.65-2.09-3.5-2.66s-2.14-1.43-3-.53a1.3,1.3,0,0,0-.38,1c0,1.4,2.5,3.91,14.64,14.9,1.49,1.34,3.12,2.82,4.72,4.29l-3-2.56c-3.29-2.81-6.7-5.72-9.3-7.8-1.42-1.13-2.5-1.94-3.3-2.46s-2.06-1.35-2.93-.47a1.3,1.3,0,0,0-.38,1c0,1,1.43,2.72,7.36,8.22-2-1.8-4-3.49-5.63-4.88-4.52-3.78-6.1-4.79-7.17-3.72a1.29,1.29,0,0,0-.38,1c0,1.25,2,3.37,11.42,11.92-3.06-2.68-6.08-5.32-8.48-7.29-1.57-1.29-2.77-2.21-3.66-2.82s-2.21-1.49-3.12-.58a1.31,1.31,0,0,0-.38,1c0,0.74.4,1.67,5.07,6.15,2.83,2.72,6.66,6.18,10.36,9.53l2.63,2.38-2.23-2c-3.79-3.36-7.71-6.84-10.7-9.32-1.63-1.35-2.87-2.31-3.79-2.94s-2.26-1.54-3.18-.62a1.39,1.39,0,0,0-.4,1c0,0.88.58,2.18,7.07,8.41l1.56,1.48c-5.4-4.74-7.41-6.11-8.61-4.92a1.17,1.17,0,0,0-.34.86c0,0.67.29,1,3.26,3.66l0.77,0.7-0.47-.06c-3.57-.42-3.91-0.45-4.41,0a1.17,1.17,0,0,0-.34.86c0,0.67.3,1,3.32,3.72l0.79,0.72-0.47-.06c-3.5-.46-3.95-0.52-4.46,0a1.17,1.17,0,0,0-.34.85c0,0.66.34,1,2.9,3.3l0.82,0.74-0.57,0c-3,.11-3.34.13-3.75,0.54a1.37,1.37,0,0,0-.4,1c0,1.24,1.8,3.37,8.56,9.71l-1.57-1.38c-5.31-4.63-7.27-6-8.45-4.79a1.37,1.37,0,0,0-.4,1c0,1.22,1.76,3.33,8.35,9.51l-1.39-1.22c-5.32-4.64-7.29-6-8.47-4.81a1.37,1.37,0,0,0-.4,1c0,1.33,2.08,3.71,10.22,11.25-0.95-.85-1.85-1.65-2.69-2.38-5.24-4.56-7.18-5.88-8.35-4.71a1.37,1.37,0,0,0-.39,1c0,0.85.52,2,6.42,7.67,1.33,1.28,2.84,2.69,4.44,4.17-1.18-1.06-2.3-2.05-3.33-2.95-5.18-4.49-7.1-5.79-8.26-4.63a1.2,1.2,0,0,0-.35.89c0,0.86.57,1.51,6.78,7.13l1,0.89-0.36-.22c-1.68-1-3.43-2.11-4.76-2.87-1.77-1-2.94-1.68-3.74-.88a1.18,1.18,0,0,0-.35.87c0,0.73.34,1.14,4.75,5.13l1.1,1-0.39-.15c-4.61-1.79-5.32-2.07-6-1.37a1.18,1.18,0,0,0-.35.87c0,0.75.4,1.23,5.16,5.54,1.66,1.5,3.89,3.52,4.44,4.2a1.13,1.13,0,0,0,1.9.53,1.18,1.18,0,0,0,.35-0.87c0-.75-0.4-1.23-5.16-5.54l-1.59-1.44,0.46,0.18c1.87,0.73,3.1,1.2,3.94,1.47a2.3,2.3,0,0,0,.75.91l0.27,0.24,0.13,0.15a1.13,1.13,0,0,0,1.6,0,1.14,1.14,0,0,0,.33-0.83,1.51,1.51,0,0,0-.69-1.13,1.21,1.21,0,0,0,0-.32c0-.63-0.25-1-3.07-3.6,1.6,1,3.22,2,4.48,2.7s2.25,1.28,3,1.23c0.33,1.33,2.79,3.76,12.74,12.77,1.62,1.46,3.43,3.1,5.15,4.69l-2.19-1.71c-2.56-2-5.21-4.08-7.23-5.55-2.93-2.14-4.22-2.92-5.12-2a1.25,1.25,0,0,0-.36.93c0,1.14,1.61,2.78,10.6,10.91,1.36,1.23,2.89,2.62,4.34,3.95l-1.39-1c-2-1.44-4.16-2.92-5.78-4-2.26-1.48-3.48-2.21-4.33-1.36a1.24,1.24,0,0,0-.36.91c0,1.07,1.34,2.42,9.36,9.68l3.18,2.88-1-.68c-1.93-1.31-3.93-2.67-5.46-3.63-2.22-1.4-3.32-2-4.15-1.21a1.23,1.23,0,0,0-.36.91c0,1.05,1.31,2.38,9.16,9.49l3.12,2.84-1-.64c-1.89-1.26-3.84-2.57-5.33-3.5-2.12-1.32-3.26-2-4.08-1.15a1.22,1.22,0,0,0-.36.9c0,0.94.73,1.77,8.14,8.48l2.54,2.3-0.74-.47c-1.73-1.09-3.52-2.22-4.89-3-2-1.15-3-1.72-3.82-.94a1.21,1.21,0,0,0-.35.89c0,0.93,1,1.94,7.34,7.68l2.85,2.59-0.7-.38c-1.45-.77-2.94-1.57-4.08-2.14-1.76-.87-2.64-1.26-3.34-0.56a1.19,1.19,0,0,0-.35.88c0,0.81.51,1.41,6.09,6.45,1,0.92,2.22,2,3.23,3l-0.67-.19c-4.16-1.19-4.69-1.34-5.31-.72a1.18,1.18,0,0,0-.34.86c0,0.73.41,1.16,4.18,4.57,0.79,0.71,1.81,1.64,2.57,2.36l-0.79.2c-2.54.63-2.74,0.7-3,1a1.19,1.19,0,0,0-.34.87c0,0.73.46,1.22,4.32,4.7l1,0.9-0.39-.13c-1.06-.35-2.16-0.71-3-1-1.22-.36-2-0.6-2.61,0a1.18,1.18,0,0,0-.35.87c0,0.74.35,1.15,4.82,5.21l1.26,1.15-0.42-.16c-4.56-1.73-5.26-2-6-1.3a1.18,1.18,0,0,0-.35.87c0,0.74.35,1.16,4.85,5.24l-0.14-.07c-1.43-.76-2.91-1.54-4-2.1-1.75-.85-2.62-1.23-3.31-0.54a1.17,1.17,0,0,0-.34.87c0,0.74.48,1.24,4.48,4.86,0.73,0.66,1.59,1.44,2.32,2.12l-0.65,0c-3.31-.16-3.63-0.16-4.08.3a1.15,1.15,0,0,0-.33.83c0,0.54.28,0.78,1,1.42l0.43,0.39a1.13,1.13,0,0,0,2.08-.65s0-.05,0-0.08l0.81,0c3.31,0.16,3.63.16,4.08-.3a1.17,1.17,0,0,0,.34-0.87c0-.7-0.43-1.19-3.85-4.3l0,0c1.43,0.76,2.91,1.54,4,2.1,1.75,0.85,2.62,1.23,3.31.54a1.18,1.18,0,0,0,.35-0.87c0-.75-0.35-1.17-4.92-5.3l-1.38-1.25,0.43,0.16c4.56,1.73,5.26,2,6,1.3a1.18,1.18,0,0,0,.35-0.87c0-.74-0.35-1.15-4.82-5.21l-1.57-1.43,0.47,0.16c1.06,0.35,2.16.71,3,1,1.22,0.36,2,.6,2.61,0a1.19,1.19,0,0,0,.34-0.87c0-.73-0.46-1.22-4.32-4.7-0.87-.79-1.94-1.76-2.71-2.49l0.79-.2c2.54-.63,2.74-0.7,3-1a1.18,1.18,0,0,0,.34-0.86c0-.73-0.41-1.16-4.18-4.57l-1.09-1,0.42,0.12c4.16,1.19,4.69,1.34,5.31.72a1.19,1.19,0,0,0,.35-0.88c0-.81-0.51-1.41-6.09-6.45l-1.32-1.19,0.41,0.22c1.45,0.77,2.94,1.57,4.08,2.14,1.76,0.87,2.64,1.26,3.34.56a1.21,1.21,0,0,0,.35-0.89c0-.93-1-1.94-7.34-7.68l-1.48-1.34,0.49,0.31c1.73,1.09,3.52,2.22,4.89,3,2,1.15,3,1.72,3.82.94a1.22,1.22,0,0,0,.36-0.9c0-.94-0.73-1.77-8.15-8.48l-1.74-1.58,0.59,0.39c1.89,1.26,3.84,2.57,5.33,3.49,2.12,1.32,3.26,2,4.08,1.15a1.23,1.23,0,0,0,.36-0.91c0-1.05-1.31-2.38-9.16-9.49l-2.91-2.64,0.93,0.63c1.93,1.31,3.93,2.67,5.46,3.63,2.22,1.4,3.32,2,4.15,1.21a1.24,1.24,0,0,0,.36-0.91c0-1.07-1.34-2.42-9.36-9.68l-2.6-2.36,0.89,0.63c2,1.44,4.16,2.92,5.78,4,2.26,1.48,3.48,2.21,4.33,1.36a1.25,1.25,0,0,0,.36-0.93c0-1.14-1.61-2.78-10.6-10.91l-1.52-1.38,0.73,0.57c2.56,2,5.21,4.08,7.23,5.55,2.93,2.14,4.22,2.92,5.12,2a1.28,1.28,0,0,0,.37-0.95c0-1.29-2.06-3.36-12.78-13.06-3.87-3.5-8.86-8-11-10.34l3,2.82c4.66,4.33,9.48,8.8,13.16,12,4,3.47,6.05,5,7.32,5a1.27,1.27,0,0,0,.94-0.4,1.37,1.37,0,0,0,.39-1c0-.85-0.52-2-6.42-7.67-0.83-.79-1.72-1.63-2.66-2.51l2,1.75c4.05,3.53,6.13,5.11,7.41,5.11a1.28,1.28,0,0,0,.94-0.4,1.37,1.37,0,0,0,.4-1c0-1.22-1.76-3.33-8.35-9.52l1.39,1.22c5.32,4.64,7.29,6,8.47,4.81a1.37,1.37,0,0,0,.4-1c0-1.24-1.82-3.4-8.66-9.81l1.6,1.41c5.31,4.63,7.27,6,8.45,4.79a1.37,1.37,0,0,0,.4-1c0-1.75-3.58-5.32-19.91-20.1-4.62-4.18-9.4-8.5-13-11.94a68.54,68.54,0,0,1-5.56-5.72l1.35-.05c2.85-.1,3.29-0.13,3.67-0.47v0.24c0,0.91-.05,2.26-0.11,2.65a1.13,1.13,0,0,0-.07.42,1.35,1.35,0,0,0,.58,1l0.08,0.08,0.08,0.09a1.12,1.12,0,0,0,1.52.06c0.4,0.81,1.57,2.2,4.88,5.39,2.85,2.73,6.69,6.21,10.41,9.57,5.81,5.26,13.71,12.4,14.71,14.15a1.13,1.13,0,0,0,1.93.89,1.31,1.31,0,0,0,.38-1c0-.74-0.41-1.67-5.09-6.17-2.85-2.73-6.69-6.21-10.41-9.57l-4.48-4.07,3.41,3c3.65,3.2,7.42,6.52,10.3,8.88,1.57,1.29,2.76,2.21,3.65,2.8s2.2,1.49,3.11.58a1.32,1.32,0,0,0,.38-1,1.66,1.66,0,0,0-.12-0.57c0.52,0.51,1.29,1.22,2.41,2.23,0.7,0.63,1.63,1.48,2.26,2.09l-0.88.59a20.38,20.38,0,0,0-2.06,1.44,1.17,1.17,0,0,0-.34.85c0,0.67.36,1,3.05,3.46,0.46,0.41,1,.94,1.52,1.39l-0.77.29c-2.36.87-2.47,0.93-2.7,1.16a1.17,1.17,0,0,0-.34.87c0,0.75.49,1.26,4.56,4.94l1.19,1.08-0.42-.14c-1.08-.37-2.2-0.76-3.05-1-1.24-.38-2.05-0.64-2.64,0a1.17,1.17,0,0,0-.34.84c0,0.62.32,0.9,2,2.45l0.47,0.43-0.73.29c-2.28.92-2.4,1-2.62,1.21a1.15,1.15,0,0,0-.33.83c0,0.54.3,0.8,1.05,1.48l0.25,0.23c0,0.57,0,1.45.1,2.91,0.05,1,.12,2.41.1,2.85a1.14,1.14,0,0,0-.05.38c0,0.51.24,0.75,1,1.41l-0.78.6c-1.62,1.24-1.8,1.39-1.91,1.5a1.33,1.33,0,0,0-.39,1c0,1.57,2.9,4.47,17,17.25,2.15,1.95,4.57,4.13,6.86,6.24-2.08-1.85-4.21-3.77-6.12-5.5-4.08-3.69-8.31-7.5-11.53-10.22-1.75-1.48-3.09-2.53-4.08-3.22s-2.38-1.65-3.33-.7a1.34,1.34,0,0,0-.39,1c0,1.49,2.33,4,17.45,17.67,2.55,2.3,5.44,4.92,8.1,7.39-2.4-2.13-4.91-4.4-7.13-6.41-4.13-3.74-8.4-7.6-11.65-10.36-1.77-1.5-3.12-2.57-4.12-3.26s-2.39-1.67-3.35-.71a1.34,1.34,0,0,0-.39,1c0,0.79.47,1.85,5.77,6.94,3.25,3.12,7.64,7.09,11.89,10.94,2.78,2.52,6,5.41,8.85,8.07-2.49-2.2-5.14-4.59-7.47-6.7-4.08-3.69-8.31-7.5-11.53-10.22-1.75-1.48-3.09-2.53-4.08-3.22s-2.38-1.65-3.33-.7a1.28,1.28,0,0,0-.37,1c0,1.31,2.11,3.43,13.07,13.35,1.57,1.42,3.32,3,5,4.55l-2.29-1.82c-2.69-2.15-5.47-4.36-7.59-5.95-1.16-.87-2-1.48-2.71-1.88s-1.81-1.1-2.61-.3a1.22,1.22,0,0,0-.36.91c0,1,1.22,2.24,8.5,8.83l2.78,2.52-0.82-.53c-1.78-1.14-3.62-2.32-5-3.16-2-1.2-3.11-1.79-3.9-1a1.18,1.18,0,0,0-.35.87c0,0.74.34,1.14,4.76,5.14,0.88,0.79,1.93,1.75,2.76,2.53h-0.7c-3.13,0-3.43,0-3.86.46a1.18,1.18,0,0,0-.34.85c0,0.64.35,0.94,2.21,2.62,0.52,0.47,1.28,1.16,1.55,1.45a1.13,1.13,0,0,0,1.83.33,1.18,1.18,0,0,0,.34-0.85c0-.64-0.35-0.94-2.19-2.6h0.47c3.13,0,3.43,0,3.86-.46a1.18,1.18,0,0,0,.34-0.87c0-.59-0.23-1-2.57-3.14,1.64,1.05,3.31,2.12,4.6,2.89,2,1.2,3.11,1.79,3.9,1a1.22,1.22,0,0,0,.36-0.91c0-.83-0.84-1.83-5.28-5.9,2.24,1.79,4.46,3.54,6.22,4.85,1.16,0.87,2,1.48,2.71,1.88s1.81,1.1,2.61.29a1.28,1.28,0,0,0,.37-1c0-.69-0.6-1.6-2.74-3.75,1.58,1.4,3.07,2.7,4.39,3.81,1.75,1.48,3.09,2.53,4.08,3.22s2.38,1.65,3.33.7a1.34,1.34,0,0,0,.39-1c0-.79-0.47-1.85-5.77-6.94-3.25-3.12-7.64-7.09-11.89-10.94-2.75-2.48-5.9-5.33-8.73-8,2.52,2.23,5.19,4.65,7.55,6.78,4.13,3.74,8.4,7.6,11.65,10.36,1.77,1.5,3.12,2.57,4.12,3.26s2.39,1.67,3.35.71a1.34,1.34,0,0,0,.39-1c0-1.49-2.33-4-17.45-17.67-2.59-2.35-5.55-5-8.25-7.52,2.38,2.11,4.88,4.36,7.09,6.36,4.08,3.69,8.31,7.5,11.53,10.22,1.75,1.48,3.09,2.54,4.08,3.22s2.38,1.65,3.33.7a1.33,1.33,0,0,0,.39-1c0-1.57-2.9-4.47-17-17.25-6.16-5.57-14.44-13.06-16.06-15.35l1.18-.91,1.26-1c0.45,0.82,1.64,2.21,4.75,5.2,2.81,2.69,6.59,6.12,10.26,9.43,5.72,5.18,13.49,12.21,14.49,13.94A1.13,1.13,0,0,0,2179.51,2111.37Zm-19.19-40.2,0.08-.13Zm-32.73-52.8c5.08,4.6,10.34,9.36,14.3,13.14,1,0.93,1.8,1.74,2.52,2.45-0.64-.55-1.36-1.18-2.16-1.9-3.82-3.41-8.65-8-13.31-12.34l-3.63-3.41Zm14.12-.31-0.08.11Zm-36.6,34.52a1.13,1.13,0,0,0,.28-0.48A1.1,1.1,0,0,1,2105.1,2052.58Zm20.7,90.45a1.11,1.11,0,0,1,.25-0.38A1.13,1.13,0,0,0,2125.79,2143Zm-17.85-114.43,0.57,0.5c3.61,3.19,8.17,7.44,12.58,11.55l2.45,2.28-1.81-1.64c-4.63-4.19-9.42-8.52-13-12Zm-1.14,5.23-0.77-.74,0.6,0.52c3.63,3.2,8.2,7.47,12.62,11.6l2.15,2-1.57-1.42C2115.2,2041.61,2110.41,2037.28,2106.8,2033.83Zm-1.28,5.1-0.49-.46,0.26,0.22c3.56,3.14,8.06,7.32,12.4,11.36l2.78,2.58-2.08-1.88C2113.82,2046.61,2109.09,2042.33,2105.52,2038.93Zm24.23,25.33,0.46,0.44-0.13-.12c-3.51-3.09-7.95-7.2-12.23-11.18l-4.53-4.2,3.56,3.23C2121.45,2056.57,2126.18,2060.85,2129.75,2064.26Zm2.31-4.13-0.43-.37c-3.56-3.14-8.06-7.32-12.4-11.36l-3.87-3.59,2.95,2.67c4.63,4.19,9.42,8.52,13,12Zm1.18-5.19,0.77,0.74-0.59-.52c-3.63-3.2-8.2-7.47-12.62-11.6l-2.14-2,1.56,1.42C2124.84,2047.17,2129.63,2051.5,2133.24,2054.94ZM2122,2038.39c4.62,4.18,9.4,8.5,13,11.94l0.73,0.7-0.54-.48c-3.61-3.19-8.17-7.44-12.58-11.55l-2.32-2.16Zm-14.5-24.09-0.33-.29,0.42,0.05,2.2,0.28a1.14,1.14,0,0,0-.3.8,1.37,1.37,0,0,0,.58,1c0,0.16,0,.35,0,0.56A28.77,28.77,0,0,0,2107.52,2014.3Zm3,7.25-0.08.12Zm-0.18,1a1.12,1.12,0,0,0,.11.24A1,1,0,0,1,2110.3,2022.58Zm19,11c-3.65-3.2-7.42-6.52-10.3-8.88-1.57-1.29-2.76-2.21-3.65-2.8s-2.2-1.49-3.11-.58l-0.09.1h0c0-.53.06-1.33,0.09-2.6,0-.49,0-1.1,0-1.63,1.38,1.89,5.27,5.61,15.37,14.76,1.94,1.76,4.1,3.71,6.18,5.62Zm3.19-3.2c-4.45-4.1-9.06-8.33-12.57-11.35-1.91-1.64-3.36-2.81-4.44-3.58s-2.52-1.79-3.51-.8l-0.08.09-0.17-.16-0.18-.17,0,0a1.07,1.07,0,0,0,.57-0.32,1.17,1.17,0,0,0,.34-0.86c0-.67-0.3-1-3.32-3.72l-0.83-.76,0.48,0.06c1.16,0.14,2,.23,2.57.28,0,0.84.66,2.08,6.36,7.54,3.6,3.46,8.47,7.86,13.18,12.12,4.53,4.1,9.21,8.33,12.74,11.71l0.19,0.18C2140.5,2037.74,2136.44,2034,2132.52,2030.4Zm8.26,10.57c1,0.87,1.92,1.7,2.79,2.44l0.54,0.46a1.18,1.18,0,0,0-.07.44v0C2143.34,2043.54,2142.31,2042.47,2140.77,2041Zm11.25,87.16a1.12,1.12,0,0,0-.1.18A1.09,1.09,0,0,1,2152,2128.14Zm7.5-59.86,0.57,0.53a1.13,1.13,0,0,0,1.77.21,1.15,1.15,0,0,0,.33-0.83c0-.55-0.28-0.79-1.16-1.58l-0.57-.53a1.13,1.13,0,0,0-1.77-.21,1.15,1.15,0,0,0-.33.83C2158.39,2067.24,2158.65,2067.48,2159.53,2068.27Zm1-1.12-0.09.16Zm-0.37.41-0.09.15Z" transform="translate(-1944.14 -1961.7)"/><path class="cls-1" d="M2178.64,2144.19a11.56,11.56,0,0,1-2-1.43c-0.56.11-1.12,0.22-1.67,0.37,0,0-.27.16-0.53,0.34a6.75,6.75,0,0,1-4.46,1.33,1.24,1.24,0,0,0,0,.67c-0.74-.21-2.11.18-2.25,0.69-0.1.88,0.85,0.29,1,.92-0.38.27-.92-0.07-1.37,0.49-0.35-.49.4-1.8-0.86-1.35l0,0.37a0.7,0.7,0,0,1,.37-0.36c0.51,0.08.05,0.47,0.07,0.65l-1.26.63c-0.45-.48.32-0.82,0.3-1-0.83.73-1.38,2.28-2.49,2.47l0.22,0.15c-1.4.25,0,1.42-1.43,1.11-0.37.44,0.54,0.48-.13,1-0.2.13-.21-0.15-0.22-0.25-1,.34-0.05.76-1.18,0.75l0.54,0.48c-1.22.19-2.84-.22-3.52,0.52,0.32,0.43.81,0.08,1.23,0.31a3.44,3.44,0,0,0-2.17.71c-0.33.21-.65,0.43-1,0.6a2.74,2.74,0,0,1-1,.33c0.09-.57-1-0.64-0.53-1.34,0.51,0.5.61-.06,1-0.21-0.66-.48-1.18,0-1.64.5s-0.86,1-1.26.46l0.1,0.55c-0.2,0-.8-0.11-0.6-0.41l-0.16.15-0.35.32-0.51.46a7.6,7.6,0,0,0,1.18.22c0.4,0,.73-0.06.72-0.39,0.6,0.31-.3.6,0.31,1-1.21-.34-0.3.6-1.22,0.86,0-.88-1.31-0.49-1.45-0.84a1.54,1.54,0,0,1-1.31.15,4.8,4.8,0,0,0-1,.73,2.83,2.83,0,0,1-1.25.69,1.42,1.42,0,0,1,1.19.59c-0.5-.06-0.92.15-0.73,0.7,1.81,0.27-.15-1.39,1.37-1.38a1.78,1.78,0,0,0,1.71.24,1.81,1.81,0,0,0,.18,1,1.49,1.49,0,0,0-1.72.13,2.78,2.78,0,0,1-1.66.66c-0.6-.15-0.66-1.08-1.68-0.75l0.64-.78c-0.73.79-.39-0.26-1.2,0l0.49,0.26a0.82,0.82,0,0,1-1,.14l0.68,0.44c-0.21.2-.63,0.49-0.81,0.12a1.06,1.06,0,0,0,.09.42,0.45,0.45,0,0,0-.53.06c0.2,0,.31-0.1.4,0.08-1.18.36,0.06,0.8-.66,1.05,0.18,0.09.06,0.37-.15,0.56-0.44-1-1.86-.49-2.46-0.88H2140c0.23,0,.14.36-0.09,0.58l0,0c-0.23.28,0.83,0.93-.2,1l-0.6-.09c0.1,0,.08.19,0.07,0.28l-0.6-.06a0.81,0.81,0,0,1-1,.61,1.34,1.34,0,0,0-1.29.26c0.22-.18.64-0.26,0.6,0.11a0.51,0.51,0,0,1-.62.08l0.09,0.09-1.93,0c0.27,0.29,1.22-.06,1,0.49-0.07.56-.74,0.26-1.06,0.35-0.06-.28.4-0.74-0.22-0.66,0,0.16-.45.65-0.12,0.74h-1.14a3.19,3.19,0,0,1-1.15-.19c-0.12.18,0.18,0.19,0.28,0.2V2164c0.41,0,.31.67,0.9,0.14,0.39,0.86-.9.61-1.46,0.95l1.19,0.25a3.57,3.57,0,0,1-2.59,1.4c-0.51.09-1,.11-1.54,0.16a6.66,6.66,0,0,0-1.39.24c0.39-.44.88-0.3,0.59-1a6.76,6.76,0,0,0-2,.3h0.1c-0.41.53-1.33,0.08-1.48,0.8,0.17,0.16.33,0,.48-0.08s0.28-.13.41,0.26l-0.2.06-0.45.11-0.65.16a1,1,0,0,0,.92,0,4.18,4.18,0,0,1,.9-0.34c0.34-.16-0.74.13-0.73-0.44,1.19-.37,1.63,0,2.45.58,0.54,0.42-.34.72-0.56,0.8a3.19,3.19,0,0,0-1.64-.39,3.15,3.15,0,0,0-1.69.54l-0.48.79c-0.75-.36-0.81-1.5-1.84-1.05l0.44,0.33a0.92,0.92,0,0,1-.44.37c0.55,0.19,1.15.4,1.67,0.62a0.87,0.87,0,0,1-1.19.46,8.23,8.23,0,0,0-1.64-.32,2.09,2.09,0,0,1,.56.27c-1.29.57-3-.14-4.06,0-0.34.52,0.93,0,.87,0.69-0.61-.08-1.09.6-1.38,0.09,0.44,0.74-1.25.36,0,.85a9.06,9.06,0,0,1-3.12.6c-0.55,0-1.1,0-1.65,0l-1.62-.06a0.7,0.7,0,0,1,.14.6,3.83,3.83,0,0,1,1.19-.05,1.84,1.84,0,0,1,1,.39,0.57,0.57,0,0,1-.74.08c-0.26-.11-0.49-0.25-0.53-0.12a2.29,2.29,0,0,0,.48.13,0.41,0.41,0,0,1,.34.31c-0.49.58-1,0-1.39,0l0.18-.25c-1.41-.29-1-1.25-2.32-0.76a0.41,0.41,0,0,0-.13.45c-0.06,0-.11,0-0.13.17-0.65-.68.18-0.52,0.31-0.82l-0.39-.07-0.39-.08a1,1,0,0,1,.09-0.81,1.08,1.08,0,0,1,.54-0.39,4.05,4.05,0,0,0,1.29-.54c0.06,0.37-.27.31,0.28,0.8a1.64,1.64,0,0,0,.87-0.45h-0.06c-0.12-.44.66-0.22,0.27-0.78-0.38-.18.05,0.52-0.57,0l0.22-.21,0.22-.21c-0.49-.16-0.44.42-0.68,0.52a1.24,1.24,0,0,1,.66.23c-0.4.42-.88,0.16-1.63-0.16-0.53-.27-0.26-0.57-0.2-0.64,0.86,0.31,1.51.17,1.57-.51l-0.14-.31-0.15-.31c0.61,0.14,1.4.92,1.61,0.44l-0.45-.15a0.38,0.38,0,0,1,0-.33c-0.4,0-.84-0.09-1.23-0.16-0.28-.4-0.07-0.48.26-0.49a3.08,3.08,0,0,0,1-.06,1.7,1.7,0,0,1-.45-0.07,1,1,0,0,1,.85-0.51,2.91,2.91,0,0,0,1-.31c-0.23-.4-0.45.18-0.91-0.24,0.34-.07,0-0.6.55-0.35-0.74-.35.25-0.51-0.64-0.52a1.86,1.86,0,0,1,.8-1.11c0.4-.31.88-0.59,1.28-0.91a1.54,1.54,0,0,1-.56-0.25,0.81,0.81,0,0,1-.38.38,1.11,1.11,0,0,1-.72.07c-0.28-.35.7-0.15,0.51-0.31a0.83,0.83,0,0,1-.67,0c-0.3-.42.33-0.25,0.48-0.38l0.15,0.17a2.17,2.17,0,0,1,1,0c0.27,0,.46,0,0.47-0.33a1.59,1.59,0,0,0-.95-0.38c0.14,0,.09-0.19.09-0.35s0-.29.37-0.25l0,0.18c0,0.09,0,.18,0,0.18a3.49,3.49,0,0,1,.58-0.51,0.67,0.67,0,0,0-.33,0,1.09,1.09,0,0,1,.69-0.4l-0.62-.21c0.26,0.18.2,0.55-.16,0.5-0.54-.2-0.1-0.42-0.11-0.59a0.73,0.73,0,0,1-.35.31,2.48,2.48,0,0,1-.41.14c-0.27.07-.43,0.14-0.33,0.47h0.22c0.17,0.25,0,.39-0.16.49a1,1,0,0,0-.5.31,0.69,0.69,0,0,0-.41-0.26,1.38,1.38,0,0,1-.17,1,3.29,3.29,0,0,0-.41,1l-0.67-.14,0.41,0.27c0,0.43-.63-0.3-0.72-0.07,0-.08.11,0,0.22,0-0.7.06,0.26,0.45,0,.57,0.5,0.19.41-.3,0.94,0.17-0.7.08-.84,0.82-1.85,0.18a1.43,1.43,0,0,1-.73,1c-0.37.26-.8,0.44-1.05,0.66a0.61,0.61,0,0,0,.26.2c-0.35-.12-0.4.12-0.43,0.35s0,0.44-.26.23a2.57,2.57,0,0,0,.43.69,1.21,1.21,0,0,0-.79.08h0.23l0,0.07h-0.33l0,0a2.14,2.14,0,0,1-1.64.64,1.24,1.24,0,0,1,.62.63,1.17,1.17,0,0,0-.9-0.2,1.2,1.2,0,0,0-.59.44,1.69,1.69,0,0,0,.35.4l-0.46-.13,0.18,0.17a0.85,0.85,0,0,1-.78.19c-0.3,0-.56,0-0.55.26a0.7,0.7,0,0,1,.56.4,1.67,1.67,0,0,1-1.08.35,0.62,0.62,0,0,1,.14.15c0,0.13-.28,0-0.44,0l0.25,0.42a1.48,1.48,0,0,1-.8.06c0.09,0.25-.1.23-0.32,0.16s-0.49-.16-0.55,0c-0.15-.06.46,0.39,0.18,0.51-0.51-.93-0.36.14-0.87-0.88l0,0.39,1.17,6,0.06-.08,0,0.57c0.29-1.06.36,0.5,0.74,0.18a0.64,0.64,0,0,1,0-.25c0.11,0.13.38,0.21,0.16,0.49,0.2,0,.85.3,0.58-0.32,0,0.33-.26,0-0.37-0.09,0-.49.33-0.28,0.43-0.81a2,2,0,0,0,.07.22l0.06-.3c0.34,0.56.74,0.19,1,.9,0-.15.1-0.26,0.22-0.22l0,0.61,0.39,0-0.12-.9c0.44-.15.67,0.89,1,1.07,0.17-1,.65.44,1-0.45l-0.25-.3c0.57,0.23.72-.37,1.23,0a2.82,2.82,0,0,0-1.22.87,0.65,0.65,0,0,1,.48-0.06,1.9,1.9,0,0,1,.42.2,0.68,0.68,0,0,0,.87,0,0.77,0.77,0,0,1,0-.65c0.07,0.54.58,0,.43,0.64,0.21-.19.31-0.76,0.44-0.83l0.28,0.41,0.27,0.42v-0.12a1,1,0,0,1,1.56.07c0.45,0.41.87,0.93,1.45,0.71l0-.33,0.16,0.44a1,1,0,0,1,.25-0.6l0.27,0.41,0.27,0.41c0.07-.28.15-0.93,0-0.83,0.32-.28.46,0.44,0.67,0.52l0-.29,0.18,0.28,0.08-.4a1.33,1.33,0,0,0,.56.15,0.37,0.37,0,0,1,.3.46l0.1-.65,0.27,0.59-0.12-.48a2.07,2.07,0,0,1,1.08.64l0-.25c0.1-.1.11,0.07,0.17,0.16l0-.37a0.72,0.72,0,0,0,.43,0,2.82,2.82,0,0,0,.38-0.11,0.67,0.67,0,0,1,.79.18c0.21,0-.06-0.15,0-0.34s0.35,0.11.34,0.28c0.13-.56-0.22-0.49.15-0.85,0.07,0.32.06-.54,0.31-0.33l-0.13.73c0.2-.07.23-0.53,0.45-0.37a0.51,0.51,0,0,1-.2.51c-0.12.15-.22,0.28,0,0.41a2.41,2.41,0,0,0,.66-0.62c0.28-.29.57-0.49,0.71-0.22a0.75,0.75,0,0,0,.4-0.57c0.06-.21.11-0.34,0.33-0.13l-0.06-.3c0-.15-0.07-0.3-0.07-0.3,0.18-.15.28-0.51,0.46-0.24a1.32,1.32,0,0,0,0,.79,0.48,0.48,0,0,1,.32-0.64,0.59,0.59,0,0,0,.41-0.73l0.2,0.15a0.17,0.17,0,0,1,.06-0.14l0,0,0.14,0.07,0.14,0.07,0,0c0-.11-0.26-0.34-0.28-0.46a0.39,0.39,0,0,1,.2-0.49l0.08,0,0.09,0,0.05,0,0.07,0,0.26,0.11,0.06,0h0a3.34,3.34,0,0,1,.54-0.72l0-.05h0l0,0-0.05-.06-0.13-.14-0.07-.08-0.07-.08-0.1-.13-0.22-.29-0.37-.49-0.17-.21a1.15,1.15,0,0,1-.1.67c-0.44,0-.11-0.53-0.57-0.37l0,0.36c0-.12,0-0.18.08-0.19s0.15,0.11.07,0.29c-0.28.33-.49-0.07-0.48-0.37-0.42-.11-0.36.65-0.5,0.73a0.33,0.33,0,0,0-.33-0.44,0.43,0.43,0,0,1-.46-0.18v0.47c-0.47.41-.58-0.1-0.7-0.31l0,0.37c-0.38-.2-0.93.93-0.86-0.41l0,0.25c-0.2.06-.51,0.25-0.56-0.16a0.62,0.62,0,0,1-.2.35c0-.51-0.22-0.18-0.48-0.16,0.12,0.17-.09.78,0,1-0.52.55-.14-0.79-0.45-0.86-0.26.28,0.08,0.39,0.06,0.64-0.19-.23-0.52.07-0.79,0.27s-0.49.3-.5-0.37l0.29-.36c-0.12-.32-0.23-0.34-0.23-0.21,0.07,0,.06.1,0.06,0.22-0.35.27-.52,0-0.68-0.35s-0.32-.7-0.63-0.63a3.31,3.31,0,0,1,0,.54c-0.31.2,0-1.28-.54-0.87l0,0.29c-0.15.12-.19-0.19-0.18-0.32a0.44,0.44,0,0,1-.58.43,0.78,0.78,0,0,0-.83.7c-0.11-.63-0.63-1.19-0.86-0.89-0.35.61,0.12,0.76-.06,1.35-0.2,0-.22-0.64-0.55-0.47,0.08-.61.77-1.15,0.25-1.58l-0.13.32c0.07,0,.16-0.15.24-0.06,0.12,0.38-.16.39-0.22,0.55l-0.59-.26c0-.65.39-0.45,0.45-0.61-0.51.07-1.21,0.95-1.61,0.46v0.25c-0.51-.62-0.47,1.15-0.81.06-0.26.15,0,.7-0.35,0.71-0.1,0,0-.25,0-0.33-0.42-.27-0.26.6-0.61,0l0,0.7c-0.32-.38-0.62-1.14-0.93-1.43a1.58,1.58,0,0,0,1.06-.22l-0.27-.15c0.76-.65,1.79,0,2.53-0.19a0.34,0.34,0,0,0-.06.5,10.37,10.37,0,0,1,2.43-.81,17.15,17.15,0,0,0,2.62-.75l0.72,0.5-0.08-.49c0.86-.42.36,0.63,0.94,0.44-0.22.06-.2,0-0.28-0.14,1.2,0.27.48-.6,1.11-0.6-0.41-.44-1.19.12-1.09-0.63,1.19,0.26,2.74-.47,3.2.64a6.77,6.77,0,0,1,1.5-.56c0.53-.14,1.08-0.26,1.62-0.34,1.09-.18,2.17-0.28,3-0.47,0.16-.26-0.19-0.11-0.15-0.3a0.83,0.83,0,0,0,.68,0,3.2,3.2,0,0,0,.67-0.36c0.42-.27.76-0.53,0.86-0.24a1.61,1.61,0,0,0,.28-0.92,3.6,3.6,0,0,0,1.59,0l-0.44,0v-0.09l0.62,0v0c0.68-.12,1.38-0.38,2.08-0.56a5.46,5.46,0,0,1,2.11-.21c-0.71-.11-0.25-0.6-0.38-0.8a2.17,2.17,0,0,0,1.57.22,7.48,7.48,0,0,0,1.8-.66,0.69,0.69,0,0,0-.24-0.47l0.81,0.11-0.18-.19a4.62,4.62,0,0,1,1.91-.41,2.16,2.16,0,0,0,1.51-.52,0.59,0.59,0,0,1-.78-0.37,11,11,0,0,1,2.75-.82,0.31,0.31,0,0,1-.17-0.15,1.67,1.67,0,0,1,.94-0.11l-0.16-.46c0.59,0,1.13-.55,1.88-0.46,0-.3.41-0.35,0.9-0.39a2.36,2.36,0,0,0,1.33-.35c0.31,0-.8-0.23-0.07-0.56,0.56,0.91.95-.44,1.51,0.56l0.45-.69,0.39,0.44c0.06-1.23,1,0,1.69-.68a0.32,0.32,0,0,1-.2-0.17c0.31,0,.94-0.27.61,0.23,0.42-.23,2-0.75,1.06-0.95,0.2,0.27-.52.33-0.83,0.36-0.19-.45.53-0.61,0.44-1.17a1.55,1.55,0,0,0,.27.11l-0.05-.32c1,0.06,1.67-.7,2.57-0.41a0.41,0.41,0,0,1,.33-0.45l0.31,0.53,0.83-.48-0.82-.56a2,2,0,0,1,1.39-.35,3.76,3.76,0,0,0,1.39-.09c-0.32-1,1.65-.52,1.83-1.68l-0.72.1a3.8,3.8,0,0,0,1.27-.87,2.75,2.75,0,0,1,1.25-.75,10.91,10.91,0,0,0-1.89,2.28,3.66,3.66,0,0,1,1-.68,10.57,10.57,0,0,1,1-.44,3.76,3.76,0,0,0,1.79-1.19c-0.22-.15-0.62-0.08-0.44-0.49,0.54,0.29,1.2-.79,1.34-0.15a10.17,10.17,0,0,0,.24-1.19l1.74-.23-0.11-.07a4.08,4.08,0,0,1,1.37-1.48,8.29,8.29,0,0,1,1.75-.8c0.61-.23,1.24-0.43,1.83-0.71a6,6,0,0,0,.85-0.49,4.22,4.22,0,0,0,.75-0.68l-0.24-.23,0.71,0c-0.41,0,.05-0.49-0.08-0.72l0.91-.23,0.62-.17,0.28-.08c-0.14-.25-0.62-0.71-0.88-0.34,0.32-.67,1.27-0.54,1.75-0.87l-0.33-.1,0.6-.17-0.26-.32C2177.41,2145.06,2178,2144.15,2178.64,2144.19Zm-70.08,23.37a1.48,1.48,0,0,1,.92.34,1,1,0,0,0-.33,1,1.29,1.29,0,0,0-.28-0.22,0.39,0.39,0,0,1-.22-0.07,0.27,0.27,0,0,1,.22.07c0.15,0,.21-0.16.14-0.31a1.1,1.1,0,0,0-.44,0C2108.26,2167.79,2109.93,2168.5,2108.55,2167.55Zm9.56,9.63c0.11-.19.14-0.13,0.15,0a1.42,1.42,0,0,1,.23-0.11,1.88,1.88,0,0,0,0-1c0.09,0.15.08,0.57,0.31,0.38,0-.12.06-0.2,0-0.22l0.25,0a0.64,0.64,0,0,1-.5.83,0.93,0.93,0,0,1-.15.26c-0.05,0-.06-0.06-0.07-0.15a0.49,0.49,0,0,0-.17.17v-0.12Zm-2,3.21c-0.3.31-.08-0.44-0.26-0.6C2116.18,2179.46,2115.93,2180.28,2116.07,2180.39Zm-0.61-4c0,0.37-.1.1-0.22,0.33l-0.16-.18-0.16-.17C2115.14,2175.67,2115.25,2176.48,2115.45,2176.4Zm-2.79-.52a0.4,0.4,0,0,0,.34.45c0,0.55-.13.33-0.31,0.63,0.07-.15,0-0.58-0.22-0.49Zm-0.44-.1a0.59,0.59,0,0,0-.56.22C2111.68,2175.68,2112.21,2175.16,2112.22,2175.78Zm-2.54,1.7-0.16,0c0.31-.42.12,0.51,0.31,0.4l-0.13.07a1,1,0,0,0,.12.63c-0.16.15-.43-0.21-0.3-0.28C2109.85,2178.16,2109.47,2177.67,2109.69,2177.48Zm-0.36,1.4c-0.25.58-.29-0.06-0.37-0.32C2109.11,2178.88,2109.27,2178.16,2109.33,2178.89Zm-5.92-2.87c-0.05-.17-0.16,0-0.21-0.13,0.26-.33.21,0.29,0.34,0.46C2103.42,2176.33,2103.38,2176.41,2103.41,2176Zm0.25-4.23,0.07-.23,0.06-.23C2103.85,2171.65,2104.3,2172.3,2103.66,2171.79Zm1,7a2,2,0,0,1-.31-0.79c0.21,0.46.46-.67,0.44,0.18-0.07-.09-0.11-0.13-0.17-0.09A1.15,1.15,0,0,1,2104.63,2178.8Zm-0.59-6.95c0.06-.42.67,0.24,0.87,0.55,0.37,0.12.06-.21,0.1-0.35l0.27,0.46A3,3,0,0,1,2104,2171.85Zm1.23,3a1,1,0,0,1-.1-0.21l0.37,0.09c-0.12-.43,0-0.49.21-0.47s0.41,0.15.59,0.21h0a2.56,2.56,0,0,0,.32.91C2106.31,2174.68,2105.74,2174.9,2105.27,2174.85Zm1.86,2.68c-0.13-.05-0.44-1-0.46,0l0-.37,0.06,0-0.11-.13-0.11-.13C2106.85,2176.4,2107,2177.36,2107.13,2177.53Zm-0.6-5.36,0.46,0-0.36-.16,0.41,0.09,0.41,0.08C2107.46,2172.66,2106.85,2172.49,2106.53,2172.18Zm1,1.43a0.63,0.63,0,0,0-.26-0.51c0.28,0,.58,0,0.91,0a0.81,0.81,0,0,1,.14.33A1.36,1.36,0,0,0,2107.5,2173.61Zm6.17-.7-0.4-.45,0.56-.09Zm11.85-3.8a0.8,0.8,0,0,0-.71.32,1.86,1.86,0,0,0,.7.17c-0.36.71-2.07-.6-1.24,0.9-0.29-.12-1.19-0.31-1-0.67a4.41,4.41,0,0,0,2.11-1,0.22,0.22,0,0,1,.13-0.22,0.53,0.53,0,0,1-.13.22,0.55,0.55,0,0,0,.14.33,0.37,0.37,0,0,1,.26.13A0.28,0.28,0,0,1,2125.52,2169.1Zm6.94-1.29a9.31,9.31,0,0,1,1.12-.51C2133.63,2167.68,2132.76,2167.92,2132.46,2167.81Zm1.51-2.45-1.3-.25a1,1,0,0,1,.9-0.3,1,1,0,0,1,.72.37h-0.4l-0.41,0Zm0.46-.58,0.29,0.32-0.36-.29,0.08,0-0.07-.07,1.25-.25Zm3.2,0c-0.6-.11-0.34.27-0.57,0.45l0-.56a3.47,3.47,0,0,1,1.77.68C2138.21,2165.92,2137.68,2165.16,2137.62,2164.79Zm1.5,0.89-0.39.32c0.23-.4,0-1.17.77-0.64Zm13.84-8.27c-0.2-.08-0.31.21-0.51,0.14,0.34-.57.6,0,1,0C2153.17,2157.67,2153.12,2157.77,2153,2157.41Zm0.41-.79c0.4-.42,1.41-1.19,1.52-0.26C2154.39,2155.75,2153.68,2156.68,2153.38,2156.62Zm3.78,1.55c-0.31-.15-0.93.11-1.13-0.24,0.72,0.1.51-1.09,1-.4a0.58,0.58,0,0,0-.41.14C2156.85,2157.83,2157.37,2158,2157.16,2158.17Zm3.31-3.57-0.31-.24,0.09-.11-0.3,0-0.31,0c0.38-.81,1.31-0.3,1.72-0.36C2161.06,2154.12,2159.83,2153.84,2160.47,2154.6Zm5.24-2.39c0.54,0,.28-0.71,1-0.31C2166.65,2152.65,2166.06,2152.28,2165.71,2152.21Zm0.92-1c0.47-.58-0.64-0.35-0.38-0.78l-0.28.25c0.24-.72.63,0.16,0.9-0.18l-0.19.23c0,0.47.52,0,.74,0.23C2167.26,2151.3,2166.45,2151.47,2166.63,2151.24Zm2-4.54c-0.23-.23.25-1.3,0.8-0.94A2.06,2.06,0,0,0,2168.64,2146.7Zm2.65-.94c0-.19-0.58-0.28-0.82,0l-0.19-.63c0.25,0.32.89-.22,1-0.24C2171.72,2145.3,2171.35,2145.31,2171.29,2145.76Z" transform="translate(-1944.14 -1961.7)"/><path class="cls-1" d="M2140.85,2159.85l0.26,0.36A0.54,0.54,0,0,1,2140.85,2159.85Z" transform="translate(-1944.14 -1961.7)"/><path class="cls-1" d="M2143.68,2160.54a2.52,2.52,0,0,1-.38.09A0.63,0.63,0,0,0,2143.68,2160.54Z" transform="translate(-1944.14 -1961.7)"/><path class="cls-1" d="M2139.93,2160.8l-0.28.16A0.59,0.59,0,0,0,2139.93,2160.8Z" transform="translate(-1944.14 -1961.7)"/><path class="cls-1" d="M2152.77,2160.37l0,0.24C2153,2160.49,2152.89,2160.42,2152.77,2160.37Z" transform="translate(-1944.14 -1961.7)"/><path class="cls-1" d="M2145.34,2163.64h-0.11a0.6,0.6,0,0,0,.09.29Z" transform="translate(-1944.14 -1961.7)"/><path class="cls-1" d="M2138.35,2161.9l0.3,0v0A0.2,0.2,0,0,0,2138.35,2161.9Z" transform="translate(-1944.14 -1961.7)"/><path class="cls-1" d="M2155.81,2159.93a1.92,1.92,0,0,0-.53-0.28A0.46,0.46,0,0,0,2155.81,2159.93Z" transform="translate(-1944.14 -1961.7)"/><path class="cls-1" d="M2143.68,2160.54h0Z" transform="translate(-1944.14 -1961.7)"/><path class="cls-1" d="M2143.19,2164.76l-0.44.06A0.41,0.41,0,0,0,2143.19,2164.76Z" transform="translate(-1944.14 -1961.7)"/><path class="cls-1" d="M2121.25,2168.88l-0.29-.1A0.3,0.3,0,0,0,2121.25,2168.88Z" transform="translate(-1944.14 -1961.7)"/><polygon class="cls-1" points="214.43 191.09 214.43 191 213.82 191.08 213.82 191.17 214.43 191.09"/><polygon class="cls-1" points="167.25 202.43 167.63 202.78 167.78 202.59 167.25 202.43"/><polygon class="cls-1" points="166.42 204.95 166.58 205.14 166.53 204.86 166.42 204.95"/><path class="cls-1" d="M2119.7,2178a1.9,1.9,0,0,0-.12.44l0.07,0.15A0.39,0.39,0,0,0,2119.7,2178Z" transform="translate(-1944.14 -1961.7)"/><path class="cls-1" d="M2115.62,2179.46a0.17,0.17,0,0,0,.32,0C2115.85,2179.3,2115.86,2179.17,2115.62,2179.46Z" transform="translate(-1944.14 -1961.7)"/><path class="cls-1" d="M2101.23,2175.43h0.06l-0.12-.59-0.09-.13Z" transform="translate(-1944.14 -1961.7)"/><path class="cls-1" d="M2107.17,2173.3a0.64,0.64,0,0,0-.08-0.14c-0.12.06-.54-0.13-0.48,0.14h0.56Z" transform="translate(-1944.14 -1961.7)"/><path class="cls-1" d="M2104.32,2175.83a1.06,1.06,0,0,1,0,.26,1.57,1.57,0,0,0,0-.23Z" transform="translate(-1944.14 -1961.7)"/><path class="cls-1" d="M2105.13,2174.83l-0.09,0Z" transform="translate(-1944.14 -1961.7)"/><path class="cls-1" d="M2107,2173.73a1.22,1.22,0,0,0,.35-0.06,0.75,0.75,0,0,1-.14-0.3l-0.52.14A0.31,0.31,0,0,0,2107,2173.73Z" transform="translate(-1944.14 -1961.7)"/><path class="cls-1" d="M2106.26,2171.36a0.8,0.8,0,0,0,.45.32,0.22,0.22,0,0,0,.17,0,0.46,0.46,0,0,1-.17,0A0.76,0.76,0,0,0,2106.26,2171.36Z" transform="translate(-1944.14 -1961.7)"/><path class="cls-1" d="M2106.15,2172.74l0.29-.09,0.29-.09-0.07-.06,0,0-0.34-.24,0.31,0.26-0.25.12Z" transform="translate(-1944.14 -1961.7)"/><path class="cls-1" d="M2105.82,2170.48a1.61,1.61,0,0,0,.3-0.41A0.26,0.26,0,0,0,2105.82,2170.48Z" transform="translate(-1944.14 -1961.7)"/><path class="cls-1" d="M2105.5,2169.48l0.25,0.09c0.13,0.17.19,0.44,0.21,0.08l-0.21-.08A0.18,0.18,0,0,0,2105.5,2169.48Z" transform="translate(-1944.14 -1961.7)"/><path class="cls-1" d="M2101.48,2176.39l-0.15-.79-0.07,0,0.11,0.58,0,0A1.43,1.43,0,0,1,2101.48,2176.39Z" transform="translate(-1944.14 -1961.7)"/><path class="cls-1" d="M2103.72,2178.75l-0.11,0c0,0.07.07,0.06,0.11,0l0.17,0.05C2103.89,2178.42,2103.81,2178.67,2103.72,2178.75Z" transform="translate(-1944.14 -1961.7)"/><polygon class="cls-1" points="162.26 212.96 162.23 213.04 162.46 213.3 162.49 213.22 162.26 212.96"/><polygon class="cls-1" points="175.43 208.8 175.03 209.12 175.36 209.07 175.43 208.8"/><path class="cls-1" d="M2132.86,2168.58l-0.38-.12c0-.22.24-0.57-0.31-0.1l0.31,0.1C2132.49,2168.58,2132.56,2168.66,2132.86,2168.58Z" transform="translate(-1944.14 -1961.7)"/><path class="cls-1" d="M2133.85,2166.2a0.51,0.51,0,0,0-.46-0.41,0.5,0.5,0,0,0-.3,0,1.12,1.12,0,0,1,.3,0C2133.55,2165.89,2133.33,2166.17,2133.85,2166.2Z" transform="translate(-1944.14 -1961.7)"/><path class="cls-1" d="M2135.8,2165.4a0.22,0.22,0,0,0,0,.09Z" transform="translate(-1944.14 -1961.7)"/><polygon class="cls-1" points="209.54 193.47 209.54 193.94 209.94 193.61 209.54 193.47"/><path class="cls-1" d="M2155.61,2159.1c-0.22-.31-0.23,0-0.38.16l-0.24.1a0.25,0.25,0,0,0,.24-0.1Z" transform="translate(-1944.14 -1961.7)"/><path class="cls-1" d="M2174.12,2148.47h0Z" transform="translate(-1944.14 -1961.7)"/><path class="cls-1" d="M2150.55,2155.74a0.31,0.31,0,0,0,0,.25A0.25,0.25,0,0,0,2150.55,2155.74Z" transform="translate(-1944.14 -1961.7)"/><path class="cls-1" d="M2149.15,2156.13h0.05l0,0h-0.1Z" transform="translate(-1944.14 -1961.7)"/><path class="cls-1" d="M2111.59,2171.77h0Z" transform="translate(-1944.14 -1961.7)"/><path class="cls-1" d="M2114,2171.54a0.39,0.39,0,0,0-.31.14A0.79,0.79,0,0,1,2114,2171.54Z" transform="translate(-1944.14 -1961.7)"/><path class="cls-1" d="M2126.2,2166c0.12-.08.57-0.32,0.27-0.35l-0.65.22C2125.89,2166,2126.1,2166,2126.2,2166Z" transform="translate(-1944.14 -1961.7)"/><path class="cls-1" d="M2129.79,2169.54v0l-0.19,0h0.18Z" transform="translate(-1944.14 -1961.7)"/><path class="cls-1" d="M2133.34,2163.24l0.32-.13-0.51.08-0.52.07,0.39,0.11Z" transform="translate(-1944.14 -1961.7)"/><polygon class="cls-1" points="191.4 200.89 191.38 201.08 192.12 200.82 191.4 200.89"/><path class="cls-1" d="M2114,2160.5a0.45,0.45,0,0,1-.08.07C2114,2160.61,2114.05,2160.58,2114,2160.5Z" transform="translate(-1944.14 -1961.7)"/><path class="cls-1" d="M2113,2160.15l0,0-0.1.09-0.1.09C2112.87,2160.28,2113.15,2160.33,2113,2160.15Z" transform="translate(-1944.14 -1961.7)"/><path class="cls-1" d="M2112.71,2160.4l0,0Z" transform="translate(-1944.14 -1961.7)"/><path class="cls-1" d="M2113.72,2160.47l-0.28-.06,0,0.18,0.15-.06Z" transform="translate(-1944.14 -1961.7)"/><path class="cls-1" d="M2111.93,2168.27l-0.64,0C2111.55,2168.36,2111.94,2168.62,2111.93,2168.27Z" transform="translate(-1944.14 -1961.7)"/><path class="cls-1" d="M2102.61,2178.51l0,0.23C2102.65,2178.72,2102.64,2178.61,2102.61,2178.51Z" transform="translate(-1944.14 -1961.7)"/><path class="cls-1" d="M2101.31,2172.4l0.06,0a1.54,1.54,0,0,0-.14-0.27Z" transform="translate(-1944.14 -1961.7)"/><path class="cls-1" d="M2105.73,2174.78l-0.18,0v0C2105.64,2174.85,2105.7,2174.86,2105.73,2174.78Z" transform="translate(-1944.14 -1961.7)"/><path class="cls-1" d="M2103.74,2179.62a3,3,0,0,0-.1-0.51A0.68,0.68,0,0,0,2103.74,2179.62Z" transform="translate(-1944.14 -1961.7)"/><path class="cls-1" d="M2102,2171.84h0.2C2102.13,2171.78,2102,2171.76,2102,2171.84Z" transform="translate(-1944.14 -1961.7)"/><path class="cls-1" d="M2111.08,2168.23h0.21A0.2,0.2,0,0,0,2111.08,2168.23Z" transform="translate(-1944.14 -1961.7)"/><path class="cls-1" d="M2114.25,2161.61a1,1,0,0,0-.36.06C2114.06,2161.7,2114.22,2161.72,2114.25,2161.61Z" transform="translate(-1944.14 -1961.7)"/><path class="cls-1" d="M2122.28,2177.85l-0.05,0A0.05,0.05,0,0,0,2122.28,2177.85Z" transform="translate(-1944.14 -1961.7)"/><path class="cls-1" d="M2118,2175.36a1,1,0,0,0,0,.19C2118.09,2175.42,2118.1,2175.31,2118,2175.36Z" transform="translate(-1944.14 -1961.7)"/><path class="cls-1" d="M2113.87,2174.73v0Z" transform="translate(-1944.14 -1961.7)"/><path class="cls-1" d="M2112.29,2180.74l0,0.07Z" transform="translate(-1944.14 -1961.7)"/><path class="cls-1" d="M2117.21,2175.71a0.25,0.25,0,0,0,.17,0A0.13,0.13,0,0,0,2117.21,2175.71Z" transform="translate(-1944.14 -1961.7)"/><path class="cls-1" d="M2114.72,2162.2c0-.1.54-0.24,0-0.26C2114.42,2161.95,2114.75,2162.1,2114.72,2162.2Z" transform="translate(-1944.14 -1961.7)"/><path class="cls-1" d="M2114,2162.31a0.51,0.51,0,0,1-.38.13C2113.9,2162.43,2114,2162.38,2114,2162.31Z" transform="translate(-1944.14 -1961.7)"/><path class="cls-1" d="M2114,2161.9c-0.21.16,0,.31-0.06,0.42A0.42,0.42,0,0,0,2114,2161.9Z" transform="translate(-1944.14 -1961.7)"/><path class="cls-1" d="M2112.36,2164.84a0.18,0.18,0,0,1,0,.16S2112.41,2164.93,2112.36,2164.84Z" transform="translate(-1944.14 -1961.7)"/><path class="cls-1" d="M2110.44,2171c0,0.08-.11.31,0.07,0.29l0.21-.25A0.23,0.23,0,0,0,2110.44,2171Z" transform="translate(-1944.14 -1961.7)"/><path class="cls-1" d="M2108.53,2171.17l0.48,0.5c0.18,0-.29-0.28-0.09-0.44Z" transform="translate(-1944.14 -1961.7)"/><path class="cls-1" d="M2106.49,2168.68l0,0,0.07,0h-0.1Z" transform="translate(-1944.14 -1961.7)"/><path class="cls-1" d="M2116.27,2175.64l0.43,0.25C2116.38,2175.66,2116.69,2175.47,2116.27,2175.64Z" transform="translate(-1944.14 -1961.7)"/><path class="cls-1" d="M2442.39,1963.53a1.09,1.09,0,0,0,.14-0.09C2442.46,1963.57,2442.41,1963.63,2442.39,1963.53Zm0.86-.82a4.7,4.7,0,0,0,.25-0.49c0.06-.17.11-0.33,0.15-0.47a0.54,0.54,0,0,0-.41.21,2.25,2.25,0,0,0-.14.21,1.86,1.86,0,0,0-.13.26c-0.07.19-.16,0.37-0.23,0.56a3.24,3.24,0,0,1-.2.45A2.19,2.19,0,0,0,2443.25,1962.71Zm-1.33,0a0.27,0.27,0,0,0,.06-0.19l-0.07.06-0.18.12-0.26.17a0.53,0.53,0,0,1,.32-0.11A0.2,0.2,0,0,0,2441.92,1962.76Zm0,0.67,0.06,0,0.14,0,0.2-.07-0.18-.18-0.11.15-0.08.1Zm-11.36,9.48c-0.22,0-.51-0.07-0.83-0.14C2429.93,1972.94,2430.13,1973.3,2430.53,1972.92Zm-15.4,8-0.1.18C2415.2,1981.16,2415.18,1981.06,2415.13,1981Zm-6.1-6.14-0.09.23,0.08,0A0.56,0.56,0,0,0,2409,1974.82Zm8.29,7.47a1.67,1.67,0,0,0-.19-0.48A0.41,0.41,0,0,0,2417.32,1982.29Zm-6.45-7.59,0.36,0.05A0.32,0.32,0,0,0,2410.86,1974.7Zm18.57-2,0.26,0.05A0.27,0.27,0,0,0,2429.44,1972.73Zm12-7.53a0.9,0.9,0,0,0-.43,0A0.3,0.3,0,0,0,2441.47,1965.19Zm11.14,21.73a0.14,0.14,0,0,0,.08,0Zm-8-3.8a0.64,0.64,0,0,0,.06.18C2444.75,1983.19,2444.74,1983.09,2444.65,1983.12Zm-10.12,3,0.06,0.08Zm9-2.86a0.49,0.49,0,0,0-.31-0.09A1,1,0,0,0,2443.52,1983.26Zm-2.3-17.12c0.15-.14.79-0.2,0.29-0.37C2441.22,1965.71,2441.38,1966,2441.22,1966.14Zm-1.42.08a0.58,0.58,0,0,0,.55-0.1A0.8,0.8,0,0,1,2439.8,1966.22Zm1.12-.67a1.35,1.35,0,0,0-.57.57A1.58,1.58,0,0,0,2440.92,1965.56Zm-3.88,2.88h0Zm-0.68.26a1.44,1.44,0,0,0,1.33.21c-0.19-.13-1.38.3-0.65-0.46A0.72,0.72,0,0,1,2436.36,1968.7Zm-1,.37a0.66,0.66,0,0,1-.22.19A0.33,0.33,0,0,0,2435.32,1969.07Zm-0.22.19c-0.32.09-.8-0.22-1.07,0.18a1,1,0,0,0,.87.24C2434.65,1969.47,2434.88,1969.38,2435.1,1969.25Zm-12.22,6.18-0.51-.13,0.15,0.58C2422.78,1975.91,2422.41,1975.55,2422.88,1975.44Zm-0.67-3v0l0.16,0h-0.15Zm19.27,10.34,0.43,0.19,0.42,0.2C2441.67,1982.85,2442.23,1982.78,2441.48,1982.8Zm28.86,180.38a1.07,1.07,0,0,1,0,1.52l-0.09.08c-0.2.19-1.05,1.06-1.82,1.84-3.9,4-3.9,4-4.43,4a1.12,1.12,0,0,1-.77-0.31c-0.29-.29-0.3-0.3-0.6-3.33l-0.42.43-2.15,2.17c-1.29,1.3-1.37,1.37-1.85,1.38h0a1.08,1.08,0,0,1-.76-0.32c-0.36-.36-0.35-0.53-0.27-1.86,0-.52.07-1.17,0.11-1.82l-0.7.71-1.6,1.62c-0.91.92-1,1-1.5,1a1,1,0,0,1-.76-0.31c-0.33-.33-0.33-0.33-0.38-3.12v-0.25l-0.81.83c-3.05,3.13-3.05,3.13-3.57,3.14h0a1.08,1.08,0,0,1-.76-0.32c-0.33-.33-0.33-0.33-0.29-2.81v-0.66l-0.93.95-1.9,1.93c-1.09,1.1-1.18,1.19-1.66,1.19a1.06,1.06,0,0,1-.76-0.31c-0.36-.36-0.35-0.53-0.26-1.86,0-.49.08-1.09,0.12-1.7l-1.3,1.33-1.44,1.47c-0.81.82-.93,0.94-1.4,0.94h0a1.07,1.07,0,0,1-.76-0.32c-0.39-.39-0.36-0.59-0.19-2,0.07-.58.17-1.34,0.27-2.09l-1.2,1.22-1.29,1.31c-0.72.73-.85,0.86-1.31,0.87h0a1.07,1.07,0,0,1-.76-0.31c-0.32-.32-0.32-0.45-0.34-1.73,0-.52,0-1.19,0-1.85l-0.78.8c-3.58,3.66-3.58,3.66-4.1,3.66h0a1.08,1.08,0,0,1-.76-0.31c-0.37-.37-0.35-0.51-0.23-1.88,0.05-.56.12-1.28,0.19-2l-1.11,1.13-1.7,1.74c-0.94,1-1.06,1.07-1.54,1.08a1.12,1.12,0,0,1-.77-0.31c-0.35-.35-0.35-0.49-0.26-1.83,0-.5.08-1.14,0.12-1.78l-1.06,1.08-2.06,2.1c-1.16,1.17-1.26,1.26-1.74,1.27a1.07,1.07,0,0,1-.77-0.32c-0.34-.34-0.34-0.46-0.29-1.84,0-.52,0-1.17.07-1.81l-0.41.42c-3.09,3.17-3.09,3.17-3.61,3.17h0a1.08,1.08,0,0,1-.76-0.31c-0.26-.26-0.26-0.26-0.71-2.9l0-.26-1.13,1.14-1.52,1.54c-0.88.89-1,1-1.46,1a1.07,1.07,0,0,1-.76-0.31c-0.31-.31-0.32-0.32-0.5-3.29l-0.81.83c-1.43,1.46-2.22,2.28-2.7,2.73a0.43,0.43,0,0,1,.48.2v-0.22a0.91,0.91,0,0,0,.5.28,2.43,2.43,0,0,0,.63.06,5.83,5.83,0,0,1,1.3,0c-0.11.11-.6-0.23-0.74,0.32l0.83,0.52c0.11-.11.51,0,0.39-0.38a0.41,0.41,0,0,0-.36-0.06l0.23-.22c0.72,0.62-.38.76-0.58,1.26,0.51,0,.46.56,0.75,0.67,0.35-.43-0.34-0.78.27-1.15,0.38-.17,1.07.61,1.15,1.22,0.93-.94,1.79.54,2.21-0.31-0.06.05-.06,0.44,0.2,0.41v-0.28c0.8-.09.21,1.08,0.67,1.06a1.91,1.91,0,0,0,0-.5,1.39,1.39,0,0,1,.83.9,0.93,0.93,0,0,0,.93.69c0-.11,0-0.22-0.06-0.23s0.16,0,.3.32l-0.45.16c-0.06.61,0.26,0.65,0.67,0.62a4.9,4.9,0,0,1,.64,0,0.66,0.66,0,0,1,.51.24c0-.22-0.41-0.52,0-0.62,0.42,0.24-.24,1.25.55,1.05-0.15-.25.21-0.69,0.05-0.91,0.36,0.13.76,0,.65,0.42a0.38,0.38,0,0,0,.31-0.21,0.72,0.72,0,0,0,.75.49l0.06-.21c-0.11.6,0,.72,0.29,0.74a1.27,1.27,0,0,1,.83.15l0.1-.32a0.83,0.83,0,0,0,.9.72l0-.45c0.14,0.43,1.08.41,1,1.08,0.18,0,.16-0.77.69-0.41,0,0.28.18,0.8,0.55,0.65,0.12-.13.2-0.34-0.06-0.33s-0.08,0-.12.13v-0.36a0.35,0.35,0,0,1,.35.31,0.46,0.46,0,0,0,.31.4,0.75,0.75,0,0,0,.18-0.6l0.17,0.31,0.37,0.7,0.2,0.4,0.09,0.18,0.12,0.22,0.1,0.19a0.75,0.75,0,0,1,.06.13l0,0.08a1.62,1.62,0,0,0-.64.44l-0.08-.07-0.24-.23a2.33,2.33,0,0,0-.22-0.18l-0.09-.07a0.27,0.27,0,0,0-.27.38c0,0.16.23,0.49,0.25,0.62s-0.39-.42-0.38-0.39a0.1,0.1,0,0,0-.08.11l-0.22-.27c0.09,0.56-.24.52-0.53,0.5a0.62,0.62,0,0,0-.37,0,0.36,0.36,0,0,0-.05.42,1.26,1.26,0,0,1,0-.85c-0.21-.4-0.36-0.1-0.6-0.07,0,0,0,.18.08,0.36l0.07,0.36c-0.28-.39-0.35-0.28-0.43-0.11a0.42,0.42,0,0,1-.54.31,0.75,0.75,0,0,0-1-.28,2,2,0,0,1-.94.15c-0.53-.54.56-0.24,0.36-0.75-0.3-.31-0.36.13-0.64,0.06l0.22-.62c-0.34-.36-0.37.47-0.45,0.12-0.54.1,0,.27-0.26,0.72,0-.16-0.19-0.6-0.47-0.5-0.1.15,0.29,0.46,0,.34a1.74,1.74,0,0,0-.57-0.49,2.25,2.25,0,0,0-.55-0.2c-0.18,0-.36-0.08-0.55-0.14a2.06,2.06,0,0,1-.62-0.3l-0.08.32c-0.07-.12-0.07-0.29-0.23-0.25l-0.05.21c-0.07,0-.27-0.29-0.54-0.56a2.9,2.9,0,0,0-1-.68l0.13,0.51-0.34-.7-0.21.53c0.07-.6-0.74-0.64-1.22-1l-0.16.32-0.23-.35v0.27c-0.31-.19-0.43-0.91-0.93-0.84,0.29,0,.1.56,0,0.77l-0.35-.52-0.25-.35-0.12-.16c-0.12.2-.53,0.1-0.44,0.4l-0.18-.47-0.09.27a2.28,2.28,0,0,1-1.14-.51c-0.17-.13-0.32-0.28-0.48-0.42l-0.47-.44a2.41,2.41,0,0,0-2.33-.83v0.11l-0.72-1a9.25,9.25,0,0,1-.78.51c0.32-.45-0.53-0.26-0.55-0.76-0.3.12-.12,0.33-0.13,0.55a1.85,1.85,0,0,1-1.31-.42,2.42,2.42,0,0,0-1.36-.51,5,5,0,0,1,2-.21c-0.72-.58-1-0.11-1.86-0.57l0.33,0.37c-0.71.59-1.21-.87-1.63-0.08-0.48-.3-0.66-1.29-1.36-1.34l0,0.82-0.59-.17,0.15-.51a0.26,0.26,0,0,0-.37.1c-0.23-.7-0.89-0.55-1.32-1.17l-0.14.23a1.36,1.36,0,0,1-.06-0.22c-0.24.41-.64,0.11-0.79,0.51,0.15,0.15.49,0.51,0.54,0.23,0.3,0.64-.64.11-0.94,0,0.32-.12.11-0.27-0.06-0.4l0-5.91,0.11,0a0.37,0.37,0,0,0-.12-0.18c0.2-.22.44,0,0.64,0.1s0.37,0.19.37-.32l0.26,0.43,0.26-.49c0.2,0.45.35,0.42,0.49,0.38s0.29-.11.51,0.3c0.46-.18-0.29-0.49-0.08-0.47a1.2,1.2,0,0,1,.84-0.14c0.31,0,.58,0,0.55-0.25a0.78,0.78,0,0,0,.39,0l0.63-.63v0h0l0.14-.13c0.83-.84.91-0.9,1.35-0.9a1.07,1.07,0,0,1,.58.17l0,0a0.5,0.5,0,0,0-.61-0.28,0.54,0.54,0,0,1,.33-0.31,2.62,2.62,0,0,1,.55-0.15,5.3,5.3,0,0,0,.62-0.14,1.29,1.29,0,0,0,.52-0.32l-0.17-.14h0.57a0.8,0.8,0,0,1-.3-0.35,3.64,3.64,0,0,1,1-.7,1.39,1.39,0,0,1,1.09-.05c-0.15-.13,0-0.57-0.53-0.55,1-.06,1.65-0.83,2.4-1.31v0l0.21,0,0.2-.05,0-.07-0.29.07a2,2,0,0,1,1-.34,1.51,1.51,0,0,1-.22-0.73c0.19,0.19.29-.08,0.42-0.38a0.73,0.73,0,0,1,.68-0.58c-0.06-.14-0.2.06-0.23-0.17a8.85,8.85,0,0,1,.72-0.56c0.26-.2.55-0.4,0.83-0.62a6.68,6.68,0,0,0,.77-0.74,3.15,3.15,0,0,0,.54-0.88,0.87,0.87,0,0,0,1.09-.06c0.16-.11.33-0.25,0.5-0.38a2,2,0,0,1,.55-0.33c-0.38-.5-0.49.14-1,0,0.34-.24-0.55-0.51.25-0.79-0.1,0-.15-0.1-0.23,0,0.19-.34.56,0.51,0.76-0.1l-0.34-.26h0.67a11,11,0,0,1,.86-1.54,6.77,6.77,0,0,0,.39-0.73,3.13,3.13,0,0,0,.21-0.8,0.35,0.35,0,0,1,.32.29,2.35,2.35,0,0,1,.62-0.56,0.74,0.74,0,0,0,.35-0.76l-0.22.06a0.85,0.85,0,0,1,.16-0.51,1,1,0,0,1,.34-0.27,3.64,3.64,0,0,0,.45-0.27,1.56,1.56,0,0,0,.43-0.52,3.54,3.54,0,0,1-.23.45,0.29,0.29,0,0,0,.13.44,0.36,0.36,0,0,0,.35-0.28,0.6,0.6,0,0,0,0-.5l0.5,0.28a1.69,1.69,0,0,0-.77.66,0.41,0.41,0,0,1,.31,0,8.72,8.72,0,0,0-.73.83l0.1-.27c0.05-.13.1-0.27,0.1-0.27a0.45,0.45,0,0,0-.45.43,0.73,0.73,0,0,1-.22.53c0.48,0.24.57-.11,0.79,0.39-0.27.94-.74,0.25-1.59,0.77l-0.08-.22c-0.2.21-.78,0.12-0.65,0.66a0.74,0.74,0,0,0,.69-0.14c0.14,0.19-.8.11-0.65,0.56a1.21,1.21,0,0,0,.78-0.26,2,2,0,0,0,.52-0.61,0.76,0.76,0,0,0,.47.25c-1,1.06-2.4,2-3,3.24,1-.21-0.18.26,0.49,0.54-0.46-.21-0.34.43-0.74,0.61a0.37,0.37,0,0,0,.54,0c0.17-.09.31-0.18,0.36,0.05a5.11,5.11,0,0,1-1.23.66,2.31,2.31,0,0,0-1.16.89,1.44,1.44,0,0,0,.47,0,4.15,4.15,0,0,1-1.16.35c-0.38.11-.67,0.26-0.5,0.7a12.79,12.79,0,0,0,1.34-.12,0.59,0.59,0,0,0-.09.41l0.44,0.08c-0.42.67-1-.11-1.66-0.12l0.08,0.71a1.71,1.71,0,0,1-.82.91,2.12,2.12,0,0,1-1.24.16c-0.1.12-.56,0.56,0,0.73a1.62,1.62,0,0,0,1.87-.25c-0.25-.41-0.83.1-0.68-0.11,0.33-.18.5-0.9,1-0.82l-0.34.32-0.34.32c0.52,0.49.29-.26,0.66-0.14,0.24,0.58-.58.52-0.62,1l0.07,0a3.58,3.58,0,0,1-1.21.77c-0.47-.43-0.09-0.46,0-0.88a3.71,3.71,0,0,1-.82.53c-0.31.16-.65,0.31-1,0.48a3.18,3.18,0,0,0-.83.62,1.8,1.8,0,0,0-.44,1h0.45l0.45,0c-0.23.33-1,.4-0.85,0.81l0,0,0.11,0.13c0.23-.45.37,0,0.65,0l0-.07c0.07,0,.29-0.06.26,0.1a2.21,2.21,0,0,0-.84.07,1,1,0,0,1,.14.57h0.26l-0.27.12c0,0.17,0,.36-0.08.6l-0.21,1.41-0.14.91,0.71-.73c2.75-2.82,2.75-2.82,3.25-2.82h0a1.08,1.08,0,0,1,.76.31c0.3,0.3.3,0.3,0.46,2.84l0,0.45,0.55-.56,1.75-1.77c1-1,1.13-1.14,1.61-1.14h0a1.08,1.08,0,0,1,.76.31c0.25,0.25.25,0.25,0.7,2.86l0.05,0.31,1.38-1.41c2.61-2.67,2.61-2.67,3.11-2.68h0a1.08,1.08,0,0,1,.76.32c0.34,0.34.33,0.54,0.29,1.53,0,0.44,0,1-.07,1.66l0,0.49,1.11-1.13,2.09-2.12c1.17-1.18,1.27-1.28,1.75-1.28h0a1.08,1.08,0,0,1,.76.32c0.35,0.35.34,0.54,0.27,1.6,0,0.46-.07,1.08-0.12,1.73l0,0.27,0.46-.47c3.45-3.52,3.45-3.52,4-3.52a1.07,1.07,0,0,1,.77.31c0.36,0.36.35,0.57,0.24,1.71,0,0.51-.11,1.19-0.18,1.89l0,0.27,1.25-1.27,1.77-1.81c1-1,1.1-1.11,1.57-1.11a1.11,1.11,0,0,1,.77.32c0.32,0.31.32,0.49,0.33,1.46,0,0.43,0,1,0,1.61v0.49l0,0c3.64-3.71,3.64-3.71,4.17-3.72h0a1.08,1.08,0,0,1,.76.32c0.38,0.38.35,0.63,0.2,1.8-0.07.54-.16,1.26-0.26,2l0,0.19c3.43-3.5,3.44-3.5,4-3.5h0a1.08,1.08,0,0,1,.76.32c0.35,0.35.34,0.59,0.27,1.56,0,0.44-.07,1-0.12,1.65l0,0.34,0.79-.8,1.89-1.92c1.09-1.1,1.18-1.19,1.65-1.19a1.08,1.08,0,0,1,.76.31c0.34,0.34.33,0.48,0.32,1.86,0,0.47,0,1,0,1.61l0.94-1c2.83-2.9,2.83-2.9,3.34-2.9a1.1,1.1,0,0,1,.77.32c0.33,0.33.33,0.33,0.39,3.35l0.57-.58,1.82-1.84c1.05-1.06,1.16-1.17,1.64-1.17h0a1.08,1.08,0,0,1,.76.31c0.35,0.35.34,0.59,0.28,1.58,0,0.45-.07,1.07-0.11,1.71l0,0.42,1.25-1.27,1.4-1.42c0.79-.8.91-0.92,1.37-0.92a1.1,1.1,0,0,1,.77.32c0.28,0.28.28,0.28,0.52,2.66l0.07,0.73,2.08-2.12,1.34-1.36c0.74-.75.88-0.89,1.34-0.89h0A1.07,1.07,0,0,1,2470.34,2163.18Zm-61.3-12.12,0.26,0.39,0.23-.3Zm-2,3.63,0.11,0.21,0.06-.36Zm-2.81,3.09a0.22,0.22,0,0,0-.23,0,0.3,0.3,0,0,0,.23,0,0.61,0.61,0,0,1,.24.19,0.43,0.43,0,0,0,0,.2,0.17,0.17,0,0,0,0-.2,2.5,2.5,0,0,1,.81-1.37c-0.06-.31-0.7-0.16-0.93-0.17,1.22,0.81-.45.39-0.33,1a1.21,1.21,0,0,1,.51-0.08A0.44,0.44,0,0,1,2404.26,2157.79Zm11.22,21.25a0.94,0.94,0,0,0-.18.35l0.08,0.2C2415.72,2179.58,2415.64,2179.21,2415.49,2179Zm-2.14-1.66a0.44,0.44,0,0,1,.24-0.05c0,0.09,0,.19.09,0.18a0.53,0.53,0,0,0,.23-0.15c0.4,0.07.82,0.16,0.76-.48l-0.34-.13c0.14,0.09.07,0.13,0,.23-0.33,0-.28-0.35-0.39-0.54a1.25,1.25,0,0,1-.07.92l-0.32,0c0-.09,0-0.17-0.21-0.06Zm-3.46.92c0.24,0.26-.15.81,0.32,0.71C2410,2178.82,2410.45,2178.21,2409.89,2178.3Zm-0.26-.41a0.36,0.36,0,0,0,.47.16C2410,2177.87,2410,2177.76,2409.63,2177.88Zm-0.69-3.18,0.22,0.24,0.21,0.25c0.18-.14.28,0.15,0.34-0.18a0.75,0.75,0,0,1-.35-0.37C2409.25,2174.51,2409.13,2174.44,2408.93,2174.7Zm-3.56-1.21c0.3,0,.39.52,0.23,0.56,0.33-.2.45,0.08,0.56-0.41,0-.06-0.58-0.25-0.44-0.58Zm-1.12-.83a1.18,1.18,0,0,1,.85.1C2405.16,2172.21,2404.32,2172.39,2404.25,2172.66Zm-3.05,1.38c0.07-.28-0.37-0.33-0.1-0.61h0.2c-0.3,0,.11-0.72-0.41-0.5l0.24,0.06c-0.35.05,0.15,0.67-.35,0.66C2400.58,2173.65,2400.94,2174.1,2401.19,2174Zm-8.63-5.31,0,0h-0.07Zm4-2.59,0.2-.21C2396.63,2166,2396.58,2166.06,2396.6,2166.15Zm-3.3,2.12h0.16l0-.1A0.56,0.56,0,0,0,2393.29,2168.27Zm-1.19-.19-0.2-.27a0.61,0.61,0,0,1-.13.23A0.35,0.35,0,0,0,2392.1,2168.08Zm0.52,0.69,0.17,0.05A0.13,0.13,0,0,0,2392.62,2168.77Zm0.33,0.09a0.52,0.52,0,0,1,.37.26l0-.25a0.71,0.71,0,0,0-.27-0.12l-0.17.1Zm3.53,0.47a1.48,1.48,0,0,1,.44.5,2.42,2.42,0,0,0-.33-0.62Zm0.45,0.06-0.25-.27-0.06.06,0.25,0.27Zm3.68-6.94h-0.48l0.4,0.08-0.28.05-0.29,0a0.73,0.73,0,0,0,.26.14h0.19a1.07,1.07,0,0,1,.26,0,0.57,0.57,0,0,0,.44-0.39Zm-0.67-.66a0.47,0.47,0,0,0,.44.24,0.38,0.38,0,0,0,.28-0.06,0.57,0.57,0,0,1-.28.06C2400.24,2162,2400.29,2161.72,2399.94,2161.78Zm-0.17-2,0.29,0c0.09,0.17.05,0.48,0.24,0l-0.24,0C2400,2159.73,2399.93,2159.67,2399.77,2159.79Zm0,1.09a4,4,0,0,0,.56-0.58C2400.07,2160.28,2399.59,2160.6,2399.74,2160.88Zm-0.06,1.88,0.2,0.14,0,0Zm-0.44.62,0.13-.06h0l0,0-0.08,0Zm-0.45-.78,0.05,0.07Zm-2,.38a2.4,2.4,0,0,0,1.39.39l-0.17-.45c-0.11.17,0.17,0.45-.27,0.42C2397.62,2163.06,2397.06,2162.5,2396.81,2163Zm-0.49,0c0.65,0.38.32-.22,0.37-0.55l0.12-.18a0.21,0.21,0,0,0-.12.18Zm-5.87,6v-1a0.85,0.85,0,0,1,.21-0.24l0,0-0.17.08v-0.22a1.14,1.14,0,0,1-.36-0.47V2168l-0.11,0a0.86,0.86,0,0,1,.11.17v0.55A1.62,1.62,0,0,1,2390.46,2169Zm1.48,2.39-0.15-.07a0.13,0.13,0,0,0,.15.07l0.24,0.12C2392.25,2171.21,2392.08,2171.39,2391.93,2171.42Zm0.3-2a0.77,0.77,0,0,0-.17-0.08c-0.17-.2,0-0.71-0.44-0.54,0.05,0.16.25,0,.3,0.2-0.12.32,0,.27,0.14,0.34A0.21,0.21,0,0,0,2392.23,2169.38ZM2393,2171a1.61,1.61,0,0,0,.34.8c0.2,0,.06-0.39.06-0.61a0.31,0.31,0,0,1,.25.15C2393.78,2170.64,2393.22,2171.5,2393,2171Zm4.32,0.82c-0.19-.21-0.26-1.09-0.87-0.84l0.29,0.32h-0.1v0.33C2396.78,2170.83,2397.1,2171.74,2397.3,2171.85Zm1.26-1.43a1.06,1.06,0,0,1-.1-0.6,6.48,6.48,0,0,0-.73-0.13c0.3-.49.44,0,0.73,0,0-.3.08-0.72,0.17-1.34,0.06-.44.14-1,0.22-1.47l-0.39.4-1.62,1.65a1.66,1.66,0,0,1,.65.63c0.13,0.19.26,0.41,0.4,0.61a4.33,4.33,0,0,0,.41.58l0.07-.61A1.14,1.14,0,0,0,2398.56,2170.42Zm1.84,3.62c0-.67-0.33-0.11-0.51-0.45a0.26,0.26,0,0,0,0-.09,0.44,0.44,0,0,0,0,.09C2400,2173.85,2399.94,2174.42,2400.4,2174Zm69.81-9.23a1.06,1.06,0,0,1-.34.16A1,1,0,0,0,2470.21,2164.81Zm1.15-13.47a1.07,1.07,0,0,1,0,1.52l-0.15.13c-0.32.3-1.71,1.72-2.84,2.87l-2.24,2.28c-1.22,1.23-1.35,1.36-1.85,1.37h0a1.08,1.08,0,0,1-.76-0.31c-0.55-.55-0.29-1.1,0-1.8l0.71-1.47,1.19-2.41a1.14,1.14,0,0,1-.94.5,1.07,1.07,0,0,1-.77-0.32,1.3,1.3,0,0,1,0-1.69l0.59-1.18,1.63-3.19h0c-1.4,1.41-1.4,1.41-1.87,1.41h0a1.07,1.07,0,0,1-.76-0.31,1.38,1.38,0,0,1,0-1.76c0.15-.31.38-0.74,0.69-1.33,0.45-.85,1-1.92,1.61-3a0.77,0.77,0,0,1-.44.09h0a1.08,1.08,0,0,1-.76-0.31,1.26,1.26,0,0,1-.05-1.58l0.47-1,1.48-3,0.22-.45c-1.24,1.24-1.37,1.35-1.84,1.35h0a1.08,1.08,0,0,1-.76-0.32,1.32,1.32,0,0,1,0-1.65l0.54-1.19,1.24-2.68c-0.66.65-.76,0.65-1.09,0.66a1.08,1.08,0,0,1-.77-0.31c-0.54-.54-0.28-1.11,0-1.78,0.16-.36.39-0.86,0.67-1.45l1.18-2.5c-1,1-1.14,1.11-1.59,1.11h0a1.08,1.08,0,0,1-.76-0.31,1.32,1.32,0,0,1,0-1.68l0.59-1.15c0.44-.84,1-1.91,1.62-3.06-0.88.88-1,1-1.46,1h0a1.08,1.08,0,0,1-.76-0.32,1.36,1.36,0,0,1,0-1.74c0.15-.29.37-0.7,0.68-1.26,0.49-.89,1.11-2,1.79-3.22a1.3,1.3,0,0,1-1.05.6,1.08,1.08,0,0,1-.76-0.31,1.25,1.25,0,0,1-.06-1.57l0.45-.93,1.42-2.9,0.1-.21c-0.94.94-1,1-1.5,1h0a1.07,1.07,0,0,1-.76-0.31,1.29,1.29,0,0,1,0-1.64l0.54-1.08c0.42-.82,1-1.91,1.55-3-0.89.87-1,.87-1.35,0.87a1.1,1.1,0,0,1-.77-0.31,1.3,1.3,0,0,1,0-1.67l0.57-1.11c0.48-.91,1.13-2.12,1.8-3.39l0.06-.1a1,1,0,0,1-.84.39h0a1.07,1.07,0,0,1-.76-0.31,1.28,1.28,0,0,1-.09-1.55l0.43-1c0.32-.72.75-1.67,1.21-2.66-0.82.8-.93,0.8-1.27,0.8a1.1,1.1,0,0,1-.77-0.31,1.25,1.25,0,0,1-.07-1.56l0.44-.92,1.41-2.87,0.29-.59c-1.51,1.53-1.6,1.53-2,1.53h0a1.08,1.08,0,0,1-.76-0.32c-0.58-.58-0.24-1.22.08-1.85,0.18-.35.44-0.83,0.81-1.48,0.51-.92,1.15-2.06,1.81-3.23-1,1-1,1-1.47,1h0a1.07,1.07,0,0,1-.76-0.32,1.32,1.32,0,0,1,0-1.66l0.55-1.13c0.41-.82.94-1.87,1.5-3a1.23,1.23,0,0,1-1,.56h0a1.07,1.07,0,0,1-.76-0.31,1.33,1.33,0,0,1,0-1.73l0.66-1.26,1.54-2.92-0.19.19c-1.09,1.09-1.15,1.16-1.62,1.16h0a1.07,1.07,0,0,1-.76-0.31,1.21,1.21,0,0,1-.07-1.52l0.39-.79,1.27-2.54,0.43-.87c-0.71.68-.83,0.68-1.15,0.69h0a1.08,1.08,0,0,1-.76-0.32c-0.56-.56-0.26-1.17.05-1.81,0.17-.34.41-0.81,0.74-1.45l1.32-2.52c-0.77.75-.89,0.75-1.21,0.75a1.05,1.05,0,0,1-.77-0.32,1.3,1.3,0,0,1,0-1.65l0.55-1.08,1.6-3.08-0.22.22c-1,1-1.09,1.1-1.56,1.1h0a1.08,1.08,0,0,1-.76-0.32,1.38,1.38,0,0,1,.06-1.79l0.74-1.35c0.49-.89,1.14-2,1.79-3.19-1,1-1.08,1.07-1.53,1.07h0a1.07,1.07,0,0,1-.76-0.31,1.36,1.36,0,0,1,0-1.74c0.15-.3.37-0.72,0.67-1.29,0.44-.84,1-1.91,1.6-3a1.36,1.36,0,0,1-1.09.61h0a1.08,1.08,0,0,1-.76-0.32,1.26,1.26,0,0,1,0-1.6l0.49-1,1.56-3,0.19-.36c-1.26,1.26-1.36,1.26-1.73,1.26a1.07,1.07,0,0,1-.77-0.31c-0.57-.57-0.26-1.2.08-1.86,0.18-.36.44-0.86,0.8-1.53l1.33-2.48a1.3,1.3,0,0,1-1.06.6,1.09,1.09,0,0,1-.77-0.31,1.28,1.28,0,0,1,0-1.62l0.5-1.07,1.3-2.7c-0.8.78-.91,0.78-1.25,0.78h0a1.08,1.08,0,0,1-.76-0.31c-0.55-.55-0.28-1.14,0-1.75l0.66-1.36,1.34-2.69-0.08.08c-1.18,1.18-1.19,1.18-1.64,1.18h0a1.07,1.07,0,0,1-.76-0.31c-0.57-.57-0.25-1.18.05-1.77l0.71-1.33,1.83-3.35c-1,1-1.1,1-1.44,1h0a1.08,1.08,0,0,1-.76-0.31,1.32,1.32,0,0,1,0-1.71l0.63-1.21,1.76-3.27,0,0c-1.81,1.82-1.81,1.82-2.31,1.82h0a1.08,1.08,0,0,1-.76-0.31c-0.55-.55-0.28-1.11,0-1.76l0.68-1.38,1.47-2.94a1,1,0,0,1-.81.37,1.07,1.07,0,0,1-.77-0.31c-0.56-.56-0.27-1.16.07-1.86,0.18-.37.44-0.88,0.79-1.58l1.31-2.56c-0.68.69-.83,0.82-1.27,0.82h0a1.07,1.07,0,0,1-.76-0.31,1.39,1.39,0,0,1,0-1.71c0.13-.31.33-0.74,0.59-1.33l1.22-2.65-0.09.09c-1.07,1.08-1.16,1.16-1.63,1.17h0a1.08,1.08,0,0,1-.76-0.31c-0.58-.58-0.27-1.18.17-2,0.23-.43.56-1,1-1.84l1.55-2.78c-0.87.87-1,1-1.42,1h0a1.07,1.07,0,0,1-.76-0.32c-0.56-.56-0.27-1.16.06-1.85,0.18-.37.43-0.88,0.78-1.57l1.36-2.66a1.29,1.29,0,0,1-1.06.59h0a1.08,1.08,0,0,1-.76-0.31,1.33,1.33,0,0,1,0-1.66c0.12-.27.3-0.65,0.55-1.16,0.38-.78.88-1.8,1.39-2.82-0.72.73-.84,0.81-1.26,0.81h0a1.07,1.07,0,0,1-.76-0.31c-0.46-.46-0.36-0.81,0-2l0.61-2.08,0.1-.33-0.14.14c-2,2.08-2,2.08-2.5,2.08a1.08,1.08,0,0,1-.77-0.32c-0.33-.33-0.33-0.33-0.38-3.41l-1.06,1.08-2,2c-1.2,1.2-1.22,1.22-1.68,1.23h0a1.07,1.07,0,0,1-.76-0.31c-0.33-.33-0.33-0.33-0.33-3.08v-0.47l-0.42.43c-2.61,2.66-2.61,2.66-3.11,2.67a1.08,1.08,0,0,1-.77-0.31c-0.3-.3-0.31-0.31-0.52-3.3l-0.68.69-1.56,1.58c-0.93.93-1,1-1.49,1h0a1.07,1.07,0,0,1-.76-0.32c-0.34-.34-0.34-0.52-0.28-1.69,0-.5.05-1.15,0.09-1.8l-0.87.88-2.12,2.16c-1.23,1.23-1.3,1.31-1.78,1.31h0a1.08,1.08,0,0,1-.76-0.31c-0.31-.31-0.31-0.31-0.39-2.75l0-.56-0.44.45c-2.48,2.56-2.48,2.56-3,2.56h0a1.08,1.08,0,0,1-.76-0.32c-0.24-.24-0.24-0.24-0.79-2.87v0l-0.82.85c-0.82.84-1.37,1.41-1.77,1.8,0.59,0.46-.48.72-0.58,1.19,0.62,0,.7.52,1.09,0.61,0.31-.48-0.62-0.75,0-1.19a1.94,1.94,0,0,1,1.72,1.07c0.86-1.09,2.3.33,2.56-.6a0.32,0.32,0,0,0,.36.38l-0.1-.28c0.92-.21.57,1,1.13,1a1.75,1.75,0,0,0-.13-0.5,1.32,1.32,0,0,1,.72.27,5,5,0,0,1,.55.52,1.34,1.34,0,0,0,1.33.54c0-.11,0-0.22-0.15-0.22s0.18-.06.47,0.27l-0.48.24c0.13,0.62.53,0.61,1,.51a1.87,1.87,0,0,1,1.42,0c0-.23-0.67-0.45-0.24-0.62,0.58,0.17.17,1.3,1,1-0.27-.22,0-0.73-0.27-0.93,0.47,0.06.88-.16,0.91,0.3a0.36,0.36,0,0,0,.28-0.27,1,1,0,0,0,1,.34v-0.23c0.21,1.25.9,0.35,1.62,0.67l0-.34a1.16,1.16,0,0,0,1.29.52l-0.14-.46c0.33,0.4,1.36.15,1.5,0.85,0.2,0-.15-0.81.58-0.58,0.07,0.29.53,0.75,0.86,0.5,0.07-.16.07-0.39-0.2-0.31s-0.07,0-.07.16l-0.14-.36c0.67,0,.34.44,1,0.52,0.21-.14-0.06-0.41-0.06-0.64l0.31,0.25,0.68,0.58,0.38,0.33,0.37,0.32,0.3,0.26,0.07,0.07a1.3,1.3,0,0,0-.44.64l-0.46-.2-0.16-.06-0.13,0-0.13,0c-0.28.12-.24,0.29-0.1,0.46a2.51,2.51,0,0,0,.28.27l0.16,0.14,0.07,0.07,0,0.06-0.28-.14-0.2-.09-0.08,0a0.09,0.09,0,0,0,0,.14l-0.36-.21c0.36,0.53,0,.59-0.32.65a0.67,0.67,0,0,0-.38.14c-0.07.08,0,.2,0.16,0.44a1.44,1.44,0,0,1-.44-0.87c-0.43-.35-0.44,0-0.7.08l0.08,0.11,0.18,0.24,0.26,0.35c-0.5-.33-0.53-0.2-0.54,0a0.38,0.38,0,0,1-.46.45c-0.77-.71-1.82.42-2.29,0.28-0.89-.45.54-0.36,0.06-0.84-0.49-.25-0.37.21-0.73,0.19v-0.68c-0.56-.3-0.23.56-0.48,0.21-0.6.21,0.07,0.28,0,.79a0.74,0.74,0,0,0-.79-0.42c-0.05.17,0.55,0.41,0.13,0.34a3.13,3.13,0,0,0-1.65-.49,4.77,4.77,0,0,1-1.6-.26l0,0.34a0.41,0.41,0,0,0-.38-0.22l0,0.23c-0.09,0-.45-0.25-0.89-0.48-0.22-.12-0.47-0.24-0.71-0.34a3.58,3.58,0,0,0-.73-0.2l0.35,0.49-0.67-.65-0.07.57c-0.12-.62-1.15-0.53-1.86-0.89l-0.09.34-0.4-.32,0.09,0.28c-0.45-.15-0.84-0.86-1.43-0.71,0.37,0,.3.55,0.21,0.78l-1.22-1c-0.09.21-.62,0.16-0.43,0.45l-0.37-.46,0,0.28a6.2,6.2,0,0,1-3-1.14,3.8,3.8,0,0,0-3.13-.59l0,0.11-1.14-.92a9.2,9.2,0,0,1-.84.59c0.29-.48-0.72-0.22-0.87-0.71-0.35.15-.06,0.35,0,0.57-1.33.25-2.14-.8-3.55-0.7a7.65,7.65,0,0,1,2.43-.37c-1-.52-1.32,0-2.45-0.42l0.5,0.35c-0.75.65-1.7-.79-2.05,0.05-0.67-.26-1.11-1.23-2-1.24l0.22,0.83-0.78-.13,0.09-.52a0.33,0.33,0,0,0-.45.12c-0.42-.69-1.22-0.5-1.87-1.1l-0.13.24a1.38,1.38,0,0,1-.12-0.21c-0.23.43-.78,0.16-0.89,0.58,0.22,0.14.72,0.47,0.73,0.19,0.5,0.62-.78.16-1.17,0.1,0.47-.18-0.07-0.33-0.29-0.47a0.29,0.29,0,0,0,0,.22c-0.78.16-.81-1.2-1.46-0.37l0-.51-0.64.26c0.12-1-.8-0.23-0.74-1.16-0.66-.14,0,0.57-0.23.43-0.52.07-1.22-.6-1.63-0.66l0.12-4.1a0.23,0.23,0,0,0,.21-0.16,6.22,6.22,0,0,0,1.57.12l0-.42a1.21,1.21,0,0,0,.76.13,0.28,0.28,0,0,0-.1-0.16,6.16,6.16,0,0,0,.64.06l0.59,0c0.38,0,.74-0.08,1.11-0.14a0.51,0.51,0,0,0-.56-0.47,1.68,1.68,0,0,1,1.29-.14,3.27,3.27,0,0,0,1.58,0l-0.12-.19,0.64,0.21a0.63,0.63,0,0,1-.15-0.44,5.73,5.73,0,0,1,1.52-.32,1.78,1.78,0,0,1,1.26.34c-0.1-.18.31-0.56-0.26-0.72,1.13,0.29,2.34-.2,3.45-0.39v0l0.51,0.05v-0.08l-0.36,0a2.9,2.9,0,0,1,1.31,0,1.44,1.44,0,0,1,.21-0.79c0.19,0.5,1.07-.88,1.79-0.52,0-.16-0.26,0-0.14-0.25,0.67-.2,1.53-0.34,2.41-0.57a6.52,6.52,0,0,0,2.42-1.09,1,1,0,0,0,1.19.35,7.22,7.22,0,0,1,1.54-.3c0-.32-0.19-0.33-0.38-0.3a0.8,0.8,0,0,1-.64,0c0.51-.11-0.24-0.7.77-0.68-0.08-.08-0.09-0.15-0.25-0.07,0.42-.27.25,0.71,0.85,0.19l-0.17-.39,0.34,0.14,0.34,0.13a9.7,9.7,0,0,1,.95-0.65c0.31-.2.63-0.38,0.93-0.56s0.59-.38.86-0.59a4.74,4.74,0,0,0,.73-0.74,0.31,0.31,0,0,1,.13.42,3.3,3.3,0,0,1,1-.34,1.16,1.16,0,0,0,.83-0.66l-0.26,0a1.42,1.42,0,0,1,.47-0.48,1.57,1.57,0,0,1,.5-0.15,2.38,2.38,0,0,0,1.32-.52,5.55,5.55,0,0,1-.48.4,0.36,0.36,0,0,0-.14.51,0.48,0.48,0,0,0,.51-0.17,0.84,0.84,0,0,0,.26-0.55l0.33,0.47a0.75,0.75,0,0,0-.56.13,3.94,3.94,0,0,1-.58.3,0.39,0.39,0,0,1,.31.09c-0.38.11-.74,0.41-1.22,0.61l0.52-.49a0.61,0.61,0,0,0-.71.29,1.2,1.2,0,0,1-.55.47c0.32,0.42.63,0.09,0.54,0.7a0.77,0.77,0,0,1-.92.34,1.94,1.94,0,0,0-1.16-.15l0.06-.25c-0.33.14-.86-0.17-1.07,0.42a0.83,0.83,0,0,0,.78.12c0,0.25-.88-0.19-1,0.32a1.49,1.49,0,0,0,1,0,3.08,3.08,0,0,0,.92-0.42,0.61,0.61,0,0,0,.31.43c-1.71.68-3.67,1.05-5.06,2.12,1.12,0.16-.35.19,0.16,0.72-0.34-.38-0.62.28-1.15,0.31,0.06,0.56,1.05-.06.86,0.43a6.79,6.79,0,0,1-1.69.18,3.58,3.58,0,0,0-1.77.43,1.71,1.71,0,0,0,.51.15,5.2,5.2,0,0,1-1.43-.1,0.73,0.73,0,0,0-1,.49c0.46,0.15,1,.28,1.49.38a0.81,0.81,0,0,0-.34.36l0.42,0.24c-0.85.49-1-.49-1.68-0.75l-0.35.72a2.72,2.72,0,0,1-.64.38,0.73,0.73,0,0,1,.1.2,0.55,0.55,0,0,1,.28.06l-0.24.08a9.05,9.05,0,0,1,0,1.43c0,0.43,0,.93,0,1.44l0.59-.6,2.1-2.13c1.26-1.26,1.31-1.31,1.78-1.31h0a1.07,1.07,0,0,1,.76.31c0.38,0.38.35,0.6,0.21,1.79-0.06.53-.15,1.24-0.24,2l0.12-.12c2.48-2.56,2.48-2.56,3-2.56h0a1.08,1.08,0,0,1,.76.32c0.24,0.24.24,0.24,0.71,2.49l0.09,0.42,0.83-.85c2.42-2.5,2.42-2.5,2.94-2.5a1.1,1.1,0,0,1,.77.31c0.32,0.32.33,0.33,0.42,3.31l1.4-1.42,1.93-2c1.09-1.1,1.18-1.19,1.66-1.19a1.06,1.06,0,0,1,.76.31c0.34,0.34.34,0.54,0.29,1.64,0,0.49-.05,1.15-0.09,1.82v0l0.34-.34,1.59-1.61c0.94-.95,1-1,1.51-1h0a1.07,1.07,0,0,1,.76.32c0.3,0.3.3,0.3,0.48,2.86l0,0.45,0.69-.71c2.5-2.55,2.5-2.55,3-2.56h0a1.07,1.07,0,0,1,.76.32c0.34,0.33.34,0.34,0.34,3.54l1.08-1.1,1.94-2c1.17-1.18,1.2-1.2,1.66-1.2h0a1.07,1.07,0,0,1,.76.31c0.32,0.33.32,0.33,0.37,3.07v0.32c3.24-3.32,3.24-3.32,3.77-3.32h0a1.08,1.08,0,0,1,.76.32c0.47,0.47.4,0.74-.1,2.46l-0.54,1.84,1.15-1.16c1.12-1.13,1.19-1.19,1.66-1.19h0a1.07,1.07,0,0,1,.76.31,1.35,1.35,0,0,1,0,1.68c-0.13.28-.31,0.67-0.57,1.2-0.38.77-.86,1.75-1.36,2.75,0.78-.78.91-0.89,1.35-0.89h0a1.08,1.08,0,0,1,.76.31,1.25,1.25,0,0,1,0,1.6l-0.49,1-1.55,3-0.3.58,0.14-.14c1.47-1.48,1.53-1.54,2-1.54a1.1,1.1,0,0,1,.77.31,1.24,1.24,0,0,1,0,1.64l-0.54,1-1.74,3.11-0.63,1.12a0.87,0.87,0,0,1,.67-0.24,1.11,1.11,0,0,1,.76.31,1.27,1.27,0,0,1,.08,1.56l-0.44,1-1.38,3-0.08.17c1.43-1.43,1.53-1.43,1.92-1.44a1.09,1.09,0,0,1,.77.31,1.24,1.24,0,0,1,0,1.59l-0.48.94-1.52,3-0.35.68a0.91,0.91,0,0,1,.76-0.34,1.07,1.07,0,0,1,.77.32,1.27,1.27,0,0,1,0,1.63l-0.53,1.08-1.66,3.31-0.06.13,1.45-1.47c0.87-.88,1-1,1.42-1h0a1.07,1.07,0,0,1,.76.31c0.57,0.57.25,1.19-.05,1.8-0.17.33-.41,0.79-0.74,1.41l-1.6,3c1.1-1.09,1.21-1.1,1.57-1.1h0a1.08,1.08,0,0,1,.76.31c0.57,0.57.25,1.19-.06,1.79l-0.73,1.36-1.84,3.35c0.67-.66.75-0.66,1.12-0.66h0a1.07,1.07,0,0,1,.76.31,1.28,1.28,0,0,1,0,1.62l-0.51,1-1.59,3.18c0.69-.66.81-0.66,1.12-0.66a1,1,0,0,1,.77.31,1.32,1.32,0,0,1,0,1.67l-0.57,1.2-1.19,2.48c1.26-1.27,1.37-1.27,1.75-1.27h0a1.08,1.08,0,0,1,.76.31,1.27,1.27,0,0,1,0,1.64l-0.54,1-1.72,3.18,0,0.07c0.9-.88,1-0.88,1.35-0.88a1.09,1.09,0,0,1,.77.32c0.56,0.56.27,1.17,0,1.82-0.17.35-.41,0.85-0.74,1.51l-1.32,2.59c0.74-.75.87-0.88,1.33-0.88h0a1.07,1.07,0,0,1,.76.31,1.35,1.35,0,0,1,0,1.74l-0.66,1.27-1.63,3.05,0.13-.13c1.34-1.35,1.34-1.35,1.81-1.35h0a1.07,1.07,0,0,1,.76.32c0.58,0.58.25,1.2-.06,1.79-0.17.32-.41,0.76-0.74,1.36l-1.76,3.14c0.71-.67.84-0.68,1.15-0.68h0a1.08,1.08,0,0,1,.76.32,1.4,1.4,0,0,1,0,1.78c-0.16.32-.38,0.77-0.69,1.38l-1.32,2.54c0.84-.82,1-0.82,1.3-0.82h0a1.08,1.08,0,0,1,.76.31,1.28,1.28,0,0,1,0,1.64l-0.54,1-1.69,3.2h0a1,1,0,0,1,.82-0.38h0a1.08,1.08,0,0,1,.76.32c0.55,0.55.28,1.13-.07,1.87-0.18.38-.44,0.91-0.79,1.62l-1.05,2.12,0.3-.3c1.31-1.32,1.36-1.37,1.84-1.37h0a1.08,1.08,0,0,1,.76.31,1.32,1.32,0,0,1,0,1.73l-0.65,1.24-1.6,3a0.85,0.85,0,0,1,.66-0.23h0a1.07,1.07,0,0,1,.76.32,1.37,1.37,0,0,1,0,1.71c-0.14.3-.34,0.71-0.62,1.27-0.39.78-.88,1.76-1.39,2.77l0.59-.59c1.19-1.2,1.19-1.2,1.65-1.2h0a1.07,1.07,0,0,1,.76.31,1.35,1.35,0,0,1,0,1.76l-0.7,1.28c-0.54,1-1.24,2.22-2,3.55a1.34,1.34,0,0,1,1.09-.62h0a1.08,1.08,0,0,1,.76.31c0.55,0.55.28,1.13,0,1.81-0.16.35-.39,0.85-0.71,1.51l-1.26,2.59a1,1,0,0,1,.82-0.39h0a1.08,1.08,0,0,1,.76.31,1.35,1.35,0,0,1,.07,1.64c-0.12.28-.28,0.66-0.52,1.19l-1,2.31c1.07-1.08,1.17-1.17,1.64-1.17h0a1.08,1.08,0,0,1,.76.31c0.57,0.57.26,1.18-.06,1.83-0.17.35-.42,0.83-0.76,1.48l-1.52,2.88a1.27,1.27,0,0,1,1-.6,1.1,1.1,0,0,1,.77.32,1.38,1.38,0,0,1,0,1.75c-0.15.31-.37,0.76-0.66,1.35l-1.34,2.64c0.7-.69.81-0.74,1.21-0.74h0a1.08,1.08,0,0,1,.76.32c0.54,0.54.27,1.13,0,1.76-0.16.34-.39,0.83-0.66,1.4l-1.14,2.34c1.29-1.29,1.4-1.29,1.77-1.29h0a1.08,1.08,0,0,1,.76.32,1.41,1.41,0,0,1-.06,1.81c-0.17.33-.41,0.78-0.75,1.4-0.46.84-1,1.88-1.64,2.95a1.33,1.33,0,0,1,1.08-.61h0a1.08,1.08,0,0,1,.76.31,1.38,1.38,0,0,1,0,1.77c-0.16.32-.38,0.76-0.69,1.36-0.41.79-.93,1.76-1.46,2.77a1.3,1.3,0,0,1,1-.59h0a1.07,1.07,0,0,1,.76.31,1.24,1.24,0,0,1,.07,1.55l-0.42.9-1.35,2.83-0.25.53a1.23,1.23,0,0,1,1-.54,1.09,1.09,0,0,1,.77.32,1.28,1.28,0,0,1,.06,1.6l-0.48,1.06-1.34,2.9,0.83-.84c0.73-.74.86-0.87,1.32-0.87a1.08,1.08,0,0,1,.76.31c0.55,0.55.28,1.13,0,1.8-0.16.35-.39,0.83-0.71,1.48l-1.34,2.72a1,1,0,0,1,.78-0.34,1.1,1.1,0,0,1,.77.32,1.34,1.34,0,0,1,0,1.71c-0.14.28-.34,0.67-0.62,1.2-0.44.84-1,1.88-1.61,3l0.13-.13c1-1,1.07-1.07,1.53-1.07h0a1.07,1.07,0,0,1,.76.32c0.55,0.55.27,1.13,0,1.73l-0.65,1.3-1.57,3.08a1,1,0,0,1,.82-0.39h0a1.08,1.08,0,0,1,.76.31,1.23,1.23,0,0,1,.05,1.57l-0.45.91-1.43,2.87-0.18.36,0.8-.81c1.12-1.13,1.23-1.24,1.72-1.25h0A1.08,1.08,0,0,1,2471.36,2151.34ZM2435,1968v0.48l0.21-.1,0.21-.11Zm-4.37,3.09,0.14-.16,0.14-.17-0.26.09Zm17.66,15.49,0.18,0.18c0.37-.09.12-0.44-0.13-0.58A0.77,0.77,0,0,0,2448.33,1986.63Zm-3.12-1.75V1985a0.5,0.5,0,0,1,.26-0.1c0.05,0.09.09,0.19,0.17,0.16a0.48,0.48,0,0,0,.21-0.2c0.5,0,1,0,.68-0.63l-0.44-.06c0.19,0.06.13,0.11,0.14,0.23-0.37.11-.46-0.29-0.66-0.46a1.23,1.23,0,0,1,.28.94l-0.39,0C2445.43,1984.8,2445.37,1984.74,2445.21,1984.88Zm-3.77,1.65c0.39,0.22.13,0.85,0.66,0.67C2441.79,1987,2442.1,1986.35,2441.44,1986.53Zm-0.46-.39a0.54,0.54,0,0,0,.62.1C2441.41,1986.08,2441.4,1986,2441,1986.15Zm-1.93-3.1,0.67,0.43c0.17-.17.39,0.1,0.35-0.24C2439.71,1983.25,2439.37,1982.46,2439.06,1983Zm-4.66-.73c0.35,0,.59.4,0.48,0.52,0.33-.21.53,0,0.53-0.46-0.07-.06-0.77-0.18-0.7-0.53Zm-1.6-.68a1.75,1.75,0,0,1,1.06,0C2433.78,1981.05,2432.82,1981.35,2432.8,1981.63Zm-5.82-1.71c0.53,0.66.48-.65,1.41,0l0-.22a2,2,0,0,0,1.34.23,8.68,8.68,0,0,1,.1-1.2c0.06-.53.15-1.21,0.23-1.9l-0.93.94-1.71,1.73Zm-1.43-7.19a0.32,0.32,0,0,0,.23.11,0.49,0.49,0,0,1,.13.28l0,0.07h0a0.1,0.1,0,0,0,0-.07,2.69,2.69,0,0,1,.77-0.61,3.71,3.71,0,0,1,.95-0.41c0.12-.32-0.65-0.42-0.89-0.51,0.4,0.62.22,0.68-.09,0.65a0.8,0.8,0,0,0-.89.19,1.55,1.55,0,0,1,.6.11,0.66,0.66,0,0,1-.58.31A0.24,0.24,0,0,0,2425.55,1972.73Zm-1.39,1.52,0.14,0.09,0.66-.64-0.32-.15C2424.45,1973.63,2423.7,1973.89,2424.17,1974.25Zm-2.23.65a5.39,5.39,0,0,0-1.17.25c0,0.34.1,0.86,0.18,1.67l0.37,0.4a0.58,0.58,0,0,1-.34-0.16l0.06,0.62,1.4-1.43,1.49-1.53C2423.31,1974.82,2422.61,1974.83,2421.94,1974.9Zm-3.83,2.62a0.37,0.37,0,0,1-.21,0,1.1,1.1,0,0,1-.78-0.5,0.41,0.41,0,0,0-.06.13c-0.31.44,0.56,0.26,0.76,0.54l-0.26,0-0.58-.07-0.56-.08a0.58,0.58,0,0,1,.14.39l0.29-.05,0,0.16h-0.27a0.54,0.54,0,0,1-.1.18c0.75,0.31.66-.82,1.28,0.08C2417.56,1977.67,2418.14,1977.85,2418.11,1977.52Zm-5.32.39,0.26,0h-0.26Zm5.71-2.13,0.05,0v0h0Zm0.3,1.19-0.35,0a0.69,0.69,0,0,0,.35.07v0Zm-0.79,0h0Zm0.22,1.33h0.44l-0.19-.32Zm4.38,0.86a2,2,0,0,1,.53.41,1.42,1.42,0,0,0-.44-0.49Zm0.44,0-0.24-.17-0.06.06,0.25,0.17Zm-3.41-6,0.3,0.13c0,0.19-.22.47,0.25,0.11l-0.25-.11C2420,1973.14,2419.91,1973.06,2419.66,1973.11Zm0.29,0.69c-0.24-.11-1,0-1,0.35A6.25,6.25,0,0,0,2419.95,1973.8Zm-1.74,2.1a0.84,0.84,0,0,0,.54.38l0-.25,0-.06-0.12,0Zm-1.2.45,1.1-.06,0-.07h0.07l-0.28-.3,0.21,0.3Zm0-.83a0.19,0.19,0,0,0,0-.08Zm-2.48-.41a2.68,2.68,0,0,0,1.36.86l0-.48c-0.21.12,0,.48-0.54,0.31C2415.36,1975.46,2415,1974.74,2414.48,1975.11Zm-0.58-.13c0.54,0.59.48-.09,0.72-0.4l0.23-.13a0.31,0.31,0,0,0-.23.13Zm1.13,3a3.11,3.11,0,0,1-.55-0.31,0.68,0.68,0,0,0-.46.39l-0.5-.17,0,0.1a1.75,1.75,0,0,1,.55.13l0,0v0l0.25,0.08a0.24,0.24,0,0,1-.13,0,1.16,1.16,0,0,1,.48.6A1.56,1.56,0,0,1,2415,1978Zm2,1.43a0.33,0.33,0,0,0,.22.07l-0.22-.07c-0.25-.19-0.12-0.71-0.65-0.51,0.09,0.16.32,0,.41,0.18C2416.73,1979.38,2416.81,1979.33,2417.05,1979.38Zm0.25,2.15-0.21-.06a0.2,0.2,0,0,0,.21.06l0.33,0.1C2417.66,1981.3,2417.49,1981.49,2417.3,1981.53Zm1.34-2.13c0.44-.68-0.64-0.72-1.14-0.66C2417.68,1978.95,2418.64,1978.72,2418.65,1979.4Zm-0.12,1.67c-0.06.35,0.47,0.51,0.59,0.78,0.25,0,0-.4-0.06-0.62a0.47,0.47,0,0,1,.34.13C2419.45,1980.62,2418.93,1981.53,2418.53,1981.07Zm5.54,0.47c-0.29-.2-0.57-1.08-1.27-0.78l0.43,0.3h-0.12l0.06,0.33C2423.2,1980.55,2423.8,1981.45,2424.07,1981.54Zm1-1.18v-0.13a1,1,0,0,1-.26-0.85,2.56,2.56,0,0,0-.67-0.06c0.2-.4.42-0.17,0.67-0.07,0-.35,0-0.84,0-1.58l0-.81-0.87.89-0.93,1A15.16,15.16,0,0,1,2425.06,1980.36Zm3.39,3.09c-0.16-.67-0.44-0.08-0.75-0.41a0.32,0.32,0,0,0-.08-0.09,0.54,0.54,0,0,0,.08.09C2427.86,1983.3,2428,1983.89,2428.45,1983.45Zm1-.09c0-.29-0.54-0.29-0.28-0.6l0.25,0c-0.37,0-.05-0.73-0.63-0.45l0.31,0c-0.42.09,0.36,0.65-.26,0.7C2428.57,1983,2429.13,1983.45,2429.43,1983.36Zm2.55-3.2-0.44.41,0.16,0.06c0.1-.12.62,0,0.37-0.42ZM2471.13,2153a1.07,1.07,0,0,1-.49.14A1,1,0,0,0,2471.13,2153Zm-58.23-7.66c0.06,0.07.08,0,.09-0.1A0.79,0.79,0,0,1,2412.9,2145.37Zm0.65-1.59a0.57,0.57,0,0,0-.5.61c-0.06.31,0,.68-0.05,0.88a1.93,1.93,0,0,0,.39-0.71A5.51,5.51,0,0,0,2413.55,2143.78Zm-1.39.93-0.16.21-0.17.21C2412,2144.9,2412.26,2145,2412.15,2144.7Zm0.33,0.42-0.08.29,0.32-.2Zm-4.52,11.3-0.71.14C2407.51,2156.63,2407.84,2156.87,2408,2156.43Zm-17.67,14.32-0.11.17C2390.33,2170.94,2390.32,2170.85,2390.29,2170.75Zm2.42-6.4,0.07,0a0.71,0.71,0,0,0-.09-0.25Zm-0.89,7.82a1.76,1.76,0,0,0-.07-0.48A0.43,0.43,0,0,0,2391.82,2172.17Zm15.2-15.57,0.23,0A0.22,0.22,0,0,0,2407,2156.6Zm5.82-9.7a0.8,0.8,0,0,0-.36.13A0.27,0.27,0,0,0,2412.84,2146.9Zm5.9,33.7-0.05-.07A0.12,0.12,0,0,0,2418.74,2180.6Zm-5.29-5.06a0.66,0.66,0,0,0,0,.18C2413.51,2175.62,2413.53,2175.52,2413.45,2175.54Zm-8.86,1.63,0,0.08Zm-14.14-9.15v-0.18a1.65,1.65,0,0,1-.35.13v0.19a1.38,1.38,0,0,1,.12.38C2390.34,2168.31,2390.37,2168.16,2390.45,2168Zm21.8,7.36a0.66,0.66,0,0,0,.23.13A0.33,0.33,0,0,0,2412.25,2175.38Zm0.91-28c-0.28,0,0,.21-0.07.36C2413.15,2147.55,2413.66,2147.32,2413.16,2147.34Zm-1.21.85a0.45,0.45,0,0,0,.41-0.24A0.65,0.65,0,0,1,2411.95,2148.19Zm0.6-.85a0.91,0.91,0,0,0-.19.61A1,1,0,0,0,2412.55,2147.34Zm-2.13,3.85a1.27,1.27,0,0,0,1.17-.24c-0.22,0-1,.67-0.76-0.18A0.5,0.5,0,0,1,2410.42,2151.19Zm-0.63.61a0.4,0.4,0,0,1-.08.22A0.22,0.22,0,0,0,2409.78,2151.81Zm-0.84.69a1,1,0,0,0,.81-0.07c-0.3-.09-0.16-0.24-0.05-0.41C2409.49,2152.19,2409,2152.09,2408.95,2152.5Zm-3.77,7.75c0,0.1-.25.4,0,0.34l0.17-.18,0.17-.18A0.25,0.25,0,0,0,2405.18,2160.25Zm-1.89.63-0.45,0,0.39,0.46C2403.44,2161.32,2403,2161.11,2403.29,2160.87Zm-1.91-2.37v0l0.11-.07Zm1.55,4.39-0.64-.33A0.59,0.59,0,0,0,2402.92,2162.89Zm8,11.89,0.59,0.47C2411.09,2174.86,2411.56,2174.87,2411,2174.78Z" transform="translate(-1944.14 -1961.7)"/></svg>