<svg id="Layer_1" data-name="Layer 1" xmlns="http://www.w3.org/2000/svg" xmlns:xlink="http://www.w3.org/1999/xlink" viewBox="0 0 656.26 375.61"><defs><style>.cls-1{fill:#34c5f3;}.cls-2,.cls-3{fill:#fff;}.cls-3{fill-rule:evenodd;}.cls-4{fill:url(#linear-gradient);}.cls-5{fill:#17ce54;}</style><linearGradient id="linear-gradient" x1="1394.79" y1="847.79" x2="1621.08" y2="847.79" gradientUnits="userSpaceOnUse"><stop offset="0" stop-color="#fff" stop-opacity="0"/><stop offset="0.14" stop-color="#fff" stop-opacity="0.02"/><stop offset="0.28" stop-color="#fff" stop-opacity="0.07"/><stop offset="0.43" stop-color="#fff" stop-opacity="0.15"/><stop offset="0.58" stop-color="#fff" stop-opacity="0.26"/><stop offset="0.73" stop-color="#fff" stop-opacity="0.41"/><stop offset="0.88" stop-color="#fff" stop-opacity="0.58"/><stop offset="1" stop-color="#fff" stop-opacity="0.75"/></linearGradient></defs><title>fte-global-full-logo-white</title><polygon class="cls-1" points="655.72 236.91 655.72 330.75 610.87 375.61 0 375.61 0 281.76 44.85 236.91 655.72 236.91"/><path class="cls-2" d="M1407.22,960.43v12.43H1457v12.43h-62.16V926.24H1457v12.43h-49.73V948H1457v12.43h-49.73Z" transform="translate(-1015.69 -781.8)"/><path class="cls-2" d="M1621.67,960.43v12.43h49.73v12.43h-62.16V926.24h62.16v12.43h-49.73V948h49.73v12.43h-49.73Z" transform="translate(-1015.69 -781.8)"/><path class="cls-2" d="M1242.5,960.43v12.43h49.73v12.43h-62.16V926.24h62.16v12.43H1242.5V948h49.73v12.43H1242.5Z" transform="translate(-1015.69 -781.8)"/><path class="cls-2" d="M1028.12,960.43v12.43h49.73v12.43h-62.16V926.24h79.75v12.43h-67.31V948h49.73v12.43h-49.73Z" transform="translate(-1015.69 -781.8)"/><path class="cls-2" d="M1363.72,960.46h-12.43l12.43,24.87H1349l-12.43-24.87H1314v24.85h-12.43v-59h62.16v34.19ZM1314,938.7V948h37.3V938.7H1314Z" transform="translate(-1015.69 -781.8)"/><path class="cls-2" d="M1550.19,938.67v34.19h49.73v12.43h-62.16V926.24h62.16v12.43h-49.73Z" transform="translate(-1015.69 -781.8)"/><path class="cls-2" d="M1528.44,985.29H1516l-37.3-41.18v41.14h-12.43v-59h12.43l37.3,41.18V926.24h12.43v59.06Z" transform="translate(-1015.69 -781.8)"/><path class="cls-2" d="M1385.47,985.31H1373V926.24h12.43v59.07Z" transform="translate(-1015.69 -781.8)"/><path class="cls-2" d="M1158.59,926.24h62.16v34.19H1171v24.89h-12.43V926.24ZM1208.32,948v-9.33H1171V948h37.3Z" transform="translate(-1015.69 -781.8)"/><path class="cls-2" d="M1116.4,946.44l17.21-20.2h15.57l-24.58,29.53,24.58,29.53h-15.57L1116.4,964.7l-17.21,20.59h-15.57l24.58-29.53-24.58-29.53h15.57Z" transform="translate(-1015.69 -781.8)"/><path class="cls-2" d="M1385.47,817.12v12.43h49.73V842H1373V782.93h62.16v12.43h-49.73v9.33h49.73v12.43h-49.73Z" transform="translate(-1015.69 -781.8)"/><path class="cls-2" d="M1363.72,817.14h-12.43L1363.72,842H1349l-12.43-24.87H1314v46.61h-12.43v-80.8h62.16v34.19ZM1314,795.38v9.32h37.3v-9.32H1314Z" transform="translate(-1015.69 -781.8)"/><path class="cls-2" d="M1242.53,795.38h-46.64V842h-12.43V795.38h-24.86V782.95h83.93v12.43Z" transform="translate(-1015.69 -781.8)"/><path class="cls-2" d="M1149.27,842h-62.16V782.95h12.43v46.62h37.3V782.95h12.43V842Z" transform="translate(-1015.69 -781.8)"/><path class="cls-2" d="M1292.24,842h-62.16V804.7h12.43v24.87h37.3V782.95h12.43V842Z" transform="translate(-1015.69 -781.8)"/><path class="cls-2" d="M1028.12,817.14V842h-12.43v-59h62.17v12.43h-49.73v9.32h49.73v12.43h-49.73Z" transform="translate(-1015.69 -781.8)"/><path class="cls-2" d="M1314,888.88v12.43h49.73v12.43h-62.16V854.69h62.16v12.43H1314v9.33h49.73v12.43H1314Z" transform="translate(-1015.69 -781.8)"/><path class="cls-2" d="M1149.27,888.91h-12.43l12.43,24.86h-14.76l-12.43-24.86h-22.53v46.56h-12.43V854.72h62.16v34.19Zm-49.73-21.76v9.33h37.3v-9.33h-37.3Z" transform="translate(-1015.69 -781.8)"/><path class="cls-2" d="M1373,913.74V854.69h12.43v46.62h49.71v12.43H1373Z" transform="translate(-1015.69 -781.8)"/><path class="cls-2" d="M1158.59,854.69h62.16v59.06h-12.43V888.88H1171v24.86h-12.43V854.69ZM1171,867.12v9.33h37.3v-9.33H1171Z" transform="translate(-1015.69 -781.8)"/><path class="cls-2" d="M1077.85,867.15H1053v46.56h-12.43V867.15h-24.86V854.72h62.16v12.43Z" transform="translate(-1015.69 -781.8)"/><path class="cls-2" d="M1267.37,913.74h-12.43l-24.86-59.06h12.43L1261.15,899l18.65-44.29h12.43Z" transform="translate(-1015.69 -781.8)"/><path class="cls-3" d="M1617.7,864a0.84,0.84,0,0,1,.22,0h0A0.84,0.84,0,0,0,1617.7,864Z" transform="translate(-1015.69 -781.8)"/><path class="cls-3" d="M1590.51,867.28h0Z" transform="translate(-1015.69 -781.8)"/><path class="cls-3" d="M1586.26,870.11h0a1,1,0,0,0-.32.06A1,1,0,0,1,1586.26,870.11Z" transform="translate(-1015.69 -781.8)"/><path class="cls-3" d="M1596.18,867.41a4.76,4.76,0,0,1,.62,0l-0.45,0h-0.16Z" transform="translate(-1015.69 -781.8)"/><path class="cls-3" d="M1604.92,876.44h0l-1-1.16Z" transform="translate(-1015.69 -781.8)"/><path class="cls-3" d="M1593.38,867.42h0Z" transform="translate(-1015.69 -781.8)"/><path class="cls-2" d="M1671.94,910.55c-0.07.65-1.76,1.34-2.65,1.74a19.81,19.81,0,0,1-6.13,1.56,15.34,15.34,0,0,1-3,.18c-0.71-.07-1.29-0.56-1.74-0.55s-0.65.32-1.09,0.36a15.52,15.52,0,0,1-3.3-.36c-1.11-.15-2.25-0.25-3.21-0.46a8.36,8.36,0,0,1-1-5.59c0.19-.89,1-1.15.92-2,0-.7-0.7-1-1.1-1.56a17.57,17.57,0,0,1-1.1-1.74,34,34,0,0,1-2.2-5.13c-0.4-1.08-.94-2.06-1.37-3.11-0.91-2.19-1.74-4.4-2.47-6.6a38,38,0,0,0-2.49-5.18c-1.12-3.82-3-7.37-4.11-11.2l0-.17s0-.07,0-0.1h0c-0.05-.07-0.12-0.12-0.16-0.2a16.27,16.27,0,0,1-1.12-2.05,37.7,37.7,0,0,0-2.37,3.59c-0.58,2.19-1.37,4.35-2.17,6.51a58.81,58.81,0,0,0-3.91,8.16h0c-1.56,2.26-2.34,4.77-3.84,7.33-0.59,1-1.33,2.14-2.2,3.39-0.59.85-2.1,2.33-2.29,3.29s0.23,2.43-.09,3.39c-0.18.54-.7,0.66-0.73,1.19a9.2,9.2,0,0,0,.64,1.74,6.76,6.76,0,0,0,2.2,1.92c1.72,0.61,3.68-.25,5,0.37a2.15,2.15,0,0,1,1.1,1.55c-0.06.5-1.51,1.45-2.2,1.65a25.36,25.36,0,0,1-3.75.37,21.31,21.31,0,0,1-4.12.09c-1.24-.19-1.14-0.86-2-1.37-0.49-.29-0.93-0.27-1.47-0.55-0.45.06-.62,0.41-1.1,0.46-2.12-.75-4.88-0.86-6.5-2.11,0-.5.3-0.9,0.37-1.37s0-.8,0-1.19c0.07-.65.32-1.35,0.46-2s0.2-1.56.37-2.19c0.43-1.59,1.61-2.95,2.2-4.31,0.18-.41.19-0.9,0.37-1.28,0.68-1.45,2.09-2.37,2.66-3.76,0.34-.83.53-1.77,0.82-2.66,0.6-1.79,1.15-3.54,1.74-5.31a9.79,9.79,0,0,0,.74-2.66l-0.18-.12c2-3.29,2.84-7.37,4.17-10.91,0.85-2.25,2.78-5.22,4-8.19-0.6.59-1.19,1.19-1.73,1.83-2.3,2.78-5,5.21-7.46,7.8-2.11,2.18-4.31,4.27-6.51,6.43,0,0.33,0,.67,0,1a3.76,3.76,0,0,1-1.14,3.09q-1.6,1.55-3.23,3.07c-1.52,1.42-3.06,2.83-4.59,4.25l-9,8.4c-0.55.52-1.07,1.09-1.66,1.55a42.82,42.82,0,0,0-4.9,4.43c-1.13,1.19-2.28,2.36-3.49,3.46s-2.21,2-3.3,3a4.5,4.5,0,0,0-.58.74,3.55,3.55,0,0,1-4.32,1.38c-1.53-.47-2.09-2.37-1.92-3.63,0-.18.08-0.36,0.12-0.53a4.81,4.81,0,0,1-2.12-2.06,6,6,0,0,0-.8-1l-1.25-1.5c-1,.19-1.67,1.15-2.8.94a1.18,1.18,0,0,1-.47-1.39l1.15-1.53-0.69-.6a0.54,0.54,0,0,0-.22-0.17c-0.94-.07-1.2-0.9-1.7-1.43a0.76,0.76,0,0,1,0-.33,17.82,17.82,0,0,0,1.95-3.33,23.46,23.46,0,0,1,2.26-3.26,80.7,80.7,0,0,1,7.86-8.72c1.28-1.22,2.64-2.35,4-3.51,1.1-1,2.21-1.88,3.31-2.83a1.34,1.34,0,0,0,.35-0.43,4.39,4.39,0,0,1,1-1.35,3.82,3.82,0,0,0,.63-1,24.06,24.06,0,0,1,4.06-5.44,1.2,1.2,0,0,1,1.43-.43l2.15-2-0.38-.39c1.09-.43,2.12-0.85,3.24-0.24a1,1,0,0,0,.91,0,2.24,2.24,0,0,1,1.29-.12c0.94,0.16,1.87-.14,2.89,0,1,0.53,2,1.06,1.59,2.61l1.22,0.91,0.62-.31,1.5,2.05,1.37-.51,1.16,0.92a3,3,0,0,1-.29,2.19l1,1.18,1.45-1.35c0.21-.19.4-0.4,0.6-0.61l9.75-9.83a1.68,1.68,0,0,1,1.19-.72l5.46-5.41a5.46,5.46,0,0,0-.25-1.38,3.73,3.73,0,0,0-1.43-2.11,1.52,1.52,0,0,0,.06-0.19,10.39,10.39,0,0,1-2.11-.73c0.56-4.56,2-9.48,2.29-14.38a32.47,32.47,0,0,0-.37-4.12c0-1.3.47-2.64,0.46-3.94s-0.56-2.4-.46-3.57,1-2.29,1-3.48a10.27,10.27,0,0,0-.27-1.47,11.73,11.73,0,0,1,.1-2.29,15.3,15.3,0,0,1,.27-2.1c0.14-.53.7-1,0.83-1.65a18.6,18.6,0,0,0,0-2.65,18.68,18.68,0,0,1,3.75-9.71,9.22,9.22,0,0,1,2.84-3.11c0.62-.31,1.46-0.29,2-0.92s0.35-1.39.82-1.92,0.92-.24,1.28-0.91a13.08,13.08,0,0,1-2.29-3.57,10.41,10.41,0,0,1-1.09-2.2,13.74,13.74,0,0,1,.28-5.41,9.57,9.57,0,0,1,1.28-1.92,6.72,6.72,0,0,1,1.56-1.65,13,13,0,0,1,4.58-.83,6.73,6.73,0,0,1,2.84.46,16.86,16.86,0,0,1,1.74.46,5.37,5.37,0,0,1,1.37,1.65,16,16,0,0,0-.45,2.2,9,9,0,0,0,.91,2.29,2,2,0,0,0,.83,2.47,2.94,2.94,0,0,1,1,1.1c0,0.55-1,.84-1.1,1.47-0.1.41,0.12,1.12,0,1.74a9.66,9.66,0,0,0-.27,1,6.13,6.13,0,0,1,.18,1.28c-0.76,1.2-2.86,1-4,1.83,0.2,1.56-1.23,2.55-.64,3.66,0.12,0.23.3,0.21,0.28,0.19a6.07,6.07,0,0,1,1.28,2c0.27,0.49.65,0.84,0.82,1.28,0.33,0.82.22,1.86,0.64,2.84,0.23,0.55.72,0.83,1,1.37,0.63,1.22.91,2.71,1.46,4a65.58,65.58,0,0,1,3.21,9.89,18,18,0,0,0,.46,2.2c0.11,0.25.45,0.66,0.64,1s0.39,0.89.55,1.1c0.62,0.77,2,1.21,3,1.83a14.83,14.83,0,0,1,1.28,1.1c0.49,0.4,1.08.67,1.47,1,0.88,0.76,1.49,1.9,2.29,2.38s1.35,0.41,1.93.82c0,0.47.69,0.74,0.73,1.28,0,0.25-.3.68-0.37,1.19,0,0.31.05,0.69,0,.92a3,3,0,0,1-1,1.55,2.89,2.89,0,0,1-1.46-.91,5.1,5.1,0,0,0-1-1.37c-0.89.32-.84,1-1.83,1.1-1.45.07-2.19-1.74-3.57-1.93a11.9,11.9,0,0,0,.27,4c0.35,2.74.94,5.08,1.47,7.88,0.23,1.25.81,3.22,0.28,4.12-0.77,1.29-3.76.26-5.5,0.73a17,17,0,0,0-.37,5.4c0,0.7,0,1.41.09,2,0.06,0.41.29,0.79,0.37,1.19s0.14,0.93.19,1.37c0.32,2.84.93,5.68,1.09,8.43a12.61,12.61,0,0,0,0,1.83c0.12,0.53.77,1,.74,1.74s-1,1.25-1,2.11c-0.05,1.09,1.25,2.5,1.47,4,0.08,0.57-.11,1.18,0,1.83a21.73,21.73,0,0,0,1.19,2.75c0.44,1.2.42,2.36,0.82,3.11a5.31,5.31,0,0,0,1.37,1.19c2,1.76,2.3,5.51,3.39,8.24a23.14,23.14,0,0,1,.83,2.19,9.6,9.6,0,0,0,.18,1.1,6.54,6.54,0,0,0,1.56,1.74,15.26,15.26,0,0,0,4.12,2.56,8.74,8.74,0,0,0,2.66.73c1.13,0.07,1.77-.44,2.66-0.18C1670.85,909.08,1672,909.83,1671.94,910.55Z" transform="translate(-1015.69 -781.8)"/><path class="cls-4" d="M1620.12,790.42c0.13-1-.38-2.14.16-3.21,0.27-.43.54-0.86,0.8-1.3-0.51-1.56-5.28-3.69-7.74-4.12l-2.65.12a7.05,7.05,0,0,0-5.18,4.43c-0.82,1.93.27,5.08-.14,6.8a1.55,1.55,0,0,1,0,1,7.55,7.55,0,0,0,1.38,3.52c-0.23,2.61-2.77,4.61-3.72,6.21-0.56.93-.75,2.31-1.38,3.52s-1.8,2.23-2.06,3.2c-1,3.7,0,6.63-.81,10a11.72,11.72,0,0,0-.11,1.65,8.61,8.61,0,0,1,0,1.77,9.8,9.8,0,0,1-.1,2c0.16,4.48-1.52,6.1-2.06,9.6-0.62,4,.13,8.17-1,10.88a10.81,10.81,0,0,1-2.83,3.52,4.37,4.37,0,0,0-1.45-1.64l0.13,0c1.74-3.56,2.43-10.87,2.73-15.46,0.23-3.62,1.72-7.36,1-11-0.17-.92-0.89-1.61-1-2.53-0.24-1.68.38-3.59,0-5.36s-2.17-3.54-3.38-5.36c-2.25-3.34-4.63-5.83-2.1-8.26a3.12,3.12,0,0,0,.84.22c2.31,0.13,1-3,1.9-3.38,0-.92.15-0.61,0.55-1.27a1.12,1.12,0,0,1-.08-1c0.63-.36,1.29-0.08,1.55-0.94-0.31-.76-0.63-1.53-1-2.29-0.06-.66.39-0.85,0.44-1.56,0.08-.95-0.49-2.09,0-3.16,0.24-.43.48-0.87,0.71-1.32-0.58-1.52-5.4-3.38-7.84-3.68l-2.6.24a6.86,6.86,0,0,0-4.86,4.6c-0.7,1.93.54,5,.24,6.7a1.54,1.54,0,0,1,.09,1,8.68,8.68,0,0,0,1,2.58,16.23,16.23,0,0,1-1.36,5.18c-0.33.75-1.33,1.2-1.69,1.89-0.52,1-.47,2.54-1,3.78-0.72,1.63-1.83,2.79-2,4.1-1.28,8.54,1.88,19.24,3.5,24.37a2.92,2.92,0,0,1,.07.35c-0.9,1.62-2.73,3-3.57,4.92a11.37,11.37,0,0,0-.61,1.68,8.89,8.89,0,0,0-1.19-.16c-2.29-4.23-3-3.59-2.41-5.12,1.08-6.44,1.45-14.19-.69-19.83,1.77-4-1-7.14-3.09-9.91-1.49-2-4.19-4.08-2.67-6.91a3.49,3.49,0,0,0,1,.19c2.34-.06.76-3.15,1.58-3.57-0.12-.93.09-0.62,0.44-1.33a1.16,1.16,0,0,1-.18-1c0.6-.42,1.3-0.19,1.48-1.08l-1.19-2.23c-0.13-.66.31-0.9,0.3-1.61,0-1-.69-2.07-0.32-3.2,0.2-.46.4-0.93,0.59-1.39-0.74-1.48-5.79-3-8.28-3.07l-2.6.46a6.83,6.83,0,0,0-4.46,5.06c-0.52,2,1,5,.88,6.75a1.59,1.59,0,0,1,.2,1,8,8,0,0,0,1.67,3.09,7.28,7.28,0,0,1-.46,2.41c-1,2.69-2.9,5.47-4.12,8.32-2.17,5-.2,10.7-0.68,17-0.22,2.77-1,5.43-1.3,8-1-.29-2.06-0.57-3.24-0.87,0.36-4.09,1.15-9.26.46-12.54-0.2-.94-0.9-1.82-1-2.88-0.12-.89.2-2.18,0-3.2a12.37,12.37,0,0,0-3.44-5.76,11.44,11.44,0,0,1-.68-1.28c-1.81-2.41-3.76-4.71-1-6.72,0,0,.65-0.47,1.1-0.74a9.18,9.18,0,0,0,1.48.23c2.34-.15.62-3.18,1.43-3.63-0.16-.93.07-0.63,0.38-1.34a1.13,1.13,0,0,1-.22-1c0.57-.44,1.28-0.24,1.43-1.13-0.42-.73-0.85-1.46-1.28-2.19-0.16-.66.27-0.91,0.23-1.62-0.06-1-.79-2-0.46-3.18,0.18-.47.36-0.94,0.53-1.41-0.8-1.46-5.91-2.74-8.41-2.75l-2.58.56a6.79,6.79,0,0,0-4.24,5.22c-0.43,2,1.25,4.95,1.18,6.72a1.59,1.59,0,0,1,.24,1,11,11,0,0,0,.52,1.22c0.25,2.73-1.79,4.88-2.65,6.59-1.87,3.69-3.87,9.17-4.12,13.44-0.09,1.54.53,3.31,0.34,4.48s-1.35,2.11-1.71,3.2-0.62,3-1,4.48l-0.16.62a4.52,4.52,0,0,1-1.91-1.95c-0.37-1.34.73-3.07,0.68-4.47-0.09-2.84-2.18-5.8-1.28-8.64,0-.45-0.09-0.9-0.15-1.34a58.07,58.07,0,0,0-5.09-7.92c-1.43-1.71-2.12-3.71-.08-5.67,0,0,.06-0.18.1-0.3a3.9,3.9,0,0,0,1,.33c2.33,0.24,1.23-3,2.11-3.33,0-.94.18-0.61,0.63-1.25a1.14,1.14,0,0,1,0-1c0.66-.34,1.32,0,1.63-0.87-0.28-.79-0.56-1.58-0.84-2.37,0-.67.44-0.84,0.54-1.55,0.13-1-.38-2.14.16-3.2,0.27-.43.54-0.86,0.8-1.3-0.51-1.56-5.28-3.68-7.73-4.12l-2.65.12a7.05,7.05,0,0,0-5.18,4.42c-0.82,1.92.27,5.07-.14,6.8a1.57,1.57,0,0,1,0,1,7.51,7.51,0,0,0,1.37,3.52c-0.23,2.61-2.77,4.61-3.72,6.2-0.56.94-.75,2.31-1.38,3.51s-1.8,2.24-2.06,3.2c-1,3.7,0,6.62-.81,10a12,12,0,0,0-.11,1.65,8.07,8.07,0,0,1,0,1.77,9.65,9.65,0,0,1-.09,2c0.16,4.48-1.52,6.09-2.06,9.59-0.62,4,.13,8.16-1,10.86a10.82,10.82,0,0,1-2.83,3.52,4.32,4.32,0,0,0-1.45-1.63l0.13,0c1.74-3.55,2.43-10.86,2.73-15.44,0.23-3.62,1.72-7.35,1-11-0.17-.92-0.89-1.61-1-2.52-0.24-1.68.38-3.59,0-5.35s-2.17-3.53-3.38-5.35c-2.24-3.34-4.63-5.82-2.1-8.25a3,3,0,0,0,.84.22c2.31,0.13,1-3,1.9-3.38,0-.92.15-0.6,0.54-1.26a1.15,1.15,0,0,1-.08-1c0.63-.36,1.29-0.08,1.55-0.93-0.31-.77-0.63-1.53-0.95-2.29-0.07-.66.39-0.85,0.44-1.55,0.08-.95-0.49-2.09,0-3.16,0.24-.43.48-0.87,0.71-1.31-0.58-1.52-5.39-3.37-7.84-3.68l-2.59.24a6.86,6.86,0,0,0-4.85,4.6c-0.7,1.93.54,5,.24,6.69a1.57,1.57,0,0,1,.1,1,8.51,8.51,0,0,0,1,2.58,16.18,16.18,0,0,1-1.36,5.18c-0.33.75-1.33,1.2-1.69,1.89-0.53,1-.46,2.54-1,3.78-0.72,1.63-1.83,2.79-2,4.1-1.28,8.53,1.88,19.22,3.5,24.34a2.29,2.29,0,0,1,.07.35c-0.89,1.62-2.72,3-3.57,4.92a11.2,11.2,0,0,0-.61,1.68,9.43,9.43,0,0,0-1.2-.16c-2.29-4.22-3-3.58-2.4-5.11,1.08-6.43,1.44-14.17-.69-19.82,1.77-4-1-7.13-3.09-9.9-1.49-2-4.19-4.07-2.67-6.9a3.76,3.76,0,0,0,1,.18c2.34-.06.76-3.15,1.58-3.57-0.12-.93.09-0.62,0.43-1.32a1.16,1.16,0,0,1-.18-1c0.6-.42,1.3-0.18,1.48-1.07l-1.18-2.24c-0.13-.66.31-0.89,0.3-1.61,0-1-.69-2.07-0.32-3.19,0.2-.46.4-0.93,0.59-1.39-0.74-1.48-5.78-3-8.28-3.06l-2.6.46a6.84,6.84,0,0,0-4.46,5.05c-0.52,2,1,5,.88,6.75a1.54,1.54,0,0,1,.2,1,8.07,8.07,0,0,0,1.67,3.09A7.3,7.3,0,0,1,1451,802c-1,2.68-2.9,5.47-4.12,8.31-2.17,5-.2,10.69-0.68,16.94-0.22,2.77-1,5.42-1.3,8-1-.29-2.05-0.57-3.24-0.87,0.36-4.08,1.15-9.25.46-12.52-0.2-.94-0.89-1.82-1-2.87-0.12-.89.2-2.19,0-3.2a12.36,12.36,0,0,0-3.43-5.75,10.94,10.94,0,0,1-.68-1.28c-1.82-2.41-3.76-4.71-1-6.71,0,0,.64-0.47,1.1-0.74a9.29,9.29,0,0,0,1.48.23c2.34-.16.62-3.18,1.43-3.63-0.17-.92.06-0.63,0.37-1.34a1.12,1.12,0,0,1-.22-1c0.58-.44,1.28-0.24,1.43-1.13-0.42-.73-0.85-1.46-1.28-2.19-0.15-.66.27-0.91,0.23-1.62-0.06-1-.78-2-0.46-3.18,0.18-.47.36-0.94,0.54-1.41-0.81-1.45-5.9-2.73-8.41-2.75l-2.58.56a6.78,6.78,0,0,0-4.24,5.22c-0.43,2,1.25,4.94,1.18,6.71a1.54,1.54,0,0,1,.24,1,10.93,10.93,0,0,0,.52,1.22c0.25,2.73-1.79,4.88-2.65,6.58-1.86,3.69-3.87,9.17-4.12,13.42-0.09,1.54.53,3.31,0.34,4.47s-1.36,2.11-1.71,3.2-0.63,3-1,4.47c-0.85,3.2-1.39,6-2.06,9.59-0.36,1.94-1.82,6-1.82,7.38,0,1.06,1.36,0,1.13.93-0.46,1.8-3.35,4.25-4.18,6.72a3.55,3.55,0,0,0-1.53,2.39c-0.8.41-.93,1.22-1.37,1.85-3.48-.3-6.48-1.29-10.38-1-1,5.4-1.75,10.71-2.57,16.17-0.27,1.8-.8,3.69-0.4,5.64,1.9,0.92,4.34.9,6.65,1.18s4.8,0.63,7.23,1a43.91,43.91,0,0,0-5.76,8.32c-0.43.69-2.77,6.19-3.42,7.14-0.11.17,1,.55,0.91,0.71a13,13,0,0,0-.91,1.7c-1.37,2.48-4.18,3.93-2.85,7.09,2.45,1.62,8.7,1.88,8.39,4.66,0.06,0.21.11,0.43,0.16,0.66a0.91,0.91,0,0,0,.49.64,1.23,1.23,0,0,1,.32,0c1.93,0.19,3.87.29,5.81,0.51a5.28,5.28,0,0,0,2.6,0,2.59,2.59,0,0,0,.22-0.92h0c-0.36-2-2.31-1.65-4.18-2.4-1.09-2.63-4.75-5.9-4.23-9,0.17-1,1.49.3,1.49,0.3,0.37-1.19,2.11-3.22,3.12-4.27s1-3.36,2.37-4.59,2.33-2.88,3.65-3.18c0.49-.55,1-1.1,1.44-1.66a20.33,20.33,0,0,1,2-3.9c0.47,0.05.94,0.09,1.38,0.1s0.72-.12,1.07-0.11c1.72,0,4.29,1.37,5.55-.55,0.5-.76.62-2.77,0.74-4.24,2.78,1.07,5.57,2.17,8.37,3.25,1.13,0.43,2.26,1,3.38,1.45a7.87,7.87,0,0,0-2.29,3.41,24.2,24.2,0,0,0-4.67,2.56c-0.39.31,0.4,1-.13,1.27-2.07,1.06-5.35,1-5.83,3.2-0.53,2.42,2.42,4.87,3.43,7.35,1.13,2.79,1.15,5.13,3.43,6.39h4.46a2.92,2.92,0,0,0-.4-2.08c0.69-.2,1.25-0.75,2-0.89,0.41,0.49.83,1,1.25,1.5a6,6,0,0,1,.8,1,4.81,4.81,0,0,0,2.12,2.06c0,0.17-.09.35-0.12,0.53-0.17,1.26.39,3.16,1.92,3.63a3.53,3.53,0,0,0,4.08-1.08l0.47,0.32c3.88,0,7.72.1,11.62,0.08h0.33a22.19,22.19,0,0,0,3.15-.82c0,0.1.08,0.2,0.11,0.29a4.93,4.93,0,0,0,1.22.6c5.79,0,11.74-.08,17.71-0.15a1.53,1.53,0,0,0,.15-0.64,1.43,1.43,0,0,0-.06-0.24h0a3.17,3.17,0,0,0-.55-1,0.83,0.83,0,0,1,.74.58l0.27,0.24,1.24,0.37a12,12,0,0,0,2,.42h1a2.22,2.22,0,0,0,.32.15,3.58,3.58,0,0,0,3.58-.57c0.3-.09.6-0.2,0.89-0.32l0.19-.22h0c0.18-.54.44-0.89,0.52-1.22l0.89-.81c2-.14,3.55.11,4.19,1.69h0l0,0.06a2.49,2.49,0,0,1,.14.22l0.29,0.14c0.79,0.42,1.16.85,1.63,1a2.7,2.7,0,0,0,.78-0.11h0.2a1.84,1.84,0,0,1,.32-0.06l0.16,0a6.12,6.12,0,0,0,.85-0.23L1506,912a4.89,4.89,0,0,0,.64-0.37l0.23-.16,0.1-.07,0.19-.15h0a0.68,0.68,0,0,1,.31-0.45,1.53,1.53,0,0,1,.13.82c0.06,0.21.11,0.43,0.16,0.67a0.92,0.92,0,0,0,.49.64,1.21,1.21,0,0,1,.32,0c1.93,0.19,3.87.29,5.81,0.51a5.31,5.31,0,0,0,2.61,0,2.69,2.69,0,0,0,.22-0.92h0c-0.36-2-2.31-1.66-4.19-2.4-1.09-2.63-4.75-5.91-4.23-9,0.17-1,1.49.3,1.49,0.3a15.82,15.82,0,0,1,3.13-4.27c1-1.08,1-3.37,2.38-4.59s2.33-2.88,3.65-3.19l0.47-.54a33.18,33.18,0,0,1,1.71,6.5c0.44,4.33-1.14,8.13,0,12.14,2.46,2.29,5.57-.73,8.92-1.28l0.52-.07a4.94,4.94,0,0,0,2,1.88c0,0.17-.09.35-0.12,0.53-0.17,1.26.39,3.16,1.92,3.63a3.55,3.55,0,0,0,4.32-1.38,4.51,4.51,0,0,1,.58-0.74c1.09-1,2.2-2,3.3-3s2.36-2.27,3.49-3.46c1-1,2-2,3.11-2.94,0.3,1,.59,2,0.87,2.94,0.21,0.73,1.22,1.33,1.32,2.06,0.3,2.08-.4,4.41,1,6.33,0.12,0.16.25,0.3,0.38,0.44l0.75,0.51c3.69,0,7.37.09,11.08,0.07a8.21,8.21,0,0,1-.3-1.39,8,8,0,0,1-1.33-1.69,5.7,5.7,0,0,1-1.22.13,5.77,5.77,0,0,1-1.06-.1,4,4,0,0,1-.94-0.3c-1.15-.53-3.05-1.94-2.78-5.34v-0.13c-0.15-.19-0.27-0.35-0.36-0.48l-0.08-.11a4,4,0,0,1-1-2.88,4.14,4.14,0,0,1,1-2.75,3.73,3.73,0,0,0,.32-0.47c-0.22-1.08-.43-2.17-0.58-3.23l5.44-5.07,2.2-2c0,0.11.05,0.21,0.08,0.31q1.16-1.31,2.34-2.56,1.61-1.51,3.2-3a3.85,3.85,0,0,0,.39-0.46c0.72-.65,1.44-1.28,2.15-1.89l0.93-.8,1.91-1.63,1.07-.91a8.42,8.42,0,0,1,1.24-1.64l0.14-.29a28.15,28.15,0,0,1,4.71-6.36,5.6,5.6,0,0,1,2.42-1.56,4,4,0,0,1,2.24-2.23,9.25,9.25,0,0,1,3.51-.82,6.41,6.41,0,0,1,1.77.25,6.17,6.17,0,0,1,1.15-.11,6.79,6.79,0,0,1,1.08.09l0.53,0c0.35,0,.79-0.07,1.29-0.07a8.48,8.48,0,0,1,.85,0,4,4,0,0,1,1.55.49l0.08,0A7.17,7.17,0,0,1,1602,867a6.85,6.85,0,0,0,3.62,2l0.67,0.53,0.37-.38,3.12-3.15a5.71,5.71,0,0,0,1.21-3.61c-0.25-2,.7-1.77,2.55-0.18l0.39-.39,0.06-.06a6.33,6.33,0,0,1,1.88-1.4l0.3-.29,2.18-2.16a5.94,5.94,0,0,1-1-.54,4,4,0,0,1-1.67-3.76c0.25-2,.66-4.13,1-6.15a66.76,66.76,0,0,0,1.22-8,7.37,7.37,0,0,0-.15-1.68,14.78,14.78,0,0,1-.23-2.1,13.89,13.89,0,0,1,.29-2.79,8.37,8.37,0,0,0,.17-1.2,6.4,6.4,0,0,0-.15-0.86,10.09,10.09,0,0,1-.29-3.08,9.45,9.45,0,0,1,.78-2.82l0.15-.37a6.67,6.67,0,0,1-.19-1.09,15.34,15.34,0,0,1,.11-3.09c0-.15,0-0.31,0-0.47a12.62,12.62,0,0,1,.34-2.2,6.1,6.1,0,0,1,.75-1.66c0-.1,0-0.21,0-0.3a11.26,11.26,0,0,1,0-1.55c0-.29.06-0.56,0.09-0.85a51,51,0,0,0-4.53-6.94c-1.43-1.71-2.13-3.71-.08-5.68,0,0,.07-0.19.1-0.3a3.86,3.86,0,0,0,1,.32c2.33,0.24,1.23-3,2.11-3.33,0-.94.18-0.61,0.63-1.26a1.15,1.15,0,0,1,0-1c0.65-.33,1.32,0,1.63-0.87l-0.84-2.37C1619.55,791.31,1620,791.13,1620.12,790.42ZM1409.2,857.73a1.11,1.11,0,0,1,1.47.35A1,1,0,0,1,1409.2,857.73Zm1.77,0.76-0.32-1.42c0.12-.14.25-0.29,0.4-0.44a3.41,3.41,0,0,0,.88,1.57,2.51,2.51,0,0,0,.8.55A13.82,13.82,0,0,1,1411,858.5Zm6.26,0.44a4.38,4.38,0,0,0,1.52-2.34,18.21,18.21,0,0,1,.41,2.5C1418.52,859,1417.87,859,1417.22,858.93Zm3.82-.34a5.86,5.86,0,0,0-2.11-3.11c0.17-1.9-.28-4.09-0.15-6.22,0-.44,1.16-0.19,1.24-0.59a39,39,0,0,1,2.37-8.37c-0.65,2.77-1.35,6.45-1.2,8.32,0.08,1.07,1.29,2.23,1.37,3.51S1421.64,856.08,1421,858.59Zm76.11-7.1a14,14,0,0,0,.51-1.77c0.07,0.87.15,1.79,0.17,2.73a16.48,16.48,0,0,0-1.85,6.66,2.05,2.05,0,0,0-.61-0.3,5.54,5.54,0,0,0-1-2.42A21.67,21.67,0,0,0,1497.15,851.5Zm-3.36,5.69a4.37,4.37,0,0,1-.11,1.35l-1.27-.07A8.38,8.38,0,0,0,1493.79,857.19Zm-20.38-4.45c0,0.22.05,0.45,0.08,0.68l-0.17,0q-1.14,2.27-2.22,4.54l-1.69-.17c-0.85-3.81-2.77-6.83-2.64-10.4C1467.53,850.11,1470.13,853,1473.41,852.73ZM1451.68,856c0.52,1.95.23,3.92,0.41,6l-2.5-1a5.74,5.74,0,0,0-1.4-4.68c0-.1,0-0.2.06-0.3a24.36,24.36,0,0,0-.31-6.6C1449,851.85,1451.08,853.76,1451.68,856Zm-3.79,1.35a11,11,0,0,1-.21,2.74c-0.37-.14-0.75-0.27-1.13-0.38,0-.08,0-0.15-0.07-0.22A6.22,6.22,0,0,0,1447.9,857.32Zm-7.39-17.48c1.47,0.3,3,.61,4.41,1.06,0.2,3.4.47,6.57-.45,9.32-0.4.41-.84,0.78-1.28,1.15C1441.31,847.55,1439.44,843.44,1440.51,839.84Zm-1,55.11a16.89,16.89,0,0,0-1.28,2l-0.28.54a20.3,20.3,0,0,1,.4-2.2C1438.55,894.25,1439.06,894.52,1439.46,895Zm-1.5,8.63a12.94,12.94,0,0,1-.21-1.6l0.15,0a0.54,0.54,0,0,1,.22.17l0.69,0.6-0.77,1C1438,903.74,1438,903.66,1438,903.59Zm28.33,6a22.63,22.63,0,0,1-8.41-3.86l0.7-.72a43,43,0,0,1,4.22-3.86,35.48,35.48,0,0,1,2.37,4.31,1.58,1.58,0,0,1,.19.22l1.16,0.59C1466.4,907.38,1466.28,908.47,1466.28,909.57Zm11.52-2a13,13,0,0,1-4.85-4.62c-1.66-3-1.71-6.38-1.56-9.78l2.76-2.57,2.39-2.21c-0.5,4.21,1.91,8.94,2.22,11.55S1478.31,905.11,1477.8,907.56Zm12.38-21.51c-1.82,1.87-3.53,3.83-5.16,5.86a67.41,67.41,0,0,0,1.67-8.56,18.13,18.13,0,0,0,2.29.86c0.35,0.1.73,0.05,1.07,0.15l0.21,0.07C1490.2,885,1490.18,885.51,1490.18,886.05Zm27.57-38s0,0.1-.06.15l-0.51-.56C1517.52,847.63,1517.87,847.55,1517.75,848Zm0.69-8.32c-0.35,1.91-1.76,5.86-1.81,7.3-0.53-.58-1.05-1.16-1.55-1.76h0c0.7-1.16.89-5.43,1.61-6.57a11.23,11.23,0,0,1,1.84.4Zm5.71,16.35a18.5,18.5,0,0,0-2.91-4.08,19.84,19.84,0,0,1-.06-2.67c0-.44,1.16-0.18,1.24-0.6a41.71,41.71,0,0,1,2.12-7.72h0.11a32.63,32.63,0,0,0-1.06,7.67c0.09,1.07,1.3,2.23,1.37,3.52A14.06,14.06,0,0,1,1524.14,856.08Zm12,27.45a80.72,80.72,0,0,0-7.86,8.72l-0.19.24c0.18-2.66.68-5.49,1-8.29a2.2,2.2,0,0,0,1.72-1c0.5-.76.62-2.78,0.75-4.25l6.75,2.62C1537.6,882.21,1536.87,882.86,1536.17,883.53Zm10.72-33.24c-0.4.41-.84,0.78-1.28,1.15-1.88-3.82-3.76-7.93-2.69-11.53,1.47,0.29,3,.61,4.41,1.05C1547.53,844.36,1547.81,847.53,1546.89,850.28Zm3.21,9.85c-0.37-.14-0.75-0.26-1.13-0.38,0-.08,0-0.15-0.07-0.22a6.18,6.18,0,0,0,1.4-2.14A10.93,10.93,0,0,1,1550.1,860.13ZM1552,861a5.71,5.71,0,0,0-1.4-4.68c0-.1,0-0.2.06-0.3a24.26,24.26,0,0,0-.31-6.6c1.11,2.48,3.16,4.39,3.75,6.6,0.52,1.95.23,3.92,0.41,6Zm23.76-7.58q-1.14,2.28-2.23,4.54l-1.69-.16c-0.85-3.82-2.77-6.84-2.65-10.41,0.76,2.77,3.35,5.69,6.65,5.39,0,0.23.05,0.45,0.08,0.69Zm20.37,5.17-1.27-.07a8.49,8.49,0,0,0,1.39-1.28A4.35,4.35,0,0,1,1596.14,858.61Zm2.32,0.59a2,2,0,0,0-.61-0.3,5.53,5.53,0,0,0-1-2.42,21.52,21.52,0,0,0,2.74-4.92,13.29,13.29,0,0,0,.52-1.77c0.07,0.87.15,1.79,0.17,2.73A16.5,16.5,0,0,0,1598.46,859.19Z" transform="translate(-1015.69 -781.8)"/><rect class="cls-2" x="142.91" y="203.49" width="12.52" height="12.52"/><path class="cls-2" d="M1452.21,1051.87h75.43v71.66h-15.09v-30.17h-45.26v43.19h-15.09v-84.68Zm15.09,15.09v11.32h45.26V1067h-45.26Z" transform="translate(-1015.69 -781.8)"/><path class="cls-2" d="M1437,1123.67h-75.43V1052H1422v26.4H1437v45.26Zm-60.35-56.58v11.32h30.17v-11.32H1376.7Zm0,26.4v15.09H1422v-15.09H1376.7Z" transform="translate(-1015.69 -781.8)"/><path class="cls-2" d="M1159.18,1123.62v-71.49h15.05v56.44h60.2v15.05h-75.25Z" transform="translate(-1015.69 -781.8)"/><path class="cls-2" d="M1542.58,1123.62v-71.49h15.05v56.44h60.2v15.05h-75.25Z" transform="translate(-1015.69 -781.8)"/><path class="cls-2" d="M1084,1067.22v41.49h45.26v-15.09h-30.17v-15.09h45.26v45.26h-75.43v-71.66h75.43v15.09H1084Z" transform="translate(-1015.69 -781.8)"/><circle class="cls-2" cx="282.34" cy="306.05" r="48.72"/><path class="cls-5" d="M1275.78,1046.78c0,0.08.16,0.05,0.33,0a1.51,1.51,0,0,0,.73-0.43A2.5,2.5,0,0,0,1275.78,1046.78Zm4.85-1.68a2.58,2.58,0,0,0,1.25-.44l-0.35.06a3,3,0,0,0,.71-0.21,0.87,0.87,0,0,0-.39,0,6.7,6.7,0,0,0-1.88.52A0.69,0.69,0,0,0,1280.63,1045.1Zm0.34-.49,1-.17,0.63-.17a1.11,1.11,0,0,0-.9,0,6.65,6.65,0,0,0-1.69.56c0.17,0,.28-0.12.46-0.15S1280.71,1044.65,1281,1044.61Zm-2.17,1.11a5.32,5.32,0,0,0-.72.15c0,0.06,0,0,.14,0h-0.05a1.77,1.77,0,0,0-.46.18,0.5,0.5,0,0,1,.21,0,0.34,0.34,0,0,0-.11,0,1.57,1.57,0,0,0-.37.07,0.33,0.33,0,0,1,0,.13h0.21c-0.07,0-.15,0-0.22,0a2.09,2.09,0,0,0-.56.2c0.09,0.07,0,0,0,.13s0.12,0.12.29,0.05,0.46,0,.74-0.1a9.36,9.36,0,0,0,.94-0.24,0.41,0.41,0,0,1,.27-0.15c0,0.13.17,0.08,0.33,0.13a0.8,0.8,0,0,0-.65.22,0.84,0.84,0,0,0,.59,0,11.44,11.44,0,0,0,1.51-.38c0.07,0,1.56-.38,1.58-0.38s1.38-.14,1.53-0.19a1.73,1.73,0,0,0,.86-0.5c0-.14-0.21-0.17-0.5-0.15s-0.43.17-.65,0.18c-0.46.09-.84,0-0.82-0.19,0,0,0,0,0-.11a2.48,2.48,0,0,1-.42,0,2.6,2.6,0,0,0-.89.39,0.83,0.83,0,0,0,.54,0s0,0.06,0,.11l-0.24.07a1.81,1.81,0,0,0,.46,0,1.21,1.21,0,0,1-.53.19c-1,.14-1.37-0.05-2.07,0-0.16,0-.36,0-0.51.1C1279.12,1045.63,1278.89,1045.7,1278.8,1045.72Zm-0.64.53a0.35,0.35,0,0,0,.18,0A0.28,0.28,0,0,1,1278.16,1046.25Zm-26.87,37.66c0.07,0.12,0,.27.15,0.29a0.14,0.14,0,0,0,.07-0.07C1251.46,1084,1251.48,1083.88,1251.3,1083.91Zm-0.42-.26c0,0.08,0,.22.07,0.23a0.35,0.35,0,0,0,.23-0.26A1.28,1.28,0,0,1,1250.88,1083.65Zm0.73,1.27c0,0.15,0,.24,0,0.43s0,0.21.11,0.21a0.47,0.47,0,0,0,.36-0.17c0-.07,0-0.15,0-0.22A0.48,0.48,0,0,0,1251.61,1084.91Zm22.36-37.79a2.87,2.87,0,0,0,.37-0.16,2.91,2.91,0,0,0,.57-0.15,0.28,0.28,0,0,0,.31,0,0.78,0.78,0,0,0,.49-0.29,1.75,1.75,0,0,0,.79-0.42,0.75,0.75,0,0,0,.46.11c0.33-.14.65-0.31,1-0.46a0.91,0.91,0,0,1-.12-0.13,0.42,0.42,0,0,0,.32-0.19c0.05-.21-1.27.26-1.27,0.26a3.34,3.34,0,0,1-.37.07,5.64,5.64,0,0,0-1.17.55c-0.39.19-.68,0.28-1,0.41-0.08,0-.48.24-0.49,0.26A0.32,0.32,0,0,1,1274,1047.12Zm-23.39,36.26h0s0,0-.1,0a0.17,0.17,0,0,0,.13.19,0.17,0.17,0,0,0,.09-0.13,0.38,0.38,0,0,1,0-.18C1250.62,1083.3,1250.68,1083.31,1250.58,1083.38Zm28.56-38.12a0.63,0.63,0,0,0,.33-0.15,1,1,0,0,0-.73.12A0.47,0.47,0,0,0,1279.14,1045.26Zm-0.05.35c0.16,0,.3-0.06.48-0.09s0-.05,0-0.11l-0.77.15C1278.8,1045.67,1279,1045.64,1279.09,1045.61Zm24.47,0.45a7.52,7.52,0,0,0,.94,0,5.61,5.61,0,0,0,.77.11,0.57,0.57,0,0,0,.44-0.12,8,8,0,0,0-1.74-.4c-0.54,0-.7-0.12-1.27-0.14-0.17,0-.43,0-0.42.12a0.69,0.69,0,0,0,.52.22C1302.61,1045.94,1303.06,1046,1303.56,1046.07Zm-5.71-1.12c0.68,0,1.35,0,2,0,0.25,0,.27-0.08.63-0.1a0.69,0.69,0,0,0,.51.15c0.9,0,2,.1,2.08-0.22a0.93,0.93,0,0,1-.33,0s0.08,0,.12-0.07h0.2a4.32,4.32,0,0,0-2-.34c-1.34-.06-1.73.15-3.15,0.16-0.63,0-1.12-.06-1.74-0.1-0.1,0-.42.13-0.4,0a0.24,0.24,0,0,1,.18,0,3.3,3.3,0,0,1-1.12-.18c0.34,0,.67,0,1,0-0.23-.11-1.36,0-1.17-0.23h-0.44a1.45,1.45,0,0,1-.5.08,18.13,18.13,0,0,0-2.13-.2,1,1,0,0,0-.75.17,7.2,7.2,0,0,0,1.75.21,1.29,1.29,0,0,0,.5-0.11c0.41,0.15.5,0.25,1,.41a0.36,0.36,0,0,0-.31.15c0,0.24,1.22.35,1.8,0.36a3.61,3.61,0,0,0,.71-0.16c0.08,0,.22,0,0.31,0C1296.51,1045,1297.3,1045,1297.85,1044.95Zm-39.27,14.38,0.25-.27h-0.06Zm32.36-13.18h-0.58a1,1,0,0,0,.09-0.15,2.42,2.42,0,0,0-.93,0,1.77,1.77,0,0,0,.84-0.39,0.27,0.27,0,0,0-.24-0.08c-0.35,0-.65,0-1,0.07a5.64,5.64,0,0,0-1.5.23,0.5,0.5,0,0,0-.18.09,1,1,0,0,0,.78.06,1,1,0,0,1,0,.25,2.58,2.58,0,0,1-.38,0c-0.41,0-.78,0-1.1,0a0.29,0.29,0,0,0,0,.16c0.69,0.21,1.43.1,2.13,0.33a0.8,0.8,0,0,0,.54.13,5,5,0,0,0,.52-0.18C1290.73,1046.57,1290.77,1046.7,1290.94,1046.15Zm3.76-4.25,0.37-.05c0.24,0,.5,0,0.73,0a3.37,3.37,0,0,0-.69.12s0.33,0,.44,0a9.82,9.82,0,0,1,1-.13,3.64,3.64,0,0,1,.49,0,4.72,4.72,0,0,0-1.53.21c0.18,0,.67,0,1.16,0a3.74,3.74,0,0,0-.67.08,8.27,8.27,0,0,0,1.35.12,2.13,2.13,0,0,0,.54-0.06h0.32a1.46,1.46,0,0,0,1,.14c0.18,0,.28-0.06.49-0.06s0.4,0,.87.07a13.57,13.57,0,0,0,1.84-.07l0.37,0a6.66,6.66,0,0,1-1.16.12c-0.44,0-.8,0-1.23,0a0.34,0.34,0,0,0-.17.06,5.09,5.09,0,0,0,.92.23,13.87,13.87,0,0,1-1.54-.26,12.88,12.88,0,0,0-1.31,0,2.08,2.08,0,0,0-.37,0,0.55,0.55,0,0,0,.37.08,1,1,0,0,0-.62,0c0,0.18,1.65.15,1.69,0.35s-0.74.12-1.37,0.16a1.65,1.65,0,0,0-.75.23s0,0,0,.08a2.58,2.58,0,0,1,.38,0c0.07,0,.18,0,0.25,0h0.38c0,0.24.78,0.26,1.13,0.36h-0.45a6.39,6.39,0,0,0-1.56-.21,0.78,0.78,0,0,0-.63.07,1.27,1.27,0,0,0,.83.21c-0.53.13-1.82,0-1.85,0.3a0.25,0.25,0,0,0,.25.06,0.71,0.71,0,0,0,.31-0.08c0.9,0.09,1.55.13,2.41,0.15,0.39,0,.54-0.07.76-0.06,0.64,0,1.27,0,1.9.05s0.25,0.13.84,0.14a4.85,4.85,0,0,0,2-.15,0.53,0.53,0,0,0-.38-0.08,4.73,4.73,0,0,0-.63,0c0-.23,1,0,1-0.27a0.85,0.85,0,0,0-.18-0.12c0.42,0.06.82,0.06,1.24,0.08s0.58-.21,1.07-0.23a2.33,2.33,0,0,0-.73-0.22c0.49,0.05.76,0.11,0.7-.06l-0.69-.06c0.36,0,1,0,1.52,0,0.38,0,.92.14,1.25,0.11a13.31,13.31,0,0,1,2.11-.21,20.5,20.5,0,0,0,2.57.11c-0.57-.1-1.46-0.2-1.72-0.3,1.22,0,2.3.32,3.15,0.33a0.9,0.9,0,0,0,.52,0,7.73,7.73,0,0,0-1.48-.42,2.09,2.09,0,0,0-.41-0.17,2.73,2.73,0,0,0-.42-0.12c-0.59-.06-1.18-0.12-1.78-0.16,0.18,0,.24,0,0.4,0a25.41,25.41,0,0,0-3-.51c-0.2,0-.41,0-0.66-0.08s-0.35-.08-0.71-0.12-0.4.06-.74,0-0.47-.12-0.92-0.15a1.33,1.33,0,0,1-.28,0c-0.93,0-1.83-.11-2.76-0.18a1.44,1.44,0,0,0-.55.05,1.7,1.7,0,0,1-.48,0,2,2,0,0,0-1.2.23c-0.23,0-1.16-.15-1.64-0.16a6.78,6.78,0,0,1-1,.13,0.23,0.23,0,0,1-.2,0h-0.54a9.94,9.94,0,0,0-2.45.28A3.31,3.31,0,0,0,1294.71,1041.9Zm-5.57,6.09a1.31,1.31,0,0,0-.57.09s1.87,0.2,2.21.19a3.17,3.17,0,0,0,.66-0.2,4.13,4.13,0,0,0-1.56-.44A1.55,1.55,0,0,0,1289.13,1048Zm25.2-4.36a2.05,2.05,0,0,1-.6-0.15c-0.43,0-1.41,0-2.19,0a0.51,0.51,0,0,0-.45,0,5.85,5.85,0,0,0,1.78.39c0.06,0.25-.17.24-0.55,0.25s-1.34-.21-2-0.22c-0.45,0-.69,0-1.13,0s-1.39-.17-1.36,0a15.67,15.67,0,0,0,2.49.59c0.3,0,.55.08,0.85,0.1a0.19,0.19,0,0,0,.22,0c0.32,0,.61.1,1,0.13-0.08.12,0,.12-0.27,0.13l-1.37-.18a0.89,0.89,0,0,1-.43,0l-0.61-.07a0.89,0.89,0,0,0-.71.08,3.44,3.44,0,0,0,.86.1c0.29,0,.6.17,1,0.25a0.82,0.82,0,0,1-.47.07,8.37,8.37,0,0,0,1.62.4,1.39,1.39,0,0,0,.31,0l-0.25-.1,0.47,0c0.29,0,.52.13,0.73,0.17a6.8,6.8,0,0,1,.74,0l0.7,0.11c2.65,0.44,4.26,1.29,5.12,2.2a0.36,0.36,0,0,0,0,.14,1,1,0,0,1,.59.27c0,0.22-.45.09-0.38,0.29s0.23,0.21.64,0.29a4.29,4.29,0,0,0,.51,0,14.91,14.91,0,0,1,1.72.9c0,0.08,0,.15-0.17.09-0.52-.12-0.87-0.35-1.34-0.44a1.94,1.94,0,0,0-.39-0.09,9.43,9.43,0,0,0,2.45.95,2.32,2.32,0,0,0-.46.51,0.86,0.86,0,0,0-.61-0.12v0a1.74,1.74,0,0,0-.75.36,1.09,1.09,0,0,0,.05.23,1.08,1.08,0,0,1,.45.09,0.53,0.53,0,0,0-.16.21,4.07,4.07,0,0,0,.87.75,2.3,2.3,0,0,0,.3.39,2.69,2.69,0,0,1,.82.2c-0.17,0-.32,0-0.28.13a4,4,0,0,0,1.46,1.44,0.94,0.94,0,0,0,.21.25,1.49,1.49,0,0,1,.78.47c0.25,0.05.56,0,.86,0.06,0.53,0.14.6,0.59,1.11,0.74a1.1,1.1,0,0,1,.39,0,0.44,0.44,0,0,0,.27.17c0.53,0.12.15-.47,0.58-0.48a3.3,3.3,0,0,1-.16-0.58c-0.08-.33.81-0.12,0.75-0.45-0.06-.11-0.25-0.22-0.29-0.3s0,0,.1-0.07a0.47,0.47,0,0,0-.07-0.11c-0.12-.31.91,0.08,1.22,0s0-.13.27-0.1c0,0.07,0,.11.06,0.18a1.73,1.73,0,0,1,.26.1c0.31,0,.89.26,1.15,0.22s-0.45-.75-0.21-0.75a2.88,2.88,0,0,0,.33,0c-0.06-.07.11,0,0.24,0l0.3,0.14a48.64,48.64,0,0,0-12.43-9.49c-0.09,0-.15,0-0.14,0s0.13,0.12.22,0.17a1.05,1.05,0,0,1-.3-0.09,6.25,6.25,0,0,1-1-.42h-0.18a0.74,0.74,0,0,0,.15.15c-0.4-.11-0.54-0.3-0.93-0.4-0.56-.13-0.94-0.15-1.53-0.25-0.83-.19-1.1-0.19-2-0.34C1314.41,1043.39,1315.14,1043.77,1314.33,1043.63Zm13.72,56.9c-0.11,0-.34.32-0.37,0a0.83,0.83,0,0,1-.47-0.21,0.12,0.12,0,0,1-.09,0,0.65,0.65,0,0,0-.51.72,1,1,0,0,0,.91.67,1.39,1.39,0,0,0,.68-0.93A0.27,0.27,0,0,0,1328.06,1100.53Zm-5.49-50.29a14.4,14.4,0,0,0-1.4-.63c-0.22,0-.46-0.06-0.44.09a1.17,1.17,0,0,0,.53.43,2,2,0,0,1,.49.1A1,1,0,0,0,1322.57,1050.24Zm-36-2.36a3.07,3.07,0,0,0,1-.16c-0.49-.13-2.49-0.12-2.48-0.45s-0.57-.39-0.53-0.74a6.19,6.19,0,0,0,.58-0.36c0-.18-0.37-0.16-0.81-0.1a0.88,0.88,0,0,0-.75.24s0,0.05,0,.09a2.92,2.92,0,0,1-.67.08,0.58,0.58,0,0,0-.45.17,1.15,1.15,0,0,0,.43.57,1,1,0,0,1-.33.11c-0.46,0-.23-0.2-0.34-0.29a1,1,0,0,0-.73-0.15,3.8,3.8,0,0,0-.52.07,0.16,0.16,0,0,1,.08.15,6.13,6.13,0,0,1-.71.17,0.93,0.93,0,0,0-1-.11,3.09,3.09,0,0,0-.74.29c-0.08-.07,0-0.31-0.3-0.24-0.83.14-2.84,0.86-3,1.32a0.94,0.94,0,0,0,.6,0,3.42,3.42,0,0,1,.77-0.15,2.45,2.45,0,0,0-.93.37c-0.06.23,1.14-.06,1.67-0.16l1.21-.21a2.27,2.27,0,0,1,.56,0c-0.28.07-.41,0.08-0.77,0.14a9.07,9.07,0,0,0-2.24.61,1.47,1.47,0,0,0,1,.14,5.42,5.42,0,0,1,1.25-.16c0.28,0,0,.24.37,0.18,0.69-.11,1.39-0.22,2.13-0.31a16.36,16.36,0,0,1,1.77-.42,1.64,1.64,0,0,1,.66-0.25c0.71-.1,1,0.19,2,0.1a3.34,3.34,0,0,0,1.45-.31,0.32,0.32,0,0,1-.24-0.12c-0.08,0-.37,0-0.37-0.05S1286.38,1047.91,1286.58,1047.88Zm36,15.31a0.19,0.19,0,0,0,.15,0,0.8,0.8,0,0,0,.65-0.43,2.09,2.09,0,0,0,.3.55,1.87,1.87,0,0,1,.2.06,0.3,0.3,0,0,0,.24.26,0.32,0.32,0,0,0,.33-0.41c0-.17-0.18-0.19-0.22-0.42a0.28,0.28,0,0,1-.3.07,1.53,1.53,0,0,0-.21-0.33,0.67,0.67,0,0,0,.21-0.25,0.4,0.4,0,0,0-.26,0c0-.29,0-0.44-0.05-0.62a1.42,1.42,0,0,1-.7-0.09,0.88,0.88,0,0,1-.28,0,0.13,0.13,0,0,1,0-.1l-0.44-.05c0-.05,0-0.12,0-0.17l0.11-.08a1,1,0,0,0-.41-0.14,1.9,1.9,0,0,0-.35.11,1.14,1.14,0,0,1,0-.17,2.17,2.17,0,0,0,.54-0.87,0.36,0.36,0,0,0-.19-0.2,0.68,0.68,0,0,0-.67.46c-0.32.41-.51,1.21-1.18,1.41a0.32,0.32,0,0,0,.21.12,0.16,0.16,0,0,1,0,.12,2.65,2.65,0,0,0-.42.32,0.46,0.46,0,0,0,.28.22c0.29,0,.38-0.07.77,0a6.5,6.5,0,0,1,.77.22,1.9,1.9,0,0,0,.49,0,0.94,0.94,0,0,0,.7.16C1322.72,1063,1322.53,1063,1322.54,1063.19Zm-36.74-18.68a0.85,0.85,0,0,0-.29,0c0.05,0,0,0,.06.09h0c0,0.07,0,.08,0,0.15a1.47,1.47,0,0,0,.58,0s0,0,.06.08a2.14,2.14,0,0,1,.36,0c0,0.06.1,0.1,0.27,0.07,0.49,0,1.33-.2,1.79-0.24a2.8,2.8,0,0,0,.29,0,1.93,1.93,0,0,0-.63.18s0,0.05,0,.09a0.29,0.29,0,0,0-.18.1,1.74,1.74,0,0,0,.78,0c0.06,0,.61-0.06,1-0.11a1.3,1.3,0,0,1,.26-0.56c0-.18,0-0.2-0.47-0.18l-0.49.1c-0.47,0-.69,0-1.08,0a2,2,0,0,0-.43,0,1.23,1.23,0,0,0,.83,0c0,0.08,0,.1,0,0.19-0.63.08-.77-0.14-1.31-0.07,0,0,0,.05,0,0.1a1.19,1.19,0,0,0,.46.1C1286.78,1044.81,1286.5,1044.42,1285.8,1044.51Zm6.84-1.74a2.1,2.1,0,0,1-.57.11c0,0.06,0,.06.19,0.06l0.52-.08a0.3,0.3,0,0,0,.34.07c0.29,0,.36-0.06.75-0.08a8.42,8.42,0,0,1,1,0,7.54,7.54,0,0,0-1.9.2,1.83,1.83,0,0,0,1.11.13,1,1,0,0,1-.33.06,2,2,0,0,0,1,.09c0.37,0,.61,0,0.61-0.17a4.73,4.73,0,0,0,.9.11s0,0,0-.09h0.45l-0.32-.14,0.3-.1c0.07,0.11.07,0.14,0.4,0.13s0.66-.21,1.18-0.21a1.94,1.94,0,0,0,.57,0c0.07,0,0,0,0-.1-0.34,0-1-.1-1.22-0.1a0.66,0.66,0,0,1-.43,0,1.22,1.22,0,0,0,.18-0.1c0-.07-0.3,0-0.3-0.1s0-.12-0.32-0.11h-0.25a0.23,0.23,0,0,0,.12,0s0,0,0,.08h-0.3a0.94,0.94,0,0,0-.44-0.17c-0.38,0-.61,0-1,0s-0.29-.2-0.77-0.25-0.92,0-1.53,0a1.16,1.16,0,0,0,.72.1c-0.13,0-.29,0-0.41,0a3.13,3.13,0,0,0-.93.11,1.16,1.16,0,0,0,.31.09c0.13,0,.43-0.05.68,0a0.73,0.73,0,0,1-.27.08,4.19,4.19,0,0,0-.66,0,0.94,0.94,0,0,0-.57.1,3.26,3.26,0,0,0,1.06.08,0.57,0.57,0,0,1-.22.06l-0.73,0a1.31,1.31,0,0,0-.37,0C1291.33,1042.93,1291.78,1042.84,1292.64,1042.77Zm-3.06-.13a2.71,2.71,0,0,1,.4,0,0.66,0.66,0,0,0,0-.15c-0.15,0-.52,0-0.83.07C1289.16,1042.68,1289.43,1042.61,1289.57,1042.65Zm0.33,0.57c-0.05.23,0.48,0.17,0.76,0.25a0.4,0.4,0,0,0-.25.1,4.28,4.28,0,0,0,1.71-.1c-0.08-.12,0-0.12,0-0.2,0-.25-0.84.07-0.84-0.14a1.73,1.73,0,0,1-.83-0.06A0.8,0.8,0,0,0,1289.9,1043.22Zm-4.51.4c-0.06,0-.12.08-0.18,0.1a4.83,4.83,0,0,0,.82-0.1c-0.05,0-.07.08,0,0.09a6.89,6.89,0,0,0-.72.18,1.85,1.85,0,0,0,.62,0,1.61,1.61,0,0,1,.77-0.05c0.44-.05.68,0,1.11-0.08s0.47,0.14,1.05.11a0.64,0.64,0,0,0,.45-0.14,1.07,1.07,0,0,0-.64-0.16,0.9,0.9,0,0,0,.2-0.1,2.26,2.26,0,0,0-.69-0.12c-0.13,0-.24.08-0.37,0.1a4.06,4.06,0,0,0-.68-0.11,3.71,3.71,0,0,1-.48.11,8.15,8.15,0,0,0-.86,0c-0.29.05-.46,0.11-0.76,0.16C1285,1043.69,1285.06,1043.64,1285.38,1043.62Zm-0.13.72a0.45,0.45,0,0,0,.35-0.14,3.73,3.73,0,0,0-1.1-.08A0.79,0.79,0,0,0,1285.25,1044.33Zm0.17,1c0.13,0,.36,0,0.38-0.15s-0.1-.05-0.15-0.11a1,1,0,0,0-.71.31Zm2.37-1.44a2.6,2.6,0,0,0-.54,0c-0.09,0-.67.21-0.24,0.14A2.41,2.41,0,0,0,1287.79,1043.9Zm5.27,0.83a1.2,1.2,0,0,0-1-.25,1.57,1.57,0,0,0-.77.24,0.49,0.49,0,0,0-.34.15l1.61,0.16A0.45,0.45,0,0,0,1293.06,1044.73Zm0.15-1.09a0.12,0.12,0,0,0,0-.11,1.63,1.63,0,0,1-.32,0,11.21,11.21,0,0,0-1.61.18l1.54,0A0.41,0.41,0,0,0,1293.2,1043.64Zm-20.86,5.66a0.24,0.24,0,0,0,.24.1c0.11,0,.13,0,0.28,0s1.63-.61,1.69-0.68a5,5,0,0,1,1.8-1,11.5,11.5,0,0,0,1.43-.47c0-.2-1-0.17-1.42-0.06a4.13,4.13,0,0,1-.73.19c-0.47.08-.64,0-1.07,0.1a5.47,5.47,0,0,0-.84.27,5.83,5.83,0,0,0-1.2.33,1.42,1.42,0,0,0,.19.21c-0.1.3-1.16,0.82-1.28,1.12A3.62,3.62,0,0,0,1272.35,1049.3Zm43.48,11.29a4.54,4.54,0,0,0,1.55.71,0.33,0.33,0,0,0,.35-0.08A3.51,3.51,0,0,0,1315.83,1060.58Zm1.82,2.57-0.79-.06a1,1,0,0,1-.61-0.37,0.16,0.16,0,0,0-.1.13,4.3,4.3,0,0,0,1.21.61,0.44,0.44,0,0,0,.3-0.2A0.25,0.25,0,0,1,1317.65,1063.16Zm-8.87,22.13a0.66,0.66,0,0,0,.35.45,1.2,1.2,0,0,1,0-.22,0.55,0.55,0,0,0,.35,0,3.9,3.9,0,0,1,1.31.08,0.48,0.48,0,0,0,.35.37c0.33,0,.29-0.49.66-0.5,0.11,0,.16.14,0.29,0.14a1.18,1.18,0,0,0,.52-0.22h1.06a3.21,3.21,0,0,0-.72-0.58l0.09,0.07a2.59,2.59,0,0,0-1.61-.74c-0.33,0-.49.11-0.87,0.11a6.72,6.72,0,0,0-.7-0.2,0.34,0.34,0,0,0-.23.19,0.46,0.46,0,0,0,.38.31,0.73,0.73,0,0,0,.2.59,3.19,3.19,0,0,1-1.31,0A0.36,0.36,0,0,1,1308.77,1085.29Zm10.31-22.11a0.61,0.61,0,0,0-.2-0.21,1.07,1.07,0,0,0-.54.62,0.41,0.41,0,0,0,.44.26,0.47,0.47,0,0,0,.55-0.21s0-.1,0-0.14C1318.72,1063.44,1319.11,1063.36,1319.08,1063.18Zm-4.37,22.24c0,0.29.38,0.31,0.7,0.31a0.46,0.46,0,0,0,.45-0.16,2.39,2.39,0,0,0-.85-0.31A0.35,0.35,0,0,0,1314.7,1085.42Zm-14.79-36c0,0.08.17,0.18,0.54,0.19A0.66,0.66,0,0,0,1299.92,1049.44Zm19.54,42.48a0.7,0.7,0,0,0-.33.6c0,0.07.18,0,.24,0a0.76,0.76,0,0,0,.32-0.39,1.46,1.46,0,0,1,0-.21A2.31,2.31,0,0,1,1319.45,1091.92Zm-15.26-44c-0.31,0-.91.18-0.58,0.21A0.6,0.6,0,0,0,1304.19,1047.87Zm-0.47,3.68c-0.28-.14-0.88-0.18-0.88,0l0.41,0.19A0.68,0.68,0,0,0,1303.73,1051.55Zm6,31.49a2.33,2.33,0,0,0,0-.25,0.65,0.65,0,0,1-.58.25s0,0.13,0,.17h0.11A1,1,0,0,0,1309.72,1083Zm-3.58-4.48a0.23,0.23,0,0,0,.15.23A1.79,1.79,0,0,1,1306.14,1078.56Zm39.69,0.57a2.44,2.44,0,0,1-.19.66,1.84,1.84,0,0,0-.51.73,18.74,18.74,0,0,0-.38,2.29,4.85,4.85,0,0,0-.25,1c0.07,0.88.3,1.6,0.3,2.59a4.14,4.14,0,0,1-.42,1.88,8.94,8.94,0,0,1,.25,1c0,0.19,0,.37,0,0.71h0c0.07,0.15.06,0.17,0.12,0.3a10,10,0,0,0,.52,1.17,7.75,7.75,0,0,1,.34,1.49,1.14,1.14,0,0,0,.31.61,3,3,0,0,1,.15.54A48.81,48.81,0,0,0,1345.83,1079.13Zm-40.6-.91a0.77,0.77,0,0,0-.41.22c0.13,0,.47,0,0.77,0A0.58,0.58,0,0,0,1305.22,1078.22Zm0,1.6c0,0.16,0,.52.3,0.53a0.29,0.29,0,0,0,.15-0.14,0.4,0.4,0,0,0-.33-0.39h-0.12Zm-4.16,3.05a1.27,1.27,0,0,0,.42,0,1.32,1.32,0,0,0,0-.42l-0.09,0h-0.06a0.73,0.73,0,0,1,0,.2A0.27,0.27,0,0,0,1301.11,1082.86Zm4.45,2.59a0.53,0.53,0,0,0,.48.42,5.37,5.37,0,0,0,1-.17,0.34,0.34,0,0,0-.27-0.25l0.06,0.06a3.34,3.34,0,0,0-.94-0.23A0.35,0.35,0,0,0,1305.56,1085.45Zm3.15-1.54a2.48,2.48,0,0,0-.67-0.56l-0.44,0a0.82,0.82,0,0,1,0-.2,2.93,2.93,0,0,1-1.83-.72,1.29,1.29,0,0,0-.51-0.34c-1,0-1.58-.69-2.92-0.72a2.48,2.48,0,0,0-2.45,1.24,1.5,1.5,0,0,1,.27,0,3.09,3.09,0,0,1,1.67-.68,0.74,0.74,0,0,1,.42.09c-0.07.06-.11,0.18,0.06,0.31s0.56,0,.87,0,0.62,0.42,1,.43a1.28,1.28,0,0,1,.62,0,0.42,0.42,0,0,0,.33.26c0.07,0.44.55,0.4,1,.6a0.38,0.38,0,0,1-.29.25,0.6,0.6,0,0,1,0,.17c0.56,0,1,.2,1.71.2A1.29,1.29,0,0,0,1308.71,1083.91Zm-8.36-32.6a0.41,0.41,0,0,0,0,.15,4.08,4.08,0,0,0,1.34-.36,2.09,2.09,0,0,0-.76-0.07A3,3,0,0,1,1300.35,1051.31Zm15.77,80.49a2.27,2.27,0,0,1-.25.16c0,0.06,0,.08,0,0.11l0.15,0a0.56,0.56,0,0,0,.33-0.18,0.89,0.89,0,0,0,.56-0.23,0.61,0.61,0,0,0,0-.08c-0.12.06-.17,0-0.37,0.09S1316.27,1131.76,1316.12,1131.8Zm-0.63-69.61h-0.07C1315.44,1062.23,1315.47,1062.34,1315.49,1062.19Zm0.62,69.5a5.52,5.52,0,0,1-.74.16s0,0.08.13,0.06a1.32,1.32,0,0,1-.36.22s0,0,.09,0c0.32-.13.52-0.25,0.84-0.39A0.17,0.17,0,0,0,1316.11,1131.69Zm-0.72-69.52h0S1315.4,1062.12,1315.39,1062.17ZM1265,1061a1.3,1.3,0,0,1,.13-0.18,0.44,0.44,0,0,0-.06-0.17,0.56,0.56,0,0,0,.07-0.35,0.53,0.53,0,0,1-.3.26c-0.12,0,.15-0.21.16-0.22a3.3,3.3,0,0,0-.42,0,0.18,0.18,0,0,1,0,.13c0.08,0.1.09,0.26,0.17,0.23s0.11,0.13.27,0.13a0.33,0.33,0,0,0-.11.19,0.18,0.18,0,0,0,.22.24C1265.31,1061.23,1265,1061.06,1265,1061Zm-0.05-2.07c-0.38.05-.49,0.06-0.56,0.44,0.24-.19.12-0.09,0.42-0.11a1.12,1.12,0,0,0-.07.31,0.45,0.45,0,0,0,.31.24,0.23,0.23,0,0,0,.19-0.19C1265.29,1059.31,1264.78,1059.37,1264.93,1058.93Zm-1.09-.22a1,1,0,0,1,.16-0.61,0.73,0.73,0,0,1-.41.13,0.43,0.43,0,0,0-.25.21c-0.05.22,0.09,0.35,0.36,0.29a0.38,0.38,0,0,0,.14.51,0.86,0.86,0,0,0,.18-0.58S1263.84,1058.76,1263.85,1058.71Zm4,3.73a3.45,3.45,0,0,0,1.55.37c0.06,0,.14,0,0.21,0a1,1,0,0,1,0-.16,3.6,3.6,0,0,0-1.9-.75,1.56,1.56,0,0,0-.54-0.13,1.48,1.48,0,0,0-.31.14,0.18,0.18,0,0,0,.08,0h0.31a0.69,0.69,0,0,1-.24.19,1.17,1.17,0,0,0,1.06.17A0.74,0.74,0,0,0,1267.83,1062.44Zm35-4.51a0.2,0.2,0,0,0,.1,0,0.61,0.61,0,0,0-.68-0.35,0.49,0.49,0,0,1,0,.14A1,1,0,0,0,1302.87,1057.92Zm0.15-7.25a9.3,9.3,0,0,0-1.16-.26,2.49,2.49,0,0,1-.19-0.21c-0.48-.27-1.33-0.18-1.91-0.5a1.62,1.62,0,0,0-.24.08,4.48,4.48,0,0,1-.4-0.32,0.73,0.73,0,0,0-.88.65c0,0.06,0,.11,0,0.17a0.36,0.36,0,0,1-.27.14,0.66,0.66,0,0,0-.4.22,8.78,8.78,0,0,1,1.16,0c0,0.12-.13.22,0.19,0.23a0.26,0.26,0,0,0,.22-0.09,1.44,1.44,0,0,0,1.26-.39l1,0.31c0.2,0,.47,0,0.73,0A4.22,4.22,0,0,0,1303,1050.67Zm4.85-1.79a1.59,1.59,0,0,0-.53-0.21,0.73,0.73,0,0,0-.33.08,0.36,0.36,0,0,0,.34.11A2.46,2.46,0,0,0,1307.87,1048.88ZM1305,1051a0.66,0.66,0,0,0-.61,0A0.68,0.68,0,0,0,1305,1051Zm30.56,52.08c-0.26,0-.42.1-0.69,0.07a2.24,2.24,0,0,1-1-.94,2.9,2.9,0,0,0-.92-0.25c-0.24.07-.52,0.15-0.81,0.21s-0.44-.3-0.93-0.27a1.74,1.74,0,0,0-.5.32l-0.16,0a1.62,1.62,0,0,0,0-.59,0.6,0.6,0,0,0-.4-0.22,4,4,0,0,0-1.48-.52,1.81,1.81,0,0,0-1,1,0.63,0.63,0,0,1-.28.31,0.28,0.28,0,0,1-.1-0.25c-0.18,0-.35,0-0.57,0a0.61,0.61,0,0,0-.37-0.53c-0.11,0-.34,0-0.32-0.25a5.56,5.56,0,0,1,1.31-2.27,2.09,2.09,0,0,0-.41-0.48,6.07,6.07,0,0,1-.37-1.36c-0.41-.08-0.89-0.87-1.3-0.88h-0.15a0.09,0.09,0,0,0,0-.05,2.31,2.31,0,0,1-.83-0.25l-0.66,0c-0.71-.1-1.75,0-2-0.71a0.6,0.6,0,0,1-.39-0.14,3.12,3.12,0,0,0-1-1c-0.24,0-.51,0-0.76,0-0.12-.36,0-0.72-0.36-0.84a1.8,1.8,0,0,1-1.17-.57c0-.05,0-0.16,0-0.21a0.61,0.61,0,0,0,.42-0.06,6.48,6.48,0,0,0-.77-0.07,6.19,6.19,0,0,0-.7.14,1,1,0,0,1-.88.39c-0.17,0-.56,0-0.56-0.29l-1.54,0a0.5,0.5,0,0,1-.34-0.49,1.4,1.4,0,0,1-1.19-.66H1312c0,0.32.44,0.2,0.55,0.51-0.17,0-.45,0-0.7,0-0.26.18-.71,0.12-0.74,0.53a7.86,7.86,0,0,0,.34.84,0.91,0.91,0,0,1-.28.44,0.72,0.72,0,0,1-.48-0.81,8.2,8.2,0,0,1,.27-1.12,0.34,0.34,0,0,0,.3-0.33,0.64,0.64,0,0,0-.26-0.33,5.81,5.81,0,0,0-.85.53c-0.76.22-1.2,0.34-1.93,0.56a1,1,0,0,0-.8.64,1.49,1.49,0,0,1-.27.69,0.67,0.67,0,0,0-.48.47,0.38,0.38,0,0,0-.18.14,0.34,0.34,0,0,1,0,.16,0.41,0.41,0,0,1-.36,0c-0.06,0-.17.15-0.22,0.19l0.2-.22c-0.48-.34-0.52-1.13-1.39-1.16s-1.1.55-1.9,0.56c-0.53,0-.51-0.49-0.85-0.66a1.4,1.4,0,0,1-1.12-1.07c0-.57,0-1.1,0-1.69a4.81,4.81,0,0,0,.21-1.61,3.56,3.56,0,0,0,0-.42c-0.54-.11-0.72-0.57-1.46-0.58-1.07,0-1.88.17-2.89,0.17a0.37,0.37,0,0,1-.37-0.3,0.35,0.35,0,0,1,0-.14,1,1,0,0,0,.54-0.55c0-.45,0-0.9,0-1.33h0.25s0,0.15,0,.19a1.37,1.37,0,0,0,.36-0.91,14.53,14.53,0,0,1,.52-1.41v-0.25c-0.13,0-.61,0-0.7-0.06a1.31,1.31,0,0,0-.6-0.08c-0.83,0-1.9,0-1.92.79a3.4,3.4,0,0,1-.64,1.11,0.65,0.65,0,0,1-.43.44,1.76,1.76,0,0,0-.57-0.17c-0.63,0-1.08.38-1.67,0.39-0.17,0-.24-0.24-0.51-0.33-0.81-.23-0.79-0.68-1.32-1.18a4.69,4.69,0,0,1-.71-0.79c-0.14-.26,0-0.41-0.09-0.66a0.8,0.8,0,0,1-.24-0.55c0-.51,0-1,0-1.53a3.8,3.8,0,0,0,.31-1.1,1.64,1.64,0,0,0-.12-0.43,0.08,0.08,0,0,1,0-.06,0.51,0.51,0,0,0,.08,0,2.76,2.76,0,0,0-.15-0.27,1.82,1.82,0,0,1,1.06-1.77,1.91,1.91,0,0,0,.81-0.15,2.49,2.49,0,0,1,1.65-1c0.34,0,.51.26,0.84,0.26,0.13,0,.32-0.21.45-0.22,0.61,0,1.29.89,2.16,0.53-0.37-.23-0.1-0.48-0.06-0.87a0.5,0.5,0,0,1-.42,0c0.52-.16,1.14-0.1,1.63-0.22a0.35,0.35,0,0,0,.21.22,2.73,2.73,0,0,1,.76-0.22c0.73,0,1,.63,1.6.62a5.36,5.36,0,0,1,.66-0.35c1.34,0,1,1.63,1.46,2.53a4.74,4.74,0,0,0,.91,1c0.17,0.29.15,0.67,0.6,0.69s0.66-.51.66-1.09a2.83,2.83,0,0,0-.37-1.09s0-.1,0-0.13c0-.88-0.83-1.13-0.86-2,0-2,1.46-2.07,2.87-2.75l-0.08-.05a0.85,0.85,0,0,1,.5-0.33,6,6,0,0,1,.73-0.3,0.79,0.79,0,0,0,.34-0.29,2.67,2.67,0,0,0-.35-0.19c0-.05,0-0.16,0-0.21,0.2,0,.4,0,0.45-0.25a0.59,0.59,0,0,1-.41-0.24,0.37,0.37,0,0,0,.38-0.31c0-.06,0-0.19,0-0.25a0.77,0.77,0,0,0-.21,0c-0.13-.13,0-0.14,0-0.39s-0.15-.73-0.17-0.9a0.9,0.9,0,0,1,0-.33,9.19,9.19,0,0,1,.34.86c0,0.07,0,.21,0,0.28a0.28,0.28,0,0,0,.12.16,5.07,5.07,0,0,0,.65-1c0-.16-0.21-0.26-0.28-0.49l0.14-.12a0.62,0.62,0,0,0,.21.21,3.1,3.1,0,0,0,.78-1.07,0.85,0.85,0,0,1-.27-0.31,0.26,0.26,0,0,1,.17-0.17l0.26,0a4.39,4.39,0,0,0,1.08-.09,1.76,1.76,0,0,0-.72,0,1.4,1.4,0,0,0-.29,0c0.58-.32,1.53-0.14,2.09-0.47a1.91,1.91,0,0,0,.93,0,1.68,1.68,0,0,1,0-.17,2.22,2.22,0,0,1-.3.16,0.63,0.63,0,0,1-.3-0.45,0.34,0.34,0,0,1-.13-0.23c0-1,1-.63,1.44-1a1.13,1.13,0,0,1,.63-0.14,0.93,0.93,0,0,0,.86-0.36,0.88,0.88,0,0,1-.13-0.18,0.11,0.11,0,0,0,0-.07,0.31,0.31,0,0,0,0-.07l0.27,0a3.31,3.31,0,0,0,1.09,0,0.93,0.93,0,0,1,.62-0.43c0,0.32,0,.35.43,0.39-0.63,0-1.56.32-1.54,0.84a1.26,1.26,0,0,0,.58.64,8,8,0,0,1,1.21-.71,6.64,6.64,0,0,0,1.89-.68,1.13,1.13,0,0,0-.87-0.35c-0.77-.07-2-0.8-2.1-1.39a3.72,3.72,0,0,0-.58-0.11c0.14-.17,1.08-0.2,1.07-0.68s-0.84-.41-1.42-0.45c-1.2-.07-1.67.57-2.51,0.64,0.33-.61.89-0.38,1.47-0.83,0.37-.32.05-0.51,0.62-0.63a8.11,8.11,0,0,1,2.6.1c1.33,0.12,2.35.67,3-.09,0.33-.36,2.2-0.09,2.16-0.62a1.29,1.29,0,0,0-.52-0.84,1.35,1.35,0,0,0-.23-0.27c0-.06,0-0.13,0-0.19a8.87,8.87,0,0,1-2.3.19,0.47,0.47,0,0,1-.26-0.09c0.48-.12,1.81-0.06,2-0.36a1.2,1.2,0,0,0-.24-0.21c-0.61,0-1.86-.35-2-0.91a0.08,0.08,0,0,1,0,0,3.17,3.17,0,0,1-1.26-.52c0.11,0,.36,0,0.35-0.24a3.29,3.29,0,0,1-.23-0.46c-0.25-.08-1.1-0.47-0.92-0.75s-0.84-.52-1-0.94a2,2,0,0,1-.46-0.24c-0.16.06-.62,0.17-0.54,0.36s-0.29.36-.74,0.51a2.35,2.35,0,0,1-.82.31,8.06,8.06,0,0,1-1.17-.61c-0.44-.05-0.28-0.75-0.38-1.1s-1.5-.25-1.6-0.8a9.61,9.61,0,0,0-1.42-.44l-0.58,0c-0.78,0-1.25-.33-2-0.36-0.4,0-.8.06-0.79,0.33s1,0.4.11,0.68c-0.35.11,0.51,0.5,0.58,0.72,0.12,0.5-.63.56-1,0.62,0.39,0.34,1.1.45,1.44,0.76a1.78,1.78,0,0,1,.13,1.2c0,0.3-1.61,1-2.18,1,1,0.34.64,1.22,1,1.55a2,2,0,0,0-.42.63,1.72,1.72,0,0,1-.92,0c-0.72-.37-1.76-1-1.79-1.49a1,1,0,0,0-.8-1.2c-0.59-.12-1.19-0.2-1.78-0.29a20.51,20.51,0,0,0-3.45-.91,6.22,6.22,0,0,0-1.25-.29c-0.42,0-.62.25-1,0.25a1.3,1.3,0,0,0-1-1.16c-0.29,0-.42.14-0.7,0.17a1.64,1.64,0,0,0,0-.66,1.83,1.83,0,0,1,1.07-1.49,5.86,5.86,0,0,1,.92-0.72c0.46-.09.89,0.2,0.91-0.14s-1-.2-1.4-0.29c0.2,0-.61-0.24,1.62.06,0.58,0,.23-0.29.56-0.3a4.73,4.73,0,0,1,.6,0,3.5,3.5,0,0,0,1.44-.51c0-.07,0-0.13,0-0.2-0.92-.11-1.81,0-2.22-0.41a3.81,3.81,0,0,1,.48,0,4.84,4.84,0,0,0,1.2.29,3.3,3.3,0,0,0,1.42-.24,0.53,0.53,0,0,0-.12-0.4c0.53,0,.74.25,1.1,0.27s0.58,0,.89,0c-0.12-.06,0-0.3.32-0.06a2.67,2.67,0,0,0,1.53-.57,5.11,5.11,0,0,0-.62-0.33c0-.1-0.38-0.27.46-0.46,0.11-.11,0-0.08,0-0.31a1.68,1.68,0,0,1-.75-0.16l1.58,0.07c0,0.08-.11.22,0.22,0.24a7.89,7.89,0,0,0,1.2-.33,18.58,18.58,0,0,1,2,.68,0.92,0.92,0,0,0-.61.09,0.88,0.88,0,0,0,.22.14c0.34,0,.48-0.1.81-0.07a5.15,5.15,0,0,1,2.26,1,1.26,1.26,0,0,1-.73.41c-0.17,0-.64-0.07-0.63.12a1.11,1.11,0,0,0,.49.26,8.1,8.1,0,0,1-1.16.07c-0.4,0-.75-0.06-1.13-0.07a1.57,1.57,0,0,0-1,.24,2.21,2.21,0,0,0,1.16.38,6.59,6.59,0,0,0,.78-0.12c0.19,0,.18.09,0.45,0.11a1,1,0,0,0,.51-0.13c0.78,0.24,1.21.48,2.08,0.72-0.39.33,1.14,0.47,1.79,0.67s1.13,0.23,1.9.46a0.82,0.82,0,0,0,.27.17c0.09,0,.24,0,0.24-0.11-0.08-.32-1.49-0.7-2-1a1.35,1.35,0,0,0,.38,0,13,13,0,0,0,2.41.72,1.12,1.12,0,0,0,.31-0.4,4.2,4.2,0,0,0-.48-0.31,1.41,1.41,0,0,1,0-.23,3,3,0,0,1-.42,0c-0.08-.2-0.23-0.1-0.72-0.22a1.77,1.77,0,0,1-.61-0.48l-0.33,0a0.49,0.49,0,0,0,0-.16,0.94,0.94,0,0,0,.38,0s0-.08,0-0.13a1.87,1.87,0,0,1-.5-0.08,1.62,1.62,0,0,1,.48-0.06c1.24,0.15,1.34.86,2.59,1,0.28,0,.29-0.13.27-0.26,0.48,0.05.52,0,.51-0.05a0.45,0.45,0,0,1,0-.14c0.3,0,.7.08,0.69-0.07s-0.22-.27-0.69-0.34a2.07,2.07,0,0,1-.44-0.11,1.06,1.06,0,0,0-.86-0.17,0.7,0.7,0,0,1-.6-0.44,2.09,2.09,0,0,1-1.29-.52,1.87,1.87,0,0,1-.7-0.17,1.32,1.32,0,0,1,.78-0.13,1.15,1.15,0,0,0-.38-0.14c-0.27,0-.49-0.08-0.75-0.11a1.72,1.72,0,0,1,.84,0,1.32,1.32,0,0,0-.73-0.32,1.69,1.69,0,0,0-.42-0.05,0.44,0.44,0,0,0,0-.17c-0.69-.14-1.09-0.3-1.78-0.47,0.06-.21-0.58-0.24-0.85-0.28s-0.41,0-.63-0.06a5.72,5.72,0,0,1-1.61-.61,10.26,10.26,0,0,0-1.91-.28c-0.46,0-.57.22-1,0.18-0.2,0-.31-0.11-0.6-0.12a1.56,1.56,0,0,0-.5.07c-0.11,0,0-.14,0-0.19a1,1,0,0,0-1-.58c-1-.05-2.71.05-2.73,0.41,0,0.12.26,0.14,0.26,0.26a0.71,0.71,0,0,1-.51.19c-0.32,0-.26-0.07-0.26-0.17a0.18,0.18,0,0,1,0-.17c-0.11,0-.21,0-0.21-0.1,0-.3.84-0.29,1.1-0.48l-0.85-.11a5.67,5.67,0,0,0-2,.35c-0.08.06,0,.21-0.18,0.27-0.4.08-.53,0.15-0.53,0.44a0.83,0.83,0,0,0,.38.26s1.17,0,1.43.09c0,0.05,0,.07,0,0.13a7.52,7.52,0,0,0-1.17,0,1.78,1.78,0,0,0,.57.3c0.42,0,.83,0,1.25,0a2.33,2.33,0,0,0,.78.21h0.11a2,2,0,0,0,.4.33,3.34,3.34,0,0,1-.74.24,2,2,0,0,1-.52.61,0.77,0.77,0,0,1-1.13-.1c0-.19.44-0.12,0.45-0.32a2.27,2.27,0,0,0-1-.43c-0.78,0-.24.53-1.07,0.55,0-.24,0-0.36-0.59-0.47a1,1,0,0,1,.27-0.16,7.65,7.65,0,0,1-1.31-.14,1.12,1.12,0,0,0,.67-0.31c0-.23-0.74-0.19-0.77-0.37s-0.34-.46-1-0.52a0.68,0.68,0,0,0,.41-0.25c-0.1,0-.24,0-0.33,0,0.16-.22.15-0.07,0.72-0.09a2.89,2.89,0,0,0,1.47-.41s0.45-.13.46-0.15,0-.07,0-0.12c-0.93,0-1.59-.06-2.48,0a1,1,0,0,0-.69.17s-0.05.1,0,.09a5.39,5.39,0,0,1-.58,0c0,0.07,0,.09,0,0.16,0.17,0.18,0,.31.37,0.43a1.68,1.68,0,0,0,0,.18c-0.34,0-.19.13-0.17,0.25a0.9,0.9,0,0,0-.73.22c0,0.14.2,0.14,0.18,0.28a1.79,1.79,0,0,0-.36.29c0,0.41,1.71.05,1.73,0.48a2.51,2.51,0,0,1-.23.38c0.16,0,.34-0.09.56-0.15,0.29,0.5-1.37.32-1.45,0.94-0.88.16-.17-0.27-0.36-0.42a4.12,4.12,0,0,0-1.17-.08c-0.47,0-.66.16-0.69,0.44a15.51,15.51,0,0,0-2.67-.05c-1.4.13-2.44,0-2.7-.41-0.48.08-1.9,0.31-2,.57,0,0.1.09,0.13,0.29,0.09a6.35,6.35,0,0,0,1.37-.36c0,0.41-1.15.21-1.24,0.63a0.73,0.73,0,0,1,.09.35,2.65,2.65,0,0,1-.95-0.28,2.89,2.89,0,0,0-.35,0l-1.54.22a12.73,12.73,0,0,0-1.33.32c-0.94.18-.89,0-0.88,0a3.65,3.65,0,0,1,.88-0.28c-0.57-.36-0.45-0.32-1.77,0s-2.28,0-3.59.27a2.71,2.71,0,0,0-.57.37,0.34,0.34,0,0,1-.4-0.17,7.28,7.28,0,0,1-.88.5,2.15,2.15,0,0,1-.87-0.19c-0.41.12-.34,0.38-0.76,0.51-0.17.05-.24,0.08-0.29,0a8.75,8.75,0,0,0-1.37.65,2.16,2.16,0,0,1-.87.43,0.54,0.54,0,0,0-.57.28c-1.18.44-.43,0.42-0.6,0.47a8.09,8.09,0,0,1-1.86.49,49,49,0,0,0-4.78,5.59c0.14-.1.3-0.21,0.41-0.3,0.07,0.29.52,0.16,1,.09a8.52,8.52,0,0,1,.83-0.35,10.08,10.08,0,0,1,1.32-.12,1.13,1.13,0,0,0,.66.21,0.64,0.64,0,0,0,.33-0.32,0.44,0.44,0,0,0,.48,0,0.24,0.24,0,0,1,.3,0,0.67,0.67,0,0,0-.25.33c0,0.08.14,0.14,0.22,0.12,0.26-.06.18-0.18,0.55-0.31,0,0.06,0,.11,0,0.17a4.26,4.26,0,0,0-.34.3c0,0.09.05,0.19,0.29,0.11s0.56-.17.52,0a1.21,1.21,0,0,1,0,.2,0.63,0.63,0,0,0,.73.21,0.33,0.33,0,0,1,.2-0.06,1.06,1.06,0,0,1,.08.17c0,0.18-.07,1.09.19,1.11a1.07,1.07,0,0,1,.43,0c0.2,0.13-.11.34,0.13,0.39a2.33,2.33,0,0,1,.52.17c0.12,0.31,0,.7.81,0.57,0.06,0.29.84,0,1,.32a3.87,3.87,0,0,0,.81.2,0.78,0.78,0,0,0,.24.06,0.77,0.77,0,0,1,.25.31,1.69,1.69,0,0,1-.38.47,0.56,0.56,0,0,0-.63-0.17,0.77,0.77,0,0,0-.36.16c0,0.34.49,0.39,0.46,0.75s-0.83,2.77-.68,3.33a13,13,0,0,0,.27,1.37c-0.12.1-.39,0.28-0.28,0.48,0.34,0.68.75,1.65,1.27,1.7-0.21,1,.33.62,0.65,1.47a0.58,0.58,0,0,0,.16.53,4.34,4.34,0,0,1,2.49,1.47h-0.05s0,0.13,0,.18a4.92,4.92,0,0,0,.59,1.17,2.93,2.93,0,0,0,.4,1.2,5.1,5.1,0,0,1,1.25,1.35c0.22,0.33-.43.24-0.54,0.25,0.27,0.39.86,0.3,1.22,0.64s0.48,0.54.77,0.82c0,0.17,0,.46,0,0.69a0.47,0.47,0,0,0,.27.23,2.18,2.18,0,0,0,1.05.8,2.12,2.12,0,0,0,.45.56,0.79,0.79,0,0,0,.2-0.41c0-.16-0.32-0.66-0.55-0.44a2.78,2.78,0,0,1-.85-1.63c-0.21-.56-0.7-0.81-0.89-1.43a1.94,1.94,0,0,0-.54-1.06,2.25,2.25,0,0,1-.78-0.62,2.73,2.73,0,0,1-.43-1.3,0.7,0.7,0,0,1,.07-0.34,3.41,3.41,0,0,0,1.21.46c0.17,0.09.13,0.65,0.37,0.89s0.13,0.66.37,0.9,0.54,0.54.91,0.89c0.06-.06.06,0,0.3,0,0,0.65.81,0.67,1.08,1.14a1.62,1.62,0,0,0,.16.77c0.25,0.24.71,0.36,1,.62a6.52,6.52,0,0,1,1.58,2.44,1.26,1.26,0,0,1,.28.62,5.85,5.85,0,0,1-.29.76,0.6,0.6,0,0,0,.43.54,5.6,5.6,0,0,0,1.33.87l0.32,0.19c0.37,0.16.57,0.11,1,.27a5,5,0,0,0,.91.63,5.84,5.84,0,0,1,.86,0,8.3,8.3,0,0,0,1.67.8,1.5,1.5,0,0,1,.68.05,1.58,1.58,0,0,0,.6.25c0.52,0,.6-0.54,1.14-0.55a1.6,1.6,0,0,1,.66.22h0.18c0.82,0.38,1,1.5,2,1.94,0.61,0.28,1,.15,1.61.39a3,3,0,0,0,1.27.47c0.15,0,.36-0.13.58-0.14a0.68,0.68,0,0,0,.18,0,3,3,0,0,0,1.18,1.36,1.08,1.08,0,0,1,.4.47c0.15,0.44-.15.79,0.3,1.07a2.51,2.51,0,0,1,.3,0,0.24,0.24,0,0,1,0-.25,6.22,6.22,0,0,1,1.15.74,0.74,0.74,0,0,0,.54.58,0.25,0.25,0,0,0,.15.16,1.46,1.46,0,0,1,.91,0,1.68,1.68,0,0,0,1,.73,0.48,0.48,0,0,0,.46-0.41,0.57,0.57,0,0,1-.24-0.25,2.7,2.7,0,0,1,1.06-.71c0.32,0,.12.62,0.46,0.78a1.15,1.15,0,0,0-.19.27,1.12,1.12,0,0,0,.34.21,0.35,0.35,0,0,0,.07,0,1.18,1.18,0,0,0-.05.17c0,0.5.51,0.38,0.53,1,0,0.27-.15.38-0.16,0.7a4.83,4.83,0,0,1,.17.59s0,0.11,0,.14-0.1.16-.12,0.22a0.53,0.53,0,0,0,.29.26c-0.21.73-.94,0.54-1.3,1.15a1.54,1.54,0,0,1-1.27,1.16,8.41,8.41,0,0,1-.33,2.31c0,0.38,0,.87.47,0.89a0.43,0.43,0,0,1,.44,0,5.87,5.87,0,0,1-.93.93,1.41,1.41,0,0,0-.34.78,2,2,0,0,0,.72,1.25,1.07,1.07,0,0,1,.44.2,2.06,2.06,0,0,0,.34.71,0.56,0.56,0,0,1,.38.17,8.67,8.67,0,0,1,.61,1.36c0.19,0.53.34,1.08,0.55,1.66a3.14,3.14,0,0,1,.52.91,0.84,0.84,0,0,0,.09.74,3.3,3.3,0,0,0,1.67.91,1.68,1.68,0,0,1,.88.43,2.83,2.83,0,0,0,1,.32,1.89,1.89,0,0,1,1.13,1,15.12,15.12,0,0,1,.1,1.77c0,0.33-.31.94-0.34,1.25s-0.05.6-.07,0.94a4.3,4.3,0,0,0-.24.74c0,0.06,0,.13,0,0.19-0.07.7-.51,1.13-0.58,1.91a2.29,2.29,0,0,0-.22.94c0,0.5-.06,1-0.11,1.41-0.2.44-.24,0.75-0.46,1.18a1.1,1.1,0,0,1-.24.14,6,6,0,0,0-.34.52,2.15,2.15,0,0,0-.7,1.06,0.78,0.78,0,0,0,.07.57,0.21,0.21,0,0,1,.13.17,0.31,0.31,0,0,1-.26.12,2.36,2.36,0,0,0-.34.73c0,0.2-.11.56,0.1,0.56a3.5,3.5,0,0,0,.4-0.2c0.07,0,.16,0,0.22,0a1.39,1.39,0,0,1,0,.22c-0.42.65-.8,1.29-1.23,1.9-0.35,0-.17-0.2-0.61-0.16a0.21,0.21,0,0,0-.24.15h0c-0.06,0,0,.06,0,0.12s0.29,0.24.29,0.38a5.68,5.68,0,0,1-.62.5,7.58,7.58,0,0,1,.24.76,0.2,0.2,0,0,1,0,.14c0,0.2.6,0.11,0.57,0.35a0.36,0.36,0,0,1-.19.18l0.18,0a2.6,2.6,0,0,0-.47.2,0.28,0.28,0,0,0,.19.07,1.69,1.69,0,0,0,1.08.13c0,0.09,0,.1.23,0.08s0.29,0,.43,0c-0.09.3,0.47,0.1,0.78,0.09a1,1,0,0,0,.61.17c0.22,0,.4-0.08.62-0.09l0.23-.07a1,1,0,0,1,.24,0c0.22,0,.79-0.28,1.12-0.34a0.79,0.79,0,0,0,.35-0.08,5.88,5.88,0,0,1-1.55-.1c-0.27-.06-0.13-0.47-0.5-0.54-0.13,0-.3,0-0.29-0.18a0.68,0.68,0,0,1,.5-0.5,2.88,2.88,0,0,0,.78-0.28,2.91,2.91,0,0,1,.34-0.39,1.83,1.83,0,0,0,1-.62c0.06-.37-1,0-0.9-0.49a1.14,1.14,0,0,1,.79-0.51,2.79,2.79,0,0,0,.94,0,2.2,2.2,0,0,1,.75-0.93c-0.12,0-.24,0-0.21-0.18,0.23-.05.29,0.08,0.58,0a0.43,0.43,0,0,0,.27-0.22c0-.1-0.08,0-0.18-0.11a2.58,2.58,0,0,1-.35.15,0.46,0.46,0,0,1-.37-0.51,0.25,0.25,0,0,1,.27-0.22c0.49-.08.52,0.12,1,0.05a1.57,1.57,0,0,0,.58-0.27,0.4,0.4,0,0,1,0-.15,1.32,1.32,0,0,1,.29-0.66,9.44,9.44,0,0,1,1.36-.27,6.07,6.07,0,0,0,1.49-.57,6.44,6.44,0,0,0,.71-0.6,0.61,0.61,0,0,0,.21-0.45c0.07-.21-0.31-0.1-0.35-0.28a0.61,0.61,0,0,0-.16-0.47c-0.08,0-.39,0-0.36-0.22a0.29,0.29,0,0,1,.2-0.12c0.37-.07.62,0.09,0.93,0a9.25,9.25,0,0,0,1,0c1-.21,1.4-1.06,2-1.7s1.06-1,1.58-1.54a1.4,1.4,0,0,0,.25-0.15h0a3.82,3.82,0,0,1,1.05-1.05c0.1-.48.16-1,0.25-1.53,0-.36-0.07.05,0.28-0.25a3.14,3.14,0,0,0,.7-0.53c0.5-.63.94-0.47,1.57-1a0.68,0.68,0,0,1,.25-0.26,3.18,3.18,0,0,1,1-.35,1.83,1.83,0,0,0,1-.72,3.87,3.87,0,0,1,.19-0.45c0.37-.47.5-0.68,0.9-1.22a5.62,5.62,0,0,0,.23-0.7,1.42,1.42,0,0,1,.34-0.53,0.55,0.55,0,0,0,.14-0.27c0.06-.26.38-1.38,0.45-1.76s-0.22-.65.12-1.05a5.87,5.87,0,0,0,.69-0.7c0.17-.22.24-0.28,0.38-0.5a8.47,8.47,0,0,0,1.8-3.65C1336,1103.59,1335.94,1103.15,1335.6,1103.08Zm-21.78-39.14a1.72,1.72,0,0,0-.1-0.2A0.47,0.47,0,0,1,1313.82,1063.94Zm-0.11-.24c0-.06,0-0.16-0.07-0.22S1313.68,1063.64,1313.7,1063.7Zm-0.12-.5c0-.08,0-0.2,0-0.28A1,1,0,0,1,1313.58,1063.2Zm-9.75,1.73a0.39,0.39,0,0,0,.06.11A0.16,0.16,0,0,1,1303.83,1064.93Zm0.08,0.16s0.06,0.14.08,0.19S1303.94,1065.14,1303.91,1065.1Zm0.1-.59a16.82,16.82,0,0,1,2.64-.36c0,0.85-1.78.6-2.61,0.57-0.11,0-.14,0-0.34,0a1.07,1.07,0,0,1,.1.16,0.93,0.93,0,0,1-.16-0.21A0.56,0.56,0,0,1,1304,1064.5Zm-0.47,1,0.28-.11a8.78,8.78,0,0,1-2.48.7,0.54,0.54,0,0,1-.41-0.58,0.89,0.89,0,0,0,.43.28,0.57,0.57,0,0,0,.4-0.23,1.78,1.78,0,0,1,1.09-.17A4.56,4.56,0,0,0,1303.54,1065.46Zm-7.68-4.73a4.33,4.33,0,0,0,.73-0.11,2,2,0,0,1,.46-0.46,1.27,1.27,0,0,1,.67.48,0.63,0.63,0,0,0,0-.31H1298a10.13,10.13,0,0,1,1.41.83,2,2,0,0,0,.23.66,10.34,10.34,0,0,0,2.25.78,5.75,5.75,0,0,0,.74,0,1.25,1.25,0,0,1,.78.76,0.29,0.29,0,0,1-.28.27,1.53,1.53,0,0,1-.8-0.4c-0.11.34-.34,1.43-0.75,1.44a0.92,0.92,0,0,1-.41-0.71,1.68,1.68,0,0,1-.57.16,3.51,3.51,0,0,0,.3-0.84,2.17,2.17,0,0,0-1.29-.68c-0.47,0,0,.52-1,0.59-0.31,0-.31.69-0.31,1s0,0.49,0,.73a0.91,0.91,0,0,1-.57,1,0.62,0.62,0,0,1-.66-0.46,4,4,0,0,1,.72-2.27,1.56,1.56,0,0,0-.68.32,2.35,2.35,0,0,1,1.82-1.09,4.42,4.42,0,0,0,1.28,0,1.69,1.69,0,0,0,0-.27c-0.6,0-.92-0.28-1.62-0.3-0.32,0-.42.21-0.79,0.22a0.6,0.6,0,0,1-.48-0.26h-0.57a0.86,0.86,0,0,0,.31-0.55c-0.41.09-.93,0.48-1.25,0.5a2.57,2.57,0,0,1-.77.3,0.4,0.4,0,0,1-.42-0.22,2.68,2.68,0,0,0-.51.16h-0.42A8.21,8.21,0,0,1,1295.86,1060.73Zm11.61,69.3a2.16,2.16,0,0,0,0-.37,0.39,0.39,0,0,0,.12-0.15c0-.13,0-0.2-0.27-0.18a1,1,0,0,0-.34.4c0,0.07,0,.09,0,0.16a0.22,0.22,0,0,0,.25.15Zm-0.7-81.16c-0.05-.38-1.6-0.54-1.61-0.11a0.65,0.65,0,0,0,.67.27A1.32,1.32,0,0,0,1306.76,1048.87Zm-56.62,34c-0.11,0,0,0-.1-0.1l-0.09.16c0,0.09,0,.17.1,0.19s0,0,.1,0A0.72,0.72,0,0,1,1250.14,1082.86Z" transform="translate(-1015.69 -781.8)"/></svg>