<svg id="Layer_1" data-name="Layer 1" xmlns="http://www.w3.org/2000/svg" xmlns:xlink="http://www.w3.org/1999/xlink" viewBox="0 0 385.93 220.28"><defs><style>.cls-1,.cls-2,.cls-3,.cls-4,.cls-5,.cls-6{fill-rule:evenodd;}.cls-1{fill:url(#linear-gradient);}.cls-2{fill:url(#linear-gradient-2);}.cls-3{fill:url(#linear-gradient-3);}.cls-4{fill:url(#linear-gradient-4);}.cls-5{fill:url(#linear-gradient-5);}.cls-6{fill:url(#linear-gradient-6);}.cls-10,.cls-7{fill:#fff;}.cls-7{opacity:0.6;}.cls-8{fill:#f4879a;}.cls-9{fill:#5dc2a3;}.cls-11{fill:#13638e;}</style><linearGradient id="linear-gradient" x1="-62.49" y1="539.85" x2="547.61" y2="539.85" gradientUnits="userSpaceOnUse"><stop offset="0" stop-color="#1d1e1c" stop-opacity="0"/><stop offset="0.42" stop-color="#1d1e1c" stop-opacity="0.14"/><stop offset="0.85" stop-color="#1d1e1c" stop-opacity="0.55"/><stop offset="1" stop-color="#1d1e1c" stop-opacity="0.75"/></linearGradient><linearGradient id="linear-gradient-2" x1="17.38" y1="481.09" x2="432.02" y2="481.09" xlink:href="#linear-gradient"/><linearGradient id="linear-gradient-3" x1="17.38" y1="485.87" x2="432.02" y2="485.87" xlink:href="#linear-gradient"/><linearGradient id="linear-gradient-4" x1="17.38" y1="481.31" x2="432.02" y2="481.31" xlink:href="#linear-gradient"/><linearGradient id="linear-gradient-5" x1="17.38" y1="495.47" x2="432.02" y2="495.47" xlink:href="#linear-gradient"/><linearGradient id="linear-gradient-6" x1="17.38" y1="481.33" x2="432.02" y2="481.33" xlink:href="#linear-gradient"/></defs><title>fte-terminal-icon-white</title><path class="cls-1" d="M487.15,539.89a2.08,2.08,0,0,1,.55-0.08h-0.11A2.06,2.06,0,0,0,487.15,539.89Z" transform="translate(-101.77 -339.12)"/><path class="cls-2" d="M345.35,481.09h0Z" transform="translate(-101.77 -339.12)"/><path class="cls-3" d="M338.24,485.82h0a1.63,1.63,0,0,0-.53.1A1.63,1.63,0,0,1,338.24,485.82Z" transform="translate(-101.77 -339.12)"/><path class="cls-4" d="M354.86,481.31a8,8,0,0,1,1,0c-0.26,0-.51,0-0.76,0Z" transform="translate(-101.77 -339.12)"/><path class="cls-5" d="M369.51,496.44h0l-1.61-1.94Z" transform="translate(-101.77 -339.12)"/><path class="cls-6" d="M350.17,481.33h0Z" transform="translate(-101.77 -339.12)"/><path class="cls-7" d="M285.43,388.13a1.94,1.94,0,0,0,.46-0.11Z" transform="translate(-101.77 -339.12)"/><path class="cls-7" d="M284.61,388.33l-1.87.46,0.87,0,0.75-.18A0.9,0.9,0,0,1,284.61,388.33Z" transform="translate(-101.77 -339.12)"/><path class="cls-8" d="M421.64,470.26l-0.42-.39a1.06,1.06,0,0,0-.14-0.18,1,1,0,0,0-1.41-.06c-1.21-.9-3.2-2.55-6.51-5.59-4.29-3.94-9.72-9.2-15-14.3l-4.85-4.7a1.23,1.23,0,0,0,.19-0.69c0-1.43-3.1-4.39-14.38-14.6l-3-2.74,2.54,2.25c3.5,3.11,7.12,6.32,9.89,8.62,1.51,1.25,2.65,2.14,3.5,2.72s2.08,1.42,2.94.57a1.22,1.22,0,0,0,.35-0.9c0-1.22-2.26-3.56-9.85-10.51,2.27,2,4.43,3.95,6.25,5.48,4.34,3.66,5.85,4.64,6.85,3.64a1.23,1.23,0,0,0,.36-0.91c0-.91-1-2.22-5.65-6.68,0.82,0.73,1.61,1.42,2.34,2.06,1.79,1.54,3.14,2.64,4.15,3.35s2.35,1.67,3.26.76a1.25,1.25,0,0,0,.36-0.93c0-1-1.49-2.79-5.66-6.79l0.88,0.77c4.88,4.25,6.68,5.49,7.77,4.4a1.26,1.26,0,0,0,.36-0.94c0-1-1.18-2.58-6.72-7.83l0.76,0.67c5,4.35,6.81,5.61,7.9,4.52a1.27,1.27,0,0,0,.37-0.94A1.55,1.55,0,0,0,409,430a1.34,1.34,0,0,0,.19-0.73c0-1.23-2.1-3.67-7.78-9.07,1.21,1,2.21,1.84,3,2.43,1.36,1,2.75,1.89,3.66,1a1.3,1.3,0,0,0,.37-1c0-.84-0.56-2.09-6.82-8.1l-1.09-1c1.52,1.32,2.73,2.3,3.67,3,1.32,1,2.69,1.83,3.58.94a1.28,1.28,0,0,0,.37-1c0-1.24-1.7-3.31-10.46-11.43l1.84,1.63c5,4.4,6.87,5.67,8,4.57a1.27,1.27,0,0,0,.37-0.94c0-1.26-2.24-3.74-8.91-9.94l1.46,1.29c4.93,4.31,6.76,5.56,7.85,4.47a1.26,1.26,0,0,0,.36-0.94c0-1.7-4.14-5.66-18.23-18.41-4.23-3.83-8.6-7.78-11.9-10.93l-0.39-.37c3.37,3,7.51,6.79,11,10,4.21,3.89,8.56,7.91,11.88,10.78,1.81,1.56,3.18,2.67,4.2,3.4s2.37,1.69,3.29.77a1.25,1.25,0,0,0,.36-0.92c0-1.61-3.87-5.32-17-17.23-5.77-5.22-13.38-12.1-15.7-14.88l1.26,0c3,0.1,3.3.1,3.71-.31a1.07,1.07,0,0,0,.31-0.78,1.09,1.09,0,0,0-.05-0.33,1,1,0,0,0,1.57-.92,1.4,1.4,0,0,0-.64-1l-0.16-.14-0.1-.11a1.58,1.58,0,0,0,1.15-.2c0,1.21,2,3.18,12.12,12.37l1.56,1.41-1-.86c-3-2.51-6-5.1-8.36-7-1.28-1-2.25-1.73-3-2.2s-1.86-1.21-2.66-.42a1.2,1.2,0,0,0-.35.89c0,1.26,2.23,3.49,13,13.28,4.85,4.38,11.42,10.34,12.31,11.83a1,1,0,0,0,1.78.79,1.2,1.2,0,0,0,.35-0.89c0-1.26-2.23-3.49-13-13.28l-3.79-3.44,2.33,2c3,2.51,6,5.11,8.36,7,1.28,1,2.25,1.73,3,2.2s1.86,1.21,2.66.42a1.18,1.18,0,0,0,.34-0.88c0-.82-0.91-2-4.66-5.53,0.77,0.61,1.41,1.09,1.94,1.45,0.78,0.53,2.07,1.41,2.92.56a1.23,1.23,0,0,0,.36-0.91c0-1.35-2.11-3.61-15.76-16-2.33-2.11-5-4.52-7.42-6.77,1.94,1.7,4,3.49,5.75,5.09,3.55,3.16,7.21,6.42,10,8.75,1.52,1.27,2.68,2.17,3.54,2.76s2.1,1.44,3,.58a1.23,1.23,0,0,0,.36-0.91c0-1.36-2.12-3.64-15.88-16.08-3.79-3.43-8.43-7.63-11.59-10.71l3.2,2.3c2,1.43,4,2.92,5.61,4,2.17,1.46,3.34,2.18,4.14,1.38a1.12,1.12,0,0,0,.33-0.83c0-.87-0.67-1.64-7.52-7.83l-1.21-1.1,0.45,0.31c1.82,1.25,3.7,2.54,5.13,3.46,2,1.29,3.11,1.93,3.88,1.16a1.1,1.1,0,0,0,.32-0.82c0-.76-0.49-1.33-5.85-6.19l-2.39-2.17,0.56,0.25c4.56,2,5.26,2.31,5.94,1.63a1.08,1.08,0,0,0,.31-0.78c0-.59-0.32-0.86-2-2.37-0.47-.42-1.15-1-1.39-1.3a1,1,0,0,0-1.68-.3,1.08,1.08,0,0,0-.31.78,1,1,0,0,0,.14.53l-0.18-.08c-4.56-2-5.26-2.31-5.94-1.62a1.1,1.1,0,0,0-.32.82c0,0.7.42,1.24,4.69,5.13-1.74-1.19-3.51-2.41-4.88-3.28-2-1.29-3.11-1.93-3.88-1.16a1.12,1.12,0,0,0-.33.83c0,0.87.67,1.64,7.52,7.83l0.21,0.19-0.15-.11c-2-1.43-4-2.92-5.61-4-2.17-1.46-3.34-2.18-4.14-1.38a1.23,1.23,0,0,0-.36.91c0,1.36,2.12,3.64,15.88,16.08,2.43,2.2,5.21,4.71,7.73,7-2-1.75-4.08-3.6-5.93-5.25-3.55-3.16-7.21-6.42-10-8.75-1.52-1.27-2.68-2.17-3.54-2.76s-2.1-1.44-3-.58a1.23,1.23,0,0,0-.36.91c0,1.35,2.11,3.61,15.76,16,2.4,2.17,5.15,4.66,7.65,7-1.92-1.67-3.91-3.43-5.68-5-3.48-3.08-7.07-6.27-9.82-8.54-1.5-1.24-2.63-2.12-3.48-2.69s-2.08-1.41-2.92-.56a1.07,1.07,0,0,0-.31.78c0,0.58.26,0.83,2.19,2.58l-0.35,0c-3.18-.38-3.59-0.43-4.06,0a1.07,1.07,0,0,0-.31.78c0,0.59.29,0.87,2.44,2.81l0.33,0.3H377.4c-3-.1-3.3-0.1-3.71.31a1.25,1.25,0,0,0-.36.92c0,1.16,2,3.4,8,9-1-.87-1.9-1.69-2.75-2.42-1.81-1.56-3.18-2.67-4.2-3.4s-2.37-1.69-3.29-.77a1.26,1.26,0,0,0-.36.94c0,1.09,1.73,3.11,6.67,7.79l-0.75-.66c-4.93-4.31-6.76-5.56-7.85-4.47a1.27,1.27,0,0,0-.37.94c0,1.15,1.86,3.3,7.23,8.37l-0.38-.34c-5-4.4-6.87-5.67-8-4.57a1.28,1.28,0,0,0-.37,1c0,1,1,2.41,5.49,6.74-1.5-1.3-2.69-2.27-3.62-2.95-1.32-1-2.69-1.83-3.58-.94a1.3,1.3,0,0,0-.37,1c0,0.79.5,2,5.82,7.14-1.16-1-2.11-1.76-2.89-2.33-1.36-1-2.75-1.89-3.66-1a1.31,1.31,0,0,0-.38,1c0,1.12,1.74,3.24,6.32,7.67,0.2,1.1,1.74,3,7.75,8.62l-1-.9c-5-4.35-6.81-5.61-7.9-4.52a1.26,1.26,0,0,0-.36.94c0,1.1,1.4,2.88,8.4,9.41l-1.79-1.58c-4.88-4.25-6.69-5.49-7.77-4.4a1.25,1.25,0,0,0-.36.93c0,1.64,4,5.44,17.48,17.66,3.4,3.08,7.43,6.72,10.69,9.81-3.15-2.78-6.82-6.17-9.93-9-4.16-3.84-8.47-7.81-11.75-10.64-1.79-1.54-3.14-2.64-4.15-3.35s-2.35-1.67-3.26-.76a1.23,1.23,0,0,0-.36.91c0,1.36,2.12,3.64,15.89,16.09,2.18,2,4.65,4.2,6.95,6.33-2.08-1.85-4.23-3.79-6.15-5.53-3.78-3.42-7.69-7-10.68-9.47-4.34-3.66-5.85-4.64-6.85-3.64a1.22,1.22,0,0,0-.35.9c0,1.45,3.16,4.48,14.68,14.9l4.32,3.92L380,427.71c-3.5-3.11-7.12-6.32-9.89-8.62-1.51-1.25-2.65-2.14-3.5-2.72s-2.08-1.42-2.94-.57a1.21,1.21,0,0,0-.35.9c0,1.29,2.53,3.83,11.31,11.82l-0.38-.16c-2-1.73-3.86-3.35-5.45-4.66s-2.6-2.09-3.43-2.65-2.06-1.4-2.9-.55a1.07,1.07,0,0,0-.31.78c0,0.6.3,0.89,2.56,2.93,0.66,0.6,1.63,1.47,1.94,1.82a1,1,0,0,0,1.71.35,1.06,1.06,0,0,0,.16-0.21c1.16,1,2.43,2.07,3.71,3.19a1.44,1.44,0,0,0,0,.24c0,1,1.15,2.68,5.88,7.3q-0.83-.68-1.5-1.18c-1.51-1.12-2.94-2-3.88-1.1a1.31,1.31,0,0,0-.38,1c0,1.07,1.59,3.06,5.73,7.11-0.8-.67-1.5-1.23-2.1-1.67-1.4-1-2.85-2-3.77-1a1.31,1.31,0,0,0-.38,1c0,0.81.51,2,6,7.31-1-.84-1.83-1.51-2.52-2-1.37-1-2.79-1.92-3.71-1a1.14,1.14,0,0,0-.33.85c0,1,1.37,2.39,9,9.3l1.86,1.68-0.74-.55c-2.09-1.55-4.25-3.15-5.9-4.28-2.5-1.72-3.51-2.3-4.3-1.51a1.14,1.14,0,0,0-.33.84c0,0.93.83,1.87,8.69,9l2,1.84-0.75-.54c-2-1.42-4-2.88-5.56-3.93-2.16-1.44-3.32-2.16-4.12-1.36a1.14,1.14,0,0,0-.33.85c0,1,1.36,2.38,8.94,9.23l2.35,2.14-0.86-.62c-2-1.43-4-2.9-5.59-4-2.16-1.45-3.33-2.17-4.13-1.37a1.14,1.14,0,0,0-.33.84c0,0.94.84,1.89,8.8,9.09l2.65,2.4-0.9-.63c-1.89-1.32-3.83-2.69-5.32-3.66-2.08-1.36-3.2-2-4-1.25a1.13,1.13,0,0,0-.33.84c0,1,1.17,2.14,8.17,8.47l2.64,2.4-0.81-.54c-1.71-1.13-3.49-2.31-4.84-3.14-1.93-1.19-3-1.77-3.71-1a1.12,1.12,0,0,0-.33.83c0,0.86.67,1.63,7.49,7.8l2.94,2.68-0.76-.44c-1.46-.86-3-1.74-4.13-2.37-1.56-.84-2.59-1.4-3.3-0.69a1.09,1.09,0,0,0-.32.81c0,0.69.36,1.13,4.55,4.92l-0.06,0c-1.43-.82-2.91-1.67-4-2.27-1.53-.81-2.54-1.35-3.25-0.65a1.08,1.08,0,0,0-.31.79c0,0.54.21,0.83,2.15,2.6l0,0c-4.52-2-5.22-2.26-5.9-1.58a1.07,1.07,0,0,0-.31.78c0,0.46.18,0.74,1.31,1.78l-0.06,0c-4.15-1.53-4.78-1.76-5.42-1.13a1.07,1.07,0,0,0-.31.77c0,0.53.28,0.77,1.38,1.77,0.27,0.24.65,0.59,0.81,0.76a1,1,0,0,0,1.65.24,1.07,1.07,0,0,0,.31-0.76l0.85,0.31c4.15,1.53,4.78,1.76,5.42,1.13a1.07,1.07,0,0,0,.31-0.78,1.87,1.87,0,0,0-.84-1.34c4.5,1.95,5.19,2.25,5.87,1.57a1.08,1.08,0,0,0,.31-0.79,1.65,1.65,0,0,0-.68-1.2c1.35,0.78,2.73,1.57,3.8,2.13a6.34,6.34,0,0,0,2.46,1,1.07,1.07,0,0,0,.79-0.33,1.09,1.09,0,0,0,.32-0.81c0-.68-0.35-1.12-4.38-4.77h0c1.46,0.86,3,1.74,4.13,2.37,1.56,0.84,2.59,1.4,3.3.69a1.12,1.12,0,0,0,.33-0.83c0-.86-0.67-1.63-7.49-7.8l-1.72-1.56,0.57,0.38c1.71,1.13,3.49,2.31,4.84,3.14,1.93,1.19,3,1.77,3.71,1a1.13,1.13,0,0,0,.33-0.84c0-1-1.17-2.14-8.17-8.47l-1.76-1.59,0.63,0.45c1.89,1.32,3.83,2.69,5.32,3.66,2.08,1.36,3.2,2,4,1.25a1.14,1.14,0,0,0,.33-0.84c0-.94-0.84-1.89-8.8-9.09l-2.15-1.95,0.79,0.57c2,1.43,4,2.9,5.59,4,2.16,1.45,3.33,2.17,4.13,1.37a1.14,1.14,0,0,0,.33-0.85c0-1-1.36-2.38-8.94-9.23l-2.4-2.17,0.86,0.62c2,1.42,4,2.88,5.56,3.93,2.16,1.44,3.32,2.16,4.12,1.36a1.14,1.14,0,0,0,.33-0.84c0-.93-0.83-1.87-8.69-9l-1.36-1.23,0.56,0.42c2.09,1.55,4.25,3.15,5.9,4.28,2.5,1.72,3.51,2.3,4.3,1.51a1.14,1.14,0,0,0,.33-0.85,1.16,1.16,0,0,0,0-.2l2.58,2.46c5.07,4.85,10.32,9.86,14.32,13.43l1,0.88s0,0.05,0,.08c0,0.62.34,0.95,2.85,3.22l1.1,1-0.59.07c-2.59.3-2.84,0.34-3.18,0.68a1.07,1.07,0,0,0-.31.77c0,0.55.28,0.79,1.55,1.93,0.32,0.29.78,0.71,1,.91a1,1,0,0,0,1.66.26,1.07,1.07,0,0,0,.31-0.77c0-.5-0.23-0.74-1.23-1.65l0.48-.06c2.59-.3,2.84-0.34,3.18-0.68a1.08,1.08,0,0,0,.31-0.79,1.18,1.18,0,0,0,0-.26,1.23,1.23,0,0,0,.71-0.36,1.31,1.31,0,0,0,.38-1c0-.74-0.43-1.79-4.66-6,0.88,0.74,1.63,1.34,2.27,1.81,1.4,1,2.84,2,3.77,1a1.31,1.31,0,0,0,.38-1c0-.87-1.07-2.36-3.68-5.06,0.7,0.58,1.32,1.07,1.86,1.48,1.51,1.12,2.94,2,3.88,1.1a1.33,1.33,0,0,0,.38-1c0-.87-0.82-2.16-3.86-5.29q0.69,0.56,1.27,1c1.55,1.16,3,2.12,4,1.16a1.06,1.06,0,0,0,.31-0.77C422.57,471.11,422.32,470.88,421.64,470.26Zm-31.26-86.44c3.06,2.77,6.64,6,9.67,8.85-3.06-2.73-6.55-6-9.54-8.71l-0.82-.76ZM390.82,341a1,1,0,0,1-.09.17A1,1,0,0,0,390.82,341ZM379.2,363.5l1.43,0.17-0.14.12a1,1,0,0,0-.3.76,1.14,1.14,0,0,0,0,.16l-1.29-1.18-0.08-.07Zm22.14,61c-3.39-3-7.67-7-11.81-10.89l-2.2-2.06,1.55,1.41c4.37,3.95,8.88,8,12.28,11.28l1.15,1.11Zm1.68-5.65c-0.84-.71-1.84-1.59-3-2.67-3.77-3.4-8.53-7.93-13.14-12.32L385,402.15,386,403c4.93,4.46,10,9.07,13.86,12.74C401.15,417,402.19,418,403,418.87ZM399.92,410c0.87,0.83,1.62,1.56,2.26,2.2-0.65-.56-1.4-1.22-2.24-2-3.64-3.27-8.24-7.62-12.69-11.84l-0.89-.84,0.51,0.46C391.51,402.21,396.31,406.54,399.92,410Zm0-5.86,1.37,1.32-1.19-1c-3.43-3-7.75-7.1-11.94-11l-2.11-2,1.44,1.3C391.9,396.71,396.46,400.85,399.91,404.13ZM389,388.35c4.23,3.83,8.6,7.78,11.9,10.93l0.56,0.54-0.49-.43c-3.36-3-7.6-6.94-11.71-10.77l-0.95-.89Zm-13.87-9.87,1,0.89c3.36,3,7.6,6.94,11.71,10.77l3.66,3.41-2.63-2.38c-4.42-4-9-8.13-12.43-11.42Zm-0.35,5.4c3.43,3,7.75,7.1,11.94,11l5.33,5-3.78-3.43c-4.64-4.2-9.43-8.53-13-12-0.8-.76-1.5-1.44-2.1-2Zm-4.35,1.81c0.76,0.65,1.65,1.43,2.7,2.36,3.64,3.27,8.24,7.62,12.69,11.84l3.65,3.46-2.09-1.89c-4.93-4.46-10-9.07-13.86-12.74C372.27,387.53,371.25,386.53,370.43,385.7Zm1.84,7.37c3.77,3.4,8.53,7.93,13.14,12.32l3.76,3.58-2-1.79c-5.16-4.67-10.49-9.49-14.5-13.32l-0.66-.63-0.11-.13-0.17-.13c-1.14-1.1-2.07-2-2.81-2.8C369.85,390.91,370.94,391.87,372.28,393.07Zm4.07,11.31-0.76-.73,0.7,0.62c3.39,3,7.67,7,11.81,10.89L389,416l-0.67-.6C384.09,411.55,379.68,407.56,376.35,404.38ZM375.17,409c3.15,2.81,6.87,6.26,10.14,9.31C382,415.35,378.26,411.92,375.17,409Zm12.44,8.6-2.41-2.25L387,417c4.27,3.86,8.68,7.86,12,11l0.64,0.62C396,425.44,391.42,421.16,387.61,417.61ZM397.54,452l-0.27-.24c-4.57-4.13-9.26-8.38-13.18-12,1,0.84,1.9,1.62,2.74,2.32s1.61,1.31,2.25,1.79c2.49,2.39,5.09,4.91,7.65,7.4Zm-20.31-13.16c1.09,0.91,2.5,2.14,4.32,3.8,4.12,3.76,9.33,8.78,14.36,13.64l0.34,0.33-0.14-.13c-5.24-4.74-10.66-9.65-14.73-13.54C379.57,441.25,378.22,439.91,377.23,438.87Zm3.45,9.27c-1.56-1.49-2.76-2.69-3.69-3.64,1,0.82,2.19,1.88,3.7,3.26,3.94,3.58,8.93,8.36,13.75,13l1,1-0.45-.41C389.89,456.68,384.63,451.92,380.68,448.14Zm14,15.78-2.12-2,1,0.93c5.09,4.6,10.35,9.36,14.3,13.14,1.52,1.46,2.7,2.63,3.62,3.57-0.92-.78-2-1.76-3.43-3C404.23,473,399.37,468.41,394.68,463.92Zm15,8.29c-3.94-3.58-8.93-8.36-13.75-13l-2.1-2,0.94,0.85c5.24,4.74,10.66,9.65,14.73,13.54,1.75,1.67,3.06,3,4,4C412.49,474.77,411.22,473.66,409.63,472.21Zm2.09-3.75c-4.12-3.76-9.33-8.78-14.36-13.64l-2.39-2.3,0.9,0.82c5.56,5,11.31,10.23,15.62,14.35,2.2,2.1,3.74,3.66,4.82,4.81C415.19,471.57,413.7,470.27,411.72,468.46Zm9.36,2.71a1,1,0,0,0,.23-0.34A1,1,0,0,1,421.07,471.17Zm23.34-12.23c-4-3.59-8.76-7.92-12.27-11.31,2.06,1.71,4.34,3.65,6.31,5.33,3,2.58,6.16,5.25,8.54,7.16,1.3,1,2.3,1.78,3,2.26s1.89,1.24,2.69.43a1.17,1.17,0,0,0,.34-0.87c0-1.16-1.85-3-11.45-11.71-3-2.69-6.7-6.06-8.91-8.27l1.26,0.5c4.32,1.72,5,2,5.63,1.33a1.08,1.08,0,0,0,.31-0.78c0-.57-0.29-0.83-1.84-2.23-0.42-.38-1-0.93-1.25-1.17a1,1,0,0,0-1.68-.29,1.08,1.08,0,0,0-.31.78,1,1,0,0,0,.13.51l-0.21-.09c-4.31-1.72-5-2-5.63-1.33a1.17,1.17,0,0,0-.34.87c0,1.12,1.71,2.88,10.4,10.76-2.82-2.41-5.68-4.84-7.9-6.61-1.3-1-2.3-1.78-3-2.26s-1.89-1.24-2.69-.43a1.26,1.26,0,0,0-.36.93c0,0.92,1.25,2.5,4.64,5.82l-0.12-.11c-5-4.4-6.88-5.68-8-4.58a1.27,1.27,0,0,0-.37.94,2.78,2.78,0,0,0,.61,1.46l-0.95-.86c-2.39-2.17-4.21-3.71-5.56-4.72-1.54-1.15-3-2.1-4-1.15a1.31,1.31,0,0,0-.38,1c0,2,5.34,7.07,22.29,22.41,5.23,4.73,10.64,9.63,14.7,13.51,1.5,1.43,2.67,2.6,3.6,3.54-3.63-3.08-8.84-7.9-13.05-11.8s-8.61-8-12-10.86c-1.82-1.57-3.2-2.69-4.22-3.42s-2.38-1.7-3.3-.78a1.24,1.24,0,0,0-.36.92c0,0.74.45,1.75,5.5,6.6,3.1,3,7.3,6.77,11.35,10.44,4.38,4,9.84,8.9,13.17,12.22l-3-2.06c-1.8-1.23-3.66-2.5-5.08-3.4-2.06-1.31-3.08-1.9-3.85-1.14a1.11,1.11,0,0,0-.32.82c0,0.78.57,1.45,6.35,6.67,2.15,1.94,5,4.57,5.66,5.38a1,1,0,0,0,1.76.57,1.11,1.11,0,0,0,.32-0.82c0-.77-0.55-1.42-6-6.35,1.79,1.22,3.64,2.48,5.06,3.38,2.06,1.31,3.08,1.9,3.85,1.14a1.24,1.24,0,0,0,.36-0.92c0-.74-0.45-1.75-5.5-6.6l-1.29-1.23,2.07,1.82c1.82,1.57,3.2,2.69,4.22,3.42s2.38,1.7,3.3.78a1.31,1.31,0,0,0,.38-1c0-.73-0.75-1.89-2.53-3.84,0.81,0.68,1.52,1.25,2.13,1.7,1.54,1.15,3,2.1,4,1.15a1.27,1.27,0,0,0,.37-0.94c0-1.08-1.33-2.81-7.73-8.83l0.65,0.57c5,4.4,6.88,5.68,8,4.58a1.26,1.26,0,0,0,.36-0.93C462.22,475.31,458.21,471.43,444.41,458.95Zm-7.57-18.52a1,1,0,0,1-.17.3A1,1,0,0,0,436.84,440.43Zm-8.93,20.48c2.8,2.51,5.93,5.4,8.7,8C433.82,466.35,430.67,463.48,427.91,460.91Zm-7.82-13.31c-1.85-1.77-3.22-3.13-4.21-4.18,1.15,1,2.66,2.27,4.64,4.09,4,3.7,9.09,8.59,14,13.39C429.4,456.24,424.09,451.43,420.09,447.6Zm9.25,3.19-1.49-1.44,1.28,1.13c3.43,3,7.77,7.11,12,11l2.4,2.25-1.62-1.47C437.41,458.26,432.81,454.1,429.34,450.79Zm25.92,26.77c-1-.85-2.2-1.92-3.67-3.27-2.72-2.49-5.91-5.53-9.21-8.71,3.83,3.47,7.64,6.93,10.61,9.77C453.87,476.18,454.62,476.91,455.26,477.55Zm-0.8-6.52c-3.05-2.71-6.81-6.22-10.55-9.73,3.57,3.23,7.65,6.94,10.84,10Z" transform="translate(-101.77 -339.12)"/><path class="cls-9" d="M281.51,485.44a166.59,166.59,0,0,1,28.38,2.35,111.14,111.14,0,0,1,23,6.37c6.54,2.69,11.66,5.79,15.19,9.22s5.2,6.84,5.2,10.38-1.75,7-5.2,10.38-8.65,6.53-15.19,9.22a111.14,111.14,0,0,1-23,6.37,172.56,172.56,0,0,1-56.77,0,111.14,111.14,0,0,1-23-6.37c-6.54-2.69-11.66-5.79-15.19-9.22s-5.2-6.84-5.2-10.38,1.75-7,5.2-10.38,8.65-6.53,15.19-9.22a111.14,111.14,0,0,1,23-6.37,166.59,166.59,0,0,1,28.38-2.35m0-2c-40.75,0-73.78,13.56-73.78,30.28s33,30.28,73.78,30.28,73.78-13.56,73.78-30.28-33-30.28-73.78-30.28h0Z" transform="translate(-101.77 -339.12)"/><rect class="cls-9" x="76.4" y="173.67" width="206.68" height="1.24"/><rect class="cls-9" x="179.12" y="137.5" width="1.24" height="82.78"/><path class="cls-10" d="M276.74,354.72V342.83a3.71,3.71,0,0,1,3.71-3.71h2a3.71,3.71,0,0,1,3.71,3.71v11.89a3.71,3.71,0,0,1-3.71,3.71h-2A3.71,3.71,0,0,1,276.74,354.72Zm-13.18,23.74a17.9,17.9,0,1,1,17.9,17.9A17.92,17.92,0,0,1,263.55,378.46Zm5.8,0a12.09,12.09,0,1,0,12.09-12.09A12.11,12.11,0,0,0,269.36,378.46Zm-61.11,134,8.39-6.44-7-4.05Zm61.53-116.83L211.11,497.28a3.35,3.35,0,0,0,1.22,4.57l3.25,1.88a3.35,3.35,0,0,0,4.57-1.22l59.65-103.31A20.67,20.67,0,0,1,269.78,395.67Zm52.86,34.08a2.18,2.18,0,1,0,0-4.35H312.28l2.51,4.35h7.85Zm-82.39,0h8.51l2.51-4.35h-11A2.18,2.18,0,1,0,240.26,429.74Zm110.29,72.11a3.35,3.35,0,0,0,1.22-4.57L293.11,395.67a20.67,20.67,0,0,1-10,3.52L342.73,502.5a3.35,3.35,0,0,0,4.57,1.22Zm2.72,0.15-7,4.05,8.39,6.44ZM266,425.39l-2.51,4.35h13.64c0-.72,0-1.44,0-2.18s0-1.46,0-2.18H266Zm19.73,0c0,0.72,0,1.44,0,2.18s0,1.46,0,2.18h13l-2.51-4.35H285.75Zm-4.3-12.23c-1.76,0-3.18,6.45-3.18,14.41S279.7,442,281.45,442s3.18-6.45,3.18-14.41S283.21,413.16,281.45,413.16Z" transform="translate(-101.77 -339.12)"/><path class="cls-9" d="M180,464c1.79,1.62,4.2,3.8,4.76,4.52a1.13,1.13,0,0,0,1.9.55,1.19,1.19,0,0,0,.35-0.88c0-.78-0.43-1.28-5.49-5.87l-2.1-1.91,0.54,0.2c4.5,1.66,5.2,1.92,5.88,1.23a1.17,1.17,0,0,0,.34-0.84c0-.61-0.33-0.89-1.82-2.24-0.39-.36-1-0.87-1.19-1.11a1.13,1.13,0,0,0-1.81-.3,1.17,1.17,0,0,0-.34.84,1.12,1.12,0,0,0,.08.42l-0.37-.14c-4.5-1.66-5.2-1.92-5.88-1.23a1.19,1.19,0,0,0-.35.88C174.53,458.87,174.94,459.38,180,464Zm3.24-5.54a1.09,1.09,0,0,1-.19.39A1.12,1.12,0,0,0,183.25,458.42Zm4.31,30.37a1.13,1.13,0,0,0,1.6,0,1.31,1.31,0,0,0,.38-1c0-.74-0.4-1.65-5-6.09-2.81-2.69-6.59-6.12-10.26-9.43-1.68-1.52-3.54-3.2-5.35-4.86l3.6,3.11c3.44,3,7,6,9.7,8.24,1.48,1.2,2.61,2,3.44,2.6s2.11,1.4,3,.52A1.27,1.27,0,0,0,189,481c0-1.23-1.93-3.17-11.93-12.21l-3.91-3.55,1.68,1.31c2.53,2,5.15,4,7.15,5.47,2.76,2,4.13,2.93,5.08,2a1.23,1.23,0,0,0,.36-0.91c0-1-1.29-2.35-9-9.34-3.12-2.82-7.33-6.63-8.2-7.82a30.42,30.42,0,0,0,0-3.09c0-.94,0-2.33,0-2.74a1.15,1.15,0,0,0,.06-0.41c0-.56-0.28-0.8-1.26-1.69-0.22-.2-0.52-0.47-0.67-0.62a1.13,1.13,0,0,0-1.78-.23,1.15,1.15,0,0,0-.33.84c0,0.56.28,0.8,1.26,1.69L168,450c0,0.54,0,1.38,0,2.77,0,0.91,0,2.26,0,2.7a1.26,1.26,0,0,0-.09.51c0,1,1.17,2.23,8,8.38-2.41-1.88-4.87-3.79-6.76-5.17-2.76-2-4.13-2.93-5.08-2a1.27,1.27,0,0,0-.37.94c0,1,1.32,2.51,7.38,8.08-2.45-2.11-4.82-4.12-6.75-5.69-1.48-1.2-2.61-2-3.44-2.6s-1.67-1.11-2.49-.84c-0.18-.2-0.43-0.43-0.79-0.75l-0.35-.32c0-.57,0-1.45-0.1-2.92-0.05-1-.12-2.41-0.1-2.85a1.14,1.14,0,0,0,.05-0.38,1.29,1.29,0,0,0-.49-1l0.67-.27c2.28-.92,2.4-1,2.62-1.2a1.17,1.17,0,0,0,.34-0.84,1.28,1.28,0,0,0-.4-0.9l0.13,0c1.08,0.37,2.2.76,3.05,1,1.23,0.38,2.05.64,2.64,0A1.17,1.17,0,0,0,166,446c0-.75-0.49-1.26-4.56-4.94-1-.92-2.27-2.06-3.1-2.86l0.85-.32c2.36-.87,2.47-0.92,2.7-1.16a1.17,1.17,0,0,0,.34-0.85c0-.67-0.36-1-3.05-3.46-0.54-.49-1.24-1.13-1.77-1.62l0.86-.58a20.34,20.34,0,0,0,2.06-1.44,1.18,1.18,0,0,0,.34-0.86c0-.53-0.22-0.87-1.79-2.33a1.3,1.3,0,0,0,.69-0.37,1.37,1.37,0,0,0,.39-1c0-.84-0.51-2-6.36-7.61-3.6-3.46-8.47-7.86-13.18-12.12-4.53-4.1-9.21-8.33-12.74-11.71-4.57-4.36-5.72-5.87-6-6.38a1.13,1.13,0,0,0,0-.34l0.44,0.39c3.82,3.41,8.65,8,13.31,12.34,5.06,4.76,10.29,9.69,14.28,13.2,5.57,4.91,7.63,6.33,8.84,5.12a1.4,1.4,0,0,0,.4-1c0-.88-0.58-2.18-7.07-8.41-4-3.86-9.47-8.79-14.73-13.54-5.08-4.6-10.34-9.36-14.3-13.14-0.83-.79-1.56-1.51-2.2-2.14,3,2.54,6.68,5.8,9.76,8.53,3.79,3.36,7.71,6.84,10.7,9.32,1.63,1.35,2.87,2.31,3.79,2.94s2.26,1.54,3.18.62a1.31,1.31,0,0,0,.38-1c0-.74-0.4-1.67-5.07-6.15-2.83-2.72-6.66-6.18-10.36-9.53l-4.16-3.77,3.2,2.81c3.66,3.22,7.44,6.54,10.33,8.92,1.57,1.29,2.77,2.21,3.66,2.81a6.33,6.33,0,0,0,1.62.87c0.13,0.57.77,1.19,3.58,3.74l1.52,1.39h-0.61c-3.13,0-3.43,0-3.86.46a1.18,1.18,0,0,0-.34.86c0,0.72.4,1.13,4,4.43,1.16,1,2.87,2.6,3.33,3.14a1.13,1.13,0,0,0,1.88.47,1.18,1.18,0,0,0,.34-0.86c0-.72-0.4-1.13-4-4.43-0.6-.54-1.34-1.21-2-1.81h0.64c3.13,0,3.43,0,3.86-.46a1.18,1.18,0,0,0,.34-0.86c0-.69-0.35-1.06-3.61-4-1-.91-2.49-2.26-2.91-2.75a1.12,1.12,0,0,0-.27-0.44l0,0s0-.06,0-0.08c0-1-1.25-2.49-6.26-7.17,1.88,1.66,3.66,3.21,5.21,4.5,4.52,3.78,6.1,4.79,7.17,3.72a1.3,1.3,0,0,0,.38-1c0-1.37-2.42-3.81-14.21-14.47l-3.68-3.34,2.39,2c3.29,2.81,6.7,5.72,9.3,7.8,1.42,1.13,2.5,1.94,3.3,2.46s2.06,1.35,2.93.47a1.3,1.3,0,0,0,.38-1c0-1.4-2.5-3.91-14.64-14.9l-3.16-2.86,2.29,2c3.49,3,7.1,6.17,9.86,8.41,1.5,1.22,2.65,2.09,3.5,2.66s2.14,1.43,3,.53a1.32,1.32,0,0,0,.38-1c0-1.55-3.38-4.79-15.67-15.91-3.42-3.09-7.54-6.82-10.6-9.76l3.1,2.23c2.17,1.57,4.41,3.19,6.12,4.35,2.37,1.6,3.64,2.39,4.52,1.51a1.23,1.23,0,0,0,.36-0.91c0-1-1.2-2.24-8.23-8.61,2.37,1.81,4.8,3.67,6.67,5,2.86,2,4,2.73,4.91,1.84a1.24,1.24,0,0,0,.36-0.92c0-1-.9-2-9.46-9.78l-2.32-2.1,0.85,0.61c2.13,1.52,4.33,3.1,6,4.22,2.33,1.56,3.59,2.33,4.45,1.46a1.21,1.21,0,0,0,.35-0.9c0-.94-1-2-7.46-7.8-1-.9-2.13-1.93-3.18-2.9l0.75,0.39c1.4,0.73,2.85,1.48,4,2,1.67,0.8,2.57,1.18,3.26.5a1.17,1.17,0,0,0,.34-0.85c0-.67-0.35-1-3-3.39-0.79-.71-1.95-1.76-2.31-2.17a1.13,1.13,0,0,0-1.86-.4,1.17,1.17,0,0,0-.34.85,1.91,1.91,0,0,0,.81,1.36c-1.35-.7-2.74-1.41-3.8-1.92-1.67-.8-2.57-1.18-3.26-0.5a1.21,1.21,0,0,0-.35.9c0,0.91.93,1.89,6.81,7.21-2.09-1.5-4.23-3-5.88-4.13-2.33-1.56-3.58-2.33-4.45-1.46a1.24,1.24,0,0,0-.36.92c0,1,.9,2,9.46,9.78l0.49,0.45-0.26-.2c-2.42-1.85-4.93-3.77-6.84-5.13-2.86-2-4-2.73-4.91-1.84a1.23,1.23,0,0,0-.36.91c0,1,1.26,2.31,8.81,9.14l1.13,1-0.47-.34c-2.17-1.57-4.41-3.19-6.12-4.35-2.36-1.6-3.64-2.39-4.52-1.51a1.32,1.32,0,0,0-.38,1c0,1.55,3.38,4.79,15.67,15.91,1.89,1.71,4,3.61,6,5.46l-4.1-3.55c-3.49-3-7.11-6.17-9.86-8.41-1.5-1.22-2.65-2.09-3.5-2.66s-2.14-1.43-3-.53a1.3,1.3,0,0,0-.38,1c0,1.4,2.5,3.91,14.64,14.9,1.49,1.34,3.12,2.82,4.72,4.29l-3-2.56c-3.29-2.81-6.7-5.72-9.3-7.8-1.42-1.13-2.5-1.94-3.3-2.46s-2.06-1.35-2.93-.47a1.3,1.3,0,0,0-.38,1c0,1,1.43,2.72,7.36,8.22-2-1.8-4-3.49-5.63-4.88-4.52-3.78-6.1-4.79-7.17-3.72a1.29,1.29,0,0,0-.38,1c0,1.25,2,3.37,11.42,11.92-3.06-2.68-6.08-5.32-8.48-7.29-1.57-1.29-2.77-2.21-3.66-2.82s-2.21-1.49-3.12-.58a1.31,1.31,0,0,0-.38,1c0,0.74.4,1.67,5.07,6.15,2.83,2.72,6.66,6.18,10.36,9.53l2.63,2.38-2.23-2c-3.79-3.36-7.71-6.84-10.7-9.32-1.63-1.35-2.87-2.31-3.79-2.94s-2.26-1.54-3.18-.62a1.39,1.39,0,0,0-.4,1c0,0.88.58,2.18,7.07,8.41l1.56,1.48c-5.4-4.74-7.41-6.11-8.61-4.92a1.17,1.17,0,0,0-.34.86c0,0.67.29,1,3.26,3.66l0.77,0.7-0.47-.06c-3.57-.42-3.91-0.45-4.41,0a1.17,1.17,0,0,0-.34.86c0,0.67.3,1,3.32,3.72l0.79,0.72-0.47-.06c-3.5-.46-3.95-0.52-4.46,0a1.17,1.17,0,0,0-.34.85c0,0.66.34,1,2.9,3.3l0.82,0.74-0.57,0c-3,.11-3.34.13-3.75,0.54a1.37,1.37,0,0,0-.4,1c0,1.24,1.8,3.37,8.56,9.71L117.16,404c-5.31-4.63-7.27-6-8.45-4.79a1.37,1.37,0,0,0-.4,1c0,1.22,1.76,3.33,8.35,9.51l-1.39-1.22c-5.32-4.64-7.29-6-8.47-4.81a1.37,1.37,0,0,0-.4,1c0,1.33,2.08,3.71,10.22,11.25-0.95-.85-1.85-1.65-2.69-2.38-5.24-4.56-7.18-5.88-8.35-4.71a1.37,1.37,0,0,0-.39,1c0,0.85.52,2,6.42,7.67,1.33,1.28,2.84,2.69,4.44,4.17-1.18-1.06-2.3-2.05-3.33-2.95-5.18-4.49-7.1-5.79-8.26-4.63a1.2,1.2,0,0,0-.35.89c0,0.86.57,1.51,6.78,7.13l1,0.89-0.36-.22c-1.68-1-3.43-2.11-4.76-2.87-1.77-1-2.94-1.68-3.74-.88a1.18,1.18,0,0,0-.35.87c0,0.73.34,1.14,4.75,5.13l1.1,1-0.39-.15c-4.61-1.79-5.32-2.07-6-1.37a1.18,1.18,0,0,0-.35.87c0,0.75.4,1.23,5.16,5.54,1.66,1.5,3.89,3.52,4.44,4.2a1.13,1.13,0,0,0,1.9.53,1.18,1.18,0,0,0,.35-0.87c0-.75-0.4-1.23-5.16-5.54l-1.59-1.44,0.46,0.18c1.87,0.73,3.1,1.2,3.94,1.47a2.3,2.3,0,0,0,.75.91l0.27,0.24,0.13,0.15a1.13,1.13,0,0,0,1.6,0,1.14,1.14,0,0,0,.33-0.83,1.51,1.51,0,0,0-.69-1.13,1.21,1.21,0,0,0,0-.32c0-.63-0.25-1-3.07-3.6,1.6,1,3.22,2,4.48,2.7s2.25,1.28,3,1.23c0.33,1.33,2.79,3.76,12.74,12.77,1.62,1.46,3.43,3.1,5.15,4.69l-2.19-1.71c-2.56-2-5.21-4.08-7.23-5.55-2.93-2.14-4.22-2.92-5.12-2a1.25,1.25,0,0,0-.36.93c0,1.14,1.61,2.78,10.6,10.91,1.36,1.23,2.89,2.62,4.34,3.95l-1.39-1c-2-1.44-4.16-2.92-5.78-4-2.26-1.48-3.48-2.21-4.33-1.36a1.24,1.24,0,0,0-.36.91c0,1.07,1.34,2.42,9.36,9.68l3.18,2.88-1-.68c-1.93-1.31-3.93-2.67-5.46-3.63-2.22-1.4-3.32-2-4.15-1.21a1.23,1.23,0,0,0-.36.91c0,1.05,1.31,2.38,9.16,9.49l3.12,2.84-1-.64c-1.89-1.26-3.84-2.57-5.33-3.5-2.12-1.32-3.26-2-4.08-1.15a1.22,1.22,0,0,0-.36.9c0,0.94.73,1.77,8.14,8.48l2.54,2.3-0.74-.47c-1.73-1.09-3.52-2.22-4.89-3-2-1.15-3-1.72-3.82-.94a1.21,1.21,0,0,0-.35.89c0,0.93,1,1.94,7.34,7.68l2.85,2.59-0.7-.38c-1.45-.77-2.94-1.57-4.08-2.14-1.76-.87-2.64-1.26-3.34-0.56a1.19,1.19,0,0,0-.35.88c0,0.81.51,1.41,6.09,6.45,1,0.92,2.22,2,3.23,3l-0.67-.19c-4.16-1.19-4.69-1.34-5.31-.72a1.18,1.18,0,0,0-.34.86c0,0.73.41,1.16,4.18,4.57,0.79,0.71,1.81,1.64,2.57,2.36l-0.79.2c-2.54.63-2.74,0.7-3,1a1.19,1.19,0,0,0-.34.87c0,0.73.46,1.22,4.32,4.7l1,0.9-0.39-.13c-1.06-.35-2.16-0.71-3-1-1.22-.36-2-0.6-2.61,0a1.18,1.18,0,0,0-.35.87c0,0.74.35,1.15,4.82,5.21l1.26,1.15-0.42-.16c-4.56-1.73-5.26-2-6-1.3a1.18,1.18,0,0,0-.35.87c0,0.74.35,1.16,4.85,5.24l-0.14-.07c-1.43-.76-2.91-1.54-4-2.1-1.75-.85-2.62-1.23-3.31-0.54a1.17,1.17,0,0,0-.34.87c0,0.74.48,1.24,4.48,4.86,0.73,0.66,1.59,1.44,2.32,2.12l-0.65,0c-3.31-.16-3.63-0.16-4.08.3a1.15,1.15,0,0,0-.33.83c0,0.54.28,0.78,1,1.42l0.43,0.39a1.13,1.13,0,0,0,2.08-.65s0-.05,0-0.08l0.81,0c3.31,0.16,3.63.16,4.08-.3a1.17,1.17,0,0,0,.34-0.87c0-.7-0.43-1.19-3.85-4.3l0,0c1.43,0.76,2.91,1.54,4,2.1,1.75,0.85,2.62,1.23,3.31.54a1.18,1.18,0,0,0,.35-0.87c0-.75-0.35-1.17-4.92-5.3l-1.38-1.25,0.43,0.16c4.56,1.73,5.26,2,6,1.3a1.18,1.18,0,0,0,.35-0.87c0-.74-0.35-1.15-4.82-5.21l-1.57-1.43,0.47,0.16c1.06,0.35,2.16.71,3,1,1.22,0.36,2,.6,2.61,0a1.19,1.19,0,0,0,.34-0.87c0-.73-0.46-1.22-4.32-4.7-0.87-.79-1.94-1.76-2.71-2.49l0.79-.2c2.54-.63,2.74-0.7,3-1a1.18,1.18,0,0,0,.34-0.86c0-.73-0.41-1.16-4.18-4.57l-1.09-1,0.42,0.12c4.16,1.19,4.69,1.34,5.31.72a1.19,1.19,0,0,0,.35-0.88c0-.81-0.51-1.41-6.09-6.45l-1.32-1.19,0.41,0.22c1.45,0.77,2.94,1.57,4.08,2.14,1.76,0.87,2.64,1.26,3.34.56a1.21,1.21,0,0,0,.35-0.89c0-.93-1-1.94-7.34-7.68l-1.48-1.34L136,475.6c1.73,1.09,3.52,2.22,4.89,3,2,1.15,3,1.72,3.82.94a1.22,1.22,0,0,0,.36-0.9c0-.94-0.73-1.77-8.15-8.48l-1.74-1.58,0.59,0.39c1.89,1.26,3.84,2.57,5.33,3.49,2.12,1.32,3.26,2,4.08,1.15a1.23,1.23,0,0,0,.36-0.91c0-1.05-1.31-2.38-9.16-9.49l-2.91-2.64,0.93,0.63c1.93,1.31,3.93,2.67,5.46,3.63,2.22,1.4,3.32,2,4.15,1.21a1.24,1.24,0,0,0,.36-0.91c0-1.07-1.34-2.42-9.36-9.68l-2.6-2.36,0.89,0.63c2,1.44,4.16,2.92,5.78,4,2.26,1.48,3.48,2.21,4.33,1.36a1.25,1.25,0,0,0,.36-0.93c0-1.14-1.61-2.78-10.6-10.91l-1.52-1.38,0.73,0.57c2.56,2,5.21,4.08,7.23,5.55,2.93,2.14,4.22,2.92,5.12,2a1.28,1.28,0,0,0,.37-0.95c0-1.29-2.06-3.36-12.78-13.06-3.87-3.5-8.86-8-11-10.34l3,2.82c4.66,4.33,9.48,8.8,13.16,12,4,3.47,6.05,5,7.32,5a1.27,1.27,0,0,0,.94-0.4,1.37,1.37,0,0,0,.39-1c0-.85-0.52-2-6.42-7.67-0.83-.79-1.72-1.63-2.66-2.51l2,1.75c4.05,3.53,6.13,5.11,7.41,5.11a1.28,1.28,0,0,0,.94-0.4,1.37,1.37,0,0,0,.4-1c0-1.22-1.76-3.33-8.35-9.52l1.39,1.22c5.32,4.64,7.29,6,8.47,4.81a1.37,1.37,0,0,0,.4-1c0-1.24-1.82-3.4-8.66-9.81l1.6,1.41c5.31,4.63,7.27,6,8.45,4.79a1.37,1.37,0,0,0,.4-1c0-1.75-3.58-5.32-19.91-20.1-4.62-4.18-9.4-8.5-13-11.94a68.54,68.54,0,0,1-5.56-5.72l1.35-.05c2.85-.1,3.29-0.13,3.67-0.47v0.24c0,0.91-.05,2.26-0.11,2.65a1.13,1.13,0,0,0-.07.42,1.35,1.35,0,0,0,.58,1l0.08,0.08,0.08,0.09a1.12,1.12,0,0,0,1.52.06c0.4,0.81,1.57,2.2,4.88,5.39,2.85,2.73,6.69,6.21,10.41,9.57,5.81,5.26,13.71,12.4,14.71,14.15a1.13,1.13,0,0,0,1.93.89,1.31,1.31,0,0,0,.38-1c0-.74-0.41-1.67-5.09-6.17-2.85-2.73-6.69-6.21-10.41-9.57l-4.48-4.07,3.41,3c3.65,3.2,7.42,6.52,10.3,8.88,1.57,1.29,2.76,2.21,3.65,2.8s2.2,1.49,3.11.58a1.32,1.32,0,0,0,.38-1,1.66,1.66,0,0,0-.12-0.57c0.52,0.51,1.29,1.22,2.41,2.23,0.7,0.63,1.63,1.48,2.26,2.09l-0.88.59a20.38,20.38,0,0,0-2.06,1.44,1.17,1.17,0,0,0-.34.85c0,0.67.36,1,3.05,3.46,0.46,0.41,1,.94,1.52,1.39l-0.77.29c-2.36.87-2.47,0.93-2.7,1.16a1.17,1.17,0,0,0-.34.87c0,0.75.49,1.26,4.56,4.94l1.19,1.08-0.42-.14c-1.08-.37-2.2-0.76-3.05-1-1.24-.38-2.05-0.64-2.64,0a1.17,1.17,0,0,0-.34.84c0,0.62.32,0.9,2,2.45l0.47,0.43-0.73.29c-2.28.92-2.4,1-2.62,1.21a1.15,1.15,0,0,0-.33.83c0,0.54.3,0.8,1.05,1.48l0.25,0.23c0,0.57,0,1.45.1,2.91,0.05,1,.12,2.41.1,2.85a1.14,1.14,0,0,0-.05.38c0,0.51.24,0.75,1,1.41l-0.78.6c-1.62,1.24-1.8,1.39-1.91,1.5a1.33,1.33,0,0,0-.39,1c0,1.57,2.9,4.47,17,17.25,2.15,1.95,4.57,4.13,6.86,6.24-2.08-1.85-4.21-3.77-6.12-5.5-4.08-3.69-8.31-7.5-11.53-10.22-1.75-1.48-3.09-2.53-4.08-3.22s-2.38-1.65-3.33-.7a1.34,1.34,0,0,0-.39,1c0,1.49,2.33,4,17.45,17.67,2.55,2.3,5.44,4.92,8.1,7.39-2.4-2.13-4.91-4.4-7.13-6.41-4.13-3.74-8.4-7.6-11.65-10.36-1.77-1.5-3.12-2.57-4.12-3.26s-2.39-1.67-3.35-.71a1.34,1.34,0,0,0-.39,1c0,0.79.47,1.85,5.77,6.94,3.25,3.12,7.64,7.09,11.89,10.94,2.78,2.52,6,5.41,8.85,8.07-2.49-2.2-5.14-4.59-7.47-6.7-4.08-3.69-8.31-7.5-11.53-10.22-1.75-1.48-3.09-2.53-4.08-3.22s-2.38-1.65-3.33-.7a1.28,1.28,0,0,0-.37,1c0,1.31,2.11,3.43,13.07,13.35,1.57,1.42,3.32,3,5,4.55l-2.29-1.82c-2.69-2.15-5.47-4.36-7.59-5.95-1.16-.87-2-1.48-2.71-1.88s-1.81-1.1-2.61-.3a1.22,1.22,0,0,0-.36.91c0,1,1.22,2.24,8.5,8.83l2.78,2.52-0.82-.53c-1.78-1.14-3.62-2.32-5-3.16-2-1.2-3.11-1.79-3.9-1a1.18,1.18,0,0,0-.35.87c0,0.74.34,1.14,4.76,5.14,0.88,0.79,1.93,1.75,2.76,2.53h-0.7c-3.13,0-3.43,0-3.86.46a1.18,1.18,0,0,0-.34.85c0,0.64.35,0.94,2.21,2.62,0.52,0.47,1.28,1.16,1.55,1.45a1.13,1.13,0,0,0,1.83.33,1.18,1.18,0,0,0,.34-0.85c0-.64-0.35-0.94-2.19-2.6h0.47c3.13,0,3.43,0,3.86-.46a1.18,1.18,0,0,0,.34-0.87c0-.59-0.23-1-2.57-3.14,1.64,1.05,3.31,2.12,4.6,2.89,2,1.2,3.11,1.79,3.9,1a1.22,1.22,0,0,0,.36-0.91c0-.83-0.84-1.83-5.28-5.9,2.24,1.79,4.46,3.54,6.22,4.85,1.16,0.87,2,1.48,2.71,1.88s1.81,1.1,2.61.29a1.28,1.28,0,0,0,.37-1c0-.69-0.6-1.6-2.74-3.75,1.58,1.4,3.07,2.7,4.39,3.81,1.75,1.48,3.09,2.53,4.08,3.22s2.38,1.65,3.33.7a1.34,1.34,0,0,0,.39-1c0-.79-0.47-1.85-5.77-6.94-3.25-3.12-7.64-7.09-11.89-10.94-2.75-2.48-5.9-5.33-8.73-8,2.52,2.23,5.19,4.65,7.55,6.78,4.13,3.74,8.4,7.6,11.65,10.36,1.77,1.5,3.12,2.57,4.12,3.26s2.39,1.67,3.35.71a1.34,1.34,0,0,0,.39-1c0-1.49-2.33-4-17.45-17.67-2.59-2.35-5.55-5-8.25-7.52,2.38,2.11,4.88,4.36,7.09,6.36,4.08,3.69,8.31,7.5,11.53,10.22,1.75,1.48,3.09,2.54,4.08,3.22s2.38,1.65,3.33.7a1.33,1.33,0,0,0,.39-1c0-1.57-2.9-4.47-17-17.25-6.16-5.57-14.44-13.06-16.06-15.35l1.18-.91,1.26-1c0.45,0.82,1.64,2.21,4.75,5.2,2.81,2.69,6.59,6.12,10.26,9.43,5.72,5.18,13.49,12.21,14.49,13.94A1.13,1.13,0,0,0,187.56,488.79Zm-19.19-40.2,0.08-.13Zm-32.73-52.8c5.08,4.6,10.34,9.36,14.3,13.14,1,0.93,1.8,1.74,2.52,2.45-0.64-.55-1.36-1.18-2.16-1.9-3.82-3.41-8.65-8-13.31-12.34l-3.63-3.41Zm14.12-.31-0.08.11ZM113.15,430a1.13,1.13,0,0,0,.28-0.48A1.1,1.1,0,0,1,113.15,430Zm20.7,90.45a1.11,1.11,0,0,1,.25-0.38A1.13,1.13,0,0,0,133.84,520.45ZM116,406l0.57,0.5c3.61,3.19,8.17,7.44,12.58,11.55l2.45,2.28-1.81-1.64c-4.63-4.19-9.42-8.52-13-12Zm-1.14,5.23-0.77-.74,0.6,0.52c3.63,3.2,8.2,7.47,12.62,11.6l2.15,2-1.57-1.42C123.25,419,118.46,414.69,114.85,411.25Zm-1.28,5.1-0.49-.46,0.26,0.22c3.56,3.14,8.06,7.32,12.4,11.36l2.78,2.58-2.08-1.88C121.87,424,117.14,419.75,113.57,416.34Zm24.23,25.33,0.46,0.44-0.13-.12c-3.51-3.09-7.95-7.2-12.23-11.18l-4.53-4.2,3.56,3.23C129.5,434,134.23,438.27,137.8,441.67Zm2.31-4.13-0.43-.37c-3.56-3.14-8.06-7.32-12.4-11.36l-3.87-3.59,2.95,2.67c4.63,4.19,9.42,8.52,13,12Zm1.18-5.19,0.77,0.74-0.59-.52c-3.63-3.2-8.2-7.47-12.62-11.6l-2.14-2,1.56,1.42C132.89,424.58,137.68,428.91,141.28,432.36Zm-11.21-16.55c4.62,4.18,9.4,8.5,13,11.94l0.73,0.7-0.54-.48c-3.61-3.19-8.17-7.44-12.58-11.55l-2.32-2.16Zm-14.5-24.09-0.33-.29,0.42,0.05,2.2,0.28a1.14,1.14,0,0,0-.3.8,1.37,1.37,0,0,0,.58,1c0,0.16,0,.35,0,0.56A28.77,28.77,0,0,0,115.57,391.72Zm3,7.25-0.08.12Zm-0.18,1a1.12,1.12,0,0,0,.11.24A1,1,0,0,1,118.35,400Zm19,11c-3.65-3.2-7.42-6.52-10.3-8.88-1.57-1.29-2.76-2.21-3.65-2.8s-2.2-1.49-3.11-.58l-0.09.1h0c0-.53.06-1.33,0.09-2.6,0-.49,0-1.1,0-1.63,1.38,1.89,5.27,5.61,15.37,14.76,1.94,1.76,4.1,3.71,6.18,5.62Zm3.19-3.2c-4.45-4.1-9.06-8.33-12.57-11.35-1.91-1.64-3.36-2.81-4.44-3.58s-2.52-1.79-3.51-.8l-0.08.09-0.17-.16-0.18-.17,0,0a1.07,1.07,0,0,0,.57-0.32,1.17,1.17,0,0,0,.34-0.86c0-.67-0.3-1-3.32-3.72l-0.83-.76,0.48,0.06c1.16,0.14,2,.23,2.57.28,0,0.84.66,2.08,6.36,7.54,3.6,3.46,8.47,7.86,13.18,12.12,4.53,4.1,9.21,8.33,12.74,11.71l0.19,0.18C148.55,415.16,144.49,411.43,140.56,407.82Zm8.26,10.57c1,0.87,1.92,1.7,2.79,2.44l0.54,0.46a1.18,1.18,0,0,0-.07.44v0C151.39,421,150.36,419.88,148.82,418.39Zm11.25,87.16a1.12,1.12,0,0,0-.1.18A1.09,1.09,0,0,1,160.07,505.55Zm7.5-59.86,0.57,0.53a1.13,1.13,0,0,0,1.77.21,1.15,1.15,0,0,0,.33-0.83c0-.55-0.28-0.79-1.16-1.58l-0.57-.53a1.13,1.13,0,0,0-1.77-.21,1.15,1.15,0,0,0-.33.83C166.43,444.66,166.7,444.89,167.58,445.69Zm1-1.12-0.09.16Zm-0.37.41-0.09.15Z" transform="translate(-101.77 -339.12)"/><path class="cls-10" d="M186.68,521.6a11.56,11.56,0,0,1-2-1.43c-0.56.11-1.12,0.22-1.67,0.37,0,0-.27.16-0.53,0.34a6.75,6.75,0,0,1-4.46,1.33,1.24,1.24,0,0,0,0,.67c-0.74-.21-2.11.18-2.25,0.69-0.1.88,0.85,0.29,1,.92-0.38.27-.92-0.07-1.37,0.49-0.35-.49.4-1.8-0.86-1.35l0,0.37a0.7,0.7,0,0,1,.37-0.36c0.51,0.08.05,0.47,0.07,0.65l-1.26.63c-0.45-.48.32-0.82,0.3-1-0.83.73-1.38,2.28-2.49,2.47l0.22,0.15c-1.4.25,0,1.42-1.43,1.11-0.37.44,0.54,0.48-.13,1-0.2.13-.21-0.15-0.22-0.25-1,.34-0.05.76-1.18,0.75l0.54,0.48c-1.22.19-2.84-.22-3.52,0.52,0.32,0.43.81,0.08,1.23,0.31a3.44,3.44,0,0,0-2.17.71c-0.33.21-.65,0.43-1,0.6a2.74,2.74,0,0,1-1,.33c0.09-.57-1-0.64-0.53-1.34,0.51,0.5.61-.06,1-0.21-0.66-.48-1.18,0-1.64.5s-0.86,1-1.26.46l0.1,0.55c-0.2,0-.8-0.11-0.6-0.41l-0.16.15-0.35.32-0.51.46a7.6,7.6,0,0,0,1.18.22c0.4,0,.73-0.06.72-0.39,0.6,0.31-.3.6,0.31,1-1.21-.34-0.3.6-1.22,0.86,0-.88-1.31-0.49-1.45-0.84a1.54,1.54,0,0,1-1.31.15,4.8,4.8,0,0,0-1,.73A2.83,2.83,0,0,1,155,535a1.42,1.42,0,0,1,1.19.59c-0.5-.06-0.92.15-0.73,0.7,1.81,0.27-.15-1.39,1.37-1.38a1.78,1.78,0,0,0,1.71.24,1.81,1.81,0,0,0,.18,1,1.49,1.49,0,0,0-1.72.13,2.78,2.78,0,0,1-1.66.66c-0.6-.15-0.66-1.08-1.68-0.75l0.64-.78c-0.73.79-.39-0.26-1.2,0l0.49,0.26a0.82,0.82,0,0,1-1,.14l0.68,0.44c-0.21.2-.63,0.49-0.81,0.12a1.06,1.06,0,0,0,.09.42,0.45,0.45,0,0,0-.53.06c0.2,0,.31-0.1.4,0.08-1.18.36,0.06,0.8-.66,1.05,0.18,0.09.06,0.37-.15,0.56-0.44-1-1.86-.49-2.46-0.88h-1.1c0.23,0,.14.36-0.09,0.58l0,0c-0.23.28,0.83,0.93-.2,1l-0.6-.09c0.1,0,.08.19,0.07,0.28l-0.6-.06a0.81,0.81,0,0,1-1,.61,1.34,1.34,0,0,0-1.29.26c0.22-.18.64-0.26,0.6,0.11a0.51,0.51,0,0,1-.62.08l0.09,0.09-1.93,0c0.27,0.29,1.22-.06,1,0.49-0.07.56-.74,0.26-1.06,0.35-0.06-.28.4-0.74-0.22-0.66,0,0.16-.45.65-0.12,0.74h-1.14a3.19,3.19,0,0,1-1.15-.19c-0.12.18,0.18,0.19,0.28,0.2v-0.09c0.41,0,.31.67,0.9,0.14,0.39,0.86-.9.61-1.46,0.95l1.19,0.25a3.57,3.57,0,0,1-2.59,1.4c-0.51.09-1,.11-1.54,0.16a6.66,6.66,0,0,0-1.39.24c0.39-.44.88-0.3,0.59-1a6.76,6.76,0,0,0-2,.3h0.1c-0.41.53-1.33,0.08-1.48,0.8,0.17,0.16.33,0,.48-0.08s0.28-.13.41,0.26l-0.2.06-0.45.11-0.65.16a1,1,0,0,0,.92,0,4.18,4.18,0,0,1,.9-0.34c0.34-.16-0.74.13-0.73-0.44,1.19-.37,1.63,0,2.45.58,0.54,0.42-.34.72-0.56,0.8a3.19,3.19,0,0,0-1.64-.39,3.15,3.15,0,0,0-1.69.54l-0.48.79c-0.75-.36-0.81-1.5-1.84-1.05l0.44,0.33a0.92,0.92,0,0,1-.44.37c0.55,0.19,1.15.4,1.67,0.62a0.87,0.87,0,0,1-1.19.46,8.23,8.23,0,0,0-1.64-.32,2.09,2.09,0,0,1,.56.27c-1.29.57-3-.14-4.06,0-0.34.52,0.93,0,.87,0.69-0.61-.08-1.09.6-1.38,0.09,0.44,0.74-1.25.36,0,.85a9.06,9.06,0,0,1-3.12.6c-0.55,0-1.1,0-1.65,0l-1.62-.06a0.7,0.7,0,0,1,.14.6,3.83,3.83,0,0,1,1.19-.05,1.84,1.84,0,0,1,1,.39,0.57,0.57,0,0,1-.74.08c-0.26-.11-0.49-0.25-0.53-0.12a2.29,2.29,0,0,0,.48.13,0.41,0.41,0,0,1,.34.31c-0.49.58-1,0-1.39,0l0.18-.25c-1.41-.29-1-1.25-2.32-0.76a0.41,0.41,0,0,0-.13.45c-0.06,0-.11,0-0.13.17-0.65-.68.18-0.52,0.31-0.82l-0.39-.07-0.39-.08a1,1,0,0,1,.09-0.81,1.08,1.08,0,0,1,.54-0.39,4.05,4.05,0,0,0,1.29-.54c0.06,0.37-.27.31,0.28,0.8a1.64,1.64,0,0,0,.87-0.45h-0.06c-0.12-.44.66-0.22,0.27-0.78-0.38-.18.05,0.52-0.57,0l0.22-.21,0.22-.21c-0.49-.16-0.44.42-0.68,0.52a1.24,1.24,0,0,1,.66.23c-0.4.42-.88,0.16-1.63-0.16-0.53-.27-0.26-0.57-0.2-0.64,0.86,0.31,1.51.17,1.57-.51l-0.14-.31-0.15-.31c0.61,0.14,1.4.92,1.61,0.44l-0.45-.15a0.38,0.38,0,0,1,0-.33c-0.4,0-.84-0.09-1.23-0.16-0.28-.4-0.07-0.48.26-0.49a3.08,3.08,0,0,0,1-.06,1.7,1.7,0,0,1-.45-0.07,1,1,0,0,1,.85-0.51,2.91,2.91,0,0,0,1-.31c-0.23-.4-0.45.18-0.91-0.24,0.34-.07,0-0.6.55-0.35-0.74-.35.25-0.51-0.64-0.52a1.86,1.86,0,0,1,.8-1.11c0.4-.31.88-0.59,1.28-0.91a1.54,1.54,0,0,1-.56-0.25,0.81,0.81,0,0,1-.38.38,1.11,1.11,0,0,1-.72.07c-0.28-.35.7-0.15,0.51-0.31a0.83,0.83,0,0,1-.67,0c-0.3-.42.33-0.25,0.48-0.38l0.15,0.17a2.17,2.17,0,0,1,1,0c0.27,0,.46,0,0.47-0.33a1.59,1.59,0,0,0-.95-0.38c0.14,0,.09-0.19.09-0.35s0-.29.37-0.25l0,0.18c0,0.09,0,.18,0,0.18a3.49,3.49,0,0,1,.58-0.51,0.67,0.67,0,0,0-.33,0,1.09,1.09,0,0,1,.69-0.4l-0.62-.21c0.26,0.18.2,0.55-.16,0.5-0.54-.2-0.1-0.42-0.11-0.59a0.73,0.73,0,0,1-.35.31,2.48,2.48,0,0,1-.41.14c-0.27.07-.43,0.14-0.33,0.47h0.22c0.17,0.25,0,.39-0.16.49a1,1,0,0,0-.5.31,0.69,0.69,0,0,0-.41-0.26,1.38,1.38,0,0,1-.17,1,3.29,3.29,0,0,0-.41,1l-0.67-.14,0.41,0.27c0,0.43-.63-0.3-0.72-0.07,0-.08.11,0,0.22,0-0.7.06,0.26,0.45,0,.57,0.5,0.19.41-.3,0.94,0.17-0.7.08-.84,0.82-1.85,0.18a1.43,1.43,0,0,1-.73,1c-0.37.26-.8,0.44-1.05,0.66a0.61,0.61,0,0,0,.26.2c-0.35-.12-0.4.12-0.43,0.35s0,0.44-.26.23a2.57,2.57,0,0,0,.43.69,1.21,1.21,0,0,0-.79.08h0.23l0,0.07h-0.33l0,0a2.14,2.14,0,0,1-1.64.64,1.24,1.24,0,0,1,.62.63,1.17,1.17,0,0,0-.9-0.2,1.2,1.2,0,0,0-.59.44,1.69,1.69,0,0,0,.35.4l-0.46-.13,0.18,0.17a0.85,0.85,0,0,1-.78.19c-0.3,0-.56,0-0.55.26a0.7,0.7,0,0,1,.56.4,1.67,1.67,0,0,1-1.08.35,0.62,0.62,0,0,1,.14.15c0,0.13-.28,0-0.44,0l0.25,0.42a1.48,1.48,0,0,1-.8.06c0.09,0.25-.1.23-0.32,0.16s-0.49-.16-0.55,0c-0.15-.06.46,0.39,0.18,0.51-0.51-.93-0.36.14-0.87-0.88l0,0.39,1.17,6,0.06-.08,0,0.57c0.29-1.06.36,0.5,0.74,0.18a0.64,0.64,0,0,1,0-.25c0.11,0.13.38,0.21,0.16,0.49,0.2,0,.85.3,0.58-0.32,0,0.33-.26,0-0.37-0.09,0-.49.33-0.28,0.43-0.81a2,2,0,0,0,.07.22l0.06-.3c0.34,0.56.74,0.19,1,.9,0-.15.1-0.26,0.22-0.22l0,0.61,0.39,0-0.12-.9c0.44-.15.67,0.89,1,1.07,0.17-1,.65.44,1-0.45l-0.25-.3c0.57,0.23.72-.37,1.23,0a2.82,2.82,0,0,0-1.22.87,0.65,0.65,0,0,1,.48-0.06,1.9,1.9,0,0,1,.42.2,0.68,0.68,0,0,0,.87,0,0.77,0.77,0,0,1,0-.65c0.07,0.54.58,0,.43,0.64,0.21-.19.31-0.76,0.44-0.83l0.28,0.41,0.27,0.42v-0.12a1,1,0,0,1,1.56.07c0.45,0.41.87,0.93,1.45,0.71l0-.33,0.16,0.44a1,1,0,0,1,.25-0.6l0.27,0.41,0.27,0.41c0.07-.28.15-0.93,0-0.83,0.32-.28.46,0.44,0.67,0.52l0-.29,0.18,0.28,0.08-.4a1.33,1.33,0,0,0,.56.15,0.37,0.37,0,0,1,.3.46l0.1-.65,0.27,0.59-0.12-.48a2.07,2.07,0,0,1,1.08.64l0-.25c0.1-.1.11,0.07,0.17,0.16l0-.37a0.72,0.72,0,0,0,.43,0,2.82,2.82,0,0,0,.38-0.11,0.67,0.67,0,0,1,.79.18c0.21,0-.06-0.15,0-0.34s0.35,0.11.34,0.28c0.13-.56-0.22-0.49.15-0.85,0.07,0.32.06-.54,0.31-0.33l-0.13.73c0.2-.07.23-0.53,0.45-0.37a0.51,0.51,0,0,1-.2.51c-0.12.15-.22,0.28,0,0.41a2.41,2.41,0,0,0,.66-0.62c0.28-.29.57-0.49,0.71-0.22a0.75,0.75,0,0,0,.4-0.57c0.06-.21.11-0.34,0.33-0.13l-0.06-.3c0-.15-0.07-0.3-0.07-0.3,0.18-.15.28-0.51,0.46-0.24a1.32,1.32,0,0,0,0,.79,0.48,0.48,0,0,1,.32-0.64,0.59,0.59,0,0,0,.41-0.73l0.2,0.15a0.17,0.17,0,0,1,.06-0.14l0,0,0.14,0.07,0.14,0.07,0,0c0-.11-0.26-0.34-0.28-0.46a0.39,0.39,0,0,1,.2-0.49l0.08,0,0.09,0,0.05,0,0.07,0,0.26,0.11,0.06,0h0a3.34,3.34,0,0,1,.54-0.72l0-.05h0l0,0-0.05-.06-0.13-.14-0.07-.08-0.07-.08-0.1-.13-0.22-.29-0.37-.49-0.17-.21a1.15,1.15,0,0,1-.1.67c-0.44,0-.11-0.53-0.57-0.37l0,0.36c0-.12,0-0.18.08-0.19s0.15,0.11.07,0.29c-0.28.33-.49-0.07-0.48-0.37-0.42-.11-0.36.65-0.5,0.73a0.33,0.33,0,0,0-.33-0.44,0.43,0.43,0,0,1-.46-0.18v0.47c-0.47.41-.58-0.1-0.7-0.31l0,0.37c-0.38-.2-0.93.93-0.86-0.41l0,0.25c-0.2.06-.51,0.25-0.56-0.16a0.62,0.62,0,0,1-.2.35c0-.51-0.22-0.18-0.48-0.16,0.12,0.17-.09.78,0,1-0.52.55-.14-0.79-0.45-0.86-0.26.28,0.08,0.39,0.06,0.64-0.19-.23-0.52.07-0.79,0.27s-0.49.3-.5-0.37l0.29-.36c-0.12-.32-0.23-0.34-0.23-0.21,0.07,0,.06.1,0.06,0.22-0.35.27-.52,0-0.68-0.35s-0.32-.7-0.63-0.63a3.31,3.31,0,0,1,0,.54c-0.31.2,0-1.28-.54-0.87l0,0.29c-0.15.12-.19-0.19-0.18-0.32a0.44,0.44,0,0,1-.58.43,0.78,0.78,0,0,0-.83.7c-0.11-.63-0.63-1.19-0.86-0.89-0.35.61,0.12,0.76-.06,1.35-0.2,0-.22-0.64-0.55-0.47,0.08-.61.77-1.15,0.25-1.58l-0.13.32c0.07,0,.16-0.15.24-0.06,0.12,0.38-.16.39-0.22,0.55l-0.59-.26c0-.65.39-0.45,0.45-0.61-0.51.07-1.21,0.95-1.61,0.46v0.25c-0.51-.62-0.47,1.15-0.81.06-0.26.15,0,.7-0.35,0.71-0.1,0,0-.25,0-0.33-0.42-.27-0.26.6-0.61,0l0,0.7c-0.32-.38-0.62-1.14-0.93-1.43a1.58,1.58,0,0,0,1.06-.22l-0.27-.15c0.76-.65,1.79,0,2.53-0.19a0.34,0.34,0,0,0-.06.5,10.37,10.37,0,0,1,2.43-.81,17.15,17.15,0,0,0,2.62-.75l0.72,0.5-0.08-.49c0.86-.42.36,0.63,0.94,0.44-0.22.06-.2,0-0.28-0.14,1.2,0.27.48-.6,1.11-0.6-0.41-.44-1.19.12-1.09-0.63,1.19,0.26,2.74-.47,3.2.64a6.77,6.77,0,0,1,1.5-.56c0.53-.14,1.08-0.26,1.62-0.34,1.09-.18,2.17-0.28,3-0.47,0.16-.26-0.19-0.11-0.15-0.3a0.83,0.83,0,0,0,.68,0,3.2,3.2,0,0,0,.67-0.36c0.42-.27.76-0.53,0.86-0.24a1.61,1.61,0,0,0,.28-0.92,3.6,3.6,0,0,0,1.59,0l-0.44,0v-0.09l0.62,0v0c0.68-.12,1.38-0.38,2.08-0.56a5.46,5.46,0,0,1,2.11-.21c-0.71-.11-0.25-0.6-0.38-0.8a2.17,2.17,0,0,0,1.57.22,7.48,7.48,0,0,0,1.8-.66,0.69,0.69,0,0,0-.24-0.47l0.81,0.11-0.18-.19a4.62,4.62,0,0,1,1.91-.41,2.16,2.16,0,0,0,1.51-.52,0.59,0.59,0,0,1-.78-0.37,11,11,0,0,1,2.75-.82,0.31,0.31,0,0,1-.17-0.15,1.67,1.67,0,0,1,.94-0.11l-0.16-.46c0.59,0,1.13-.55,1.88-0.46,0-.3.41-0.35,0.9-0.39a2.36,2.36,0,0,0,1.33-.35c0.31,0-.8-0.23-0.07-0.56,0.56,0.91.95-.44,1.51,0.56l0.45-.69,0.39,0.44c0.06-1.23,1,0,1.69-.68a0.32,0.32,0,0,1-.2-0.17c0.31,0,.94-0.27.61,0.23,0.42-.23,2-0.75,1.06-0.95,0.2,0.27-.52.33-0.83,0.36-0.19-.45.53-0.61,0.44-1.17a1.55,1.55,0,0,0,.27.11l-0.05-.32c1,0.06,1.67-.7,2.57-0.41a0.41,0.41,0,0,1,.33-0.45l0.31,0.53,0.83-.48L164,536.1a2,2,0,0,1,1.39-.35,3.76,3.76,0,0,0,1.39-.09c-0.32-1,1.65-.52,1.83-1.68l-0.72.1a3.8,3.8,0,0,0,1.27-.87,2.75,2.75,0,0,1,1.25-.75,10.91,10.91,0,0,0-1.89,2.28,3.66,3.66,0,0,1,1-.68,10.57,10.57,0,0,1,1-.44,3.76,3.76,0,0,0,1.79-1.19c-0.22-.15-0.62-0.08-0.44-0.49,0.54,0.29,1.2-.79,1.34-0.15a10.17,10.17,0,0,0,.24-1.19l1.74-.23L175,530.3a4.08,4.08,0,0,1,1.37-1.48,8.29,8.29,0,0,1,1.75-.8c0.61-.23,1.24-0.43,1.83-0.71a6,6,0,0,0,.85-0.49,4.22,4.22,0,0,0,.75-0.68l-0.24-.23,0.71,0c-0.41,0,.05-0.49-0.08-0.72l0.91-.23,0.62-.17,0.28-.08c-0.14-.25-0.62-0.71-0.88-0.34,0.32-.67,1.27-0.54,1.75-0.87l-0.33-.1,0.6-.17-0.26-.32C185.46,522.48,186.07,521.57,186.68,521.6ZM116.6,545a1.48,1.48,0,0,1,.92.34,1,1,0,0,0-.33,1,1.29,1.29,0,0,0-.28-0.22,0.39,0.39,0,0,1-.22-0.07,0.27,0.27,0,0,1,.22.07c0.15,0,.21-0.16.14-0.31a1.1,1.1,0,0,0-.44,0C116.31,545.21,118,545.92,116.6,545Zm9.56,9.63c0.11-.19.14-0.13,0.15,0a1.42,1.42,0,0,1,.23-0.11,1.88,1.88,0,0,0,0-1c0.09,0.15.08,0.57,0.31,0.38,0-.12.06-0.2,0-0.22l0.25,0a0.64,0.64,0,0,1-.5.83,0.93,0.93,0,0,1-.15.26c-0.05,0-.06-0.06-0.07-0.15a0.49,0.49,0,0,0-.17.17V554.6Zm-2,3.21c-0.3.31-.08-0.44-0.26-0.6C124.23,556.87,124,557.69,124.12,557.81Zm-0.61-4c0,0.37-.1.1-0.22,0.33l-0.16-.18-0.16-.17C123.19,553.08,123.3,553.9,123.5,553.81Zm-2.79-.52a0.4,0.4,0,0,0,.34.45c0,0.55-.13.33-0.31,0.63,0.07-.15,0-0.58-0.22-0.49Zm-0.44-.1a0.59,0.59,0,0,0-.56.22C119.73,553.09,120.26,552.58,120.27,553.2Zm-2.54,1.7-0.16,0c0.31-.42.12,0.51,0.31,0.4l-0.13.07a1,1,0,0,0,.12.63c-0.16.15-.43-0.21-0.3-0.28C117.9,555.57,117.52,555.08,117.74,554.9Zm-0.36,1.4c-0.25.58-.29-0.06-0.37-0.32C117.16,556.29,117.32,555.57,117.38,556.3Zm-5.92-2.87c-0.05-.17-0.16,0-0.21-0.13,0.26-.33.21,0.29,0.34,0.46C111.47,553.75,111.43,553.82,111.46,553.43Zm0.25-4.23,0.07-.23,0.06-.23C111.9,549.06,112.35,549.71,111.71,549.2Zm1,7a2,2,0,0,1-.31-0.79c0.21,0.46.46-.67,0.44,0.18-0.07-.09-0.11-0.13-0.17-0.09A1.15,1.15,0,0,1,112.68,556.21Zm-0.59-6.95c0.06-.42.67,0.24,0.87,0.55,0.37,0.12.06-.21,0.1-0.35l0.27,0.46A3,3,0,0,1,112.09,549.27Zm1.23,3a1,1,0,0,1-.1-0.21l0.37,0.09c-0.12-.43,0-0.49.21-0.47s0.41,0.15.59,0.21h0a2.56,2.56,0,0,0,.32.91C114.36,552.09,113.79,552.31,113.32,552.27Zm1.86,2.68c-0.13-.05-0.44-1-0.46,0l0-.37,0.06,0-0.11-.13-0.11-.13C114.9,553.82,115,554.77,115.18,554.95Zm-0.6-5.36,0.46,0-0.36-.16,0.41,0.09,0.41,0.08C115.51,550.07,114.9,549.9,114.58,549.59Zm1,1.43a0.63,0.63,0,0,0-.26-0.51c0.28,0,.58,0,0.91,0a0.81,0.81,0,0,1,.14.33A1.36,1.36,0,0,0,115.55,551Zm6.17-.7-0.4-.45,0.56-.09Zm11.85-3.8a0.8,0.8,0,0,0-.71.32,1.86,1.86,0,0,0,.7.17c-0.36.71-2.07-.6-1.24,0.9-0.29-.12-1.19-0.31-1-0.67a4.41,4.41,0,0,0,2.11-1,0.22,0.22,0,0,1,.13-0.22,0.53,0.53,0,0,1-.13.22,0.55,0.55,0,0,0,.14.33,0.37,0.37,0,0,1,.26.13A0.28,0.28,0,0,1,133.57,546.52Zm6.94-1.29a9.31,9.31,0,0,1,1.12-.51C141.68,545.09,140.81,545.33,140.51,545.23Zm1.51-2.45-1.3-.25a1,1,0,0,1,.9-0.3,1,1,0,0,1,.72.37h-0.4l-0.41,0Zm0.46-.58,0.29,0.32-0.36-.29,0.08,0-0.07-.07,1.25-.25Zm3.2,0c-0.6-.11-0.34.27-0.57,0.45l0-.56a3.47,3.47,0,0,1,1.77.68C146.26,543.33,145.73,542.58,145.67,542.2Zm1.5,0.89-0.39.32c0.23-.4,0-1.17.77-0.64ZM161,534.83c-0.2-.08-0.31.21-0.51,0.14,0.34-.57.6,0,1,0C161.21,535.08,161.17,535.18,161,534.83Zm0.41-.79c0.4-.42,1.41-1.19,1.52-0.26C162.43,533.17,161.73,534.09,161.43,534Zm3.78,1.55c-0.31-.15-0.93.11-1.13-0.24,0.72,0.1.51-1.09,1-.4a0.58,0.58,0,0,0-.41.14C164.9,535.24,165.41,535.37,165.21,535.58Zm3.31-3.57-0.31-.24,0.09-.11-0.3,0-0.31,0c0.38-.81,1.31-0.3,1.72-0.36C169.11,531.54,167.88,531.26,168.52,532Zm5.24-2.39c0.54,0,.28-0.71,1-0.31C174.7,530.07,174.11,529.7,173.76,529.62Zm0.92-1c0.47-.58-0.64-0.35-0.38-0.78l-0.28.25c0.24-.72.63,0.16,0.9-0.18l-0.19.23c0,0.47.52,0,.74,0.23C175.3,528.72,174.5,528.88,174.68,528.65Zm2-4.54c-0.23-.23.25-1.3,0.8-0.94A2.06,2.06,0,0,0,176.69,524.12Zm2.65-.94c0-.19-0.58-0.28-0.82,0l-0.19-.63c0.25,0.32.89-.22,1-0.24C179.76,522.71,179.4,522.72,179.34,523.18Z" transform="translate(-101.77 -339.12)"/><path class="cls-10" d="M148.9,537.26l0.26,0.36A0.54,0.54,0,0,1,148.9,537.26Z" transform="translate(-101.77 -339.12)"/><path class="cls-10" d="M151.73,538a2.52,2.52,0,0,1-.38.09A0.63,0.63,0,0,0,151.73,538Z" transform="translate(-101.77 -339.12)"/><path class="cls-10" d="M148,538.22l-0.28.16A0.59,0.59,0,0,0,148,538.22Z" transform="translate(-101.77 -339.12)"/><path class="cls-11" d="M160.81,537.79l0,0.24C161,537.91,160.94,537.84,160.81,537.79Z" transform="translate(-101.77 -339.12)"/><path class="cls-11" d="M153.38,541.06h-0.11a0.6,0.6,0,0,0,.09.29Z" transform="translate(-101.77 -339.12)"/><path class="cls-10" d="M146.39,539.31l0.3,0v0A0.2,0.2,0,0,0,146.39,539.31Z" transform="translate(-101.77 -339.12)"/><path class="cls-11" d="M163.86,537.34a1.92,1.92,0,0,0-.53-0.28A0.46,0.46,0,0,0,163.86,537.34Z" transform="translate(-101.77 -339.12)"/><path class="cls-10" d="M151.73,538h0Z" transform="translate(-101.77 -339.12)"/><path class="cls-10" d="M151.23,542.17l-0.44.06A0.41,0.41,0,0,0,151.23,542.17Z" transform="translate(-101.77 -339.12)"/><path class="cls-10" d="M129.3,546.3l-0.29-.1A0.3,0.3,0,0,0,129.3,546.3Z" transform="translate(-101.77 -339.12)"/><polygon class="cls-11" points="64.85 191.09 64.84 191 64.24 191.08 64.24 191.17 64.85 191.09"/><polygon class="cls-10" points="17.67 202.43 18.05 202.78 18.19 202.59 17.67 202.43"/><polygon class="cls-10" points="16.84 204.95 17 205.14 16.95 204.86 16.84 204.95"/><path class="cls-10" d="M127.75,555.41a1.9,1.9,0,0,0-.12.44L127.7,556A0.39,0.39,0,0,0,127.75,555.41Z" transform="translate(-101.77 -339.12)"/><path class="cls-10" d="M123.66,556.88a0.17,0.17,0,0,0,.32,0C123.9,556.71,123.91,556.59,123.66,556.88Z" transform="translate(-101.77 -339.12)"/><path class="cls-10" d="M109.28,552.84h0.06l-0.12-.59-0.09-.13Z" transform="translate(-101.77 -339.12)"/><path class="cls-10" d="M115.21,550.72a0.64,0.64,0,0,0-.08-0.14c-0.12.06-.54-0.13-0.48,0.14h0.56Z" transform="translate(-101.77 -339.12)"/><path class="cls-10" d="M112.37,553.24a1.06,1.06,0,0,1,0,.26,1.57,1.57,0,0,0,0-.23Z" transform="translate(-101.77 -339.12)"/><path class="cls-10" d="M113.18,552.24l-0.09,0Z" transform="translate(-101.77 -339.12)"/><path class="cls-10" d="M115,551.14a1.22,1.22,0,0,0,.35-0.06,0.75,0.75,0,0,1-.14-0.3l-0.52.14A0.31,0.31,0,0,0,115,551.14Z" transform="translate(-101.77 -339.12)"/><path class="cls-10" d="M114.31,548.78a0.8,0.8,0,0,0,.45.32,0.22,0.22,0,0,0,.17,0,0.46,0.46,0,0,1-.17,0A0.76,0.76,0,0,0,114.31,548.78Z" transform="translate(-101.77 -339.12)"/><path class="cls-10" d="M114.2,550.15l0.29-.09,0.29-.09-0.07-.06,0,0-0.34-.24,0.31,0.26-0.25.12Z" transform="translate(-101.77 -339.12)"/><path class="cls-10" d="M113.87,547.9a1.61,1.61,0,0,0,.3-0.41A0.26,0.26,0,0,0,113.87,547.9Z" transform="translate(-101.77 -339.12)"/><path class="cls-10" d="M113.55,546.9l0.25,0.09c0.13,0.17.19,0.44,0.21,0.08l-0.21-.08A0.18,0.18,0,0,0,113.55,546.9Z" transform="translate(-101.77 -339.12)"/><path class="cls-10" d="M109.53,553.8l-0.15-.79-0.07,0,0.11,0.58,0,0A1.43,1.43,0,0,1,109.53,553.8Z" transform="translate(-101.77 -339.12)"/><path class="cls-10" d="M111.76,556.16l-0.11,0c0,0.07.07,0.06,0.11,0l0.17,0.05C111.94,555.84,111.86,556.09,111.76,556.16Z" transform="translate(-101.77 -339.12)"/><polygon class="cls-10" points="12.68 212.96 12.65 213.04 12.88 213.3 12.9 213.22 12.68 212.96"/><polygon class="cls-10" points="25.85 208.8 25.45 209.12 25.78 209.07 25.85 208.8"/><path class="cls-10" d="M140.91,546l-0.38-.12c0-.22.24-0.57-0.31-0.1l0.31,0.1C140.54,546,140.61,546.08,140.91,546Z" transform="translate(-101.77 -339.12)"/><path class="cls-10" d="M141.9,543.61a0.51,0.51,0,0,0-.46-0.41,0.5,0.5,0,0,0-.3,0,1.12,1.12,0,0,1,.3,0C141.6,543.3,141.38,543.59,141.9,543.61Z" transform="translate(-101.77 -339.12)"/><path class="cls-10" d="M143.85,542.82a0.22,0.22,0,0,0,0,.09Z" transform="translate(-101.77 -339.12)"/><polygon class="cls-11" points="59.95 193.47 59.96 193.94 60.36 193.61 59.95 193.47"/><path class="cls-11" d="M163.66,536.52c-0.22-.31-0.23,0-0.38.16l-0.24.1a0.25,0.25,0,0,0,.24-0.1Z" transform="translate(-101.77 -339.12)"/><path class="cls-11" d="M182.17,525.88h0Z" transform="translate(-101.77 -339.12)"/><path class="cls-11" d="M158.6,533.16a0.31,0.31,0,0,0,0,.25A0.25,0.25,0,0,0,158.6,533.16Z" transform="translate(-101.77 -339.12)"/><path class="cls-11" d="M157.2,533.55h0.05l0,0h-0.1Z" transform="translate(-101.77 -339.12)"/><path class="cls-10" d="M119.64,549.18h0Z" transform="translate(-101.77 -339.12)"/><path class="cls-10" d="M122.06,549a0.39,0.39,0,0,0-.31.14A0.79,0.79,0,0,1,122.06,549Z" transform="translate(-101.77 -339.12)"/><path class="cls-10" d="M134.25,543.4c0.12-.08.57-0.32,0.27-0.35l-0.65.22C133.94,543.46,134.15,543.39,134.25,543.4Z" transform="translate(-101.77 -339.12)"/><path class="cls-10" d="M137.84,547v0l-0.19,0h0.18Z" transform="translate(-101.77 -339.12)"/><path class="cls-10" d="M141.39,540.65l0.32-.13-0.51.08-0.52.07,0.39,0.11Z" transform="translate(-101.77 -339.12)"/><polygon class="cls-10" points="41.82 200.89 41.8 201.08 42.54 200.82 41.82 200.89"/><path class="cls-10" d="M122.09,537.91a0.45,0.45,0,0,1-.08.07C122.09,538,122.1,538,122.09,537.91Z" transform="translate(-101.77 -339.12)"/><path class="cls-10" d="M121,537.57l0,0-0.1.09-0.1.09C120.92,537.7,121.2,537.74,121,537.57Z" transform="translate(-101.77 -339.12)"/><path class="cls-10" d="M120.75,537.81l0,0Z" transform="translate(-101.77 -339.12)"/><path class="cls-10" d="M121.77,537.89l-0.28-.06,0,0.18,0.15-.06Z" transform="translate(-101.77 -339.12)"/><path class="cls-10" d="M120,545.69l-0.64,0C119.6,545.77,120,546,120,545.69Z" transform="translate(-101.77 -339.12)"/><path class="cls-10" d="M110.66,555.92l0,0.23C110.7,556.13,110.69,556,110.66,555.92Z" transform="translate(-101.77 -339.12)"/><path class="cls-10" d="M109.35,549.82l0.06,0a1.54,1.54,0,0,0-.14-0.27Z" transform="translate(-101.77 -339.12)"/><path class="cls-10" d="M113.78,552.2l-0.18,0v0C113.69,552.27,113.75,552.27,113.78,552.2Z" transform="translate(-101.77 -339.12)"/><path class="cls-10" d="M111.79,557a3,3,0,0,0-.1-0.51A0.68,0.68,0,0,0,111.79,557Z" transform="translate(-101.77 -339.12)"/><path class="cls-10" d="M110.06,549.25h0.2C110.17,549.2,110.09,549.17,110.06,549.25Z" transform="translate(-101.77 -339.12)"/><path class="cls-10" d="M119.13,545.65h0.21A0.2,0.2,0,0,0,119.13,545.65Z" transform="translate(-101.77 -339.12)"/><path class="cls-10" d="M122.3,539a1,1,0,0,0-.36.06C122.11,539.12,122.27,539.14,122.3,539Z" transform="translate(-101.77 -339.12)"/><path class="cls-10" d="M130.33,555.27l-0.05,0A0.05,0.05,0,0,0,130.33,555.27Z" transform="translate(-101.77 -339.12)"/><path class="cls-10" d="M126.09,552.77a1,1,0,0,0,0,.19C126.14,552.83,126.15,552.72,126.09,552.77Z" transform="translate(-101.77 -339.12)"/><path class="cls-10" d="M121.92,552.14v0Z" transform="translate(-101.77 -339.12)"/><path class="cls-10" d="M120.34,558.16l0,0.07Z" transform="translate(-101.77 -339.12)"/><path class="cls-10" d="M125.25,553.12a0.25,0.25,0,0,0,.17,0A0.13,0.13,0,0,0,125.25,553.12Z" transform="translate(-101.77 -339.12)"/><path class="cls-10" d="M122.77,539.62c0-.1.54-0.24,0-0.26C122.46,539.36,122.8,539.51,122.77,539.62Z" transform="translate(-101.77 -339.12)"/><path class="cls-10" d="M122,539.73a0.51,0.51,0,0,1-.38.13C121.95,539.85,122,539.8,122,539.73Z" transform="translate(-101.77 -339.12)"/><path class="cls-10" d="M122.09,539.31c-0.21.16,0,.31-0.06,0.42A0.42,0.42,0,0,0,122.09,539.31Z" transform="translate(-101.77 -339.12)"/><path class="cls-10" d="M120.41,542.26a0.18,0.18,0,0,1,0,.16S120.46,542.34,120.41,542.26Z" transform="translate(-101.77 -339.12)"/><path class="cls-10" d="M118.49,548.46c0,0.08-.11.31,0.07,0.29l0.21-.25A0.23,0.23,0,0,0,118.49,548.46Z" transform="translate(-101.77 -339.12)"/><path class="cls-10" d="M116.57,548.59l0.48,0.5c0.18,0-.29-0.28-0.09-0.44Z" transform="translate(-101.77 -339.12)"/><path class="cls-10" d="M114.54,546.1l0,0,0.07,0h-0.1Z" transform="translate(-101.77 -339.12)"/><path class="cls-10" d="M124.32,553.05l0.43,0.25C124.42,553.07,124.74,552.89,124.32,553.05Z" transform="translate(-101.77 -339.12)"/><path class="cls-10" d="M450.44,340.94a1.09,1.09,0,0,0,.14-0.09C450.51,341,450.46,341,450.44,340.94Zm0.86-.82a4.7,4.7,0,0,0,.25-0.49c0.06-.17.11-0.33,0.15-0.47a0.54,0.54,0,0,0-.41.21,2.25,2.25,0,0,0-.14.21,1.86,1.86,0,0,0-.13.26c-0.07.19-.16,0.37-0.23,0.56a3.24,3.24,0,0,1-.2.45A2.19,2.19,0,0,0,451.29,340.13Zm-1.33,0A0.27,0.27,0,0,0,450,340L450,340l-0.18.12-0.26.17a0.53,0.53,0,0,1,.32-0.11A0.2,0.2,0,0,0,450,340.17Zm0,0.67,0.06,0,0.14,0,0.2-.07-0.18-.18-0.11.15-0.08.1Zm-11.36,9.48c-0.22,0-.51-0.07-0.83-0.14C438,350.36,438.18,350.72,438.58,350.33Zm-15.4,8-0.1.18C423.25,358.57,423.23,358.48,423.18,358.38Zm-6.1-6.14-0.09.23,0.08,0A0.56,0.56,0,0,0,417.07,352.23Zm8.29,7.47a1.67,1.67,0,0,0-.19-0.48A0.41,0.41,0,0,0,425.37,359.71Zm-6.45-7.59,0.36,0.05A0.32,0.32,0,0,0,418.91,352.11Zm18.57-2,0.26,0.05A0.27,0.27,0,0,0,437.49,350.14Zm12-7.53a0.9,0.9,0,0,0-.43,0A0.3,0.3,0,0,0,449.52,342.61Zm11.14,21.73a0.14,0.14,0,0,0,.08,0Zm-8-3.8a0.64,0.64,0,0,0,.06.18C452.8,360.6,452.79,360.5,452.7,360.53Zm-10.12,3,0.06,0.08Zm9-2.86a0.49,0.49,0,0,0-.31-0.09A1,1,0,0,0,451.57,360.68Zm-2.3-17.12c0.15-.14.79-0.2,0.29-0.37C449.27,343.12,449.43,343.41,449.27,343.55Zm-1.42.08a0.58,0.58,0,0,0,.55-0.1A0.8,0.8,0,0,1,447.85,343.64ZM449,343a1.35,1.35,0,0,0-.57.57A1.58,1.58,0,0,0,449,343Zm-3.88,2.88h0Zm-0.68.26a1.44,1.44,0,0,0,1.33.21c-0.19-.13-1.38.3-0.65-0.46A0.72,0.72,0,0,1,444.41,346.11Zm-1,.37a0.66,0.66,0,0,1-.22.19A0.33,0.33,0,0,0,443.37,346.48Zm-0.22.19c-0.32.09-.8-0.22-1.07,0.18a1,1,0,0,0,.87.24C442.7,346.89,442.93,346.8,443.15,346.67Zm-12.22,6.18-0.51-.13,0.15,0.58C430.83,353.33,430.45,353,430.93,352.85Zm-0.67-3v0l0.16,0h-0.15Zm19.27,10.34L450,360.4l0.42,0.2C449.72,360.26,450.28,360.2,449.53,360.22ZM478.39,540.6a1.07,1.07,0,0,1,0,1.52l-0.09.08c-0.2.19-1.05,1.06-1.82,1.84-3.9,4-3.9,4-4.43,4a1.12,1.12,0,0,1-.77-0.31c-0.29-.29-0.3-0.3-0.6-3.33l-0.42.43L468.12,547c-1.29,1.3-1.37,1.37-1.85,1.38h0a1.08,1.08,0,0,1-.76-0.32c-0.36-.36-0.35-0.53-0.27-1.86,0-.52.07-1.17,0.11-1.82l-0.7.71-1.6,1.62c-0.91.92-1,1-1.5,1a1,1,0,0,1-.76-0.31c-0.33-.33-0.33-0.33-0.38-3.12V544l-0.81.83C456.54,548,456.54,548,456,548h0a1.08,1.08,0,0,1-.76-0.32c-0.33-.33-0.33-0.33-0.29-2.81v-0.66l-0.93.95-1.9,1.93c-1.09,1.1-1.18,1.19-1.66,1.19a1.06,1.06,0,0,1-.76-0.31c-0.36-.36-0.35-0.53-0.26-1.86,0-.49.08-1.09,0.12-1.7l-1.3,1.33-1.44,1.47c-0.81.82-.93,0.94-1.4,0.94h0a1.07,1.07,0,0,1-.76-0.32c-0.39-.39-0.36-0.59-0.19-2,0.07-.58.17-1.34,0.27-2.09l-1.2,1.22-1.29,1.31c-0.72.73-.85,0.86-1.31,0.87h0a1.07,1.07,0,0,1-.76-0.31c-0.32-.32-0.32-0.45-0.34-1.73,0-.52,0-1.19,0-1.85l-0.78.8c-3.58,3.66-3.58,3.66-4.1,3.66h0a1.08,1.08,0,0,1-.76-0.31c-0.37-.37-0.35-0.51-0.23-1.88,0.05-.56.12-1.28,0.19-2L433,544.71l-1.7,1.74c-0.94,1-1.06,1.07-1.54,1.08a1.12,1.12,0,0,1-.77-0.31c-0.35-.35-0.35-0.49-0.26-1.83,0-.5.08-1.14,0.12-1.78l-1.06,1.08-2.06,2.1C424.6,547.94,424.5,548,424,548a1.07,1.07,0,0,1-.77-0.32c-0.34-.34-0.34-0.46-0.29-1.84,0-.52,0-1.17.07-1.81l-0.41.42c-3.09,3.17-3.09,3.17-3.61,3.17h0a1.08,1.08,0,0,1-.76-0.31c-0.26-.26-0.26-0.26-0.71-2.9l0-.26-1.13,1.14-1.52,1.54c-0.88.89-1,1-1.46,1a1.07,1.07,0,0,1-.76-0.31c-0.31-.31-0.32-0.32-0.5-3.29l-0.81.83c-1.43,1.46-2.22,2.28-2.7,2.73a0.43,0.43,0,0,1,.48.2v-0.22a0.91,0.91,0,0,0,.5.28,2.43,2.43,0,0,0,.63.06,5.83,5.83,0,0,1,1.3,0c-0.11.11-.6-0.23-0.74,0.32l0.83,0.52c0.11-.11.51,0,0.39-0.38a0.41,0.41,0,0,0-.36-0.06l0.23-.22c0.72,0.62-.38.76-0.58,1.26,0.51,0,.46.56,0.75,0.67,0.35-.43-0.34-0.78.27-1.15,0.38-.17,1.07.61,1.15,1.22,0.93-.94,1.79.54,2.21-0.31-0.06.05-.06,0.44,0.2,0.41v-0.28c0.8-.09.21,1.08,0.67,1.06a1.91,1.91,0,0,0,0-.5,1.39,1.39,0,0,1,.83.9,0.93,0.93,0,0,0,.93.69c0-.11,0-0.22-0.06-0.23s0.16,0,.3.32l-0.45.16c-0.06.61,0.26,0.65,0.67,0.62a4.9,4.9,0,0,1,.64,0,0.66,0.66,0,0,1,.51.24c0-.22-0.41-0.52,0-0.62,0.42,0.24-.24,1.25.55,1.05-0.15-.25.21-0.69,0.05-0.91,0.36,0.13.76,0,.65,0.42a0.38,0.38,0,0,0,.31-0.21,0.72,0.72,0,0,0,.75.49l0.06-.21c-0.11.6,0,.72,0.29,0.74a1.27,1.27,0,0,1,.83.15l0.1-.32a0.83,0.83,0,0,0,.9.72l0-.45c0.14,0.43,1.08.41,1,1.08,0.18,0,.16-0.77.69-0.41,0,0.28.18,0.8,0.55,0.65,0.12-.13.2-0.34-0.06-0.33s-0.08,0-.12.13V555a0.35,0.35,0,0,1,.35.31,0.46,0.46,0,0,0,.31.4,0.75,0.75,0,0,0,.18-0.6l0.17,0.31,0.37,0.7,0.2,0.4,0.09,0.18,0.12,0.22,0.1,0.19a0.75,0.75,0,0,1,.06.13l0,0.08a1.62,1.62,0,0,0-.64.44l-0.08-.07-0.24-.23a2.33,2.33,0,0,0-.22-0.18l-0.09-.07a0.27,0.27,0,0,0-.27.38c0,0.16.23,0.49,0.25,0.62s-0.39-.42-0.38-0.39a0.1,0.1,0,0,0-.08.11l-0.22-.27c0.09,0.56-.24.52-0.53,0.5a0.62,0.62,0,0,0-.37,0,0.36,0.36,0,0,0-.05.42,1.26,1.26,0,0,1,0-.85c-0.21-.4-0.36-0.1-0.6-0.07,0,0,0,.18.08,0.36l0.07,0.36c-0.28-.39-0.35-0.28-0.43-0.11a0.42,0.42,0,0,1-.54.31,0.75,0.75,0,0,0-1-.28,2,2,0,0,1-.94.15c-0.53-.54.56-0.24,0.36-0.75-0.3-.31-0.36.13-0.64,0.06l0.22-.62c-0.34-.36-0.37.47-0.45,0.12-0.54.1,0,.27-0.26,0.72,0-.16-0.19-0.6-0.47-0.5-0.1.15,0.29,0.46,0,.34a1.74,1.74,0,0,0-.57-0.49,2.25,2.25,0,0,0-.55-0.2c-0.18,0-.36-0.08-0.55-0.14a2.06,2.06,0,0,1-.62-0.3l-0.08.32c-0.07-.12-0.07-0.29-0.23-0.25l-0.05.21c-0.07,0-.27-0.29-0.54-0.56a2.9,2.9,0,0,0-1-.68l0.13,0.51-0.34-.7-0.21.53c0.07-.6-0.74-0.64-1.22-1l-0.16.32-0.23-.35v0.27c-0.31-.19-0.43-0.91-0.93-0.84,0.29,0,.1.56,0,0.77l-0.35-.52-0.25-.35-0.12-.16c-0.12.2-.53,0.1-0.44,0.4l-0.18-.47-0.09.27a2.28,2.28,0,0,1-1.14-.51c-0.17-.13-0.32-0.28-0.48-0.42l-0.47-.44a2.41,2.41,0,0,0-2.33-.83v0.11l-0.72-1a9.25,9.25,0,0,1-.78.51c0.32-.45-0.53-0.26-0.55-0.76-0.3.12-.12,0.33-0.13,0.55a1.85,1.85,0,0,1-1.31-.42,2.42,2.42,0,0,0-1.36-.51,5,5,0,0,1,2-.21c-0.72-.58-1-0.11-1.86-0.57l0.33,0.37c-0.71.59-1.21-.87-1.63-0.08-0.48-.3-0.66-1.29-1.36-1.34l0,0.82-0.59-.17,0.15-.51a0.26,0.26,0,0,0-.37.1c-0.23-.7-0.89-0.55-1.32-1.17l-0.14.23a1.36,1.36,0,0,1-.06-0.22c-0.24.41-.64,0.11-0.79,0.51,0.15,0.15.49,0.51,0.54,0.23,0.3,0.64-.64.11-0.94,0,0.32-.12.11-0.27-0.06-0.4l0-5.91,0.11,0a0.37,0.37,0,0,0-.12-0.18c0.2-.22.44,0,0.64,0.1s0.37,0.19.37-.32l0.26,0.43,0.26-.49c0.2,0.45.35,0.42,0.49,0.38s0.29-.11.51,0.3c0.46-.18-0.29-0.49-0.08-0.47a1.2,1.2,0,0,1,.84-0.14c0.31,0,.58,0,0.55-0.25a0.78,0.78,0,0,0,.39,0l0.63-.63v0h0L402,541c0.83-.84.91-0.9,1.35-0.9a1.07,1.07,0,0,1,.58.17l0,0a0.5,0.5,0,0,0-.61-0.28,0.54,0.54,0,0,1,.33-0.31,2.62,2.62,0,0,1,.55-0.15,5.3,5.3,0,0,0,.62-0.14,1.29,1.29,0,0,0,.52-0.32l-0.17-.14h0.57a0.8,0.8,0,0,1-.3-0.35,3.64,3.64,0,0,1,1-.7,1.39,1.39,0,0,1,1.09-.05c-0.15-.13,0-0.57-0.53-0.55,1-.06,1.65-0.83,2.4-1.31v0l0.21,0,0.2-.05,0-.07-0.29.07a2,2,0,0,1,1-.34,1.51,1.51,0,0,1-.22-0.73c0.19,0.19.29-.08,0.42-0.38a0.73,0.73,0,0,1,.68-0.58c-0.06-.14-0.2.06-0.23-0.17a8.85,8.85,0,0,1,.72-0.56c0.26-.2.55-0.4,0.83-0.62a6.68,6.68,0,0,0,.77-0.74,3.15,3.15,0,0,0,.54-0.88,0.87,0.87,0,0,0,1.09-.06c0.16-.11.33-0.25,0.5-0.38a2,2,0,0,1,.55-0.33c-0.38-.5-0.49.14-1,0,0.34-.24-0.55-0.51.25-0.79-0.1,0-.15-0.1-0.23,0,0.19-.34.56,0.51,0.76-0.1l-0.34-.26h0.67a11,11,0,0,1,.86-1.54,6.77,6.77,0,0,0,.39-0.73,3.13,3.13,0,0,0,.21-0.8,0.35,0.35,0,0,1,.32.29,2.35,2.35,0,0,1,.62-0.56,0.74,0.74,0,0,0,.35-0.76l-0.22.06a0.85,0.85,0,0,1,.16-0.51,1,1,0,0,1,.34-0.27,3.64,3.64,0,0,0,.45-0.27,1.56,1.56,0,0,0,.43-0.52,3.54,3.54,0,0,1-.23.45,0.29,0.29,0,0,0,.13.44,0.36,0.36,0,0,0,.35-0.28,0.6,0.6,0,0,0,0-.5l0.5,0.28a1.69,1.69,0,0,0-.77.66,0.41,0.41,0,0,1,.31,0,8.72,8.72,0,0,0-.73.83l0.1-.27c0.05-.13.1-0.27,0.1-0.27a0.45,0.45,0,0,0-.45.43,0.73,0.73,0,0,1-.22.53c0.48,0.24.57-.11,0.79,0.39-0.27.94-.74,0.25-1.59,0.77l-0.08-.22c-0.2.21-.78,0.12-0.65,0.66a0.74,0.74,0,0,0,.69-0.14c0.14,0.19-.8.11-0.65,0.56a1.21,1.21,0,0,0,.78-0.26,2,2,0,0,0,.52-0.61,0.76,0.76,0,0,0,.47.25c-1,1.06-2.4,2-3,3.24,1-.21-0.18.26,0.49,0.54-0.46-.21-0.34.43-0.74,0.61a0.37,0.37,0,0,0,.54,0c0.17-.09.31-0.18,0.36,0.05a5.11,5.11,0,0,1-1.23.66,2.31,2.31,0,0,0-1.16.89,1.44,1.44,0,0,0,.47,0,4.15,4.15,0,0,1-1.16.35c-0.38.11-.67,0.26-0.5,0.7a12.79,12.79,0,0,0,1.34-.12,0.59,0.59,0,0,0-.09.41l0.44,0.08c-0.42.67-1-.11-1.66-0.12l0.08,0.71a1.71,1.71,0,0,1-.82.91,2.12,2.12,0,0,1-1.24.16c-0.1.12-.56,0.56,0,0.73a1.62,1.62,0,0,0,1.87-.25c-0.25-.41-0.83.1-0.68-0.11,0.33-.18.5-0.9,1-0.82l-0.34.32-0.34.32c0.52,0.49.29-.26,0.66-0.14,0.24,0.58-.58.52-0.62,1l0.07,0a3.58,3.58,0,0,1-1.21.77c-0.47-.43-0.09-0.46,0-0.88a3.71,3.71,0,0,1-.82.53c-0.31.16-.65,0.31-1,0.48a3.18,3.18,0,0,0-.83.62,1.8,1.8,0,0,0-.44,1h0.45l0.45,0c-0.23.33-1,.4-0.85,0.81l0,0,0.11,0.13c0.23-.45.37,0,0.65,0l0-.07c0.07,0,.29-0.06.26,0.1a2.21,2.21,0,0,0-.84.07,1,1,0,0,1,.14.57h0.26l-0.27.12c0,0.17,0,.36-0.08.6l-0.21,1.41-0.14.91,0.71-.73c2.75-2.82,2.75-2.82,3.25-2.82h0a1.08,1.08,0,0,1,.76.31c0.3,0.3.3,0.3,0.46,2.84l0,0.45,0.55-.56,1.75-1.77c1-1,1.13-1.14,1.61-1.14h0a1.08,1.08,0,0,1,.76.31c0.25,0.25.25,0.25,0.7,2.86l0.05,0.31L421.1,543c2.61-2.67,2.61-2.67,3.11-2.68h0a1.08,1.08,0,0,1,.76.32c0.34,0.34.33,0.54,0.29,1.53,0,0.44,0,1-.07,1.66l0,0.49,1.11-1.13,2.09-2.12c1.17-1.18,1.27-1.28,1.75-1.28h0a1.08,1.08,0,0,1,.76.32c0.35,0.35.34,0.54,0.27,1.6,0,0.46-.07,1.08-0.12,1.73l0,0.27,0.46-.47c3.45-3.52,3.45-3.52,4-3.52a1.07,1.07,0,0,1,.77.31c0.36,0.36.35,0.57,0.24,1.71,0,0.51-.11,1.19-0.18,1.89l0,0.27,1.25-1.27,1.77-1.81c1-1,1.1-1.11,1.57-1.11a1.11,1.11,0,0,1,.77.32c0.32,0.31.32,0.49,0.33,1.46,0,0.43,0,1,0,1.61v0.49l0,0c3.64-3.71,3.64-3.71,4.17-3.72h0a1.08,1.08,0,0,1,.76.32c0.38,0.38.35,0.63,0.2,1.8-0.07.54-.16,1.26-0.26,2l0,0.19c3.43-3.5,3.44-3.5,4-3.5h0a1.08,1.08,0,0,1,.76.32c0.35,0.35.34,0.59,0.27,1.56,0,0.44-.07,1-0.12,1.65l0,0.34,0.79-.8,1.89-1.92c1.09-1.1,1.18-1.19,1.65-1.19a1.08,1.08,0,0,1,.76.31c0.34,0.34.33,0.48,0.32,1.86,0,0.47,0,1,0,1.61l0.94-1c2.83-2.9,2.83-2.9,3.34-2.9a1.1,1.1,0,0,1,.77.32c0.33,0.33.33,0.33,0.39,3.35l0.57-.58,1.82-1.84c1.05-1.06,1.16-1.17,1.64-1.17h0a1.08,1.08,0,0,1,.76.31c0.35,0.35.34,0.59,0.28,1.58,0,0.45-.07,1.07-0.11,1.71l0,0.42,1.25-1.27,1.4-1.42c0.79-.8.91-0.92,1.37-0.92a1.1,1.1,0,0,1,.77.32c0.28,0.28.28,0.28,0.52,2.66l0.07,0.73,2.08-2.12,1.34-1.36c0.74-.75.88-0.89,1.34-0.89h0A1.07,1.07,0,0,1,478.39,540.6Zm-61.3-12.12,0.26,0.39,0.23-.3Zm-2,3.63,0.11,0.21,0.06-.36Zm-2.81,3.09a0.22,0.22,0,0,0-.23,0,0.3,0.3,0,0,0,.23,0,0.61,0.61,0,0,1,.24.19,0.43,0.43,0,0,0,0,.2,0.17,0.17,0,0,0,0-.2,2.5,2.5,0,0,1,.81-1.37c-0.06-.31-0.7-0.16-0.93-0.17,1.22,0.81-.45.39-0.33,1a1.21,1.21,0,0,1,.51-0.08A0.44,0.44,0,0,1,412.31,535.2Zm11.22,21.25a0.94,0.94,0,0,0-.18.35l0.08,0.2C423.77,557,423.69,556.62,423.54,556.46Zm-2.14-1.66a0.44,0.44,0,0,1,.24-0.05c0,0.09,0,.19.09,0.18a0.53,0.53,0,0,0,.23-0.15c0.4,0.07.82,0.16,0.76-.48l-0.34-.13c0.14,0.09.07,0.13,0,.23-0.33,0-.28-0.35-0.39-0.54a1.25,1.25,0,0,1-.07.92l-0.32,0c0-.09,0-0.17-0.21-0.06Zm-3.46.92c0.24,0.26-.15.81,0.32,0.71C418.06,556.23,418.5,555.63,417.94,555.71Zm-0.26-.41a0.36,0.36,0,0,0,.47.16C418,555.28,418.06,555.18,417.68,555.3ZM417,552.12l0.22,0.24,0.21,0.25c0.18-.14.28,0.15,0.34-0.18a0.75,0.75,0,0,1-.35-0.37C417.3,551.92,417.18,551.86,417,552.12Zm-3.56-1.21c0.3,0,.39.52,0.23,0.56,0.33-.2.45,0.08,0.56-0.41,0-.06-0.58-0.25-0.44-0.58Zm-1.12-.83a1.18,1.18,0,0,1,.85.1C413.21,549.62,412.37,549.8,412.3,550.08Zm-3.05,1.38c0.07-.28-0.37-0.33-0.1-0.61h0.2c-0.3,0,.11-0.72-0.41-0.5l0.24,0.06c-0.35.05,0.15,0.67-.35,0.66C408.63,551.07,409,551.51,409.24,551.46Zm-8.63-5.31,0,0h-0.07Zm4-2.59,0.2-.21C404.68,543.4,404.63,543.48,404.64,543.56Zm-3.3,2.12h0.16l0-.1A0.56,0.56,0,0,0,401.34,545.68Zm-1.19-.19-0.2-.27a0.61,0.61,0,0,1-.13.23A0.35,0.35,0,0,0,400.15,545.5Zm0.52,0.69,0.17,0.05A0.13,0.13,0,0,0,400.67,546.18Zm0.33,0.09a0.52,0.52,0,0,1,.37.26l0-.25a0.71,0.71,0,0,0-.27-0.12l-0.17.1Zm3.53,0.47a1.48,1.48,0,0,1,.44.5,2.42,2.42,0,0,0-.33-0.62ZM405,546.8l-0.25-.27-0.06.06,0.25,0.27Zm3.68-6.94h-0.48l0.4,0.08-0.28.05-0.29,0a0.73,0.73,0,0,0,.26.14h0.19a1.07,1.07,0,0,1,.26,0,0.57,0.57,0,0,0,.44-0.39ZM408,539.2a0.47,0.47,0,0,0,.44.24,0.38,0.38,0,0,0,.28-0.06,0.57,0.57,0,0,1-.28.06C408.29,539.39,408.34,539.13,408,539.2Zm-0.17-2,0.29,0c0.09,0.17.05,0.48,0.24,0l-0.24,0C408.06,537.14,408,537.09,407.82,537.2Zm0,1.09a4,4,0,0,0,.56-0.58C408.12,537.69,407.63,538,407.79,538.3Zm-0.06,1.88,0.2,0.14,0,0Zm-0.44.62,0.13-.06h0l0,0-0.08,0Zm-0.45-.78,0.05,0.07Zm-2,.38a2.4,2.4,0,0,0,1.39.39l-0.17-.45c-0.11.17,0.17,0.45-.27,0.42C405.67,540.48,405.11,539.92,404.86,540.4Zm-0.49,0c0.65,0.38.32-.22,0.37-0.55l0.12-.18a0.21,0.21,0,0,0-.12.18Zm-5.87,6v-1a0.85,0.85,0,0,1,.21-0.24l0,0-0.17.08V545a1.14,1.14,0,0,1-.36-0.47v0.82l-0.11,0a0.86,0.86,0,0,1,.11.17v0.55A1.62,1.62,0,0,1,398.51,546.44Zm1.48,2.39-0.15-.07a0.13,0.13,0,0,0,.15.07l0.24,0.12C400.3,548.62,400.13,548.81,400,548.83Zm0.3-2a0.77,0.77,0,0,0-.17-0.08c-0.17-.2,0-0.71-0.44-0.54,0.05,0.16.25,0,.3,0.2-0.12.32,0,.27,0.14,0.34A0.21,0.21,0,0,0,400.28,546.8Zm0.74,1.65a1.61,1.61,0,0,0,.34.8c0.2,0,.06-0.39.06-0.61a0.31,0.31,0,0,1,.25.15C401.83,548.06,401.27,548.92,401,548.45Zm4.32,0.82c-0.19-.21-0.26-1.09-0.87-0.84l0.29,0.32h-0.1v0.33C404.83,548.24,405.15,549.16,405.35,549.26Zm1.26-1.43a1.06,1.06,0,0,1-.1-0.6,6.48,6.48,0,0,0-.73-0.13c0.3-.49.44,0,0.73,0,0-.3.08-0.72,0.17-1.34,0.06-.44.14-1,0.22-1.47l-0.39.4-1.62,1.65a1.66,1.66,0,0,1,.65.63c0.13,0.19.26,0.41,0.4,0.61a4.32,4.32,0,0,0,.41.58l0.07-.61A1.14,1.14,0,0,0,406.61,547.83Zm1.84,3.62c0-.67-0.33-0.11-0.51-0.45a0.26,0.26,0,0,0,0-.09,0.44,0.44,0,0,0,0,.09C408,551.27,408,551.84,408.45,551.46Zm69.81-9.23a1.06,1.06,0,0,1-.34.16A1,1,0,0,0,478.26,542.22Zm1.15-13.47a1.07,1.07,0,0,1,0,1.52l-0.15.13c-0.32.3-1.71,1.72-2.84,2.87l-2.24,2.28c-1.22,1.23-1.35,1.36-1.85,1.37h0a1.08,1.08,0,0,1-.76-0.31c-0.55-.55-0.29-1.1,0-1.8l0.71-1.47,1.19-2.41a1.14,1.14,0,0,1-.94.5,1.07,1.07,0,0,1-.77-0.32,1.3,1.3,0,0,1,0-1.69l0.59-1.18L474,525h0c-1.4,1.41-1.4,1.41-1.87,1.41h0a1.07,1.07,0,0,1-.76-0.31,1.38,1.38,0,0,1,0-1.76c0.15-.31.38-0.74,0.69-1.33,0.45-.85,1-1.92,1.61-3a0.77,0.77,0,0,1-.44.09h0a1.08,1.08,0,0,1-.76-0.31,1.26,1.26,0,0,1-.05-1.58l0.47-1,1.48-3,0.22-.45c-1.24,1.24-1.37,1.35-1.84,1.35h0a1.08,1.08,0,0,1-.76-0.32,1.32,1.32,0,0,1,0-1.65l0.54-1.19,1.24-2.68c-0.66.65-.76,0.65-1.09,0.66a1.08,1.08,0,0,1-.77-0.31c-0.54-.54-0.28-1.11,0-1.78,0.16-.36.39-0.86,0.67-1.45l1.18-2.5c-1,1-1.14,1.11-1.59,1.11h0a1.08,1.08,0,0,1-.76-0.31,1.32,1.32,0,0,1,0-1.68L472,501.9c0.44-.84,1-1.91,1.62-3.06-0.88.88-1,1-1.46,1h0a1.08,1.08,0,0,1-.76-0.32,1.36,1.36,0,0,1,0-1.74c0.15-.29.37-0.7,0.68-1.26,0.49-.89,1.11-2,1.79-3.22a1.3,1.3,0,0,1-1.05.6,1.08,1.08,0,0,1-.76-0.31A1.25,1.25,0,0,1,472,492l0.45-.93,1.42-2.9L474,488c-0.94.94-1,1-1.5,1h0a1.07,1.07,0,0,1-.76-0.31,1.29,1.29,0,0,1,0-1.64l0.54-1.08c0.42-.82,1-1.91,1.55-3-0.89.87-1,.87-1.35,0.87a1.1,1.1,0,0,1-.77-0.31,1.3,1.3,0,0,1,0-1.67l0.57-1.11c0.48-.91,1.13-2.12,1.8-3.39l0.06-.1a1,1,0,0,1-.84.39h0a1.07,1.07,0,0,1-.76-0.31,1.28,1.28,0,0,1-.09-1.55l0.43-1c0.32-.72.75-1.67,1.21-2.66-0.82.8-.93,0.8-1.27,0.8a1.1,1.1,0,0,1-.77-0.31,1.25,1.25,0,0,1-.07-1.56l0.44-.92,1.41-2.87,0.29-.59c-1.51,1.53-1.6,1.53-2,1.53h0a1.08,1.08,0,0,1-.76-0.32c-0.58-.58-0.24-1.22.08-1.85,0.18-.35.44-0.83,0.81-1.48,0.51-.92,1.15-2.06,1.81-3.23-1,1-1,1-1.47,1h0a1.07,1.07,0,0,1-.76-0.32,1.32,1.32,0,0,1,0-1.66l0.55-1.13c0.41-.82.94-1.87,1.5-3a1.23,1.23,0,0,1-1,.56h0a1.07,1.07,0,0,1-.76-0.31,1.33,1.33,0,0,1,0-1.73l0.66-1.26,1.54-2.92-0.19.19c-1.09,1.09-1.15,1.16-1.62,1.16h0a1.07,1.07,0,0,1-.76-0.31,1.21,1.21,0,0,1-.07-1.52l0.39-.79,1.27-2.54,0.43-.87c-0.71.68-.83,0.68-1.15,0.69h0a1.08,1.08,0,0,1-.76-0.32c-0.56-.56-0.26-1.17.05-1.81,0.17-.34.41-0.81,0.74-1.45l1.32-2.52c-0.77.75-.89,0.75-1.21,0.75a1.05,1.05,0,0,1-.77-0.32,1.3,1.3,0,0,1,0-1.65l0.55-1.08,1.6-3.08-0.22.22c-1,1-1.09,1.1-1.56,1.1h0a1.08,1.08,0,0,1-.76-0.32,1.38,1.38,0,0,1,.06-1.79l0.74-1.35c0.49-.89,1.14-2,1.79-3.19-1,1-1.08,1.07-1.53,1.07h0a1.07,1.07,0,0,1-.76-0.31,1.36,1.36,0,0,1,0-1.74c0.15-.3.37-0.72,0.67-1.29,0.44-.84,1-1.91,1.6-3a1.36,1.36,0,0,1-1.09.61h0a1.08,1.08,0,0,1-.76-0.32,1.26,1.26,0,0,1,0-1.6l0.49-1,1.56-3,0.19-.36c-1.26,1.26-1.36,1.26-1.73,1.26a1.07,1.07,0,0,1-.77-0.31c-0.57-.57-0.26-1.2.08-1.86,0.18-.36.44-0.86,0.8-1.53l1.33-2.48a1.3,1.3,0,0,1-1.06.6,1.09,1.09,0,0,1-.77-0.31,1.28,1.28,0,0,1,0-1.62l0.5-1.07,1.3-2.7c-0.8.78-.91,0.78-1.25,0.78h0a1.08,1.08,0,0,1-.76-0.31c-0.55-.55-0.28-1.14,0-1.75l0.66-1.36,1.34-2.69-0.08.08c-1.18,1.18-1.19,1.18-1.64,1.18h0a1.07,1.07,0,0,1-.76-0.31c-0.57-.57-0.25-1.18.05-1.77l0.71-1.33,1.83-3.35c-1,1-1.1,1-1.44,1h0a1.08,1.08,0,0,1-.76-0.31,1.32,1.32,0,0,1,0-1.71l0.63-1.21,1.76-3.27,0,0c-1.81,1.82-1.81,1.82-2.31,1.82h0a1.08,1.08,0,0,1-.76-0.31c-0.55-.55-0.28-1.11,0-1.76l0.68-1.38,1.47-2.94a1,1,0,0,1-.81.37,1.07,1.07,0,0,1-.77-0.31c-0.56-.56-0.27-1.16.07-1.86,0.18-.37.44-0.88,0.79-1.58L474,382c-0.68.69-.83,0.82-1.27,0.82h0a1.07,1.07,0,0,1-.76-0.31,1.39,1.39,0,0,1,0-1.71c0.13-.31.33-0.74,0.59-1.33l1.22-2.65-0.09.09c-1.07,1.08-1.16,1.16-1.63,1.17h0a1.08,1.08,0,0,1-.76-0.31c-0.58-.58-0.27-1.18.17-2,0.23-.43.56-1,1-1.84L474,371.1c-0.87.87-1,1-1.42,1h0a1.07,1.07,0,0,1-.76-0.32c-0.56-.56-0.27-1.16.06-1.85,0.18-.37.43-0.88,0.78-1.57l1.36-2.66a1.29,1.29,0,0,1-1.06.59h0a1.08,1.08,0,0,1-.76-0.31,1.33,1.33,0,0,1,0-1.66c0.12-.27.3-0.65,0.55-1.16,0.38-.78.88-1.8,1.39-2.82-0.72.73-.84,0.81-1.26,0.81h0a1.07,1.07,0,0,1-.76-0.31c-0.46-.46-0.36-0.81,0-2l0.61-2.08,0.1-.33-0.14.14c-2,2.08-2,2.08-2.5,2.08a1.08,1.08,0,0,1-.77-0.32C469,358,469,358,469,354.91L467.91,356l-2,2c-1.2,1.2-1.22,1.22-1.68,1.23h0a1.07,1.07,0,0,1-.76-0.31c-0.33-.33-0.33-0.33-0.33-3.08v-0.47l-0.42.43c-2.61,2.66-2.61,2.66-3.11,2.67a1.08,1.08,0,0,1-.77-0.31c-0.3-.3-0.31-0.31-0.52-3.3l-0.68.69-1.56,1.58c-0.93.93-1,1-1.49,1h0a1.07,1.07,0,0,1-.76-0.32c-0.34-.34-0.34-0.52-0.28-1.69,0-.5.05-1.15,0.09-1.8l-0.87.88-2.12,2.16c-1.23,1.23-1.3,1.31-1.78,1.31h0a1.08,1.08,0,0,1-.76-0.31c-0.31-.31-0.31-0.31-0.39-2.75l0-.56-0.44.45c-2.48,2.56-2.48,2.56-3,2.56h0a1.08,1.08,0,0,1-.76-0.32c-0.24-.24-0.24-0.24-0.79-2.87v0l-0.82.85c-0.82.84-1.37,1.41-1.77,1.8,0.59,0.46-.48.72-0.58,1.19,0.62,0,.7.52,1.09,0.61,0.31-.48-0.62-0.75,0-1.19a1.94,1.94,0,0,1,1.72,1.07c0.86-1.09,2.3.33,2.56-.6a0.32,0.32,0,0,0,.36.38l-0.1-.28c0.92-.21.57,1,1.13,1a1.75,1.75,0,0,0-.13-0.5,1.32,1.32,0,0,1,.72.27,5,5,0,0,1,.55.52,1.34,1.34,0,0,0,1.33.54c0-.11,0-0.22-0.15-0.22s0.18-.06.47,0.27l-0.48.24c0.13,0.62.53,0.61,1,.51a1.87,1.87,0,0,1,1.42,0c0-.23-0.67-0.45-0.24-0.62,0.58,0.17.17,1.3,1,1-0.27-.22,0-0.73-0.27-0.93,0.47,0.06.88-.16,0.91,0.3a0.36,0.36,0,0,0,.28-0.27,1,1,0,0,0,1,.34v-0.23c0.21,1.25.9,0.35,1.62,0.67l0-.34a1.16,1.16,0,0,0,1.29.52l-0.14-.46c0.33,0.4,1.36.15,1.5,0.85,0.2,0-.15-0.81.58-0.58,0.07,0.29.53,0.75,0.86,0.5,0.07-.16.07-0.39-0.2-0.31s-0.07,0-.07.16l-0.14-.36c0.67,0,.34.44,1,0.52,0.21-.14-0.06-0.41-0.06-0.64l0.31,0.25,0.68,0.58,0.38,0.33,0.37,0.32,0.3,0.26,0.07,0.07a1.3,1.3,0,0,0-.44.64l-0.46-.2-0.16-.06-0.13,0-0.13,0c-0.28.12-.24,0.29-0.1,0.46a2.51,2.51,0,0,0,.28.27l0.16,0.14,0.07,0.07,0,0.06-0.28-.14-0.2-.09-0.08,0a0.09,0.09,0,0,0,0,.14l-0.36-.21c0.36,0.53,0,.59-0.32.65a0.67,0.67,0,0,0-.38.14c-0.07.08,0,.2,0.16,0.44a1.44,1.44,0,0,1-.44-0.87c-0.43-.35-0.44,0-0.7.08l0.08,0.11,0.18,0.24,0.26,0.35c-0.5-.33-0.53-0.2-0.54,0a0.38,0.38,0,0,1-.46.45c-0.77-.71-1.82.42-2.29,0.28-0.89-.45.54-0.36,0.06-0.84-0.49-.25-0.37.21-0.73,0.19v-0.68c-0.56-.3-0.23.56-0.48,0.21-0.6.21,0.07,0.28,0,.79a0.74,0.74,0,0,0-.79-0.42c-0.05.17,0.55,0.41,0.13,0.34a3.13,3.13,0,0,0-1.65-.49,4.77,4.77,0,0,1-1.6-.26l0,0.34a0.41,0.41,0,0,0-.38-0.22l0,0.23c-0.09,0-.45-0.25-0.89-0.48-0.22-.12-0.47-0.24-0.71-0.34a3.58,3.58,0,0,0-.73-0.2l0.35,0.49-0.67-.65-0.07.57c-0.12-.62-1.15-0.53-1.86-0.89l-0.09.34-0.4-.32,0.09,0.28c-0.45-.15-0.84-0.86-1.43-0.71,0.37,0,.3.55,0.21,0.78l-1.22-1c-0.09.21-.62,0.16-0.43,0.45l-0.37-.46,0,0.28a6.2,6.2,0,0,1-3-1.14,3.8,3.8,0,0,0-3.13-.59l0,0.11-1.14-.92a9.2,9.2,0,0,1-.84.59c0.29-.48-0.72-0.22-0.87-0.71-0.35.15-.06,0.35,0,0.57-1.33.25-2.14-.8-3.55-0.7a7.65,7.65,0,0,1,2.43-.37c-1-.52-1.32,0-2.45-0.42l0.5,0.35c-0.75.65-1.7-.79-2.05,0.05-0.67-.26-1.11-1.23-2-1.24l0.22,0.83-0.78-.13,0.09-.52a0.33,0.33,0,0,0-.45.12c-0.42-.69-1.22-0.5-1.87-1.1l-0.13.24a1.38,1.38,0,0,1-.12-0.21c-0.23.43-.78,0.16-0.89,0.58,0.22,0.14.72,0.47,0.73,0.19,0.5,0.62-.78.16-1.17,0.1,0.47-.18-0.07-0.33-0.29-0.47a0.29,0.29,0,0,0,0,.22c-0.78.16-.81-1.2-1.46-0.37l0-.51-0.64.26c0.12-1-.8-0.23-0.74-1.16-0.66-.14,0,0.57-0.23.43-0.52.07-1.22-.6-1.63-0.66l0.12-4.1a0.23,0.23,0,0,0,.21-0.16,6.22,6.22,0,0,0,1.57.12l0-.42a1.21,1.21,0,0,0,.76.13,0.28,0.28,0,0,0-.1-0.16,6.16,6.16,0,0,0,.64.06l0.59,0c0.38,0,.74-0.08,1.11-0.14a0.51,0.51,0,0,0-.56-0.47,1.68,1.68,0,0,1,1.29-.14,3.27,3.27,0,0,0,1.58,0l-0.12-.19,0.64,0.21a0.63,0.63,0,0,1-.15-0.44,5.73,5.73,0,0,1,1.52-.32,1.78,1.78,0,0,1,1.26.34c-0.1-.18.31-0.56-0.26-0.72,1.13,0.29,2.34-.2,3.45-0.39v0l0.51,0.05v-0.08l-0.36,0a2.9,2.9,0,0,1,1.31,0,1.44,1.44,0,0,1,.21-0.79c0.19,0.5,1.07-.88,1.79-0.52,0-.16-0.26,0-0.14-0.25,0.67-.2,1.53-0.34,2.41-0.57a6.52,6.52,0,0,0,2.42-1.09,1,1,0,0,0,1.19.35,7.22,7.22,0,0,1,1.54-.3c0-.32-0.19-0.33-0.38-0.3a0.8,0.8,0,0,1-.64,0c0.51-.11-0.24-0.7.77-0.68-0.08-.08-0.09-0.15-0.25-0.07,0.42-.27.25,0.71,0.85,0.19l-0.17-.39,0.34,0.14,0.34,0.13a9.7,9.7,0,0,1,.95-0.65c0.31-.2.63-0.38,0.93-0.56s0.59-.38.86-0.59a4.74,4.74,0,0,0,.73-0.74,0.31,0.31,0,0,1,.13.42,3.3,3.3,0,0,1,1-.34,1.16,1.16,0,0,0,.83-0.66l-0.26,0a1.42,1.42,0,0,1,.47-0.48,1.57,1.57,0,0,1,.5-0.15,2.38,2.38,0,0,0,1.32-.52,5.55,5.55,0,0,1-.48.4,0.36,0.36,0,0,0-.14.51,0.48,0.48,0,0,0,.51-0.17,0.84,0.84,0,0,0,.26-0.55l0.33,0.47a0.75,0.75,0,0,0-.56.13,3.94,3.94,0,0,1-.58.3,0.39,0.39,0,0,1,.31.09c-0.38.11-.74,0.41-1.22,0.61l0.52-.49a0.61,0.61,0,0,0-.71.29,1.2,1.2,0,0,1-.55.47c0.32,0.42.63,0.09,0.54,0.7a0.77,0.77,0,0,1-.92.34,1.94,1.94,0,0,0-1.16-.15l0.06-.25c-0.33.14-.86-0.17-1.07,0.42a0.83,0.83,0,0,0,.78.12c0,0.25-.88-0.19-1,0.32a1.49,1.49,0,0,0,1,0,3.08,3.08,0,0,0,.92-0.42,0.61,0.61,0,0,0,.31.43c-1.71.68-3.67,1.05-5.06,2.12,1.12,0.16-.35.19,0.16,0.72-0.34-.38-0.62.28-1.15,0.31,0.06,0.56,1.05-.06.86,0.43a6.79,6.79,0,0,1-1.69.18,3.58,3.58,0,0,0-1.77.43,1.71,1.71,0,0,0,.51.15,5.2,5.2,0,0,1-1.43-.1,0.73,0.73,0,0,0-1,.49c0.46,0.15,1,.28,1.49.38a0.81,0.81,0,0,0-.34.36l0.42,0.24c-0.85.49-1-.49-1.68-0.75l-0.35.72a2.72,2.72,0,0,1-.64.38,0.73,0.73,0,0,1,.1.2,0.55,0.55,0,0,1,.28.06l-0.24.08a9.05,9.05,0,0,1,0,1.43c0,0.43,0,.93,0,1.44l0.59-.6,2.1-2.13c1.26-1.26,1.31-1.31,1.78-1.31h0a1.07,1.07,0,0,1,.76.31c0.38,0.38.35,0.6,0.21,1.79-0.06.53-.15,1.24-0.24,2l0.12-.12c2.48-2.56,2.48-2.56,3-2.56h0a1.08,1.08,0,0,1,.76.32c0.24,0.24.24,0.24,0.71,2.49l0.09,0.42,0.83-.85c2.42-2.5,2.42-2.5,2.94-2.5a1.1,1.1,0,0,1,.77.31c0.32,0.32.33,0.33,0.42,3.31l1.4-1.42,1.93-2c1.09-1.1,1.18-1.19,1.66-1.19a1.06,1.06,0,0,1,.76.31c0.34,0.34.34,0.54,0.29,1.64,0,0.49-.05,1.15-0.09,1.82v0l0.34-.34,1.59-1.61c0.94-.95,1-1,1.51-1h0a1.07,1.07,0,0,1,.76.32c0.3,0.3.3,0.3,0.48,2.86l0,0.45,0.69-.71c2.5-2.55,2.5-2.55,3-2.56h0a1.07,1.07,0,0,1,.76.32c0.34,0.33.34,0.34,0.34,3.54l1.08-1.1,1.94-2c1.17-1.18,1.2-1.2,1.66-1.2h0a1.07,1.07,0,0,1,.76.31c0.32,0.33.32,0.33,0.37,3.07V355c3.24-3.32,3.24-3.32,3.77-3.32h0a1.08,1.08,0,0,1,.76.32c0.47,0.47.4,0.74-.1,2.46L475,356.31l1.15-1.16c1.12-1.13,1.19-1.19,1.66-1.19h0a1.07,1.07,0,0,1,.76.31,1.35,1.35,0,0,1,0,1.68c-0.13.28-.31,0.67-0.57,1.2-0.38.77-.86,1.75-1.36,2.75,0.78-.78.91-0.89,1.35-0.89h0a1.08,1.08,0,0,1,.76.31,1.25,1.25,0,0,1,0,1.6l-0.49,1-1.55,3-0.3.58,0.14-.14c1.47-1.48,1.53-1.54,2-1.54a1.1,1.1,0,0,1,.77.31,1.24,1.24,0,0,1,0,1.64l-0.54,1-1.74,3.11L476.55,371a0.87,0.87,0,0,1,.67-0.24,1.11,1.11,0,0,1,.76.31,1.27,1.27,0,0,1,.08,1.56l-0.44,1-1.38,3-0.08.17c1.43-1.43,1.53-1.43,1.92-1.44a1.09,1.09,0,0,1,.77.31,1.24,1.24,0,0,1,0,1.59l-0.48.94-1.52,3-0.35.68a0.91,0.91,0,0,1,.76-0.34,1.07,1.07,0,0,1,.77.32,1.27,1.27,0,0,1,0,1.63l-0.53,1.08-1.66,3.31-0.06.13,1.45-1.47c0.87-.88,1-1,1.42-1h0a1.07,1.07,0,0,1,.76.31c0.57,0.57.25,1.19-.05,1.8-0.17.33-.41,0.79-0.74,1.41l-1.6,3c1.1-1.09,1.21-1.1,1.57-1.1h0a1.08,1.08,0,0,1,.76.31c0.57,0.57.25,1.19-.06,1.79l-0.73,1.36-1.84,3.35c0.67-.66.75-0.66,1.12-0.66h0a1.07,1.07,0,0,1,.76.31,1.28,1.28,0,0,1,0,1.62l-0.51,1-1.59,3.18c0.69-.66.81-0.66,1.12-0.66a1,1,0,0,1,.77.31,1.32,1.32,0,0,1,0,1.67l-0.57,1.2-1.19,2.48c1.26-1.27,1.37-1.27,1.75-1.27h0a1.08,1.08,0,0,1,.76.31,1.27,1.27,0,0,1,0,1.64l-0.54,1L477,413.08l0,0.07c0.9-.88,1-0.88,1.35-0.88a1.09,1.09,0,0,1,.77.32c0.56,0.56.27,1.17,0,1.82-0.17.35-.41,0.85-0.74,1.51L477,418.51c0.74-.75.87-0.88,1.33-0.88h0a1.07,1.07,0,0,1,.76.31,1.35,1.35,0,0,1,0,1.74l-0.66,1.27L476.77,424l0.13-.13c1.34-1.35,1.34-1.35,1.81-1.35h0a1.07,1.07,0,0,1,.76.32c0.58,0.58.25,1.2-.06,1.79-0.17.32-.41,0.76-0.74,1.36l-1.76,3.14c0.71-.67.84-0.68,1.15-0.68h0a1.08,1.08,0,0,1,.76.32,1.4,1.4,0,0,1,0,1.78c-0.16.32-.38,0.77-0.69,1.38l-1.32,2.54c0.84-.82,1-0.82,1.3-0.82h0a1.08,1.08,0,0,1,.76.31,1.28,1.28,0,0,1,0,1.64l-0.54,1-1.69,3.2h0a1,1,0,0,1,.82-0.38h0a1.08,1.08,0,0,1,.76.32c0.55,0.55.28,1.13-.07,1.87-0.18.38-.44,0.91-0.79,1.62l-1.05,2.12,0.3-.3c1.31-1.32,1.36-1.37,1.84-1.37h0a1.08,1.08,0,0,1,.76.31,1.32,1.32,0,0,1,0,1.73L478.54,447l-1.6,3a0.85,0.85,0,0,1,.66-0.23h0a1.07,1.07,0,0,1,.76.32,1.37,1.37,0,0,1,0,1.71c-0.14.3-.34,0.71-0.62,1.27-0.39.78-.88,1.76-1.39,2.77l0.59-.59c1.19-1.2,1.19-1.2,1.65-1.2h0a1.07,1.07,0,0,1,.76.31,1.35,1.35,0,0,1,0,1.76l-0.7,1.28c-0.54,1-1.24,2.22-2,3.55a1.34,1.34,0,0,1,1.09-.62h0a1.08,1.08,0,0,1,.76.31c0.55,0.55.28,1.13,0,1.81-0.16.35-.39,0.85-0.71,1.51l-1.26,2.59a1,1,0,0,1,.82-0.39h0a1.08,1.08,0,0,1,.76.31,1.35,1.35,0,0,1,.07,1.64c-0.12.28-.28,0.66-0.52,1.19l-1,2.31c1.07-1.08,1.17-1.17,1.64-1.17h0a1.08,1.08,0,0,1,.76.31c0.57,0.57.26,1.18-.06,1.83-0.17.35-.42,0.83-0.76,1.48L476.64,477a1.27,1.27,0,0,1,1-.6,1.1,1.1,0,0,1,.77.32,1.38,1.38,0,0,1,0,1.75c-0.15.31-.37,0.76-0.66,1.35l-1.34,2.64c0.7-.69.81-0.74,1.21-0.74h0a1.08,1.08,0,0,1,.76.32c0.54,0.54.27,1.13,0,1.76-0.16.34-.39,0.83-0.66,1.4l-1.14,2.34c1.29-1.29,1.4-1.29,1.77-1.29h0a1.08,1.08,0,0,1,.76.32,1.41,1.41,0,0,1-.06,1.81c-0.17.33-.41,0.78-0.75,1.4-0.46.84-1,1.88-1.64,2.95a1.33,1.33,0,0,1,1.08-.61h0a1.08,1.08,0,0,1,.76.31,1.38,1.38,0,0,1,0,1.77c-0.16.32-.38,0.76-0.69,1.36-0.41.79-.93,1.76-1.46,2.77a1.3,1.3,0,0,1,1-.59h0a1.07,1.07,0,0,1,.76.31,1.24,1.24,0,0,1,.07,1.55l-0.42.9-1.35,2.83-0.25.53a1.23,1.23,0,0,1,1-.54,1.09,1.09,0,0,1,.77.32,1.28,1.28,0,0,1,.06,1.6l-0.48,1.06-1.34,2.9,0.83-.84c0.73-.74.86-0.87,1.32-0.87a1.08,1.08,0,0,1,.76.31c0.55,0.55.28,1.13,0,1.8-0.16.35-.39,0.83-0.71,1.48L477,513.75a1,1,0,0,1,.78-0.34,1.1,1.1,0,0,1,.77.32,1.34,1.34,0,0,1,0,1.71c-0.14.28-.34,0.67-0.62,1.2-0.44.84-1,1.88-1.61,3l0.13-.13c1-1,1.07-1.07,1.53-1.07h0a1.07,1.07,0,0,1,.76.32c0.55,0.55.27,1.13,0,1.73l-0.65,1.3-1.57,3.08a1,1,0,0,1,.82-0.39h0a1.08,1.08,0,0,1,.76.31,1.23,1.23,0,0,1,.05,1.57l-0.45.91-1.43,2.87-0.18.36,0.8-.81c1.12-1.13,1.23-1.24,1.72-1.25h0A1.08,1.08,0,0,1,479.4,528.75ZM443.09,345.46v0.48l0.21-.1,0.21-.11Zm-4.37,3.09,0.14-.16,0.14-.17-0.26.09ZM456.38,364l0.18,0.18c0.37-.09.12-0.44-0.13-0.58A0.77,0.77,0,0,0,456.38,364Zm-3.12-1.75v0.12a0.5,0.5,0,0,1,.26-0.1c0.05,0.09.09,0.19,0.17,0.16a0.48,0.48,0,0,0,.21-0.2c0.5,0,1,0,.68-0.63l-0.44-.06c0.19,0.06.13,0.11,0.14,0.23-0.37.11-.46-0.29-0.66-0.46a1.23,1.23,0,0,1,.28.94l-0.39,0C453.48,362.22,453.41,362.15,453.26,362.3Zm-3.77,1.65c0.39,0.22.13,0.85,0.66,0.67C449.84,364.45,450.15,363.77,449.49,363.95Zm-0.46-.39a0.54,0.54,0,0,0,.62.1C449.46,363.5,449.45,363.38,449,363.56Zm-1.93-3.1,0.67,0.43c0.17-.17.39,0.1,0.35-0.24C447.76,360.66,447.42,359.88,447.11,360.46Zm-4.66-.73c0.35,0,.59.4,0.48,0.52,0.33-.21.53,0,0.53-0.46-0.07-.06-0.77-0.18-0.7-0.53Zm-1.6-.68a1.75,1.75,0,0,1,1.06,0C441.83,358.47,440.87,358.76,440.85,359ZM435,357.34c0.53,0.66.48-.65,1.41,0l0-.22a2,2,0,0,0,1.34.23,8.68,8.68,0,0,1,.1-1.2c0.06-.53.15-1.21,0.23-1.9l-0.93.94-1.71,1.73Zm-1.43-7.19a0.32,0.32,0,0,0,.23.11,0.49,0.49,0,0,1,.13.28l0,0.07h0a0.1,0.1,0,0,0,0-.07,2.69,2.69,0,0,1,.77-0.61,3.71,3.71,0,0,1,.95-0.41c0.12-.32-0.65-0.42-0.89-0.51,0.4,0.62.22,0.68-.09,0.65a0.8,0.8,0,0,0-.89.19,1.55,1.55,0,0,1,.6.11,0.66,0.66,0,0,1-.58.31A0.24,0.24,0,0,0,433.6,350.14Zm-1.39,1.52,0.14,0.09,0.66-.64-0.32-.15C432.5,351,431.75,351.3,432.21,351.67Zm-2.23.65a5.39,5.39,0,0,0-1.17.25c0,0.34.1,0.86,0.18,1.67l0.37,0.4a0.58,0.58,0,0,1-.34-0.16l0.06,0.62,1.4-1.43,1.49-1.53C431.36,352.24,430.66,352.25,430,352.32Zm-3.83,2.62a0.37,0.37,0,0,1-.21,0,1.1,1.1,0,0,1-.78-0.5,0.41,0.41,0,0,0-.06.13c-0.31.44,0.56,0.26,0.76,0.54l-0.26,0L425,355l-0.56-.08a0.58,0.58,0,0,1,.14.39l0.29-.05,0,0.16h-0.27a0.54,0.54,0,0,1-.1.18c0.75,0.31.66-.82,1.28,0.08C425.61,355.08,426.18,355.26,426.16,354.94Zm-5.32.39,0.26,0h-0.26Zm5.71-2.13,0.05,0v0h0Zm0.3,1.19-0.35,0a0.69,0.69,0,0,0,.35.07v0Zm-0.79,0h0Zm0.22,1.33h0.44l-0.19-.32Zm4.38,0.86a2,2,0,0,1,.53.41,1.42,1.42,0,0,0-.44-0.49Zm0.44,0-0.24-.17-0.06.06,0.25,0.17Zm-3.41-6,0.3,0.13c0,0.19-.22.47,0.25,0.11l-0.25-.11C428,350.55,428,350.47,427.71,350.52Zm0.29,0.69c-0.24-.11-1,0-1,0.35A6.25,6.25,0,0,0,428,351.21Zm-1.74,2.1a0.84,0.84,0,0,0,.54.38l0-.25,0-.06-0.12,0Zm-1.2.45,1.1-.06,0-.07h0.07l-0.28-.3,0.21,0.3Zm0-.83a0.19,0.19,0,0,0,0-.08Zm-2.48-.41a2.68,2.68,0,0,0,1.36.86l0-.48c-0.21.12,0,.48-0.54,0.31C423.41,352.88,423.09,352.16,422.53,352.52Zm-0.58-.13c0.54,0.59.48-.09,0.72-0.4l0.23-.13a0.31,0.31,0,0,0-.23.13Zm1.13,3a3.11,3.11,0,0,1-.55-0.31,0.68,0.68,0,0,0-.46.39l-0.5-.17,0,0.1a1.75,1.75,0,0,1,.55.13l0,0v0l0.25,0.08a0.24,0.24,0,0,1-.13,0,1.16,1.16,0,0,1,.48.6A1.56,1.56,0,0,1,423.07,355.37Zm2,1.43a0.33,0.33,0,0,0,.22.07l-0.22-.07c-0.25-.19-0.12-0.71-0.65-0.51,0.09,0.16.32,0,.41,0.18C424.78,356.79,424.86,356.74,425.1,356.8Zm0.25,2.15-0.21-.06a0.2,0.2,0,0,0,.21.06l0.33,0.1C425.7,358.71,425.54,358.91,425.35,358.94Zm1.34-2.13c0.44-.68-0.64-0.72-1.14-0.66C425.73,356.36,426.69,356.14,426.7,356.82Zm-0.12,1.67c-0.06.35,0.47,0.51,0.59,0.78,0.25,0,0-.4-0.06-0.62a0.47,0.47,0,0,1,.34.13C427.5,358,427,358.95,426.58,358.48Zm5.54,0.47c-0.29-.2-0.57-1.08-1.27-0.78l0.43,0.3h-0.12l0.06,0.33C431.25,358,431.85,358.87,432.12,359Zm1-1.18v-0.13a1,1,0,0,1-.26-0.85,2.56,2.56,0,0,0-.67-0.06c0.2-.4.42-0.17,0.67-0.07,0-.35,0-0.84,0-1.58l0-.81-0.87.89-0.93,1A15.16,15.16,0,0,1,433.11,357.77Zm3.39,3.09c-0.16-.67-0.44-0.08-0.75-0.41a0.32,0.32,0,0,0-.08-0.09,0.54,0.54,0,0,0,.08.09C435.91,360.72,436,361.3,436.5,360.86Zm1-.09c0-.29-0.54-0.29-0.28-0.6l0.25,0c-0.37,0-.05-0.73-0.63-0.45l0.31,0c-0.42.09,0.36,0.65-.26,0.7C436.62,360.46,437.18,360.86,437.48,360.78Zm2.55-3.2-0.44.41,0.16,0.06c0.1-.12.62,0,0.37-0.42Zm39.14,172.87a1.07,1.07,0,0,1-.49.14A1,1,0,0,0,479.18,530.44Zm-58.23-7.66c0.06,0.07.08,0,.09-0.1A0.79,0.79,0,0,1,420.95,522.78Zm0.65-1.59a0.57,0.57,0,0,0-.5.61c-0.06.31,0,.68-0.05,0.88a1.93,1.93,0,0,0,.39-0.71A5.51,5.51,0,0,0,421.6,521.19Zm-1.39.93-0.16.21-0.17.21C420,522.31,420.31,522.45,420.2,522.12Zm0.33,0.42-0.08.29,0.32-.2ZM416,533.84l-0.71.14C415.56,534,415.89,534.28,416,533.84Zm-17.67,14.32-0.11.17C398.37,548.36,398.37,548.27,398.34,548.16Zm2.42-6.4,0.07,0a0.71,0.71,0,0,0-.09-0.25Zm-0.89,7.82a1.76,1.76,0,0,0-.07-0.48A0.43,0.43,0,0,0,399.87,549.58ZM415.07,534l0.23,0A0.22,0.22,0,0,0,415.07,534Zm5.82-9.7a0.8,0.8,0,0,0-.36.13A0.27,0.27,0,0,0,420.89,524.32Zm5.9,33.7-0.05-.07A0.12,0.12,0,0,0,426.79,558ZM421.5,553a0.66,0.66,0,0,0,0,.18C421.56,553,421.58,552.94,421.5,553Zm-8.86,1.63,0,0.08Zm-14.14-9.15v-0.18a1.65,1.65,0,0,1-.35.13v0.19a1.38,1.38,0,0,1,.12.38C398.39,545.73,398.42,545.58,398.5,545.44Zm21.8,7.36a0.66,0.66,0,0,0,.23.13A0.33,0.33,0,0,0,420.3,552.79Zm0.91-28c-0.28,0,0,.21-0.07.36C421.2,525,421.71,524.74,421.21,524.75Zm-1.21.85a0.45,0.45,0,0,0,.41-0.24A0.65,0.65,0,0,1,420,525.61Zm0.6-.85a0.91,0.91,0,0,0-.19.61A1,1,0,0,0,420.6,524.75Zm-2.13,3.85a1.27,1.27,0,0,0,1.17-.24c-0.22,0-1,.67-0.76-0.18A0.5,0.5,0,0,1,418.47,528.61Zm-0.63.61a0.4,0.4,0,0,1-.08.22A0.22,0.22,0,0,0,417.83,529.22Zm-0.84.69a1,1,0,0,0,.81-0.07c-0.3-.09-0.16-0.24-0.05-0.41C417.54,529.61,417,529.5,417,529.91Zm-3.77,7.75c0,0.1-.25.4,0,0.34l0.17-.18,0.17-.18A0.25,0.25,0,0,0,413.23,537.66Zm-1.89.63-0.45,0,0.39,0.46C411.49,538.73,411,538.53,411.34,538.29Zm-1.91-2.37v0l0.11-.07Zm1.55,4.39-0.64-.33A0.59,0.59,0,0,0,411,540.31Zm8,11.89,0.59,0.47C419.14,552.27,419.61,552.28,419,552.2Z" transform="translate(-101.77 -339.12)"/></svg>