<svg id="Layer_1" data-name="Layer 1" xmlns="http://www.w3.org/2000/svg" xmlns:xlink="http://www.w3.org/1999/xlink" viewBox="0 0 453.42 258.2"><defs><style>.cls-1{fill:none;}.cls-2{fill:#2a5d80;}.cls-3{fill:url(#linear-gradient);}</style><linearGradient id="linear-gradient" x1="80.8" y1="251.76" x2="476.92" y2="251.76" gradientUnits="userSpaceOnUse"><stop offset="0" stop-color="#2a5d80" stop-opacity="0"/><stop offset="0.19" stop-color="#2a5d80" stop-opacity="0.03"/><stop offset="0.4" stop-color="#2a5d80" stop-opacity="0.14"/><stop offset="0.62" stop-color="#2a5d80" stop-opacity="0.31"/><stop offset="0.84" stop-color="#2a5d80" stop-opacity="0.54"/><stop offset="1" stop-color="#2a5d80" stop-opacity="0.75"/></linearGradient></defs><title>fte-otg-icon</title><rect class="cls-1" width="453.42" height="258.2"/><path class="cls-2" d="M533.7,322.19c-0.08.73-2,1.5-3,1.94a22.12,22.12,0,0,1-6.85,1.74,17.13,17.13,0,0,1-3.37.2c-0.79-.08-1.44-0.62-1.95-0.61s-0.72.35-1.22,0.41a17.32,17.32,0,0,1-3.68-.41c-1.24-.16-2.51-0.28-3.58-0.51a9.33,9.33,0,0,1-1.12-6.24c0.21-1,1.06-1.28,1-2.25,0-.79-0.78-1.16-1.22-1.74a19.62,19.62,0,0,1-1.23-1.95,37.92,37.92,0,0,1-2.46-5.72c-0.45-1.2-1-2.3-1.53-3.47-1-2.45-1.94-4.91-2.76-7.36a42.41,42.41,0,0,0-2.78-5.78c-1.25-4.27-3.37-8.22-4.59-12.5,0-.06,0-0.12,0-0.19s0-.07,0-0.11h0c-0.06-.08-0.13-0.14-0.18-0.22a18.17,18.17,0,0,1-1.25-2.29,42.09,42.09,0,0,0-2.64,4c-0.64,2.45-1.53,4.86-2.42,7.27a65.65,65.65,0,0,0-4.36,9.11h0c-1.74,2.52-2.62,5.32-4.29,8.18-0.66,1.12-1.49,2.38-2.45,3.78-0.66,1-2.34,2.6-2.56,3.68s0.26,2.71-.1,3.78c-0.2.6-.78,0.74-0.82,1.33a10.27,10.27,0,0,0,.72,1.94,7.55,7.55,0,0,0,2.45,2.15c1.92,0.68,4.11-.28,5.62.41a2.4,2.4,0,0,1,1.23,1.74c-0.07.56-1.68,1.62-2.46,1.84a28.31,28.31,0,0,1-4.19.42,23.8,23.8,0,0,1-4.6.1c-1.38-.21-1.28-1-2.25-1.53-0.54-.32-1-0.3-1.64-0.61-0.5.07-.69,0.46-1.22,0.51-2.37-.83-5.45-1-7.26-2.35,0.05-.56.34-1,0.41-1.53s0-.89,0-1.33c0.08-.72.35-1.51,0.51-2.25s0.22-1.74.41-2.45c0.48-1.77,1.8-3.29,2.45-4.81,0.2-.45.21-1,0.41-1.43,0.75-1.62,2.34-2.64,3-4.2,0.38-.93.59-2,0.92-3,0.67-2,1.28-4,1.94-5.93a10.93,10.93,0,0,0,.83-3l-0.2-.14c2.24-3.67,3.17-8.23,4.66-12.18,0.94-2.51,3.1-5.83,4.44-9.14-0.67.66-1.33,1.33-1.93,2-2.57,3.1-5.53,5.82-8.33,8.7-2.35,2.43-4.81,4.76-7.26,7.18,0,0.36,0,.75,0,1.13a4.2,4.2,0,0,1-1.27,3.45q-1.79,1.73-3.6,3.42c-1.7,1.59-3.42,3.16-5.12,4.74l-10.06,9.38c-0.62.58-1.19,1.22-1.86,1.73a47.81,47.81,0,0,0-5.47,5c-1.26,1.33-2.54,2.63-3.9,3.86s-2.46,2.21-3.68,3.33a5,5,0,0,0-.65.83,4,4,0,0,1-4.82,1.54c-1.71-.53-2.33-2.64-2.14-4.05,0-.2.09-0.41,0.13-0.6a5.37,5.37,0,0,1-2.36-2.3,6.66,6.66,0,0,0-.89-1.17c-0.46-.57-0.94-1.13-1.39-1.68-1.11.22-1.86,1.29-3.13,1-0.59-.27-0.58-0.83-0.52-1.55l1.29-1.7-0.77-.67a0.6,0.6,0,0,0-.25-0.19c-1-.08-1.34-1-1.9-1.6a0.85,0.85,0,0,1,0-.36,19.9,19.9,0,0,0,2.18-3.72,26.19,26.19,0,0,1,2.52-3.64,90.1,90.1,0,0,1,8.78-9.74c1.43-1.36,2.95-2.63,4.44-3.92,1.22-1.06,2.47-2.1,3.7-3.16a1.49,1.49,0,0,0,.39-0.48,4.9,4.9,0,0,1,1.12-1.51,4.26,4.26,0,0,0,.7-1.16,26.86,26.86,0,0,1,4.53-6.08,1.34,1.34,0,0,1,1.6-.48l2.4-2.21-0.42-.44c1.22-.48,2.36-0.95,3.62-0.27a1.11,1.11,0,0,0,1,0,2.5,2.5,0,0,1,1.44-.14c1,0.18,2.09-.16,3.22,0,1.06,0.59,2.23,1.18,1.78,2.92l1.36,1,0.69-.35,1.67,2.29,1.53-.57,1.29,1a3.38,3.38,0,0,1-.33,2.45l1.09,1.31,1.62-1.5c0.23-.22.45-0.45,0.67-0.68l10.88-11a1.87,1.87,0,0,1,1.33-.8l6.09-6a6.1,6.1,0,0,0-.28-1.54,4.16,4.16,0,0,0-1.6-2.35,1.7,1.7,0,0,0,.07-0.21,11.6,11.6,0,0,1-2.36-.82c0.63-5.09,2.19-10.59,2.56-16.06,0.12-1.84-.38-3.19-0.41-4.6s0.52-3,.52-4.4-0.63-2.68-.52-4,1.09-2.56,1.13-3.88a11.46,11.46,0,0,0-.31-1.64,13.1,13.1,0,0,1,.11-2.56,17.08,17.08,0,0,1,.3-2.35c0.16-.59.78-1.16,0.92-1.84a20.77,20.77,0,0,0,0-3,20.86,20.86,0,0,1,4.19-10.84c0.91-1.33,1.9-2.83,3.17-3.47,0.69-.35,1.63-0.32,2.25-1s0.39-1.55.92-2.15,1-.27,1.43-1a14.61,14.61,0,0,1-2.56-4A11.62,11.62,0,0,1,487.8,190a15.34,15.34,0,0,1,.31-6,10.68,10.68,0,0,1,1.43-2.15,7.5,7.5,0,0,1,1.74-1.84c1-.57,3.25-0.81,5.12-0.92a7.52,7.52,0,0,1,3.17.51,18.82,18.82,0,0,1,1.94.51c0.72,0.36,1,1.15,1.53,1.84a17.92,17.92,0,0,0-.5,2.45c0,1,.76,1.75,1,2.56-0.37,1.54,0,1.92.92,2.75a3.28,3.28,0,0,1,1.12,1.23c0,0.61-1.06.94-1.23,1.64-0.11.46,0.13,1.25,0,1.94a10.78,10.78,0,0,0-.31,1.12,6.84,6.84,0,0,1,.2,1.43c-0.84,1.34-3.19,1.17-4.5,2,0.22,1.74-1.38,2.85-.71,4.09,0.14,0.26.34,0.23,0.31,0.21a6.77,6.77,0,0,1,1.43,2.25c0.3,0.55.72,0.94,0.92,1.43,0.36,0.92.25,2.07,0.72,3.17,0.26,0.61.8,0.92,1.12,1.53,0.71,1.36,1,3,1.63,4.5a73.21,73.21,0,0,1,3.58,11,20.09,20.09,0,0,0,.51,2.46c0.12,0.28.5,0.73,0.72,1.12s0.44,1,.62,1.23c0.69,0.86,2.28,1.35,3.37,2a16.56,16.56,0,0,1,1.43,1.23c0.55,0.45,1.21.75,1.64,1.12,1,0.85,1.66,2.12,2.55,2.66,0.74,0.45,1.51.46,2.15,0.92,0,0.52.77,0.83,0.82,1.43,0,0.28-.33.76-0.41,1.33,0,0.34.06,0.77,0,1a3.39,3.39,0,0,1-1.12,1.73,3.23,3.23,0,0,1-1.63-1,5.69,5.69,0,0,0-1.13-1.53c-1,.35-0.94,1.17-2,1.23-1.62.08-2.45-1.94-4-2.15-0.33,1.37.1,2.89,0.31,4.5,0.39,3.06,1.05,5.68,1.64,8.79,0.26,1.39.9,3.59,0.31,4.6-0.86,1.44-4.2.29-6.14,0.82a19,19,0,0,0-.41,6c0,0.78,0,1.57.1,2.26,0.07,0.46.32,0.88,0.41,1.33s0.15,1,.21,1.53c0.36,3.17,1,6.34,1.22,9.41a14.08,14.08,0,0,0,0,2c0.13,0.59.86,1.1,0.82,1.94s-1.08,1.39-1.13,2.35c-0.06,1.21,1.39,2.79,1.64,4.5,0.09,0.64-.12,1.32,0,2a24.27,24.27,0,0,0,1.33,3.07c0.49,1.34.47,2.64,0.92,3.48a5.93,5.93,0,0,0,1.53,1.33c2.26,2,2.57,6.15,3.78,9.2a25.83,25.83,0,0,1,.92,2.45,10.71,10.71,0,0,0,.21,1.23,7.3,7.3,0,0,0,1.74,1.94,17,17,0,0,0,4.6,2.86,9.76,9.76,0,0,0,3,.82c1.26,0.08,2-.49,3-0.2C532.49,320.54,533.8,321.38,533.7,322.19Z" transform="translate(-80.29 -128.22)"/><path class="cls-3" d="M475.84,188.07c0.15-1.07-.42-2.39.18-3.58,0.3-.48.6-1,0.89-1.45-0.57-1.74-5.9-4.11-8.64-4.6l-3,.13a7.87,7.87,0,0,0-5.79,4.94c-0.91,2.15.3,5.67-.15,7.6a1.73,1.73,0,0,1,0,1.14,8.43,8.43,0,0,0,1.54,3.93c-0.26,2.91-3.09,5.14-4.15,6.93-0.62,1-.83,2.57-1.54,3.93s-2,2.5-2.3,3.57c-1.11,4.13,0,7.4-.9,11.14a13.08,13.08,0,0,0-.12,1.84,9.62,9.62,0,0,1,0,2,11,11,0,0,1-.11,2.18c0.18,5-1.69,6.81-2.3,10.71-0.69,4.45.14,9.12-1.15,12.14a12.07,12.07,0,0,1-3.16,3.93,4.88,4.88,0,0,0-1.62-1.83l0.15,0c1.94-4,2.72-12.14,3.05-17.26,0.26-4,1.92-8.21,1.13-12.32-0.19-1-1-1.8-1.13-2.82-0.27-1.88.42-4,0-6s-2.42-4-3.78-6c-2.51-3.73-5.17-6.51-2.35-9.22a3.48,3.48,0,0,0,.94.25c2.58,0.14,1.17-3.39,2.12-3.77,0-1,.17-0.68.61-1.41a1.25,1.25,0,0,1-.09-1.11c0.7-.4,1.44-0.09,1.74-1-0.35-.85-0.71-1.71-1.06-2.56-0.07-.74.43-1,0.5-1.74,0.09-1.06-.54-2.33,0-3.53,0.27-.48.54-1,0.8-1.47-0.65-1.7-6-3.77-8.76-4.11l-2.9.27a7.66,7.66,0,0,0-5.43,5.14c-0.78,2.16.61,5.57,0.26,7.48a1.72,1.72,0,0,1,.1,1.13,9.68,9.68,0,0,0,1.07,2.89,18.13,18.13,0,0,1-1.52,5.78c-0.37.84-1.49,1.33-1.89,2.11-0.59,1.13-.52,2.84-1.14,4.23-0.8,1.82-2,3.11-2.27,4.58-1.43,9.53,2.1,21.48,3.91,27.2a3.29,3.29,0,0,1,.08.39c-1,1.81-3,3.38-4,5.49a12.71,12.71,0,0,0-.68,1.88,9.9,9.9,0,0,0-1.33-.17c-2.56-4.72-3.36-4-2.69-5.71,1.2-7.19,1.61-15.84-.77-22.14,2-4.42-1.08-8-3.45-11.07-1.66-2.19-4.68-4.55-3-7.71a3.89,3.89,0,0,0,1.12.21c2.62-.07.85-3.52,1.76-4-0.14-1,.11-0.7.49-1.48A1.29,1.29,0,0,1,415,194c0.67-.47,1.46-0.21,1.66-1.2l-1.33-2.5c-0.14-.73.35-1,0.34-1.8,0-1.08-.77-2.31-0.36-3.57,0.22-.52.44-1,0.66-1.55-0.83-1.65-6.46-3.3-9.25-3.42l-2.9.52a7.63,7.63,0,0,0-5,5.65c-0.58,2.25,1.15,5.57,1,7.54a1.78,1.78,0,0,1,.22,1.13,8.92,8.92,0,0,0,1.86,3.45,8.13,8.13,0,0,1-.51,2.69c-1.13,3-3.24,6.11-4.6,9.29-2.42,5.63-.22,11.95-0.76,18.93-0.24,3.1-1.16,6.06-1.45,8.9-1.12-.32-2.3-0.63-3.62-1,0.41-4.56,1.28-10.33.52-14-0.22-1-1-2-1.15-3.21-0.13-1,.22-2.44,0-3.57-0.57-2.85-2.49-4.94-3.84-6.43a12.77,12.77,0,0,1-.76-1.43c-2-2.69-4.2-5.26-1.15-7.5,0,0,.72-0.53,1.23-0.83a10.21,10.21,0,0,0,1.65.26c2.61-.17.7-3.55,1.59-4.05-0.18-1,.07-0.7.42-1.5a1.26,1.26,0,0,1-.24-1.1c0.64-.49,1.43-0.26,1.59-1.26-0.47-.82-1-1.63-1.43-2.45-0.18-.73.3-1,0.26-1.81-0.07-1.07-.88-2.28-0.52-3.55,0.2-.52.4-1,0.6-1.57-0.9-1.63-6.6-3.06-9.39-3.07l-2.88.63a7.58,7.58,0,0,0-4.74,5.83c-0.48,2.27,1.39,5.52,1.32,7.5a1.77,1.77,0,0,1,.27,1.12,12.21,12.21,0,0,0,.58,1.36c0.28,3-2,5.45-3,7.36-2.09,4.12-4.32,10.24-4.6,15-0.1,1.72.59,3.7,0.38,5s-1.51,2.36-1.91,3.57c-0.45,1.37-.7,3.3-1.16,5l-0.18.7a5.05,5.05,0,0,1-2.13-2.18c-0.42-1.5.82-3.43,0.76-5-0.1-3.17-2.44-6.47-1.43-9.64,0-.5-0.1-1-0.16-1.49A64.84,64.84,0,0,0,355.8,206c-1.6-1.91-2.37-4.14-.09-6.33,0,0,.07-0.2.11-0.34a4.37,4.37,0,0,0,1.1.36c2.6,0.27,1.37-3.37,2.35-3.71,0-1,.2-0.68.7-1.4a1.28,1.28,0,0,1,0-1.13c0.73-.38,1.47,0,1.82-1-0.31-.88-0.62-1.76-0.94-2.64,0-.75.49-0.94,0.61-1.74,0.14-1.07-.42-2.38.17-3.57,0.3-.48.6-1,0.89-1.45-0.57-1.74-5.89-4.11-8.64-4.6l-3,.13a7.88,7.88,0,0,0-5.78,4.94c-0.92,2.15.3,5.66-.15,7.59a1.76,1.76,0,0,1,0,1.14,8.38,8.38,0,0,0,1.53,3.93c-0.26,2.91-3.09,5.14-4.15,6.92-0.63,1-.83,2.58-1.54,3.92s-2,2.5-2.29,3.57c-1.11,4.13,0,7.39-.91,11.13a13.37,13.37,0,0,0-.12,1.84,9,9,0,0,1,0,2,10.78,10.78,0,0,1-.11,2.18c0.17,5-1.69,6.79-2.3,10.7-0.69,4.44.14,9.11-1.15,12.13a12.08,12.08,0,0,1-3.16,3.93,4.82,4.82,0,0,0-1.62-1.82l0.15,0c1.94-4,2.72-12.13,3.05-17.24,0.26-4,1.92-8.21,1.13-12.31-0.19-1-1-1.79-1.13-2.82a25.33,25.33,0,0,1,.13-4.14h0a1,1,0,0,0,0-.1,8.31,8.31,0,0,0-.06-1.26c0-.23,0-0.47,0-0.71s0.07-.63.1-0.95a57.1,57.1,0,0,0-5.07-7.77,3.49,3.49,0,0,1-.3-5.72l0.09-.26h0.19a3.52,3.52,0,0,0,.94.29,1.44,1.44,0,0,0,1.73-1.33,7.34,7.34,0,0,0,.43-2.23,0.44,0.44,0,0,1,.2-0.16,3.13,3.13,0,0,1,0-.52,0.43,0.43,0,0,1,.18-0.13c0-.09,0-0.16,0-0.24a2.62,2.62,0,0,0,.47-0.52,2.41,2.41,0,0,1-.1-0.27,2.31,2.31,0,0,0,.32-0.38,1.65,1.65,0,0,1-.14-0.52c0.69-.29,1.37,0,1.7-0.93l-0.07-.19a1.14,1.14,0,0,0,.3-0.47l-0.94-2.65a1.29,1.29,0,0,1,0-.16,2.3,2.3,0,0,0,.37-0.91h0a1.89,1.89,0,0,0,.23-0.67c0.12-.88-0.23-1.92,0-2.93,0.29-.47.59-0.95,0.88-1.42a1.51,1.51,0,0,0-.08-0.17l0.32-.52c-0.57-1.75-5.92-4.13-8.67-4.61l-3,.13a13.29,13.29,0,0,0-7.87,6.19c-0.78,2.15.61,5.56,0.26,7.47a1.76,1.76,0,0,1,.11,1.13,9.5,9.5,0,0,0,1.06,2.88,18.06,18.06,0,0,1-1.51,5.78c-0.37.84-1.48,1.33-1.89,2.11-0.59,1.12-.52,2.83-1.13,4.22-0.05.12-.11,0.22-0.17,0.34a6.76,6.76,0,0,0-1.26,2c0,0.1,0,.21-0.07.31a5.5,5.5,0,0,0-.76,1.89,38,38,0,0,0-.12,9c0,0.17-.07.35-0.11,0.53a13.16,13.16,0,0,0-.12,1.84,9.58,9.58,0,0,1,0,2,10.94,10.94,0,0,1-.11,2.18,15,15,0,0,1-.52,4.65c-0.4,1.31-.9,2.48-1.27,3.86a15.93,15.93,0,0,0-.51,2.2,48.52,48.52,0,0,0-.35,6.61c-1.66-2.63-2.14-2.38-1.58-3.81a58,58,0,0,0,.67-15.95,12.69,12.69,0,0,0-.2-2.73,5,5,0,0,0-.59-1.43c-0.17-.63-0.36-1.24-0.58-1.83,0-.1,0-0.19,0-0.29a7,7,0,0,0-.14-5.93,9.36,9.36,0,0,0-1.1-2c-0.7-1.07-1.5-2.08-2.24-3l-0.13-.16-0.12-.17a33.56,33.56,0,0,1-3.21-5.06,3.77,3.77,0,0,1,.47-2.31,4.19,4.19,0,0,0,1.12.21c1.34,0,1.53-1,1.52-1.92a2.78,2.78,0,0,0,.22-0.89,8.36,8.36,0,0,0,.2-1.86,0.5,0.5,0,0,1,.25-0.3,3.63,3.63,0,0,1,0-.41l0.05-.09,0-.06h0a0.4,0.4,0,0,1,.11-0.08c0-.07,0-0.11,0-0.17a3.33,3.33,0,0,0,.48-0.6,1.86,1.86,0,0,1-.12-0.31l0.17-.22a1,1,0,0,0,.85-0.87h0a1,1,0,0,0,.76-0.74l-0.1-.23a1.14,1.14,0,0,0,.23-0.43c-0.35-.86-0.71-1.71-1.06-2.57,0,0,0,0,0,0a2.58,2.58,0,0,0,.36-1s0-.08,0-0.13a1.73,1.73,0,0,0,.14-0.55c0.06-.8-0.28-1.72-0.22-2.64,0-.07,0-0.14.07-0.21,0.27-.48.54-1,0.8-1.47a1.48,1.48,0,0,0-.12-0.22l0.26-.47c-0.65-1.7-6-3.78-8.78-4.12l-2.91.27a7.44,7.44,0,0,0-4.85,3.84,8.16,8.16,0,0,0-2.37,4.1c-0.58,2.25,1.15,5.57,1,7.53a1.72,1.72,0,0,1,.22,1.13,9.55,9.55,0,0,0,1.5,3,22.37,22.37,0,0,1-1,2.9c-0.37.84-1.49,1.34-1.9,2.12-0.59,1.13-.52,2.85-1.14,4.24-0.81,1.83-2.05,3.12-2.27,4.59-0.09.62-.16,1.24-0.21,1.88a50.42,50.42,0,0,0,1.08,14.71c0,0.3,0,.6,0,0.9-0.24,3.09-1.16,6.05-1.45,8.89-1.1-.32-2.26-0.62-3.55-1l0-.19c0.15-1.3.26-2.61,0.33-3.94,0.36-3.56.65-7.26,0.11-9.88-0.22-1-1-2-1.15-3.21-0.13-1,.22-2.43,0-3.56,0.29-3.39-2.12-6.25-4.07-8.8-1-1.33-2.51-2.72-3.16-4.31a3.21,3.21,0,0,1,1.49-2.24s0.72-.52,1.23-0.83a10.37,10.37,0,0,0,1.65.26c2.61-.17.7-3.55,1.59-4-0.19-1,.07-0.7.42-1.5a1.26,1.26,0,0,1-.24-1.1c0.65-.49,1.43-0.26,1.59-1.26-0.47-.81-0.95-1.63-1.43-2.44-0.17-.73.3-1,0.25-1.81-0.06-1.08-.87-2.28-0.51-3.55,0.2-.52.4-1,0.6-1.57-0.63-1.14-3.64-2.19-6.34-2.71a21.47,21.47,0,0,0-5.25-1.1l-2.91.52a7.65,7.65,0,0,0-5,5.67,4.63,4.63,0,0,0-.1,1.47c-0.11,2.19,1.24,5,1.1,6.75a1.78,1.78,0,0,1,.22,1.13,9,9,0,0,0,1.83,3.4,8.06,8.06,0,0,1-.48,2.1c-1.13,3-3.25,6.13-4.62,9.32a18,18,0,0,0-1.14,7.93c0,2.24.3,4.57,0.42,7a27.38,27.38,0,0,0-1.65,2.79c-0.45,1.37-.7,3.29-1.16,5s-0.77,3.05-1.09,4.56l-1.15-.3c0.35-3.71.94-8.11,0.72-11.52a15.68,15.68,0,0,0-.28-2.54c-0.22-1-1-2-1.15-3.19a25.12,25.12,0,0,0,.07-2.72,4.69,4.69,0,0,0-.08-0.9c-0.57-2.85-2.49-5-3.85-6.45a12.83,12.83,0,0,1-.76-1.43c-1.14-1.51-2.32-3-2.61-4.39a3.09,3.09,0,0,1,1.5-2.5s0.72-.53,1.23-0.83a10.22,10.22,0,0,0,1.65.26c1.54-.1,1.51-1.31,1.4-2.39,0-.32,0-0.65-0.07-1a0.75,0.75,0,0,1,.26-0.7,2.14,2.14,0,0,1,0-.64h0v0c0.05-.25.24-0.3,0.47-0.82a1.91,1.91,0,0,1-.19-0.36,2.29,2.29,0,0,0,.15-0.3,1.81,1.81,0,0,1-.21-0.41s0,0,0,0c0.64-.49,1.43-0.26,1.59-1.26l-0.16-.27a1.22,1.22,0,0,0,.13-0.39c-0.46-.8-0.93-1.6-1.4-2.39a3.39,3.39,0,0,0,.26-1.2,2.92,2.92,0,0,0,0-.35,1.72,1.72,0,0,0,0-.32c0-.74-0.44-1.54-0.56-2.38a2.43,2.43,0,0,1,.08-0.5c0.2-.52.4-1,0.6-1.57a1.56,1.56,0,0,0-.2-0.27l0.16-.42c-0.9-1.63-6.62-3.07-9.42-3.08l-2.89.63a7.61,7.61,0,0,0-4.75,5.85,5.23,5.23,0,0,0,0,2c0.14,1.71,1,3.67,1.28,5.23,0,0.12,0,.23,0,0.34l0.06,0.12a3.84,3.84,0,0,1,0,.54,2.11,2.11,0,0,1,.18.41s0,0,0,.06l0.05,0.14a1.85,1.85,0,0,1,0,.52,11.92,11.92,0,0,0,.52,1.23c0,2.81-2.09,5.06-3,6.86-2.09,4.13-4.34,10.27-4.62,15-0.1,1.73.59,3.71,0.38,5s-1.52,2.37-1.92,3.58c-0.45,1.38-.7,3.31-1.16,5l-0.18.7a5.69,5.69,0,0,1-2.07-2c-0.16-1.44.87-3.18,0.82-4.62a9.46,9.46,0,0,0-.27-1.85c-0.28-1.5-.89-3-1.25-4.54a6.51,6.51,0,0,1,.09-3.25c0-.5-0.1-1-0.16-1.49l-0.07-.13c0-.15,0-0.31-0.05-0.47a65.07,65.07,0,0,0-5.7-8.87,6.89,6.89,0,0,1-1.33-2.25,3.84,3.84,0,0,1,1.38-3.46s0.07-.2.11-0.34a4.37,4.37,0,0,0,1.1.36c2.6,0.27,1.37-3.37,2.35-3.71,0-1,.2-0.68.7-1.4a1.43,1.43,0,0,1-.14-0.64h0v0a1.5,1.5,0,0,1,.1-0.45c0.73-.38,1.47,0,1.82-1l-0.19-.53a1.35,1.35,0,0,0,.07-0.13c-0.26-.75-0.53-1.5-0.8-2.25,0.09-.54.49-0.78,0.59-1.46,0.14-1.07-.42-2.38.18-3.57,0.3-.48.6-1,0.89-1.45a1.76,1.76,0,0,0-.26-0.46l0.14-.23c-0.57-1.75-5.91-4.12-8.66-4.61l-3,.13a7.9,7.9,0,0,0-5.8,5c-0.92,2.15.3,5.68-.15,7.61a1.76,1.76,0,0,1,0,1.14,11.17,11.17,0,0,0,.33,1.46,8.07,8.07,0,0,0,1.16,2.81c-0.43,2.77-3.09,4.91-4.12,6.62-0.63,1-.84,2.58-1.55,3.94s-2,2.5-2.3,3.58c-1.11,4.14,0,7.41-.91,11.16a13.4,13.4,0,0,0-.12,1.85,9,9,0,0,1,0,2,10.79,10.79,0,0,1-.11,2.19c0.17,5-1.7,6.82-2.31,10.74-0.7,4.46.14,9.14-1.16,12.17a12.12,12.12,0,0,1-3.17,3.94,5.42,5.42,0,0,0-1.18-1.5c1.88-4,2.65-12,3-17.08,0.26-4,1.92-8.21,1.13-12.31a3.3,3.3,0,0,0-.27-0.79,11.57,11.57,0,0,0-.79-1.72,2.45,2.45,0,0,1-.07-0.31c-0.27-1.88.42-4,0-6a4.94,4.94,0,0,0-.31-0.92c-0.56-1.87-2.4-3.74-3.69-5.67a36.24,36.24,0,0,1-3.15-4.93,3.32,3.32,0,0,1,1-3.67,3.3,3.3,0,0,0,.94.25c2.57,0.14,1.17-3.39,2.12-3.77,0-1,.16-0.67.6-1.41a1.29,1.29,0,0,1-.09-1.11c0.7-.4,1.45-0.09,1.73-1l-0.25-.59,0-.07c-0.28-.68-0.56-1.36-0.84-2,0-.62.44-0.86,0.5-1.59,0.08-1.06-.54-2.33,0-3.53,0.27-.48.54-1,0.8-1.47a1.82,1.82,0,0,0-.32-0.49l0.11-.2c-0.65-1.7-6-3.78-8.78-4.12l-2.91.27a7.69,7.69,0,0,0-5.44,5.15c-0.78,2.16.61,5.57,0.27,7.49a1.76,1.76,0,0,1,.11,1.13,10.29,10.29,0,0,0,.67,2.11,8.79,8.79,0,0,0,.39.91,18.56,18.56,0,0,1-1.51,5.66c-0.37.84-1.49,1.34-1.89,2.11-0.59,1.13-.52,2.84-1.14,4.23-0.81,1.82-2.05,3.12-2.27,4.59-1.43,9.55,2.1,21.53,3.92,27.26a2.58,2.58,0,0,1,.08.39c-1,1.81-3,3.39-4,5.51a12.52,12.52,0,0,0-.68,1.89,10.62,10.62,0,0,0-1.32-.18l-0.47-.81a29.53,29.53,0,0,0-2.09-3.15,1.53,1.53,0,0,1,.14-1.25c1.2-7.18,1.61-15.82-.77-22.13a7.31,7.31,0,0,0-.51-6.85,28.38,28.38,0,0,0-3.25-4.82,38.6,38.6,0,0,1-2.77-3.52,3.79,3.79,0,0,1,.1-3.57,4.19,4.19,0,0,0,1.12.21c2.61-.07.84-3.52,1.77-4-0.14-1,.1-0.69.48-1.48a1.29,1.29,0,0,1-.2-1.12c0.67-.46,1.46-0.21,1.65-1.2l-0.32-.61,0-.05-1-1.94c-0.08-.66.35-0.93,0.35-1.69,0-1.07-.77-2.31-0.36-3.56,0.22-.52.45-1,0.66-1.55a1.91,1.91,0,0,0-.39-0.49l0.08-.2c-0.83-1.66-6.48-3.31-9.27-3.43l-2.91.52a7.65,7.65,0,0,0-5,5.66c-0.58,2.25,1.16,5.59,1,7.55a1.73,1.73,0,0,1,.22,1.14,10.54,10.54,0,0,0,1,2.25,8.1,8.1,0,0,0,.86,1.4,8.16,8.16,0,0,1-.5,2.51c-1.13,3-3.24,6.12-4.61,9.3-2.43,5.65-.22,12-0.77,19-0.24,3.1-1.17,6.07-1.45,8.92-1-.29-2-0.57-3.2-0.87,0.42-4.49,1.22-10,.48-13.57-0.22-1-1-2-1.15-3.21-0.13-1,.22-2.44,0-3.57a10.39,10.39,0,0,0-1.77-3.92,21.28,21.28,0,0,0-2.39-3,5.64,5.64,0,0,0-.44-0.91l-0.23-.3a1.89,1.89,0,0,0-.18-0.31c-0.47-.63-0.95-1.24-1.37-1.85-1.1-1.79-1.48-3.49.61-5,0,0,.72-0.52,1.23-0.83a10.37,10.37,0,0,0,1.65.26c2.61-.17.7-3.55,1.59-4-0.19-1,.07-0.7.42-1.5a1.26,1.26,0,0,1-.24-1.1c0.65-.49,1.43-0.26,1.59-1.26l-0.39-.66h0l-1-1.78c-0.17-.73.3-1,0.26-1.8-0.06-1.08-.87-2.28-0.51-3.55,0.2-.52.4-1,0.6-1.57a2,2,0,0,0-.46-0.51l0.07-.18c-0.9-1.63-6.61-3.06-9.42-3.08l-2.89.63a7.59,7.59,0,0,0-4.74,5.84c-0.49,2.27,1.4,5.53,1.32,7.51a1.72,1.72,0,0,1,.27,1.12,12.23,12.23,0,0,0,.59,1.36c0.28,3.06-2,5.47-3,7.37-2.09,4.13-4.33,10.27-4.62,15-0.1,1.72.6,3.7,0.38,5s-1.52,2.36-1.92,3.58-0.7,3.3-1.16,5c-1,3.59-1.56,6.68-2.3,10.74-0.4,2.17-2,6.72-2,8.26,0,1.19,1.53,0,1.27,1-0.51,2-3.75,4.75-4.68,7.52a4,4,0,0,0-1.71,2.67c-0.9.45-1,1.36-1.53,2.07-3.9-.34-7.26-1.45-11.62-1.12-1.09,6-2,12-2.88,18.11-0.3,2-.89,4.13-0.45,6.32,2.13,1,4.86,1,7.44,1.32s5.37,0.71,8.09,1.08A49.18,49.18,0,0,0,90,299.15c-0.48.77-3.1,6.93-3.83,8-0.12.19,1.14,0.61,1,.79a14.55,14.55,0,0,0-1,1.9c-1.54,2.78-4.68,4.4-3.2,7.94,2.75,1.81,9.75,2.1,9.4,5.22,0.06,0.24.12,0.48,0.17,0.74a1,1,0,0,0,.54.71,1.38,1.38,0,0,1,.36,0c2.16,0.21,4.33.33,6.5,0.57a5.91,5.91,0,0,0,2.92,0,2.9,2.9,0,0,0,.25-1h0c-0.4-2.23-2.59-1.85-4.69-2.68-1.22-2.95-5.32-6.61-4.74-10.09,0.19-1.11,1.67.33,1.67,0.33,0.41-1.33,2.37-3.61,3.5-4.78s1.1-3.77,2.65-5.14,2.61-3.23,4.08-3.56c0.55-.62,1.1-1.23,1.62-1.86a22.78,22.78,0,0,1,2.29-4.36c0.45,0.05.89,0.08,1.33,0.1v0.32l0.67,0c0.41,0,.8-0.14,1.19-0.13,1.92,0.05,4.79,1.53,6.2-.61,0.56-.85.69-3.1,0.83-4.74,3.1,1.19,6.22,2.42,9.35,3.63,1.09,0.42,2.18.92,3.26,1.39a8.48,8.48,0,0,0-2.44,3.69,27.09,27.09,0,0,0-5.23,2.87c-0.43.35,0.45,1.12-.15,1.43-2.32,1.18-6,1.1-6.53,3.58-0.59,2.71,2.71,5.45,3.84,8.23,1.24,3.06,1.29,5.63,3.7,7.06a5.09,5.09,0,0,0,.55.36h5a3.26,3.26,0,0,0-.44-2.32c0.73-.21,1.34-0.77,2.09-1l1.14,1.37a6.67,6.67,0,0,1,.9,1.17,5,5,0,0,0,1.85,2c0.16,0.12.34,0.24,0.52,0.35,0,0.18-.1.37-0.12,0.57a4,4,0,0,0,1.68,3.85,2.55,2.55,0,0,0,.84.46,3.94,3.94,0,0,0,4.55-1.21l0.52,0.36c4.33,0,8.62.12,13,.09h0.37a23.45,23.45,0,0,0,3.34-.86h0a2.66,2.66,0,0,0,.26.16l0,0.1a5.49,5.49,0,0,0,1.36.67c6.47,0,13.11-.09,19.77-0.17a1.7,1.7,0,0,0,.16-0.71,1.6,1.6,0,0,0-.07-0.27h0a3.54,3.54,0,0,0-.61-1.07,1.2,1.2,0,0,1,.5.19,0.89,0.89,0,0,1,.1.21l0.19,0.17a0.86,0.86,0,0,1,0,.09l0.3,0.26,1.39,0.41a13.35,13.35,0,0,0,2.26.47h1.15a2.53,2.53,0,0,0,.36.16,4,4,0,0,0,4-.64c0.34-.1.67-0.22,1-0.35l0.21-.25h0c0.2-.6.49-1,0.58-1.36l1-.9c1.86-.13,3.38.06,4.25,1.16a3.1,3.1,0,0,1,.25.46h0l0.05,0.07a2.75,2.75,0,0,1,.15.25h0a2.85,2.85,0,0,1,.15.24l0.33,0.15c0.88,0.46,1.29,1,1.82,1.17a3,3,0,0,0,.87-0.13h0.23a2,2,0,0,1,.35-0.06l0.18,0a6.85,6.85,0,0,0,.95-0.25l0.69-.28a5.5,5.5,0,0,0,.71-0.42l0.26-.18,0.11-.08,0.22-.17h0a0.72,0.72,0,0,1,.28-0.44,1.64,1.64,0,0,1,0,.6c0.07,0.24.12,0.49,0.17,0.74a1.07,1.07,0,0,0,.23.46,1,1,0,0,0,.47.5,1.34,1.34,0,0,1,.36,0c2.15,0.22,4.32.33,6.48,0.57a5.93,5.93,0,0,0,2.92,0,3,3,0,0,0,.25-1h0a2.5,2.5,0,0,0-.3-0.83c-0.66-1.58-2.61-1.36-4.5-2.1-0.08-.17-0.16-0.34-0.26-0.52-0.84-1.67-2.42-3.54-3.48-5.47a6.17,6.17,0,0,1-.87-3.83c0.19-1.11,1.67.33,1.67,0.33,0.42-1.33,2.37-3.61,3.49-4.77s1.1-3.76,2.65-5.13,2.6-3.21,4.07-3.56l0.52-.6a34.7,34.7,0,0,1,1.8,6.93c0.5,4.85-1.28,9.11,0,13.6l0.05,0c0,0.08,0,.15.06,0.23,1.58,1.48,3.41,1,5.39.17,3.19,1.17,7.93,1.81,7.64,4.39,0.06,0.24.12,0.48,0.17,0.74a1,1,0,0,0,.54.71,1.35,1.35,0,0,1,.36,0c2.15,0.21,4.32.32,6.48,0.57a5.89,5.89,0,0,0,2.91,0,2.89,2.89,0,0,0,.25-1h0c-0.34-1.88-2-1.9-3.72-2.37a2.49,2.49,0,0,1,.25-0.28c1.22-1.12,2.45-2.22,3.68-3.33s2.64-2.53,3.9-3.86c1.1-1.16,2.27-2.24,3.48-3.28,0.33,1.1.66,2.2,1,3.28,0.24,0.81,1.36,1.48,1.47,2.3a9.93,9.93,0,0,1,.09,1.17c0,0.72,0,1.45,0,2.17a6.23,6.23,0,0,0,1,3.72c0.14,0.17.28,0.33,0.42,0.49s0.55,0.39.84,0.57c4.13,0,8.22.1,12.36,0.08,0-.08,0-0.17-0.07-0.25h0.11a9.22,9.22,0,0,1-.34-1.56,9,9,0,0,1-1.49-1.9,6.4,6.4,0,0,1-2.56,0,4.49,4.49,0,0,1-1.05-.34c-1.26-.58-3.31-2.1-3.12-5.72V315h0s0-.09,0-0.13v-0.14c-0.17-.21-0.3-0.4-0.4-0.54l-0.09-.12a4.48,4.48,0,0,1-1.16-3,4.61,4.61,0,0,1,1.11-3,3.76,3.76,0,0,0,.31-0.43,29.41,29.41,0,0,1,2.63,4.24c1.26,3.11,1.28,5.72,3.83,7.13h5a3.26,3.26,0,0,0-.44-2.32c0.78-.22,1.4-0.84,2.21-1,0.45,0.55.93,1.11,1.39,1.68a6.65,6.65,0,0,1,.9,1.17,5.37,5.37,0,0,0,2.36,2.3c0,0.19-.1.39-0.13,0.6-0.19,1.41.43,3.53,2.14,4.05a3.94,3.94,0,0,0,4.55-1.21l0.52,0.36c4.33,0,8.62.12,13,.09h0.37a24.78,24.78,0,0,0,3.52-.91c0,0.11.09,0.22,0.13,0.33a5.5,5.5,0,0,0,1.36.67c6.47,0,13.1-.09,19.77-0.17a1.71,1.71,0,0,0,.16-0.71,1.6,1.6,0,0,0-.07-0.27h0a3.53,3.53,0,0,0-.61-1.07,0.92,0.92,0,0,1,.83.65l0.3,0.26,1.39,0.41a13.34,13.34,0,0,0,2.26.47H331a2.52,2.52,0,0,0,.36.16,4,4,0,0,0,4-.64c0.34-.1.67-0.22,1-0.35l0.21-.25h0c0.2-.6.49-1,0.58-1.36l1-.9c2.21-.16,4,0.13,4.67,1.88h0l0.05,0.07a2.81,2.81,0,0,1,.15.24l0.33,0.15c0.88,0.46,1.29,1,1.82,1.17a3,3,0,0,0,.87-0.13h0.23a2,2,0,0,1,.35-0.06l0.18,0a6.83,6.83,0,0,0,.95-0.25l0.69-.28a5.48,5.48,0,0,0,.71-0.42l0.26-.18,0.11-.08,0.21-.17h0a0.76,0.76,0,0,1,.34-0.5,1.71,1.71,0,0,1,.15.91c0.07,0.24.12,0.48,0.17,0.74a1,1,0,0,0,.54.71,1.34,1.34,0,0,1,.36,0c2.15,0.22,4.32.33,6.48,0.57a5.93,5.93,0,0,0,2.92,0,3,3,0,0,0,.25-1h0c-0.4-2.22-2.58-1.85-4.68-2.68-1.22-2.94-5.3-6.6-4.73-10.07,0.19-1.11,1.67.33,1.67,0.33,0.42-1.33,2.37-3.61,3.49-4.77s1.1-3.76,2.65-5.13,2.6-3.21,4.07-3.56l0.52-.6a37,37,0,0,1,1.9,7.25c0.5,4.84-1.27,9.08,0,13.56,2.75,2.56,6.22-.82,10-1.43l0.58-.08a5.51,5.51,0,0,0,2.24,2.1c0,0.19-.1.39-0.13,0.6-0.19,1.41.43,3.53,2.14,4.05a4,4,0,0,0,4.82-1.54,5,5,0,0,1,.65-0.83c1.22-1.12,2.45-2.22,3.68-3.33s2.64-2.53,3.9-3.86c1.1-1.16,2.27-2.24,3.48-3.28,0.33,1.1.66,2.2,1,3.28,0.24,0.81,1.36,1.48,1.47,2.3,0.34,2.32-.44,4.92,1.1,7.07,0.14,0.17.28,0.33,0.42,0.49s0.55,0.39.84,0.57c4.12,0,8.22.1,12.36,0.08a9.19,9.19,0,0,1-.34-1.55,9,9,0,0,1-1.49-1.89,6.36,6.36,0,0,1-2.55,0,4.46,4.46,0,0,1-1-.34c-1.29-.6-3.41-2.16-3.1-6,0,0,0-.09,0-0.14-0.17-.21-0.3-0.4-0.4-0.54l-0.09-.12a4.46,4.46,0,0,1-1.16-3.21,4.62,4.62,0,0,1,1.12-3.07,4.15,4.15,0,0,0,.36-0.52c-0.25-1.2-.48-2.43-0.65-3.61l6.07-5.66,2.45-2.27c0,0.12.06,0.23,0.09,0.35q1.29-1.46,2.61-2.85,1.8-1.68,3.57-3.39a4.26,4.26,0,0,0,.43-0.52c0.8-.72,1.61-1.43,2.4-2.11l1-.9,2.13-1.82,1.19-1a9.39,9.39,0,0,1,1.38-1.83l0.16-.32a31.42,31.42,0,0,1,5.26-7.1,6.25,6.25,0,0,1,2.7-1.74,4.5,4.5,0,0,1,2.5-2.49,10.33,10.33,0,0,1,3.92-.92,7.15,7.15,0,0,1,2,.27,6.88,6.88,0,0,1,1.29-.12,7.57,7.57,0,0,1,1.21.1l0.59,0c0.39,0,.89-0.08,1.44-0.08,0.33,0,.64,0,0.95,0a4.47,4.47,0,0,1,1.74.55l0.09,0a8,8,0,0,1,3.5,3.41,7.65,7.65,0,0,0,4,2.25l0.75,0.59,0.42-.42,3.48-3.51c0.82-1.33,1.53-2.62,1.35-4-0.28-2.28.78-2,2.85-.2l0.43-.44,0.07-.07a7.07,7.07,0,0,1,2.1-1.56l0.33-.33,2.43-2.41a6.62,6.62,0,0,1-1.06-.61,4.47,4.47,0,0,1-1.86-4.2c0.28-2.28.73-4.61,1.17-6.87a74.5,74.5,0,0,0,1.36-8.94,8.21,8.21,0,0,0-.17-1.87,16.57,16.57,0,0,1-.25-2.34,15.54,15.54,0,0,1,.33-3.12,9.29,9.29,0,0,0,.19-1.34,7.18,7.18,0,0,0-.17-1,11.26,11.26,0,0,1-.33-3.44,10.54,10.54,0,0,1,.87-3.14l0.16-.41a7.4,7.4,0,0,1-.22-1.21,17.1,17.1,0,0,1,.12-3.45c0-.17,0-0.34,0-0.52a14.1,14.1,0,0,1,.38-2.46,6.81,6.81,0,0,1,.84-1.85c0-.12,0-0.24,0-0.34a12.55,12.55,0,0,1,0-1.73c0-.33.07-0.63,0.1-0.94a57,57,0,0,0-5.06-7.74c-1.6-1.91-2.37-4.14-.09-6.34,0,0,.07-0.21.11-0.33a4.3,4.3,0,0,0,1.1.36c2.6,0.27,1.37-3.38,2.35-3.71,0-1,.2-0.68.7-1.41a1.28,1.28,0,0,1,0-1.13c0.73-.37,1.47,0,1.82-1l-0.93-2.64C475.21,189.06,475.73,188.86,475.84,188.07ZM96.93,262.78a1.24,1.24,0,0,1,1.65.4A1.08,1.08,0,0,1,96.93,262.78Zm2,0.85L98.55,262c0.13-.15.28-0.33,0.45-0.5a3.81,3.81,0,0,0,1,1.76,2.81,2.81,0,0,0,.89.61A15.49,15.49,0,0,1,98.91,263.63Zm210-.26-0.9-.09a6.17,6.17,0,0,0-.83-1.78,24.76,24.76,0,0,0,2.41-4.18,5.92,5.92,0,0,0,1,.26,13.17,13.17,0,0,0-.86,2.22A21.33,21.33,0,0,0,308.92,263.37Zm-4.26-11.69,0,0s0-.05,0-0.08Zm-26.06,4.19-0.29.25-0.58-1.2A8.72,8.72,0,0,0,278.6,255.87Zm1.64-11.44c0,0.59.07,1.17,0.1,1.75-0.06.19-.13,0.38-0.18,0.56a10,10,0,0,0-1.34-.17,29,29,0,0,0-1.8-2.95C278.1,243.84,279.18,244.1,280.24,244.42Zm-33.85,1.86a8.92,8.92,0,0,1,.33-3l1.18,0.24c-0.28,1.23-.8,2.94-1.24,4.49A13.69,13.69,0,0,1,246.39,246.28Zm4.68,7.48a0.35,0.35,0,0,1,.33-0.28c-0.08.32-.16,0.64-0.26,0.95l-0.08.07C251.06,254.26,251.05,254,251.07,253.76Zm-28.62.07c0-.49,1.29-0.2,1.38-0.67a49.34,49.34,0,0,1,2.14-8,32.22,32.22,0,0,0-.94,7.48,2.24,2.24,0,0,0,.11.5c0.1,1,1,2.07,1.4,3.24,0,0.07,0,.13,0,0.2a15.75,15.75,0,0,1-.91,4.34,20.46,20.46,0,0,0-3.17-4.47A20.36,20.36,0,0,1,222.45,253.83Zm7.87,47.6-0.07.1c0.22-2.83.73-5.81,1.07-8.76a2.45,2.45,0,0,0,1.92-1.12,6.14,6.14,0,0,0,.6-2.28l6.09,0.82c-0.95,1.09-1.81,2.16-2.66,3.32A92.18,92.18,0,0,0,230.32,301.43ZM218.48,252l-0.05.13-0.14-.16A0.69,0.69,0,0,1,218.48,252Zm0.78-9.35c-0.39,2.14-2,6.57-2,8.18-0.5-.55-1-1.11-1.48-1.67,0.7-1.52.93-5.92,1.71-7.14a12.12,12.12,0,0,1,1.85.39Zm-26.65,19.07a24.24,24.24,0,0,0,3-5.43,14.38,14.38,0,0,0,.45-1.51c0.05,0.69.1,1.39,0.12,2.12a18.46,18.46,0,0,0-2.07,7.46,2.2,2.2,0,0,0-.57-0.28A9.48,9.48,0,0,0,192.61,261.69Zm-0.95,1.14c0,0.27-.07.55-0.13,0.85l-0.7,0A10.06,10.06,0,0,0,191.67,262.83Zm-29-9.07c1.29,2.21,3.57,4,6.28,3.88l0,0.3-0.19,0q-1.27,2.55-2.49,5.09l-1.7-.17c-1-3.92-2.84-7.11-2.85-10.79A9.34,9.34,0,0,0,162.62,253.76Zm6,59.94c-1.86-3.3-1.91-7.13-1.74-10.92l3.08-2.87,2.36-2.18c-0.27,4.55,2.2,9.51,2.54,12.31,0.37,3.07-.51,5.8-1.08,8.55a16.19,16.19,0,0,1-3.59-2.77A11.62,11.62,0,0,1,168.6,313.7ZM187.69,293q-0.06.76-.07,1.54c-1.88,1.93-3.66,4-5.36,6a64.48,64.48,0,0,0,1.67-8.71,20.26,20.26,0,0,0,2.56,1C186.89,292.89,187.31,292.84,187.69,293Zm-55.3-49.7c1.52,0.31,3.06.64,4.57,1.08,0.22,3.66.47,7.07-.52,10-0.41.42-.87,0.81-1.33,1.2C133.11,251.45,131.24,247.09,132.38,243.25ZM141,261.66l-0.06-.07c0-.11,0-0.22.06-0.34a25.94,25.94,0,0,0-.3-7c1.28,2.39,3.18,4.35,3.78,6.57s0.26,4.39.46,6.72l-2.42-1A6.37,6.37,0,0,0,141,261.66Zm-0.74,1.84c-0.07.57-.21,1.2-0.26,1.88-0.3-.11-0.6-0.21-0.91-0.3A7,7,0,0,0,140.28,263.5Zm19.31,52.69a1.78,1.78,0,0,1,.21.25l0.13,0.06a1.72,1.72,0,0,1,.18.21l1,0.5c-0.11,1.23-.24,2.41-0.24,3.6a25.33,25.33,0,0,1-9.06-4.08l0.76-.78a47.91,47.91,0,0,1,4.62-4.24A35.88,35.88,0,0,1,159.6,316.19Zm-53.68-52.07a4.9,4.9,0,0,0,1.7-2.63,20.43,20.43,0,0,1,.46,2.8C107.38,264.2,106.65,264.15,105.92,264.12Zm1.91-3.86c0.19-2.13-.32-4.58-0.17-7,0-.49,1.3-0.21,1.38-0.67a55.69,55.69,0,0,1,1.79-7.18v1.95h0a23.71,23.71,0,0,0-.49,5.19c0.09,1.2,1.45,2.49,1.54,3.94s-1,4.42-1.7,7.23A6.57,6.57,0,0,0,107.84,260.26Zm23,44.2q-0.6.82-1.12,1.69c0.07-.38.14-0.72,0.22-1,0.2-.79.53-0.89,0.87-0.71Zm-1.52,8.17,0.12,0,0.67,0.58-0.61.8Q129.36,313.35,129.3,312.63Zm143.25,2c0-.08-0.06-0.17-0.08-0.25a14.44,14.44,0,0,1-.23-1.78l0.16,0a0.6,0.6,0,0,1,.25.19l0.77,0.67Zm0.17-7.68-0.31.61a22.72,22.72,0,0,1,.45-2.45c0.29-1.14.85-.85,1.3-0.36A18.86,18.86,0,0,0,272.72,307Zm0.52-11.12a27,27,0,0,0-5.22,2.86c-0.43.35,0.45,1.12-.15,1.42a15.8,15.8,0,0,1-2.82,1l3-2.79,2.45-2.27c0,0.12.06,0.23,0.09,0.35q1.29-1.46,2.61-2.85c0.64-.59,1.26-1.2,1.89-1.8l0.7,0.31A8.79,8.79,0,0,0,273.24,295.86Zm30.86,25.23a25.27,25.27,0,0,1-9.39-4.31l0.78-.81a48.16,48.16,0,0,1,4.71-4.31,39.58,39.58,0,0,1,2.64,4.82,1.79,1.79,0,0,1,.21.25l1.3,0.66C304.23,318.64,304.1,319.86,304.09,321.09ZM317,318.85a14.5,14.5,0,0,1-5.41-5.16c-1.86-3.3-1.91-7.13-1.74-10.92l3.08-2.87,2.67-2.47c-0.56,4.7,2.13,10,2.48,12.9S317.52,316.11,317,318.85Zm13.82-24c-2,2.08-3.94,4.27-5.76,6.54a75.3,75.3,0,0,0,1.86-9.55,20.26,20.26,0,0,0,2.56,1c0.39,0.11.81,0.06,1.19,0.17l0.24,0.08C330.8,293.62,330.78,294.23,330.77,294.84Zm3.91-30.72-1.42-.08a9.37,9.37,0,0,0,1.55-1.43A4.88,4.88,0,0,1,334.68,264.12Zm2.59,0.65a2.29,2.29,0,0,0-.68-0.33,6.19,6.19,0,0,0-1.07-2.7,24.23,24.23,0,0,0,3.05-5.48,15.61,15.61,0,0,0,.57-2c0.08,1,.16,2,0.19,3.05A18.4,18.4,0,0,0,337.27,264.77Zm24.29-12.37c0,0.05,0,.11-0.07.16l-0.57-.62C361.3,251.94,361.69,251.85,361.56,252.41Zm0.77-9.29c-0.39,2.14-2,6.55-2,8.15-0.59-.65-1.18-1.3-1.73-2h0c0.78-1.3,1-6.06,1.8-7.33a12.51,12.51,0,0,1,2.05.44Zm6.38,18.26a20.66,20.66,0,0,0-3.24-4.56,22.15,22.15,0,0,1-.06-3c0-.49,1.29-0.2,1.38-0.67a46.57,46.57,0,0,1,2.36-8.62h0.12c-0.68,3-1.33,6.63-1.18,8.56,0.1,1.2,1.45,2.49,1.53,3.93A15.71,15.71,0,0,1,368.7,261.37ZM382.12,292a90.12,90.12,0,0,0-8.78,9.74l-0.21.27c0.2-3,.76-6.13,1.12-9.25a2.45,2.45,0,0,0,1.92-1.12c0.56-.85.7-3.1,0.83-4.74l7.54,2.93C383.72,290.55,382.91,291.27,382.12,292Zm12-37.12c-0.45.46-.94,0.87-1.43,1.28-2.1-4.27-4.2-8.85-3-12.87,1.64,0.33,3.3.69,4.93,1.17C394.81,248.29,395.12,251.83,394.09,254.9Zm3.58,11c-0.41-.15-0.83-0.29-1.26-0.42,0-.09-0.05-0.17-0.07-0.25a6.9,6.9,0,0,0,1.57-2.39A12.2,12.2,0,0,1,397.68,265.9Zm2.13,1a6.37,6.37,0,0,0-1.57-5.22c0-.11.05-0.22,0.07-0.34A27.1,27.1,0,0,0,398,254c1.24,2.77,3.52,4.9,4.19,7.37,0.58,2.17.25,4.38,0.46,6.71Zm26.53-8.46q-1.27,2.54-2.48,5.07l-1.88-.18c-1-4.26-3.09-7.64-3-11.63,0.84,3.09,3.75,6.36,7.42,6,0,0.25.06,0.51,0.09,0.77Zm22.74,5.77-1.42-.08a9.47,9.47,0,0,0,1.55-1.43A4.87,4.87,0,0,1,449.07,264.2Zm2.59,0.65a2.25,2.25,0,0,0-.69-0.33,6.17,6.17,0,0,0-1.08-2.7,24,24,0,0,0,3.06-5.49,14.82,14.82,0,0,0,.58-2c0.08,1,.17,2,0.19,3A18.42,18.42,0,0,0,451.67,264.85Z" transform="translate(-80.29 -128.22)"/></svg>