<svg id="Layer_1" data-name="Layer 1" xmlns="http://www.w3.org/2000/svg" viewBox="0 0 655.72 138.7"><defs><style>.cls-1{fill:#ffb500;}.cls-2{fill:#1d1e1c;}.cls-3{fill:#fff;}</style></defs><title>fte-awards-asia-logo-bar</title><polygon class="cls-1" points="655.72 0 655.72 93.84 610.87 138.7 0 138.7 0 44.85 44.85 0 655.72 0"/><path class="cls-2" d="M4246.53,1977.88h3.42v6.85h-3.49v8.59H4250v25.15h8.52v-25.15h20.4v12.3q0,2.72-.8,3.6a3.67,3.67,0,0,1-2.9.8q-1.82.07-3.42,0.07v8.38h7q4.19,0,6.22-1.4,2.44-1.68,2.44-5.8v-41.84h-40.93v8.45Zm12.08,0h20.33v6.85h-20.33v-6.85Zm49.58-8.45h25v8.45h-22.42q-4,0-5.69,1.5t-1.71,5.34h29.76v13.48q0,10.48-7.47,15.79-6.57,4.68-17.67,4.68-1.89,0-6.5-.14-4.19-.07-6.57-0.07v-8.31H4305q19.63,0,19.7-13.62l-0.07-3.28h-29.69v-10.34a13.17,13.17,0,0,1,4-9.92A13,13,0,0,1,4308.19,1969.42Zm51.84,0v8.45h3.42v6.85H4360v8.59h3.56v25.15H4372v-25.15h20.4v12.3q0,2.72-.8,3.6a3.67,3.67,0,0,1-2.9.8q-1.82.07-3.42,0.07v8.38h7q4.19,0,6.22-1.4,2.44-1.68,2.45-5.8v-41.84H4360Zm32.41,15.3h-20.33v-6.85h20.33v6.85Zm-39.74,25-3.94,8.76a8.75,8.75,0,0,1-1.36-.87,15.71,15.71,0,0,1-3-3,18.14,18.14,0,0,1-2.88-5.53,14.5,14.5,0,0,1-.81-3.95c-0.1-1.55-.16-3.57-0.16-6.09V1969.3h12.11v8.56h-3.5s-0.08,14.88,0,23.49c0,3.23.17,5.42,0.87,6.34A12,12,0,0,0,4352.7,2009.7Z" transform="translate(-3798.05 -1924.72)"/><path class="cls-3" d="M3851.45,1969.3h52v49.38H3893v-20.79h-31.18v20.79h-10.39V1969.3Zm10.39,10.4v7.8H3893v-7.8h-31.18Z" transform="translate(-3798.05 -1924.72)"/><path class="cls-3" d="M3965.79,2018.67l-20.79-23-20.79,23h-10.39V1969.3h10.39v35l15.59-16.76h10.39l15.59,16.76v-35h10.39v49.38h-10.39Z" transform="translate(-3798.05 -1924.72)"/><path class="cls-3" d="M3986.58,1969.3h52v49.38h-10.4v-20.79H3997v20.79h-10.39V1969.3Zm10.39,10.4v7.8h31.18v-7.8H3997Z" transform="translate(-3798.05 -1924.72)"/><path class="cls-3" d="M4100.93,1997.88h-10.4l10.4,20.79h-12.34l-10.39-20.79h-18.84v20.79H4049V1969.3h52v28.59Zm-41.58-18.19v7.8h31.18v-7.8h-31.18Z" transform="translate(-3798.05 -1924.72)"/><path class="cls-3" d="M4111.32,2018.67V1969.3h41.58l10.4,39v10.39h-52Zm10.39-10.39h30.54l-7.6-28.59h-22.93v28.59Z" transform="translate(-3798.05 -1924.72)"/><path class="cls-3" d="M4225.67,1987.49v31.18h-52v-10.39h41.58v-10.4h-41.58V1969.3h52v10.4h-41.58v7.8h41.58Z" transform="translate(-3798.05 -1924.72)"/></svg>