<svg id="Layer_1" data-name="Layer 1" xmlns="http://www.w3.org/2000/svg" xmlns:xlink="http://www.w3.org/1999/xlink" viewBox="0 0 656.26 375.61"><defs><style>.cls-1{fill:#ffb500;}.cls-2{fill:#1d1e1c;}.cls-3,.cls-4,.cls-5,.cls-6,.cls-7,.cls-8{fill-rule:evenodd;}.cls-3{fill:url(#linear-gradient);}.cls-4{fill:url(#linear-gradient-2);}.cls-5{fill:url(#linear-gradient-3);}.cls-6{fill:url(#linear-gradient-4);}.cls-7{fill:url(#linear-gradient-5);}.cls-8{fill:url(#linear-gradient-6);}.cls-9{fill:url(#linear-gradient-7);}.cls-10{fill:#fff;}</style><linearGradient id="linear-gradient" x1="3269.24" y1="1769.99" x2="3516.68" y2="1769.99" gradientUnits="userSpaceOnUse"><stop offset="0" stop-color="#1d1e1c" stop-opacity="0"/><stop offset="0.42" stop-color="#1d1e1c" stop-opacity="0.14"/><stop offset="0.85" stop-color="#1d1e1c" stop-opacity="0.55"/><stop offset="1" stop-color="#1d1e1c" stop-opacity="0.75"/></linearGradient><linearGradient id="linear-gradient-2" x1="3269.24" y1="1773.29" x2="3516.68" y2="1773.29" xlink:href="#linear-gradient"/><linearGradient id="linear-gradient-3" x1="3269.24" y1="1776.14" x2="3516.68" y2="1776.14" xlink:href="#linear-gradient"/><linearGradient id="linear-gradient-4" x1="3269.24" y1="1773.42" x2="3516.68" y2="1773.42" xlink:href="#linear-gradient"/><linearGradient id="linear-gradient-5" x1="3269.24" y1="1781.87" x2="3516.68" y2="1781.87" xlink:href="#linear-gradient"/><linearGradient id="linear-gradient-6" x1="3269.24" y1="1773.43" x2="3516.68" y2="1773.43" xlink:href="#linear-gradient"/><linearGradient id="linear-gradient-7" x1="3269.24" y1="1753.8" x2="3495.53" y2="1753.8" xlink:href="#linear-gradient"/></defs><title>fte-awards-full-logo</title><polygon class="cls-1" points="655.72 236.91 655.72 330.75 610.87 375.61 0 375.61 0 281.76 44.85 236.91 655.72 236.91"/><path class="cls-2" d="M3281.68,1866.44v12.43h49.73v12.43h-62.16v-59.06h62.16v12.43h-49.73V1854h49.73v12.43h-49.73Z" transform="translate(-2890.14 -1687.81)"/><path class="cls-2" d="M3496.13,1866.44v12.43h49.73v12.43H3483.7v-59.06h62.16v12.43h-49.73V1854h49.73v12.43h-49.73Z" transform="translate(-2890.14 -1687.81)"/><path class="cls-2" d="M3117,1866.44v12.43h49.73v12.43h-62.16v-59.06h62.16v12.43H3117V1854h49.73v12.43H3117Z" transform="translate(-2890.14 -1687.81)"/><path class="cls-2" d="M2902.57,1866.44v12.43h49.73v12.43h-62.16v-59.06h79.75v12.43h-67.31V1854h49.73v12.43h-49.73Z" transform="translate(-2890.14 -1687.81)"/><path class="cls-2" d="M3238.17,1866.47h-12.43l12.43,24.87h-14.76L3211,1866.47h-22.53v24.85H3176v-59h62.16v34.19Zm-49.73-21.76V1854h37.3v-9.32h-37.3Z" transform="translate(-2890.14 -1687.81)"/><path class="cls-2" d="M3424.65,1844.68v34.19h49.73v12.43h-62.16v-59.06h62.16v12.43h-49.73Z" transform="translate(-2890.14 -1687.81)"/><path class="cls-2" d="M3402.89,1891.3h-12.43l-37.3-41.18v41.14h-12.43v-59h12.43l37.3,41.18v-41.18h12.43v59.06Z" transform="translate(-2890.14 -1687.81)"/><path class="cls-2" d="M3259.92,1891.32h-12.43v-59.07h12.43v59.07Z" transform="translate(-2890.14 -1687.81)"/><path class="cls-2" d="M3033,1832.25h62.16v34.19h-49.73v24.89H3033v-59.09Zm49.73,21.76v-9.33h-37.3V1854h37.3Z" transform="translate(-2890.14 -1687.81)"/><path class="cls-2" d="M2990.85,1852.45l17.21-20.2h15.57L2999,1861.78l24.58,29.53h-15.57l-17.21-20.59-17.21,20.59h-15.57l24.58-29.53-24.58-29.53h15.57Z" transform="translate(-2890.14 -1687.81)"/><path class="cls-2" d="M3259.92,1723.13v12.43h49.73V1748h-62.16v-59.06h62.16v12.43h-49.73v9.33h49.73v12.43h-49.73Z" transform="translate(-2890.14 -1687.81)"/><path class="cls-2" d="M3238.17,1723.15h-12.43l12.43,24.87h-14.76L3211,1723.15h-22.53v46.61H3176V1689h62.16v34.19Zm-49.73-21.76v9.32h37.3v-9.32h-37.3Z" transform="translate(-2890.14 -1687.81)"/><path class="cls-2" d="M3117,1701.39h-46.64V1748h-12.43v-46.59H3033V1689H3117v12.43Z" transform="translate(-2890.14 -1687.81)"/><path class="cls-2" d="M3023.73,1748h-62.16V1689H2974v46.62h37.3V1689h12.43V1748Z" transform="translate(-2890.14 -1687.81)"/><path class="cls-2" d="M3166.69,1748h-62.16v-37.31H3117v24.87h37.3V1689h12.43V1748Z" transform="translate(-2890.14 -1687.81)"/><path class="cls-2" d="M2902.57,1723.15V1748h-12.43v-59h62.17v12.43h-49.73v9.32h49.73v12.43h-49.73Z" transform="translate(-2890.14 -1687.81)"/><path class="cls-2" d="M3188.44,1794.89v12.43h49.73v12.43H3176V1760.7h62.16v12.43h-49.73v9.33h49.73v12.43h-49.73Z" transform="translate(-2890.14 -1687.81)"/><path class="cls-2" d="M3023.73,1794.92h-12.43l12.43,24.86H3009l-12.43-24.86H2974v46.56h-12.43v-80.75h62.16v34.19ZM2974,1773.16v9.33h37.3v-9.33H2974Z" transform="translate(-2890.14 -1687.81)"/><path class="cls-2" d="M3247.49,1819.75V1760.7h12.43v46.62h49.71v12.43h-62.14Z" transform="translate(-2890.14 -1687.81)"/><path class="cls-2" d="M3033,1760.7h62.16v59.06h-12.43v-24.86h-37.3v24.86H3033V1760.7Zm12.43,12.43v9.33h37.3v-9.33h-37.3Z" transform="translate(-2890.14 -1687.81)"/><path class="cls-2" d="M2952.31,1773.16h-24.87v46.56H2915v-46.56h-24.86v-12.43h62.16v12.43Z" transform="translate(-2890.14 -1687.81)"/><path class="cls-2" d="M3141.82,1819.75h-12.43l-24.86-59.06H3117l18.65,44.29,18.65-44.29h12.43Z" transform="translate(-2890.14 -1687.81)"/><path class="cls-3" d="M3492.16,1770a0.84,0.84,0,0,1,.22,0h0A0.84,0.84,0,0,0,3492.16,1770Z" transform="translate(-2890.14 -1687.81)"/><path class="cls-4" d="M3465,1773.29h0Z" transform="translate(-2890.14 -1687.81)"/><path class="cls-5" d="M3460.72,1776.11h0a1,1,0,0,0-.32.06A1,1,0,0,1,3460.72,1776.11Z" transform="translate(-2890.14 -1687.81)"/><path class="cls-6" d="M3470.63,1773.42a4.76,4.76,0,0,1,.62,0l-0.45,0h-0.16Z" transform="translate(-2890.14 -1687.81)"/><path class="cls-7" d="M3479.37,1782.45h0l-1-1.16Z" transform="translate(-2890.14 -1687.81)"/><path class="cls-8" d="M3467.83,1773.43h0Z" transform="translate(-2890.14 -1687.81)"/><path class="cls-2" d="M3546.39,1816.56c-0.07.65-1.76,1.34-2.65,1.74a19.81,19.81,0,0,1-6.13,1.56,15.34,15.34,0,0,1-3,.18c-0.71-.07-1.29-0.56-1.74-0.55s-0.65.32-1.09,0.36a15.52,15.52,0,0,1-3.3-.36c-1.11-.15-2.25-0.25-3.21-0.46a8.36,8.36,0,0,1-1-5.59c0.19-.89,1-1.15.92-2,0-.7-0.7-1-1.1-1.56a17.57,17.57,0,0,1-1.1-1.74,34,34,0,0,1-2.2-5.13c-0.4-1.08-.94-2.06-1.37-3.11-0.91-2.19-1.74-4.4-2.47-6.6a38,38,0,0,0-2.49-5.18c-1.12-3.82-3-7.37-4.11-11.2l0-.17s0-.07,0-0.1h0c-0.05-.07-0.12-0.12-0.16-0.2a16.27,16.27,0,0,1-1.12-2.05,37.7,37.7,0,0,0-2.37,3.59c-0.58,2.19-1.37,4.35-2.17,6.51a58.81,58.81,0,0,0-3.91,8.16h0c-1.56,2.26-2.34,4.77-3.84,7.33-0.59,1-1.33,2.14-2.2,3.39-0.59.85-2.1,2.33-2.29,3.29s0.23,2.43-.09,3.39c-0.18.54-.7,0.66-0.73,1.19a9.2,9.2,0,0,0,.64,1.74,6.76,6.76,0,0,0,2.2,1.92c1.72,0.61,3.68-.25,5,0.37a2.15,2.15,0,0,1,1.1,1.55c-0.06.5-1.51,1.45-2.2,1.65a25.36,25.36,0,0,1-3.75.37,21.31,21.31,0,0,1-4.12.09c-1.24-.19-1.14-0.86-2-1.37-0.49-.29-0.93-0.27-1.47-0.55-0.45.06-.62,0.41-1.1,0.46-2.12-.75-4.88-0.86-6.5-2.11,0-.5.3-0.9,0.37-1.37s0-.8,0-1.19c0.07-.65.32-1.35,0.46-2s0.2-1.56.37-2.19c0.43-1.59,1.61-2.95,2.2-4.31,0.18-.41.19-0.9,0.37-1.28,0.68-1.45,2.09-2.37,2.66-3.76,0.34-.83.53-1.77,0.82-2.66,0.6-1.79,1.15-3.54,1.74-5.31a9.79,9.79,0,0,0,.74-2.66l-0.18-.12c2-3.29,2.84-7.37,4.17-10.91,0.85-2.25,2.78-5.22,4-8.19-0.6.59-1.19,1.19-1.73,1.83-2.3,2.78-5,5.21-7.46,7.8-2.11,2.18-4.31,4.27-6.51,6.43,0,0.33,0,.67,0,1a3.76,3.76,0,0,1-1.14,3.09q-1.6,1.55-3.23,3.07c-1.52,1.42-3.06,2.83-4.59,4.25l-9,8.4c-0.55.52-1.07,1.09-1.66,1.55a42.82,42.82,0,0,0-4.9,4.43c-1.13,1.19-2.28,2.36-3.49,3.46s-2.21,2-3.3,3a4.5,4.5,0,0,0-.58.74,3.55,3.55,0,0,1-4.32,1.38c-1.53-.47-2.09-2.37-1.92-3.63,0-.18.08-0.36,0.12-0.53a4.81,4.81,0,0,1-2.12-2.06,6,6,0,0,0-.8-1l-1.25-1.5c-1,.19-1.67,1.15-2.8.94a1.18,1.18,0,0,1-.47-1.39l1.15-1.53-0.69-.6a0.54,0.54,0,0,0-.22-0.17c-0.94-.07-1.2-0.9-1.7-1.43a0.76,0.76,0,0,1,0-.33,17.82,17.82,0,0,0,1.95-3.33,23.46,23.46,0,0,1,2.26-3.26,80.7,80.7,0,0,1,7.86-8.72c1.28-1.22,2.64-2.35,4-3.51,1.1-1,2.21-1.88,3.31-2.83a1.34,1.34,0,0,0,.35-0.43,4.39,4.39,0,0,1,1-1.35,3.82,3.82,0,0,0,.63-1,24.06,24.06,0,0,1,4.06-5.44,1.2,1.2,0,0,1,1.43-.43l2.15-2-0.38-.39c1.09-.43,2.12-0.85,3.24-0.24a1,1,0,0,0,.91,0,2.24,2.24,0,0,1,1.29-.12c0.94,0.16,1.87-.14,2.89,0,1,0.53,2,1.06,1.59,2.61l1.22,0.91,0.62-.31,1.5,2.05,1.37-.51,1.16,0.92a3,3,0,0,1-.29,2.19l1,1.18,1.45-1.35c0.21-.19.4-0.4,0.6-0.61l9.75-9.83a1.68,1.68,0,0,1,1.19-.72l5.46-5.41a5.46,5.46,0,0,0-.25-1.38,3.73,3.73,0,0,0-1.43-2.11,1.52,1.52,0,0,0,.06-0.19,10.39,10.39,0,0,1-2.11-.73c0.56-4.56,2-9.48,2.29-14.38a32.47,32.47,0,0,0-.37-4.12c0-1.3.47-2.64,0.46-3.94s-0.56-2.4-.46-3.57,1-2.29,1-3.48a10.27,10.27,0,0,0-.27-1.47,11.73,11.73,0,0,1,.1-2.29,15.3,15.3,0,0,1,.27-2.1c0.14-.53.7-1,0.83-1.65a18.6,18.6,0,0,0,0-2.65,18.68,18.68,0,0,1,3.75-9.71,9.22,9.22,0,0,1,2.84-3.11c0.62-.31,1.46-0.29,2-0.92s0.35-1.39.82-1.92,0.92-.24,1.28-0.91a13.08,13.08,0,0,1-2.29-3.57,10.41,10.41,0,0,1-1.09-2.2,13.74,13.74,0,0,1,.28-5.41,9.57,9.57,0,0,1,1.28-1.92,6.72,6.72,0,0,1,1.56-1.65,13,13,0,0,1,4.58-.83,6.73,6.73,0,0,1,2.84.46,16.86,16.86,0,0,1,1.74.46,5.37,5.37,0,0,1,1.37,1.65,16,16,0,0,0-.45,2.2,9,9,0,0,0,.91,2.29,2,2,0,0,0,.83,2.47,2.94,2.94,0,0,1,1,1.1c0,0.55-1,.84-1.1,1.47-0.1.41,0.12,1.12,0,1.74a9.66,9.66,0,0,0-.27,1,6.13,6.13,0,0,1,.18,1.28c-0.76,1.2-2.86,1-4,1.83,0.2,1.56-1.23,2.55-.64,3.66,0.12,0.23.3,0.21,0.28,0.19a6.07,6.07,0,0,1,1.28,2c0.27,0.49.65,0.84,0.82,1.28,0.33,0.82.22,1.86,0.64,2.84,0.23,0.55.72,0.83,1,1.37,0.63,1.22.91,2.71,1.46,4a65.58,65.58,0,0,1,3.21,9.89,18,18,0,0,0,.46,2.2c0.11,0.25.45,0.66,0.64,1s0.39,0.89.55,1.1c0.62,0.77,2,1.21,3,1.83a14.83,14.83,0,0,1,1.28,1.1c0.49,0.4,1.08.67,1.47,1,0.88,0.76,1.49,1.9,2.29,2.38s1.35,0.41,1.93.82c0,0.47.69,0.74,0.73,1.28,0,0.25-.3.68-0.37,1.19,0,0.31.05,0.69,0,.92a3,3,0,0,1-1,1.55,2.89,2.89,0,0,1-1.46-.91,5.1,5.1,0,0,0-1-1.37c-0.89.32-.84,1-1.83,1.1-1.45.07-2.19-1.74-3.57-1.93a11.9,11.9,0,0,0,.27,4c0.35,2.74.94,5.08,1.47,7.88,0.23,1.25.81,3.22,0.28,4.12-0.77,1.29-3.76.26-5.5,0.73a17,17,0,0,0-.37,5.4c0,0.7,0,1.41.09,2,0.06,0.41.29,0.79,0.37,1.19s0.14,0.93.19,1.37c0.32,2.84.93,5.68,1.09,8.43a12.61,12.61,0,0,0,0,1.83c0.12,0.53.77,1,.74,1.74s-1,1.25-1,2.11c-0.05,1.09,1.25,2.5,1.47,4,0.08,0.57-.11,1.18,0,1.83a21.73,21.73,0,0,0,1.19,2.75c0.44,1.2.42,2.36,0.82,3.11a5.31,5.31,0,0,0,1.37,1.19c2,1.76,2.3,5.51,3.39,8.24a23.14,23.14,0,0,1,.83,2.19,9.6,9.6,0,0,0,.18,1.1,6.54,6.54,0,0,0,1.56,1.74,15.26,15.26,0,0,0,4.12,2.56,8.74,8.74,0,0,0,2.66.73c1.13,0.07,1.77-.44,2.66-0.18C3545.31,1815.09,3546.48,1815.84,3546.39,1816.56Z" transform="translate(-2890.14 -1687.81)"/><path class="cls-9" d="M3494.57,1696.43c0.13-1-.38-2.14.16-3.21,0.27-.43.54-0.86,0.8-1.3-0.51-1.56-5.28-3.69-7.74-4.12l-2.65.12a7.05,7.05,0,0,0-5.18,4.43c-0.82,1.93.27,5.08-.14,6.8a1.55,1.55,0,0,1,0,1,7.55,7.55,0,0,0,1.38,3.52c-0.23,2.61-2.77,4.61-3.72,6.21-0.56.93-.75,2.31-1.38,3.52s-1.8,2.23-2.06,3.2c-1,3.7,0,6.63-.81,10a11.72,11.72,0,0,0-.11,1.65,8.61,8.61,0,0,1,0,1.77,9.8,9.8,0,0,1-.1,2c0.16,4.48-1.52,6.1-2.06,9.6-0.62,4,.13,8.17-1,10.88a10.81,10.81,0,0,1-2.83,3.52,4.37,4.37,0,0,0-1.45-1.64l0.13,0c1.74-3.56,2.43-10.87,2.73-15.46,0.23-3.62,1.72-7.36,1-11-0.17-.92-0.89-1.61-1-2.53-0.24-1.68.38-3.59,0-5.36s-2.17-3.54-3.38-5.36c-2.25-3.34-4.63-5.83-2.1-8.26a3.12,3.12,0,0,0,.84.22c2.31,0.13,1-3,1.9-3.38,0-.92.15-0.61,0.55-1.27a1.12,1.12,0,0,1-.08-1c0.63-.36,1.29-0.08,1.55-0.94-0.31-.76-0.63-1.53-1-2.29-0.06-.66.39-0.85,0.44-1.56,0.08-.95-0.49-2.09,0-3.16,0.24-.43.48-0.87,0.71-1.32-0.58-1.52-5.4-3.38-7.84-3.68l-2.6.24a6.86,6.86,0,0,0-4.86,4.6c-0.7,1.93.54,5,.24,6.7a1.54,1.54,0,0,1,.09,1,8.68,8.68,0,0,0,1,2.58,16.23,16.23,0,0,1-1.36,5.18c-0.33.75-1.33,1.2-1.69,1.89-0.52,1-.47,2.54-1,3.78-0.72,1.63-1.83,2.79-2,4.1-1.28,8.54,1.88,19.24,3.5,24.37a2.92,2.92,0,0,1,.07.35c-0.9,1.62-2.73,3-3.57,4.92a11.37,11.37,0,0,0-.61,1.68,8.89,8.89,0,0,0-1.19-.16c-2.29-4.23-3-3.59-2.41-5.12,1.08-6.44,1.45-14.19-.69-19.83,1.77-4-1-7.14-3.09-9.91-1.49-2-4.19-4.08-2.67-6.91a3.49,3.49,0,0,0,1,.19c2.34-.06.76-3.15,1.58-3.57-0.12-.93.09-0.62,0.44-1.33a1.16,1.16,0,0,1-.18-1c0.6-.42,1.3-0.19,1.48-1.08l-1.19-2.23c-0.13-.66.31-0.9,0.3-1.61,0-1-.69-2.07-0.32-3.2,0.2-.46.4-0.93,0.59-1.39-0.74-1.48-5.79-3-8.28-3.07l-2.6.46a6.83,6.83,0,0,0-4.46,5.06c-0.52,2,1,5,.88,6.75a1.59,1.59,0,0,1,.2,1,8,8,0,0,0,1.67,3.09,7.28,7.28,0,0,1-.46,2.41c-1,2.69-2.9,5.47-4.12,8.32-2.17,5-.2,10.7-0.68,17-0.22,2.77-1,5.43-1.3,8-1-.29-2.06-0.57-3.24-0.87,0.36-4.09,1.15-9.26.46-12.54-0.2-.94-0.9-1.82-1-2.88-0.12-.89.2-2.18,0-3.2a12.37,12.37,0,0,0-3.44-5.76,11.44,11.44,0,0,1-.68-1.28c-1.81-2.41-3.76-4.71-1-6.72,0,0,.65-0.47,1.1-0.74a9.18,9.18,0,0,0,1.48.23c2.34-.15.62-3.18,1.43-3.63-0.16-.93.07-0.63,0.38-1.34a1.13,1.13,0,0,1-.22-1c0.57-.44,1.28-0.24,1.43-1.13-0.42-.73-0.85-1.46-1.28-2.19-0.16-.66.27-0.91,0.23-1.62-0.06-1-.79-2-0.46-3.18,0.18-.47.36-0.94,0.53-1.41-0.8-1.46-5.91-2.74-8.41-2.75l-2.58.56a6.79,6.79,0,0,0-4.24,5.22c-0.43,2,1.25,4.95,1.18,6.72a1.59,1.59,0,0,1,.24,1,11,11,0,0,0,.52,1.22c0.25,2.73-1.79,4.88-2.65,6.59-1.87,3.69-3.87,9.17-4.12,13.44-0.09,1.54.53,3.31,0.34,4.48s-1.35,2.11-1.71,3.2-0.62,3-1,4.48l-0.16.62a4.52,4.52,0,0,1-1.91-1.95c-0.37-1.34.73-3.07,0.68-4.47-0.09-2.84-2.18-5.8-1.28-8.64,0-.45-0.09-0.9-0.15-1.34a58.07,58.07,0,0,0-5.09-7.92c-1.43-1.71-2.12-3.71-.08-5.67,0,0,.06-0.18.1-0.3a3.9,3.9,0,0,0,1,.33c2.33,0.24,1.23-3,2.11-3.33,0-.94.18-0.61,0.63-1.25a1.14,1.14,0,0,1,0-1c0.66-.34,1.32,0,1.63-0.87-0.28-.79-0.56-1.58-0.84-2.37,0-.67.44-0.84,0.54-1.55,0.13-1-.38-2.14.16-3.2,0.27-.43.54-0.86,0.8-1.3-0.51-1.56-5.28-3.68-7.73-4.12l-2.65.12a7.05,7.05,0,0,0-5.18,4.42c-0.82,1.92.27,5.07-.14,6.8a1.57,1.57,0,0,1,0,1,7.51,7.51,0,0,0,1.37,3.52c-0.23,2.61-2.77,4.61-3.72,6.2-0.56.94-.75,2.31-1.38,3.51s-1.8,2.24-2.06,3.2c-1,3.7,0,6.62-.81,10a12,12,0,0,0-.11,1.65,8.07,8.07,0,0,1,0,1.77,9.65,9.65,0,0,1-.09,2c0.16,4.48-1.52,6.09-2.06,9.59-0.62,4,.13,8.16-1,10.86a10.82,10.82,0,0,1-2.83,3.52,4.32,4.32,0,0,0-1.45-1.63l0.13,0c1.74-3.55,2.43-10.86,2.73-15.44,0.23-3.62,1.72-7.35,1-11-0.17-.92-0.89-1.61-1-2.52-0.24-1.68.38-3.59,0-5.35s-2.17-3.53-3.38-5.35c-2.24-3.34-4.63-5.82-2.1-8.25a3,3,0,0,0,.84.22c2.31,0.13,1-3,1.9-3.38,0-.92.15-0.6,0.54-1.26a1.15,1.15,0,0,1-.08-1c0.63-.36,1.29-0.08,1.55-0.93-0.31-.77-0.63-1.53-0.95-2.29-0.07-.66.39-0.85,0.44-1.55,0.08-.95-0.49-2.09,0-3.16,0.24-.43.48-0.87,0.71-1.31-0.58-1.52-5.39-3.37-7.84-3.68l-2.59.24a6.86,6.86,0,0,0-4.85,4.6c-0.7,1.93.54,5,.24,6.69a1.57,1.57,0,0,1,.1,1,8.51,8.51,0,0,0,1,2.58,16.18,16.18,0,0,1-1.36,5.18c-0.33.75-1.33,1.2-1.69,1.89-0.53,1-.46,2.54-1,3.78-0.72,1.63-1.83,2.79-2,4.1-1.28,8.53,1.88,19.22,3.5,24.34a2.29,2.29,0,0,1,.07.35c-0.89,1.62-2.72,3-3.57,4.92a11.2,11.2,0,0,0-.61,1.68,9.43,9.43,0,0,0-1.2-.16c-2.29-4.22-3-3.58-2.4-5.11,1.08-6.43,1.44-14.17-.69-19.82,1.77-4-1-7.13-3.09-9.9-1.49-2-4.19-4.07-2.67-6.9a3.76,3.76,0,0,0,1,.18c2.34-.06.76-3.15,1.58-3.57-0.12-.93.09-0.62,0.43-1.32a1.16,1.16,0,0,1-.18-1c0.6-.42,1.3-0.18,1.48-1.07l-1.18-2.24c-0.13-.66.31-0.89,0.3-1.61,0-1-.69-2.07-0.32-3.19,0.2-.46.4-0.93,0.59-1.39-0.74-1.48-5.78-3-8.28-3.06l-2.6.46a6.84,6.84,0,0,0-4.46,5.05c-0.52,2,1,5,.88,6.75a1.54,1.54,0,0,1,.2,1,8.07,8.07,0,0,0,1.67,3.09,7.3,7.3,0,0,1-.46,2.41c-1,2.68-2.9,5.47-4.12,8.31-2.17,5-.2,10.69-0.68,16.94-0.22,2.77-1,5.42-1.3,8-1-.29-2.05-0.57-3.24-0.87,0.36-4.08,1.15-9.25.46-12.52-0.2-.94-0.89-1.82-1-2.87-0.12-.89.2-2.19,0-3.2a12.36,12.36,0,0,0-3.43-5.75,10.94,10.94,0,0,1-.68-1.28c-1.82-2.41-3.76-4.71-1-6.71,0,0,.64-0.47,1.1-0.74a9.29,9.29,0,0,0,1.48.23c2.34-.16.62-3.18,1.43-3.63-0.17-.92.06-0.63,0.37-1.34a1.12,1.12,0,0,1-.22-1c0.58-.44,1.28-0.24,1.43-1.13-0.42-.73-0.85-1.46-1.28-2.19-0.15-.66.27-0.91,0.23-1.62-0.06-1-.78-2-0.46-3.18,0.18-.47.36-0.94,0.54-1.41-0.81-1.45-5.9-2.73-8.41-2.75l-2.58.56a6.78,6.78,0,0,0-4.24,5.22c-0.43,2,1.25,4.94,1.18,6.71a1.54,1.54,0,0,1,.24,1,10.93,10.93,0,0,0,.52,1.22c0.25,2.73-1.79,4.88-2.65,6.58-1.86,3.69-3.87,9.17-4.12,13.42-0.09,1.54.53,3.31,0.34,4.47s-1.36,2.11-1.71,3.2-0.63,3-1,4.47c-0.85,3.2-1.39,6-2.06,9.59-0.36,1.94-1.82,6-1.82,7.38,0,1.06,1.36,0,1.13.93-0.46,1.8-3.35,4.25-4.18,6.72a3.55,3.55,0,0,0-1.53,2.39c-0.8.41-.93,1.22-1.37,1.85-3.48-.3-6.48-1.29-10.38-1-1,5.4-1.75,10.71-2.57,16.17-0.27,1.8-.8,3.69-0.4,5.64,1.9,0.92,4.34.9,6.65,1.18s4.8,0.63,7.23,1a43.91,43.91,0,0,0-5.76,8.32c-0.43.69-2.77,6.19-3.42,7.14-0.11.17,1,.55,0.91,0.71a13,13,0,0,0-.91,1.7c-1.37,2.48-4.18,3.93-2.85,7.09,2.45,1.62,8.7,1.88,8.39,4.66,0.06,0.21.11,0.43,0.16,0.66a0.91,0.91,0,0,0,.49.64,1.23,1.23,0,0,1,.32,0c1.93,0.19,3.87.29,5.81,0.51a5.28,5.28,0,0,0,2.6,0,2.59,2.59,0,0,0,.22-0.92h0c-0.36-2-2.31-1.65-4.18-2.4-1.09-2.63-4.75-5.9-4.23-9,0.17-1,1.49.3,1.49,0.3,0.37-1.19,2.11-3.22,3.12-4.27s1-3.36,2.37-4.59,2.33-2.88,3.65-3.18c0.49-.55,1-1.1,1.44-1.66a20.33,20.33,0,0,1,2-3.9c0.47,0.05.94,0.09,1.38,0.1s0.72-.12,1.07-0.11c1.72,0,4.29,1.37,5.55-.55,0.5-.76.62-2.77,0.74-4.24,2.78,1.07,5.57,2.17,8.37,3.25,1.13,0.43,2.26,1,3.38,1.45a7.87,7.87,0,0,0-2.29,3.41,24.2,24.2,0,0,0-4.67,2.56c-0.39.31,0.4,1-.13,1.27-2.07,1.06-5.35,1-5.83,3.2-0.53,2.42,2.42,4.87,3.43,7.35,1.13,2.79,1.15,5.13,3.43,6.39h4.46a2.92,2.92,0,0,0-.4-2.08c0.69-.2,1.25-0.75,2-0.89,0.41,0.49.83,1,1.25,1.5a6,6,0,0,1,.8,1,4.81,4.81,0,0,0,2.12,2.06c0,0.17-.09.35-0.12,0.53-0.17,1.26.39,3.16,1.92,3.63a3.53,3.53,0,0,0,4.08-1.08l0.47,0.32c3.88,0,7.72.1,11.62,0.08h0.33a22.19,22.19,0,0,0,3.15-.82c0,0.1.08,0.2,0.11,0.29a4.93,4.93,0,0,0,1.22.6c5.79,0,11.74-.08,17.71-0.15a1.53,1.53,0,0,0,.15-0.64,1.43,1.43,0,0,0-.06-0.24h0a3.17,3.17,0,0,0-.55-1,0.83,0.83,0,0,1,.74.58l0.27,0.24,1.24,0.37a12,12,0,0,0,2,.42h1a2.22,2.22,0,0,0,.32.15,3.58,3.58,0,0,0,3.58-.57c0.3-.09.6-0.2,0.89-0.32l0.19-.22h0c0.18-.54.44-0.89,0.52-1.22l0.89-.81c2-.14,3.55.11,4.19,1.69h0l0,0.06a2.49,2.49,0,0,1,.14.22l0.29,0.14c0.79,0.42,1.16.85,1.63,1a2.7,2.7,0,0,0,.78-0.11h0.2a1.84,1.84,0,0,1,.32-0.06l0.16,0a6.12,6.12,0,0,0,.85-0.23l0.62-.25a4.89,4.89,0,0,0,.64-0.37l0.23-.16,0.1-.07,0.19-.15h0a0.68,0.68,0,0,1,.31-0.45,1.53,1.53,0,0,1,.13.82c0.06,0.21.11,0.43,0.16,0.67a0.92,0.92,0,0,0,.49.64,1.21,1.21,0,0,1,.32,0c1.93,0.19,3.87.29,5.81,0.51a5.31,5.31,0,0,0,2.61,0,2.69,2.69,0,0,0,.22-0.92h0c-0.36-2-2.31-1.66-4.19-2.4-1.09-2.63-4.75-5.91-4.23-9,0.17-1,1.49.3,1.49,0.3a15.82,15.82,0,0,1,3.13-4.27c1-1.08,1-3.37,2.38-4.59s2.33-2.88,3.65-3.19l0.47-.54a33.18,33.18,0,0,1,1.71,6.5c0.44,4.33-1.14,8.13,0,12.14,2.46,2.29,5.57-.73,8.92-1.28l0.52-.07a4.94,4.94,0,0,0,2,1.88c0,0.17-.09.35-0.12,0.53-0.17,1.26.39,3.16,1.92,3.63a3.55,3.55,0,0,0,4.32-1.38,4.51,4.51,0,0,1,.58-0.74c1.09-1,2.2-2,3.3-3s2.36-2.27,3.49-3.46c1-1,2-2,3.11-2.94,0.3,1,.59,2,0.87,2.94,0.21,0.73,1.22,1.33,1.32,2.06,0.3,2.08-.4,4.41,1,6.33,0.12,0.16.25,0.3,0.38,0.44l0.75,0.51c3.69,0,7.37.09,11.08,0.07a8.21,8.21,0,0,1-.3-1.39,8,8,0,0,1-1.33-1.69,5.7,5.7,0,0,1-1.22.13,5.77,5.77,0,0,1-1.06-.1,4,4,0,0,1-.94-0.3c-1.15-.53-3.05-1.94-2.78-5.34v-0.13c-0.15-.19-0.27-0.35-0.36-0.48l-0.08-.11a4,4,0,0,1-1-2.88,4.14,4.14,0,0,1,1-2.75,3.73,3.73,0,0,0,.32-0.47c-0.22-1.08-.43-2.17-0.58-3.23l5.44-5.07,2.2-2c0,0.11.05,0.21,0.08,0.31q1.16-1.31,2.34-2.56,1.61-1.51,3.2-3a3.85,3.85,0,0,0,.39-0.46c0.72-.65,1.44-1.28,2.15-1.89l0.93-.8,1.91-1.63,1.07-.91a8.42,8.42,0,0,1,1.24-1.64l0.14-.29a28.15,28.15,0,0,1,4.71-6.36,5.6,5.6,0,0,1,2.42-1.56,4,4,0,0,1,2.24-2.23,9.25,9.25,0,0,1,3.51-.82,6.41,6.41,0,0,1,1.77.25,6.17,6.17,0,0,1,1.15-.11,6.79,6.79,0,0,1,1.08.09l0.53,0c0.35,0,.79-0.07,1.29-0.07a8.48,8.48,0,0,1,.85,0,4,4,0,0,1,1.55.49l0.08,0a7.17,7.17,0,0,1,3.13,3.05,6.85,6.85,0,0,0,3.62,2l0.67,0.53,0.37-.38,3.12-3.15a5.71,5.71,0,0,0,1.21-3.61c-0.25-2,.7-1.77,2.55-0.18l0.39-.39,0.06-.06a6.33,6.33,0,0,1,1.88-1.4l0.3-.29,2.18-2.16a5.94,5.94,0,0,1-1-.54,4,4,0,0,1-1.67-3.76c0.25-2,.66-4.13,1-6.15a66.76,66.76,0,0,0,1.22-8,7.37,7.37,0,0,0-.15-1.68,14.78,14.78,0,0,1-.23-2.1,13.89,13.89,0,0,1,.29-2.79,8.37,8.37,0,0,0,.17-1.2,6.4,6.4,0,0,0-.15-0.86,10.09,10.09,0,0,1-.29-3.08,9.45,9.45,0,0,1,.78-2.82l0.15-.37a6.67,6.67,0,0,1-.19-1.09,15.34,15.34,0,0,1,.11-3.09c0-.15,0-0.31,0-0.47a12.62,12.62,0,0,1,.34-2.2,6.1,6.1,0,0,1,.75-1.66c0-.1,0-0.21,0-0.3a11.26,11.26,0,0,1,0-1.55c0-.29.06-0.56,0.09-0.85a51,51,0,0,0-4.53-6.94c-1.43-1.71-2.13-3.71-.08-5.68,0,0,.07-0.19.1-0.3a3.86,3.86,0,0,0,1,.32c2.33,0.24,1.23-3,2.11-3.33,0-.94.18-0.61,0.63-1.26a1.15,1.15,0,0,1,0-1c0.65-.33,1.32,0,1.63-0.87L3494,1698C3494,1697.32,3494.47,1697.14,3494.57,1696.43Zm-210.92,67.31a1.11,1.11,0,0,1,1.47.35A1,1,0,0,1,3283.65,1763.74Zm1.77,0.76-0.32-1.42c0.12-.14.25-0.29,0.4-0.44a3.41,3.41,0,0,0,.88,1.57,2.51,2.51,0,0,0,.8.55A13.82,13.82,0,0,1,3285.42,1764.5Zm6.26,0.44a4.38,4.38,0,0,0,1.52-2.34,18.21,18.21,0,0,1,.41,2.5C3293,1765,3292.33,1765,3291.68,1764.94Zm3.82-.34a5.86,5.86,0,0,0-2.11-3.11c0.17-1.9-.28-4.09-0.15-6.22,0-.44,1.16-0.19,1.24-0.59a39,39,0,0,1,2.37-8.37c-0.65,2.77-1.35,6.45-1.2,8.32,0.08,1.07,1.29,2.23,1.37,3.51S3296.09,1762.09,3295.49,1764.6Zm76.11-7.1a14,14,0,0,0,.51-1.77c0.07,0.87.15,1.79,0.17,2.73a16.48,16.48,0,0,0-1.85,6.66,2.05,2.05,0,0,0-.61-0.3,5.54,5.54,0,0,0-1-2.42A21.67,21.67,0,0,0,3371.61,1757.51Zm-3.36,5.69a4.37,4.37,0,0,1-.11,1.35l-1.27-.07A8.38,8.38,0,0,0,3368.24,1763.19Zm-20.38-4.45c0,0.22.05,0.45,0.08,0.68l-0.17,0q-1.14,2.27-2.22,4.54l-1.69-.17c-0.85-3.81-2.77-6.83-2.64-10.4C3342,1756.12,3344.58,1759,3347.87,1758.74Zm-21.73,3.24c0.52,1.95.23,3.92,0.41,6l-2.5-1a5.74,5.74,0,0,0-1.4-4.68c0-.1,0-0.2.06-0.3a24.36,24.36,0,0,0-.31-6.6C3323.5,1757.86,3325.54,1759.77,3326.13,1762Zm-3.79,1.35a11,11,0,0,1-.21,2.74c-0.37-.14-0.75-0.27-1.13-0.38,0-.08,0-0.15-0.07-0.22A6.22,6.22,0,0,0,3322.35,1763.33Zm-7.39-17.48c1.47,0.3,3,.61,4.41,1.06,0.2,3.4.47,6.57-.45,9.32-0.4.41-.84,0.78-1.28,1.15C3315.77,1753.56,3313.89,1749.45,3315,1745.85Zm-1,55.11a16.89,16.89,0,0,0-1.28,2l-0.28.54a20.3,20.3,0,0,1,.4-2.2C3313,1800.26,3313.51,1800.53,3313.91,1801Zm-1.5,8.63a12.94,12.94,0,0,1-.21-1.6l0.15,0a0.54,0.54,0,0,1,.22.17l0.69,0.6-0.77,1C3312.45,1809.75,3312.42,1809.67,3312.41,1809.6Zm28.33,6a22.63,22.63,0,0,1-8.41-3.86l0.7-.72a43,43,0,0,1,4.22-3.86,35.48,35.48,0,0,1,2.37,4.31,1.58,1.58,0,0,1,.19.22l1.16,0.59C3340.85,1813.39,3340.74,1814.48,3340.73,1815.57Zm11.52-2a13,13,0,0,1-4.85-4.62c-1.66-3-1.71-6.38-1.56-9.78l2.76-2.57,2.39-2.21c-0.5,4.21,1.91,8.94,2.22,11.55S3352.76,1811.12,3352.25,1813.57Zm12.38-21.51c-1.82,1.87-3.53,3.83-5.16,5.86a67.41,67.41,0,0,0,1.67-8.56,18.13,18.13,0,0,0,2.29.86c0.35,0.1.73,0.05,1.07,0.15l0.21,0.07C3364.65,1791,3364.63,1791.51,3364.63,1792.06Zm27.57-38s0,0.1-.06.15l-0.51-.56C3392,1753.64,3392.32,1753.56,3392.2,1754.06Zm0.69-8.32c-0.35,1.91-1.76,5.86-1.81,7.3-0.53-.58-1.05-1.16-1.55-1.76h0c0.7-1.16.89-5.43,1.61-6.57a11.23,11.23,0,0,1,1.84.4Zm5.71,16.35a18.5,18.5,0,0,0-2.91-4.08,19.84,19.84,0,0,1-.06-2.67c0-.44,1.16-0.18,1.24-0.6A41.71,41.71,0,0,1,3399,1747h0.11a32.63,32.63,0,0,0-1.06,7.67c0.09,1.07,1.3,2.23,1.37,3.52A14.06,14.06,0,0,1,3398.6,1762.09Zm12,27.45a80.72,80.72,0,0,0-7.86,8.72l-0.19.24c0.18-2.66.68-5.49,1-8.29a2.2,2.2,0,0,0,1.72-1c0.5-.76.62-2.78,0.75-4.25l6.75,2.62C3412.05,1788.22,3411.33,1788.86,3410.62,1789.54Zm10.72-33.24c-0.4.41-.84,0.78-1.28,1.15-1.88-3.82-3.76-7.93-2.69-11.53,1.47,0.29,3,.61,4.41,1.05C3422,1750.37,3422.26,1753.54,3421.35,1756.29Zm3.21,9.85c-0.37-.14-0.75-0.26-1.13-0.38,0-.08,0-0.15-0.07-0.22a6.18,6.18,0,0,0,1.4-2.14A10.93,10.93,0,0,1,3424.56,1766.14Zm1.91,0.88a5.71,5.71,0,0,0-1.4-4.68c0-.1,0-0.2.06-0.3a24.26,24.26,0,0,0-.31-6.6c1.11,2.48,3.16,4.39,3.75,6.6,0.52,1.95.23,3.92,0.41,6Zm23.76-7.58q-1.14,2.28-2.23,4.54l-1.69-.16c-0.85-3.82-2.77-6.84-2.65-10.41,0.76,2.77,3.35,5.69,6.65,5.39,0,0.23.05,0.45,0.08,0.69Zm20.37,5.17-1.27-.07a8.49,8.49,0,0,0,1.39-1.28A4.35,4.35,0,0,1,3470.59,1764.62Zm2.32,0.59a2,2,0,0,0-.61-0.3,5.53,5.53,0,0,0-1-2.42,21.52,21.52,0,0,0,2.74-4.92,13.29,13.29,0,0,0,.52-1.77c0.07,0.87.15,1.79,0.17,2.73A16.5,16.5,0,0,0,3472.91,1765.2Z" transform="translate(-2890.14 -1687.81)"/><rect class="cls-2" x="142.91" y="203.49" width="12.52" height="12.52"/><path class="cls-10" d="M2943.2,1957.31h76.28v72.46h-15.26v-30.51h-45.77v30.51H2943.2v-72.46Zm15.25,15.26V1984h45.77v-11.44h-45.77Z" transform="translate(-2890.14 -1687.81)"/><path class="cls-10" d="M3111,2029.78L3080.49,1996,3050,2029.78h-15.25v-72.46H3050v51.3l22.88-24.6h15.25l22.88,24.6v-51.3h15.25v72.46H3111Z" transform="translate(-2890.14 -1687.81)"/><path class="cls-10" d="M3141.51,1957.31h76.28v72.46h-15.26v-30.51h-45.77v30.51h-15.25v-72.46Zm15.25,15.26V1984h45.77v-11.44h-45.77Z" transform="translate(-2890.14 -1687.81)"/><path class="cls-10" d="M3309.32,1999.26h-15.26l15.26,30.51H3291.2l-15.25-30.51H3248.3v30.51H3233v-72.46h76.28v42Zm-61-26.7V1984h45.77v-11.44H3248.3Z" transform="translate(-2890.14 -1687.81)"/><path class="cls-10" d="M3324.58,2029.78v-72.46h61l15.26,57.21v15.25h-76.28Zm15.25-15.25h44.81l-11.15-42h-33.66v42Z" transform="translate(-2890.14 -1687.81)"/><path class="cls-10" d="M3492.38,1984v45.77H3416.1v-15.25h61v-15.26h-61v-42h76.28v15.26h-61V1984h61Z" transform="translate(-2890.14 -1687.81)"/></svg>