<svg id="Layer_1" data-name="Layer 1" xmlns="http://www.w3.org/2000/svg" xmlns:xlink="http://www.w3.org/1999/xlink" viewBox="0 0 655.84 374.47"><defs><style>.cls-1{fill:#79aed8;}.cls-2{fill:#295c7f;}.cls-3{fill:#fff;}.cls-4{fill:url(#linear-gradient);}</style><linearGradient id="linear-gradient" x1="92.81" y1="2069.27" x2="666.42" y2="2069.27" gradientUnits="userSpaceOnUse"><stop offset="0" stop-color="#295c7f" stop-opacity="0"/><stop offset="0.19" stop-color="#295c7f" stop-opacity="0.04"/><stop offset="0.4" stop-color="#295c7f" stop-opacity="0.14"/><stop offset="0.62" stop-color="#295c7f" stop-opacity="0.31"/><stop offset="0.85" stop-color="#295c7f" stop-opacity="0.55"/><stop offset="1" stop-color="#295c7f" stop-opacity="0.75"/></linearGradient></defs><title>fte-otg-full-logo</title><polygon class="cls-1" points="655.72 235.77 655.72 329.61 610.87 374.46 0 374.46 0 280.62 44.85 235.77 655.72 235.77"/><path class="cls-2" d="M168.49,2280.06h-9v16.78h-4.48v-16.78h-9v-4.48h22.38v4.48Z" transform="translate(-92.81 -1962.09)"/><path class="cls-2" d="M195.34,2296.85h-4.48v-9H177.44v9H173v-21.26h4.48v7.83h13.43v-7.83h4.48v21.26Z" transform="translate(-92.81 -1962.09)"/><path class="cls-2" d="M204.29,2287.89v4.48h17.9v4.48H199.82v-21.26h22.38v4.48h-17.9v3.36h17.9v4.48h-17.9Z" transform="translate(-92.81 -1962.09)"/><path class="cls-2" d="M180.76,2268.95H146.13V2236h34.63v32.9Zm-27.71-26v19h20.78v-19H153.05Z" transform="translate(-92.81 -1962.09)"/><path class="cls-2" d="M222.32,2268.95h-6.93L194.61,2246v22.94h-6.93V2236h6.93L215.39,2259V2236h6.93v32.9Z" transform="translate(-92.81 -1962.09)"/><path class="cls-3" d="M261.32,2248.92V2284h38.32v-12.77H274.09V2258.5h38.32v38.32H248.55v-60.67h63.86v12.77H261.32Z" transform="translate(-92.81 -1962.09)"/><path class="cls-3" d="M389,2271.27H376.27L389,2296.82H373.87l-12.77-25.54H338v25.54H325.18v-60.67H389v35.12ZM338,2248.92v9.58h38.32v-9.58H338Z" transform="translate(-92.81 -1962.09)"/><path class="cls-3" d="M465.67,2296.82H401.81v-60.67h63.86v60.67Zm-51.09-47.9V2284H452.9v-35.12H414.59Z" transform="translate(-92.81 -1962.09)"/><path class="cls-3" d="M542.31,2296.82H478.45v-60.67h12.77V2284h38.32v-47.9h12.77v60.67Z" transform="translate(-92.81 -1962.09)"/><path class="cls-3" d="M618.94,2296.82H606.17l-38.32-42.31v42.31H555.08v-60.67h12.77l38.32,42.31v-42.31h12.77v60.67Z" transform="translate(-92.81 -1962.09)"/><path class="cls-3" d="M631.71,2296.82v-60.67H682.8l12.77,47.9v12.77H631.71ZM644.48,2284H682l-9.34-35.12H644.48V2284Z" transform="translate(-92.81 -1962.09)"/><path class="cls-2" d="M748.65,2171.25c-0.12,1.05-2.84,2.17-4.29,2.81a32,32,0,0,1-9.92,2.52,24.8,24.8,0,0,1-4.89.29c-1.14-.12-2.08-0.9-2.82-0.88s-1,.51-1.77.59c-1.56.18-3.51-.36-5.33-0.59s-3.64-.4-5.19-0.74a13.51,13.51,0,0,1-1.63-9c0.3-1.43,1.54-1.86,1.48-3.25,0-1.14-1.12-1.68-1.77-2.52a28.41,28.41,0,0,1-1.78-2.82,54.92,54.92,0,0,1-3.56-8.29c-0.65-1.74-1.51-3.33-2.22-5-1.46-3.54-2.81-7.12-4-10.66a61.41,61.41,0,0,0-4-8.37c-1.81-6.18-4.88-11.91-6.65-18.1,0-.09,0-0.18,0-0.27s0-.11,0-0.16h0c-0.09-.11-0.19-0.2-0.27-0.32a26.31,26.31,0,0,1-1.8-3.32,61,61,0,0,0-3.83,5.8c-0.93,3.55-2.21,7-3.51,10.52a95.07,95.07,0,0,0-6.31,13.2h0c-2.52,3.65-3.79,7.71-6.21,11.85-1,1.62-2.15,3.45-3.55,5.48-1,1.38-3.4,3.77-3.7,5.32s0.37,3.93-.15,5.48c-0.3.87-1.13,1.07-1.19,1.92a14.87,14.87,0,0,0,1,2.81,10.93,10.93,0,0,0,3.55,3.11c2.78,1,6-.41,8.14.59,0.61,0.28,1.89,1.59,1.78,2.51s-2.44,2.34-3.56,2.66a41,41,0,0,1-6.06.6,34.46,34.46,0,0,1-6.67.15c-2-.31-1.85-1.4-3.26-2.22-0.79-.47-1.51-0.44-2.37-0.89-0.73.1-1,.67-1.77,0.74-3.43-1.21-7.89-1.4-10.51-3.41,0.07-.82.49-1.46,0.59-2.22s-0.07-1.29,0-1.92c0.11-1,.51-2.18.74-3.26s0.32-2.53.59-3.54c0.69-2.56,2.6-4.76,3.55-7,0.29-.66.3-1.45,0.59-2.07,1.09-2.34,3.38-3.82,4.29-6.08,0.55-1.35.86-2.86,1.33-4.29,1-2.89,1.86-5.73,2.81-8.58a15.83,15.83,0,0,0,1.19-4.29c-0.09-.08-0.2-0.13-0.29-0.2,3.24-5.32,4.6-11.92,6.75-17.64,1.37-3.63,4.49-8.44,6.43-13.24-1,1-1.93,1.92-2.79,3-3.73,4.49-8,8.43-12.06,12.6-3.41,3.52-7,6.9-10.52,10.4,0,0.53,0,1.08,0,1.64a6.08,6.08,0,0,1-1.84,5q-2.59,2.5-5.22,5c-2.46,2.3-5,4.57-7.42,6.87L614.19,2153c-0.9.84-1.72,1.76-2.69,2.5a69.23,69.23,0,0,0-7.92,7.17c-1.83,1.93-3.68,3.81-5.64,5.59-1.77,1.61-3.57,3.2-5.33,4.82a7.28,7.28,0,0,0-.94,1.2c-1.78,2.54-4.21,3.08-7,2.22-2.48-.76-3.38-3.83-3.1-5.87,0-.3.13-0.59,0.19-0.86a7.78,7.78,0,0,1-3.42-3.33,9.65,9.65,0,0,0-1.3-1.69c-0.67-.82-1.36-1.64-2-2.43-1.6.31-2.7,1.86-4.53,1.52-0.85-.39-0.84-1.21-0.76-2.25l1.86-2.47-1.11-1a0.87,0.87,0,0,0-.36-0.27c-1.52-.11-1.94-1.46-2.75-2.31a1.23,1.23,0,0,1,.06-0.53,28.81,28.81,0,0,0,3.15-5.38,37.92,37.92,0,0,1,3.65-5.27,130.47,130.47,0,0,1,12.71-14.1c2.07-2,4.27-3.8,6.43-5.68,1.77-1.54,3.58-3,5.36-4.57a2.16,2.16,0,0,0,.57-0.7,7.09,7.09,0,0,1,1.62-2.19,6.17,6.17,0,0,0,1-1.69,38.89,38.89,0,0,1,6.57-8.8,2,2,0,0,1,2.31-.7l3.48-3.2-0.61-.63c1.76-.7,3.42-1.37,5.24-0.39a1.61,1.61,0,0,0,1.47,0,3.62,3.62,0,0,1,2.08-.2c1.52,0.26,3-.23,4.67-0.06,1.54,0.86,3.23,1.72,2.58,4.22l2,1.47,1-.5,2.42,3.32,2.22-.83,1.87,1.48a4.89,4.89,0,0,1-.47,3.55l1.58,1.9c0.81-.75,1.59-1.46,2.35-2.18,0.33-.32.65-0.65,1-1l15.76-15.89a2.71,2.71,0,0,1,1.93-1.16l8.82-8.75a8.83,8.83,0,0,0-.4-2.23,6,6,0,0,0-2.32-3.41,2.46,2.46,0,0,0,.1-0.31c-1.1-.43-2.52-0.55-3.41-1.18,0.91-7.38,3.17-15.33,3.7-23.25,0.18-2.67-.55-4.62-0.6-6.66s0.76-4.27.75-6.37-0.91-3.88-.75-5.78,1.57-3.7,1.63-5.62a16.6,16.6,0,0,0-.44-2.37,19,19,0,0,1,.15-3.71,24.74,24.74,0,0,1,.44-3.4c0.23-.86,1.12-1.68,1.34-2.67,0.29-1.41-.08-3,0-4.29,0.4-6.53,3.15-11.48,6.07-15.7,1.32-1.92,2.75-4.09,4.59-5,1-.51,2.37-0.47,3.26-1.49,0.74-.85.57-2.24,1.33-3.11s1.49-.39,2.08-1.48c-1.64-1.56-2.52-3.54-3.71-5.77a16.83,16.83,0,0,1-1.77-3.55,22.21,22.21,0,0,1,.45-8.74,15.47,15.47,0,0,1,2.07-3.11,10.86,10.86,0,0,1,2.52-2.67c1.42-.83,4.7-1.18,7.41-1.34a10.89,10.89,0,0,1,4.59.74,27.25,27.25,0,0,1,2.81.74c1,0.52,1.38,1.66,2.21,2.67-0.1,1.28-.8,2.29-0.73,3.55,0.07,1.41,1.11,2.53,1.47,3.7-0.54,2.23.06,2.78,1.34,4,0.53,0.51,1.6,1.22,1.63,1.78,0,0.88-1.54,1.36-1.78,2.37-0.16.67,0.19,1.8,0,2.81a15.61,15.61,0,0,0-.44,1.63c0,0.68.47,1.37,0.29,2.07-1.22,1.94-4.62,1.69-6.52,3,0.32,2.52-2,4.12-1,5.92,0.2,0.37.49,0.34,0.44,0.3,1.11,1,1.31,1.83,2.08,3.26,0.43,0.79,1,1.36,1.33,2.07,0.53,1.33.36,3,1,4.59,0.37,0.89,1.16,1.34,1.63,2.22,1,2,1.47,4.39,2.37,6.51a106,106,0,0,1,5.19,16,29.09,29.09,0,0,0,.74,3.56c0.17,0.41.72,1.06,1,1.63s0.63,1.45.89,1.78c1,1.24,3.3,2,4.88,3a24,24,0,0,1,2.07,1.78c0.79,0.65,1.75,1.09,2.37,1.62,1.42,1.23,2.4,3.07,3.7,3.85,1.07,0.65,2.19.66,3.12,1.33,0.07,0.75,1.11,1.19,1.18,2.07,0,0.41-.48,1.1-0.6,1.93-0.07.5,0.08,1.12,0,1.49-0.16.71-1.08,2.35-1.62,2.51a4.68,4.68,0,0,1-2.36-1.48c-0.63-.72-0.78-1.72-1.64-2.22-1.45.51-1.36,1.69-3,1.78-2.35.12-3.55-2.81-5.77-3.12-0.47,2,.15,4.19.44,6.51,0.56,4.42,1.52,8.22,2.37,12.74,0.38,2,1.31,5.2.45,6.66-1.24,2.08-6.08.42-8.89,1.19a27.54,27.54,0,0,0-.6,8.73c0.05,1.13,0,2.28.15,3.27,0.1,0.66.47,1.27,0.59,1.92s0.22,1.51.31,2.22c0.52,4.59,1.5,9.18,1.77,13.62a20.39,20.39,0,0,0,0,3c0.19,0.85,1.24,1.59,1.19,2.81s-1.56,2-1.63,3.4c-0.09,1.76,2,4,2.37,6.52,0.13,0.93-.18,1.91,0,3,0.22,1.29,1.39,3,1.92,4.45,0.71,1.94.68,3.82,1.33,5,0.46,0.85,1.44,1.24,2.22,1.92,3.27,2.84,3.72,8.91,5.48,13.33a37.4,37.4,0,0,1,1.33,3.54,15.51,15.51,0,0,0,.3,1.78,10.57,10.57,0,0,0,2.52,2.81,24.67,24.67,0,0,0,6.66,4.14,14.13,14.13,0,0,0,4.3,1.18c1.83,0.12,2.86-.7,4.29-0.29C746.89,2168.87,748.79,2170.09,748.65,2171.25Z" transform="translate(-92.81 -1962.09)"/><path class="cls-4" d="M664.86,1977c0.21-1.54-.61-3.46.26-5.18,0.43-.69.87-1.4,1.29-2.1-0.83-2.53-8.54-6-12.52-6.66l-4.28.19a11.4,11.4,0,0,0-8.38,7.16c-1.32,3.11.43,8.21-.22,11a2.51,2.51,0,0,1,.06,1.66,12.21,12.21,0,0,0,2.22,5.69c-0.38,4.22-4.48,7.45-6,10-0.9,1.51-1.21,3.73-2.23,5.69s-2.92,3.61-3.33,5.17c-1.61,6-.06,10.71-1.31,16.13a18.94,18.94,0,0,0-.18,2.67,13.93,13.93,0,0,1,0,2.87,15.87,15.87,0,0,1-.16,3.16c0.26,7.25-2.45,9.86-3.33,15.51-1,6.44.21,13.2-1.66,17.58a17.48,17.48,0,0,1-4.58,5.69,7.07,7.07,0,0,0-2.35-2.64l0.21,0c2.81-5.75,3.93-17.58,4.42-25,0.37-5.86,2.78-11.89,1.64-17.84-0.28-1.49-1.43-2.6-1.64-4.09-0.39-2.72.61-5.8,0-8.66s-3.51-5.72-5.47-8.66c-3.64-5.4-7.49-9.42-3.4-13.35a5,5,0,0,0,1.36.36c3.73,0.21,1.69-4.91,3.06-5.46-0.06-1.49.24-1,.88-2a1.81,1.81,0,0,1-.13-1.6c1-.59,2.09-0.13,2.51-1.51-0.5-1.24-1-2.47-1.54-3.71-0.1-1.07.63-1.38,0.72-2.52,0.12-1.53-.78-3.37,0-5.11,0.39-.7.78-1.41,1.15-2.13-0.94-2.46-8.72-5.46-12.68-6l-4.2.39a11.1,11.1,0,0,0-7.86,7.44c-1.13,3.13.88,8.06,0.38,10.83a2.49,2.49,0,0,1,.15,1.64,14,14,0,0,0,1.55,4.18,26.25,26.25,0,0,1-2.19,8.38c-0.54,1.22-2.15,1.93-2.74,3.05-0.85,1.64-.75,4.11-1.65,6.12-1.16,2.64-3,4.51-3.28,6.63-2.06,13.8,3,31.11,5.67,39.39a4.77,4.77,0,0,1,.11.57c-1.45,2.62-4.41,4.9-5.78,8a18.4,18.4,0,0,0-1,2.72,14.33,14.33,0,0,0-1.93-.25c-3.7-6.84-4.87-5.8-3.89-8.27,1.74-10.41,2.34-22.93-1.11-32.06,2.86-6.4-1.57-11.54-5-16-2.41-3.17-6.78-6.59-4.32-11.17a5.64,5.64,0,0,0,1.63.3c3.79-.1,1.23-5.1,2.55-5.77-0.2-1.5.15-1,.7-2.14a1.87,1.87,0,0,1-.29-1.61c1-.68,2.11-0.3,2.4-1.74l-1.92-3.61c-0.21-1.06.5-1.45,0.49-2.6,0-1.56-1.12-3.35-.52-5.17,0.32-.75.64-1.5,1-2.25-1.2-2.39-9.36-4.78-13.39-5l-4.21.75a11,11,0,0,0-7.21,8.18c-0.84,3.26,1.67,8.07,1.43,10.91a2.57,2.57,0,0,1,.32,1.64,12.92,12.92,0,0,0,2.7,5,11.77,11.77,0,0,1-.74,3.9c-1.63,4.34-4.68,8.85-6.66,13.45-3.5,8.16-.32,17.3-1.11,27.41-0.35,4.48-1.68,8.78-2.1,12.88-1.63-.47-3.32-0.91-5.24-1.4,0.59-6.61,1.85-15,.75-20.27-0.32-1.52-1.45-2.94-1.67-4.65-0.19-1.44.32-3.53,0-5.17-0.82-4.12-3.6-7.16-5.56-9.31a18.49,18.49,0,0,1-1.1-2.06c-2.93-3.89-6.08-7.62-1.67-10.86,0,0,1-.76,1.78-1.2a14.78,14.78,0,0,0,2.39.38c3.78-.25,1-5.15,2.3-5.87-0.26-1.5.11-1,.61-2.17a1.83,1.83,0,0,1-.35-1.59c0.93-.72,2.08-0.38,2.31-1.82-0.68-1.18-1.38-2.37-2.07-3.54-0.25-1.06.44-1.47,0.37-2.62-0.1-1.55-1.27-3.3-.75-5.14,0.29-.75.58-1.52,0.86-2.27-1.3-2.36-9.55-4.43-13.6-4.45l-4.17.91a11,11,0,0,0-6.86,8.44c-0.7,3.28,2,8,1.91,10.86a2.57,2.57,0,0,1,.38,1.62,17.68,17.68,0,0,0,.85,2c0.4,4.42-2.9,7.89-4.29,10.65-3,6-6.26,14.83-6.67,21.72-0.14,2.49.86,5.35,0.55,7.23s-2.19,3.42-2.77,5.17c-0.65,2-1,4.78-1.67,7.24l-0.26,1c-1.49-1-2.79-2.07-3.09-3.15-0.61-2.17,1.19-5,1.1-7.23-0.15-4.59-3.53-9.37-2.07-14-0.07-.72-0.14-1.45-0.24-2.16-2.45-4.31-5.41-9.44-8.23-12.81-2.31-2.76-3.43-6-.13-9.17,0,0,.1-0.3.16-0.49a6.33,6.33,0,0,0,1.59.53c3.77,0.4,2-4.88,3.4-5.38,0-1.51.29-1,1-2a1.85,1.85,0,0,1,0-1.63c1.06-.54,2.13,0,2.63-1.4-0.45-1.28-.9-2.55-1.36-3.83,0-1.08.71-1.36,0.88-2.51,0.21-1.55-.61-3.45.25-5.18,0.44-.7.87-1.4,1.29-2.1-0.83-2.53-8.53-6-12.5-6.65l-4.28.19a11.4,11.4,0,0,0-8.37,7.15c-1.33,3.11.43,8.2-.22,11a2.54,2.54,0,0,1,.06,1.65,12.13,12.13,0,0,0,2.22,5.69c-0.37,4.22-4.47,7.45-6,10-0.91,1.51-1.21,3.73-2.23,5.68s-2.91,3.61-3.32,5.17c-1.61,6-.06,10.7-1.32,16.11a19.36,19.36,0,0,0-.18,2.67,13.05,13.05,0,0,1,0,2.86,15.61,15.61,0,0,1-.15,3.16c0.25,7.24-2.45,9.84-3.33,15.5-1,6.44.21,13.19-1.67,17.56a17.5,17.5,0,0,1-4.58,5.69,7,7,0,0,0-2.34-2.64l0.21,0c2.81-5.74,3.93-17.56,4.42-25,0.38-5.85,2.78-11.88,1.64-17.82-0.27-1.48-1.43-2.6-1.64-4.08a36.68,36.68,0,0,1,.19-6v0a1.39,1.39,0,0,0,0-.15,12,12,0,0,0-.09-1.83c0-.33,0-0.68,0-1s0.1-.91.15-1.37a82.69,82.69,0,0,0-7.34-11.25c-1.55-1.85-2.56-3.91-2.08-6a7.12,7.12,0,0,1,1.64-2.26l0.12-.37H450a5.1,5.1,0,0,0,1.36.42,2.08,2.08,0,0,0,2.5-1.92,10.63,10.63,0,0,0,.62-3.23,0.63,0.63,0,0,1,.29-0.23,4.53,4.53,0,0,1,.06-0.75,0.62,0.62,0,0,1,.26-0.19c0-.14,0-0.24,0-0.34a3.79,3.79,0,0,0,.68-0.75,3.49,3.49,0,0,1-.14-0.39,3.35,3.35,0,0,0,.47-0.56,2.38,2.38,0,0,1-.21-0.76c1-.42,2,0,2.47-1.34l-0.1-.28a1.65,1.65,0,0,0,.43-0.68q-0.67-1.92-1.36-3.84a1.87,1.87,0,0,1,0-.23,3.32,3.32,0,0,0,.53-1.31h0a2.74,2.74,0,0,0,.33-1c0.17-1.27-.33-2.79,0-4.24,0.42-.68.86-1.37,1.27-2.06a2.18,2.18,0,0,0-.12-0.25l0.46-.75c-0.83-2.53-8.57-6-12.56-6.68l-4.29.19a19.24,19.24,0,0,0-11.4,9c-1.13,3.12.88,8,.38,10.81a2.54,2.54,0,0,1,.16,1.64,13.76,13.76,0,0,0,1.54,4.17,26.15,26.15,0,0,1-2.19,8.37c-0.54,1.21-2.15,1.93-2.73,3-0.85,1.63-.75,4.1-1.64,6.11-0.08.17-.17,0.32-0.25,0.49a9.79,9.79,0,0,0-1.82,2.94c0,0.15-.07.3-0.11,0.45a8,8,0,0,0-1.11,2.74,55,55,0,0,0-.17,13.05c0,0.25-.09.51-0.15,0.76a19.06,19.06,0,0,0-.18,2.67,13.88,13.88,0,0,1,0,2.87,15.85,15.85,0,0,1-.16,3.16,21.69,21.69,0,0,1-.75,6.73c-0.58,1.9-1.3,3.59-1.84,5.59a23.07,23.07,0,0,0-.74,3.19,70.26,70.26,0,0,0-.51,9.57c-2.41-3.82-3.1-3.44-2.28-5.51a84,84,0,0,0,1-23.09,18.38,18.38,0,0,0-.29-4,7.23,7.23,0,0,0-.86-2.06c-0.25-.91-0.52-1.8-0.84-2.66,0-.14,0-0.28,0-0.43a10.17,10.17,0,0,0-.21-8.59,13.55,13.55,0,0,0-1.6-2.86c-1-1.54-2.18-3-3.24-4.41l-0.18-.23-0.17-.24c-1.85-2.74-3.74-5.13-4.64-7.33a5.47,5.47,0,0,1,.68-3.35,6.07,6.07,0,0,0,1.62.3c1.94,0,2.21-1.39,2.2-2.78a4,4,0,0,0,.32-1.29,12.11,12.11,0,0,0,.29-2.69,0.72,0.72,0,0,1,.36-0.43,5.26,5.26,0,0,1,0-.59l0.07-.13-0.05-.09v0a0.57,0.57,0,0,1,.16-0.11c0-.1,0-0.16,0-0.24a4.82,4.82,0,0,0,.7-0.86,2.69,2.69,0,0,1-.17-0.45,3.31,3.31,0,0,0,.24-0.32,1.47,1.47,0,0,0,1.23-1.25v0a1.4,1.4,0,0,0,1.1-1.07l-0.14-.33a1.65,1.65,0,0,0,.34-0.63c-0.5-1.24-1-2.48-1.54-3.72,0,0,0,0,0-.07a3.73,3.73,0,0,0,.52-1.48c0-.06,0-0.12,0-0.18a2.51,2.51,0,0,0,.2-0.8c0.09-1.16-.4-2.49-0.32-3.83,0-.1.05-0.2,0.1-0.31,0.39-.7.78-1.41,1.15-2.13a2.14,2.14,0,0,0-.17-0.31l0.37-.69c-0.94-2.46-8.75-5.48-12.72-6l-4.21.39a10.77,10.77,0,0,0-7,5.56,11.82,11.82,0,0,0-3.43,5.93c-0.84,3.26,1.67,8.07,1.43,10.91a2.49,2.49,0,0,1,.32,1.64,13.83,13.83,0,0,0,2.18,4.32,32.39,32.39,0,0,1-1.47,4.2c-0.54,1.22-2.16,1.94-2.74,3.06-0.85,1.64-.76,4.12-1.65,6.14-1.17,2.64-3,4.52-3.29,6.65-0.13.89-.23,1.8-0.31,2.72-0.71,6.89.18,14.47,1.56,21.3,0,0.44,0,.87-0.07,1.31-0.35,4.47-1.68,8.77-2.1,12.87-1.59-.47-3.27-0.9-5.14-1.39,0-.09,0-0.18,0-0.27,0.21-1.88.37-3.78,0.48-5.7,0.52-5.16.94-10.51,0.15-14.3-0.32-1.52-1.44-2.94-1.67-4.65-0.19-1.44.32-3.52,0-5.15,0.42-4.91-3.07-9-5.89-12.75-1.46-1.92-3.63-3.94-4.58-6.24a4.64,4.64,0,0,1,2.15-3.24s1-.76,1.78-1.19a15,15,0,0,0,2.39.37c3.78-.25,1-5.14,2.31-5.86-0.27-1.5.1-1,.6-2.17a1.82,1.82,0,0,1-.35-1.59c0.93-.72,2.07-0.38,2.31-1.83-0.68-1.18-1.37-2.36-2.07-3.54-0.25-1.06.44-1.47,0.37-2.62-0.09-1.56-1.26-3.3-.74-5.14,0.29-.76.58-1.52,0.87-2.28-0.92-1.65-5.27-3.17-9.18-3.93a31.08,31.08,0,0,0-7.6-1.59l-4.22.75a11.07,11.07,0,0,0-7.24,8.2,6.7,6.7,0,0,0-.15,2.13c-0.15,3.16,1.8,7.24,1.59,9.77a2.57,2.57,0,0,1,.32,1.64,13,13,0,0,0,2.65,4.92,11.67,11.67,0,0,1-.69,3c-1.64,4.36-4.7,8.88-6.69,13.49-1.56,3.63-1.79,7.46-1.65,11.48,0.07,3.25.44,6.62,0.61,10.12-0.66,1.39-1.94,2.64-2.39,4-0.65,2-1,4.77-1.67,7.23-0.61,2.28-1.11,4.42-1.58,6.6l-1.67-.43c0.51-5.38,1.37-11.75,1-16.69a22.71,22.71,0,0,0-.41-3.68c-0.32-1.51-1.43-2.92-1.66-4.62a36.37,36.37,0,0,0,.1-3.94,6.78,6.78,0,0,0-.11-1.3c-0.82-4.13-3.61-7.18-5.57-9.34a18.58,18.58,0,0,1-1.11-2.07c-1.65-2.19-3.36-4.32-3.77-6.35a4.48,4.48,0,0,1,2.17-3.62s1-.76,1.78-1.2a14.8,14.8,0,0,0,2.39.38c2.23-.15,2.18-1.9,2-3.47,0-.46-0.05-0.94-0.1-1.38a1.09,1.09,0,0,1,.37-1,3.1,3.1,0,0,1-.07-0.93h0v0c0.08-.37.34-0.43,0.67-1.18a2.77,2.77,0,0,1-.28-0.52,3.31,3.31,0,0,0,.22-0.43,2.61,2.61,0,0,1-.3-0.59s0,0,0-.06c0.93-.72,2.08-0.38,2.31-1.82l-0.23-.4a1.76,1.76,0,0,0,.19-0.56c-0.67-1.16-1.35-2.31-2-3.46a4.91,4.91,0,0,0,.37-1.74,4.23,4.23,0,0,0-.07-0.51,2.49,2.49,0,0,0,0-.46c-0.07-1.07-.63-2.23-0.82-3.44a3.52,3.52,0,0,1,.12-0.72c0.29-.75.58-1.52,0.86-2.27a2.27,2.27,0,0,0-.28-0.39l0.23-.61c-1.3-2.36-9.58-4.44-13.64-4.46l-4.18.91a11,11,0,0,0-6.88,8.47,7.57,7.57,0,0,0,0,2.83c0.21,2.47,1.45,5.32,1.86,7.57,0,0.17,0,.33,0,0.49l0.09,0.17a5.56,5.56,0,0,1,0,.78,3,3,0,0,1,.26.59s0,0.06,0,.09l0.08,0.2a2.69,2.69,0,0,1,0,.75,17.26,17.26,0,0,0,.76,1.78c0,4.08-3,7.32-4.33,9.93-3,6-6.28,14.87-6.69,21.79-0.14,2.5.86,5.37,0.55,7.26s-2.2,3.43-2.78,5.19c-0.65,2-1,4.8-1.68,7.26-0.09.35-.17,0.67-0.26,1a8.25,8.25,0,0,1-3-2.92c-0.23-2.08,1.26-4.61,1.18-6.69a13.69,13.69,0,0,0-.39-2.69c-0.41-2.18-1.28-4.38-1.81-6.58a9.43,9.43,0,0,1,.13-4.7c-0.07-.72-0.14-1.45-0.24-2.16l-0.1-.18c0-.22,0-0.45-0.07-0.67-2.45-4.32-5.42-9.46-8.25-12.84a10,10,0,0,1-1.92-3.26,5.57,5.57,0,0,1,2-5s0.1-.3.16-0.49a6.33,6.33,0,0,0,1.59.53c3.77,0.4,2-4.88,3.4-5.38,0-1.51.29-1,1-2a2.08,2.08,0,0,1-.2-0.93v-0.05a2.17,2.17,0,0,1,.15-0.65c1.06-.54,2.13,0,2.63-1.4l-0.27-.77a2,2,0,0,0,.09-0.19c-0.38-1.09-.77-2.18-1.16-3.26,0.13-.78.71-1.12,0.85-2.12,0.21-1.55-.61-3.45.25-5.18,0.44-.7.87-1.4,1.29-2.1a2.55,2.55,0,0,0-.38-0.67l0.2-.33c-0.83-2.53-8.56-6-12.54-6.67l-4.29.19a11.44,11.44,0,0,0-8.39,7.17c-1.33,3.12.43,8.23-.22,11a2.55,2.55,0,0,1,.06,1.66,16.18,16.18,0,0,0,.48,2.11,11.68,11.68,0,0,0,1.68,4.06c-0.62,4-4.48,7.1-6,9.59-0.91,1.52-1.21,3.74-2.24,5.7s-2.92,3.62-3.33,5.19c-1.61,6-.06,10.73-1.32,16.16a19.41,19.41,0,0,0-.18,2.67,13.09,13.09,0,0,1,0,2.87,15.63,15.63,0,0,1-.15,3.17c0.25,7.26-2.46,9.87-3.34,15.55-1,6.46.21,13.23-1.68,17.62a17.55,17.55,0,0,1-4.59,5.7,7.85,7.85,0,0,0-1.71-2.17c2.73-5.82,3.83-17.42,4.31-24.73,0.37-5.85,2.78-11.88,1.64-17.82a4.78,4.78,0,0,0-.39-1.15,16.76,16.76,0,0,0-1.15-2.49,3.55,3.55,0,0,1-.1-0.44c-0.39-2.72.61-5.8,0-8.66a7.15,7.15,0,0,0-.45-1.33c-0.81-2.7-3.48-5.42-5.34-8.21s-3.63-5-4.56-7.15a4.81,4.81,0,0,1,1.49-5.31,4.78,4.78,0,0,0,1.36.36c3.73,0.21,1.69-4.91,3.06-5.46-0.06-1.49.24-1,.88-2a1.87,1.87,0,0,1-.12-1.6c1-.58,2.09-0.12,2.51-1.5l-0.36-.86s0-.06,0-0.1c-0.4-1-.81-2-1.22-3,0-.9.63-1.25,0.72-2.3,0.12-1.53-.79-3.37,0-5.11,0.39-.7.78-1.41,1.15-2.12a2.63,2.63,0,0,0-.47-0.72l0.15-.28c-0.95-2.46-8.75-5.47-12.71-6l-4.21.39a11.13,11.13,0,0,0-7.87,7.46c-1.13,3.13.88,8.07,0.38,10.85a2.55,2.55,0,0,1,.16,1.64,14.9,14.9,0,0,0,1,3.05,12.72,12.72,0,0,0,.56,1.32,26.87,26.87,0,0,1-2.19,8.2c-0.54,1.22-2.16,1.94-2.74,3.06-0.85,1.63-.75,4.12-1.65,6.13-1.17,2.64-3,4.52-3.29,6.64-2.07,13.83,3,31.17,5.68,39.48a3.74,3.74,0,0,1,.11.57c-1.45,2.62-4.42,4.91-5.79,8a18.13,18.13,0,0,0-1,2.73,15.38,15.38,0,0,0-1.91-.25c-0.24-.42-0.46-0.81-0.68-1.17a42.77,42.77,0,0,0-3-4.57,2.21,2.21,0,0,1,.21-1.81c1.74-10.4,2.34-22.91-1.11-32,1.65-3.69.87-6.95-.73-9.91a41.1,41.1,0,0,0-4.71-7,55.89,55.89,0,0,1-4-5.1,5.49,5.49,0,0,1,.15-5.17,6.07,6.07,0,0,0,1.62.3c3.78-.1,1.22-5.09,2.56-5.77-0.2-1.5.14-1,.69-2.14a1.87,1.87,0,0,1-.29-1.61c1-.67,2.11-0.3,2.39-1.74l-0.47-.88s0,0,0-.07l-1.48-2.8c-0.12-.95.51-1.35,0.5-2.45,0-1.55-1.12-3.34-.52-5.16,0.32-.75.65-1.5,1-2.25a2.76,2.76,0,0,0-.57-0.71l0.12-.29c-1.2-2.4-9.38-4.79-13.42-5l-4.21.75a11.08,11.08,0,0,0-7.24,8.2c-0.84,3.27,1.67,8.09,1.43,10.94a2.5,2.5,0,0,1,.32,1.64,15.27,15.27,0,0,0,1.44,3.25,11.73,11.73,0,0,0,1.25,2,11.82,11.82,0,0,1-.72,3.63c-1.64,4.35-4.7,8.86-6.68,13.47-3.51,8.18-.32,17.34-1.11,27.47-0.35,4.49-1.69,8.79-2.11,12.91-1.45-.42-3-0.82-4.63-1.25,0.61-6.5,1.77-14.51.69-19.65-0.32-1.52-1.44-2.94-1.67-4.65-0.19-1.44.32-3.54,0-5.17a15,15,0,0,0-2.56-5.68,30.82,30.82,0,0,0-3.45-4.37,8.17,8.17,0,0,0-.63-1.31l-0.33-.43a2.74,2.74,0,0,0-.25-0.45c-0.68-.91-1.37-1.8-2-2.68-1.6-2.59-2.15-5.05.89-7.28,0,0,1-.76,1.78-1.19a15,15,0,0,0,2.39.37c3.78-.25,1-5.14,2.31-5.86-0.27-1.5.1-1,.6-2.17a1.82,1.82,0,0,1-.35-1.59c0.93-.72,2.07-0.38,2.31-1.83l-0.56-1h0c-0.5-.86-1-1.72-1.51-2.58-0.25-1.06.44-1.47,0.37-2.61-0.09-1.56-1.26-3.3-.74-5.14,0.29-.76.59-1.52,0.87-2.28a2.88,2.88,0,0,0-.66-0.74l0.1-.26c-1.31-2.36-9.58-4.43-13.63-4.46l-4.18.91a11,11,0,0,0-6.87,8.46c-0.7,3.29,2,8,1.91,10.88a2.5,2.5,0,0,1,.39,1.62,17.71,17.71,0,0,0,.85,2c0.4,4.43-2.9,7.91-4.3,10.68-3,6-6.27,14.87-6.68,21.77-0.14,2.5.86,5.36,0.56,7.25s-2.2,3.41-2.78,5.19c-0.65,2-1,4.79-1.68,7.25-1.38,5.19-2.25,9.67-3.34,15.55-0.58,3.15-2.95,9.73-2.95,12,0,1.72,2.21,0,1.83,1.51-0.74,2.92-5.43,6.89-6.77,10.89a5.75,5.75,0,0,0-2.48,3.87c-1.3.66-1.51,2-2.22,3-5.64-.49-10.51-2.1-16.83-1.62-1.58,8.75-2.83,17.37-4.17,26.22-0.43,2.91-1.29,6-.65,9.15,3.08,1.49,7,1.46,10.78,1.92s7.78,1,11.72,1.57a71.21,71.21,0,0,0-9.33,13.49c-0.7,1.11-4.49,10-5.55,11.58-0.18.27,1.65,0.89,1.48,1.14a21.07,21.07,0,0,0-1.48,2.75c-2.23,4-6.78,6.37-4.63,11.5,4,2.62,14.11,3,13.61,7.55,0.09,0.34.18,0.7,0.25,1.07a1.48,1.48,0,0,0,.79,1,2,2,0,0,1,.52,0c3.13,0.31,6.27.47,9.41,0.83,1.6,0.19,3.2.48,4.22,0a4.2,4.2,0,0,0,.36-1.5h0c-0.58-3.22-3.75-2.68-6.79-3.88-1.77-4.27-7.7-9.58-6.86-14.62,0.27-1.6,2.42.48,2.42,0.48,0.6-1.92,3.43-5.23,5.06-6.92s1.6-5.46,3.84-7.44,3.78-4.67,5.91-5.16c0.79-.9,1.59-1.78,2.34-2.7a33,33,0,0,1,3.32-6.32c0.66,0.07,1.3.11,1.92,0.14v0.46c0.32,0,.66.06,1,0.07,0.59,0,1.16-.2,1.73-0.19,2.79,0.08,6.94,2.21,9-.88,0.81-1.23,1-4.48,1.2-6.86,4.49,1.73,9,3.51,13.53,5.26,1.58,0.61,3.16,1.33,4.72,2-1.62,1.7-3.11,3.4-3.53,5.34-2.36,1.12-5.45,2.43-7.58,4.15-0.63.51,0.65,1.62-.21,2.07-3.36,1.72-8.68,1.59-9.46,5.18-0.86,3.92,3.92,7.89,5.57,11.92,1.8,4.43,1.87,8.15,5.35,10.23a7.37,7.37,0,0,0,.8.52h7.21a4.73,4.73,0,0,0-.64-3.36c1.06-.31,1.93-1.12,3-1.4,0.54,0.65,1.1,1.31,1.65,2a9.66,9.66,0,0,1,1.3,1.7,7.24,7.24,0,0,0,2.67,2.87c0.24,0.18.49,0.35,0.75,0.51-0.06.26-.14,0.54-0.18,0.83-0.25,1.85.47,4.51,2.43,5.58a3.7,3.7,0,0,0,1.21.67c2.57,0.79,4.85.36,6.59-1.75l0.76,0.52c6.26,0,12.48.17,18.78,0.13l0.54,0a34,34,0,0,0,4.83-1.24v0a3.86,3.86,0,0,0,.38.23l0.06,0.15a8,8,0,0,0,2,1c9.37,0,19-.13,28.63-0.25a2.47,2.47,0,0,0,.24-1,2.31,2.31,0,0,0-.1-0.39h0a5.13,5.13,0,0,0-.88-1.55,1.74,1.74,0,0,1,.72.27,1.29,1.29,0,0,1,.14.3l0.28,0.25a1.25,1.25,0,0,1,.06.12c0.15,0.12.29,0.25,0.43,0.38l2,0.59a19.34,19.34,0,0,0,3.27.68l1.66,0a3.66,3.66,0,0,0,.52.24,5.8,5.8,0,0,0,5.79-.92c0.49-.15,1-0.32,1.43-0.51l0.3-.36h-0.07c0.29-.86.72-1.43,0.84-2l1.44-1.3c2.69-.19,4.9.08,6.15,1.68a4.49,4.49,0,0,1,.36.67h0a0.37,0.37,0,0,1,.07.1,4,4,0,0,1,.22.36l0,0a4.12,4.12,0,0,1,.22.35l0.48,0.22c1.28,0.67,1.87,1.38,2.64,1.69a4.38,4.38,0,0,0,1.26-.19,3,3,0,0,1,.33,0,3,3,0,0,1,.51-0.09l0.26-.07a9.91,9.91,0,0,0,1.37-.37l1-.41a8,8,0,0,0,1-.61l0.37-.26,0.16-.12,0.31-.24h0a1,1,0,0,1,.41-0.64,2.38,2.38,0,0,1,.07.87c0.09,0.34.18,0.7,0.25,1.08a1.55,1.55,0,0,0,.33.67,1.48,1.48,0,0,0,.68.73,2,2,0,0,1,.52,0c3.12,0.31,6.25.47,9.39,0.83,1.59,0.19,3.2.47,4.22,0a4.36,4.36,0,0,0,.36-1.49h0a3.62,3.62,0,0,0-.43-1.2c-1-2.28-3.78-2-6.51-3-0.11-.25-0.24-0.49-0.37-0.75-1.22-2.42-3.51-5.13-5-7.92a8.94,8.94,0,0,1-1.25-5.54c0.27-1.61,2.41.48,2.41,0.48,0.61-1.92,3.43-5.22,5.05-6.91s1.6-5.44,3.84-7.42,3.76-4.66,5.9-5.15l0.75-.86a50.25,50.25,0,0,1,2.61,10c0.72,7-1.85,13.19,0,19.69l0.08,0.06c0,0.11,0,.22.08,0.33,2.3,2.14,4.94,1.41,7.81.25,4.62,1.7,11.49,2.63,11.07,6.35,0.09,0.34.18,0.7,0.25,1.07a1.48,1.48,0,0,0,.78,1,2,2,0,0,1,.52,0c3.12,0.31,6.25.47,9.39,0.83,1.59,0.19,3.19.47,4.21,0a4.19,4.19,0,0,0,.36-1.49h0c-0.49-2.72-2.83-2.75-5.38-3.43a3.6,3.6,0,0,1,.36-0.41c1.76-1.62,3.55-3.21,5.33-4.82,2-1.78,3.82-3.67,5.65-5.59,1.59-1.67,3.29-3.24,5-4.75,0.48,1.6,1,3.19,1.41,4.76,0.35,1.18,2,2.14,2.13,3.33a14.38,14.38,0,0,1,.13,1.7c0,1,0,2.1,0,3.15a9,9,0,0,0,1.46,5.39c0.2,0.25.4,0.48,0.61,0.71,0.39,0.28.8,0.56,1.21,0.83,6,0,11.91.15,17.9,0.12,0-.12-0.06-0.24-0.1-0.36h0.15a13.35,13.35,0,0,1-.49-2.25,13,13,0,0,1-2.16-2.75,9.26,9.26,0,0,1-3.7.05,6.5,6.5,0,0,1-1.53-.49c-1.83-.85-4.79-3-4.52-8.29,0-.06,0-0.11,0-0.17h0c0-.07,0-0.13,0-0.19s0-.14,0-0.2c-0.24-.3-0.44-0.57-0.58-0.78l-0.13-.18a6.48,6.48,0,0,1-1.68-4.39,6.67,6.67,0,0,1,1.6-4.29,5.44,5.44,0,0,0,.44-0.63c1.31,2,3,4.08,3.81,6.14,1.83,4.5,1.86,8.29,5.55,10.33h7.21a4.72,4.72,0,0,0-.64-3.36c1.12-.32,2-1.22,3.21-1.45,0.66,0.79,1.35,1.6,2,2.43a9.63,9.63,0,0,1,1.3,1.7,7.78,7.78,0,0,0,3.42,3.33c-0.06.27-.15,0.57-0.19,0.86-0.27,2,.62,5.11,3.1,5.87s4.85,0.36,6.59-1.75l0.76,0.52c6.26,0,12.48.17,18.78,0.13l0.54,0a35.88,35.88,0,0,0,5.09-1.32c0.06,0.16.14,0.32,0.19,0.47a8,8,0,0,0,2,1c9.37,0,19-.13,28.63-0.25a2.47,2.47,0,0,0,.24-1,2.31,2.31,0,0,0-.1-0.39h0a5.12,5.12,0,0,0-.88-1.55,1.34,1.34,0,0,1,1.2.94c0.15,0.12.29,0.25,0.43,0.38l2,0.59a19.32,19.32,0,0,0,3.27.68l1.66,0a3.65,3.65,0,0,0,.52.24,5.8,5.8,0,0,0,5.79-.92c0.49-.15,1-0.32,1.43-0.51l0.3-.36h-0.07c0.29-.86.72-1.43,0.84-2l1.44-1.3c3.2-.23,5.74.18,6.77,2.73h0a0.38,0.38,0,0,1,.07.1,4.07,4.07,0,0,1,.22.35l0.48,0.22c1.28,0.67,1.87,1.38,2.64,1.69a4.38,4.38,0,0,0,1.26-.19,3,3,0,0,1,.33,0,3,3,0,0,1,.51-0.09l0.26-.07a9.89,9.89,0,0,0,1.37-.37l1-.41a7.94,7.94,0,0,0,1-.61l0.37-.26,0.16-.12,0.31-.24h0a1.1,1.1,0,0,1,.5-0.72,2.48,2.48,0,0,1,.21,1.32c0.09,0.34.18,0.7,0.25,1.07a1.49,1.49,0,0,0,.79,1,2,2,0,0,1,.52,0c3.12,0.31,6.25.47,9.39,0.83,1.59,0.19,3.2.47,4.22,0a4.35,4.35,0,0,0,.36-1.49h0c-0.58-3.22-3.74-2.68-6.77-3.88-1.76-4.25-7.68-9.55-6.84-14.58,0.27-1.61,2.41.48,2.41,0.48,0.61-1.92,3.43-5.22,5.05-6.91s1.6-5.44,3.84-7.42,3.76-4.66,5.9-5.15l0.76-.87c1.11,3.49,2.39,6.94,2.76,10.5,0.72,7-1.84,13.15,0,19.63,4,3.71,9-1.19,14.42-2.07l0.84-.11a8,8,0,0,0,3.24,3c-0.06.27-.15,0.56-0.19,0.86-0.28,2,.62,5.11,3.1,5.87,2.77,0.85,5.2.31,7-2.22a7.31,7.31,0,0,1,.94-1.2c1.76-1.62,3.55-3.21,5.33-4.82,2-1.78,3.82-3.67,5.65-5.59,1.59-1.67,3.29-3.24,5-4.75,0.48,1.6,1,3.19,1.41,4.76,0.35,1.18,2,2.14,2.13,3.33,0.49,3.37-.64,7.13,1.59,10.23,0.2,0.25.4,0.48,0.61,0.71,0.39,0.28.8,0.56,1.21,0.83,6,0,11.91.15,17.9,0.12a13.3,13.3,0,0,1-.49-2.25,13,13,0,0,1-2.15-2.74,9.21,9.21,0,0,1-3.69.05,6.46,6.46,0,0,1-1.52-.49c-1.87-.86-4.93-3.13-4.49-8.64,0-.07,0-0.14,0-0.2-0.24-.3-0.44-0.57-0.58-0.78l-0.13-.18a6.46,6.46,0,0,1-1.67-4.65,6.69,6.69,0,0,1,1.62-4.44,6,6,0,0,0,.52-0.75c-0.36-1.74-.69-3.51-0.94-5.23l8.79-8.2,3.55-3.29c0,0.17.08,0.34,0.13,0.51q1.87-2.12,3.79-4.13,2.61-2.43,5.17-4.91a6.18,6.18,0,0,0,.62-0.75c1.16-1,2.33-2.07,3.47-3l1.5-1.3c1-.89,2.06-1.76,3.09-2.64l1.72-1.46a13.59,13.59,0,0,1,2-2.64l0.23-.47a45.5,45.5,0,0,1,7.61-10.28,9,9,0,0,1,3.9-2.52,6.51,6.51,0,0,1,3.63-3.6,15,15,0,0,1,5.67-1.33,10.35,10.35,0,0,1,2.86.4,10,10,0,0,1,1.86-.17,11,11,0,0,1,1.75.14c0.19,0,.53,0,0.85-0.06,0.57-.05,1.28-0.11,2.08-0.11,0.48,0,.93,0,1.37.07a6.47,6.47,0,0,1,2.51.79l0.13,0.07a11.6,11.6,0,0,1,5.06,4.93,11.08,11.08,0,0,0,5.86,3.25l1.08,0.86,0.61-.61,5-5.09c1.19-1.93,2.21-3.79,2-5.83-0.4-3.31,1.13-2.86,4.13-.3l0.63-.63,0.09-.1a10.24,10.24,0,0,1,3-2.26l0.48-.47,3.52-3.49a9.58,9.58,0,0,1-1.54-.88,6.47,6.47,0,0,1-2.69-6.08c0.41-3.3,1.06-6.68,1.69-9.95a107.89,107.89,0,0,0,2-12.94,11.89,11.89,0,0,0-.24-2.71,24,24,0,0,1-.37-3.39,22.51,22.51,0,0,1,.48-4.51,13.45,13.45,0,0,0,.27-1.94,10.39,10.39,0,0,0-.25-1.39,16.31,16.31,0,0,1-.48-5,15.26,15.26,0,0,1,1.26-4.55l0.24-.59a10.72,10.72,0,0,1-.31-1.76,24.76,24.76,0,0,1,.18-5c0-.24,0-0.5.07-0.75a20.42,20.42,0,0,1,.54-3.56,9.86,9.86,0,0,1,1.21-2.69c0-.17,0-0.34,0-0.49a18.17,18.17,0,0,1-.05-2.51c0-.47.1-0.91,0.15-1.37a82.46,82.46,0,0,0-7.32-11.21c-2.32-2.76-3.44-6-.13-9.18,0,0,.11-0.3.16-0.48a6.23,6.23,0,0,0,1.59.52c3.77,0.4,2-4.89,3.41-5.38,0-1.52.3-1,1-2a1.86,1.86,0,0,1,0-1.64c1.06-.54,2.13,0,2.63-1.41q-0.67-1.91-1.35-3.83C664,1978.48,664.71,1978.19,664.86,1977ZM116.18,2085.22a1.8,1.8,0,0,1,2.39.57C117.74,2086.36,116.41,2086.14,116.18,2085.22Zm2.86,1.24c-0.18-.77-0.35-1.53-0.52-2.3,0.19-.22.41-0.47,0.65-0.72a5.52,5.52,0,0,0,1.43,2.55,4.08,4.08,0,0,0,1.29.89A22.44,22.44,0,0,1,119,2086.46Zm304.11-.38-1.3-.13a8.94,8.94,0,0,0-1.2-2.58,35.85,35.85,0,0,0,3.5-6.05,8.58,8.58,0,0,0,1.44.38,19.07,19.07,0,0,0-1.25,3.21A30.89,30.89,0,0,0,423.15,2086.08ZM417,2069.15l0,0s0-.08,0-0.11Zm-37.74,6.06-0.42.36-0.84-1.74A12.63,12.63,0,0,0,379.25,2075.21Zm2.37-16.57c0.05,0.86.1,1.69,0.15,2.53-0.09.27-.19,0.54-0.26,0.81a14.42,14.42,0,0,0-1.94-.25,42,42,0,0,0-2.61-4.27C378.52,2057.81,380.09,2058.18,381.62,2058.65Zm-49,2.69a12.91,12.91,0,0,1,.48-4.31l1.71,0.35c-0.4,1.78-1.16,4.25-1.79,6.49A19.83,19.83,0,0,1,332.6,2061.34Zm6.78,10.83a0.51,0.51,0,0,1,.47-0.4c-0.11.46-.23,0.93-0.38,1.37l-0.11.11C339.36,2072.89,339.36,2072.53,339.38,2072.17Zm-41.44.1c0-.71,1.88-0.3,2-1a71.45,71.45,0,0,1,3.1-11.59c-0.84,4-1.56,8.37-1.36,10.84a3.24,3.24,0,0,0,.16.73c0.14,1.45,1.51,3,2,4.69,0,0.1,0,.19,0,0.29,0.09,1.43-.57,3.73-1.32,6.29a29.63,29.63,0,0,0-4.59-6.47A29.48,29.48,0,0,1,297.94,2072.27Zm11.39,68.93-0.11.14c0.32-4.09,1.06-8.41,1.55-12.68a3.55,3.55,0,0,0,2.78-1.62,8.89,8.89,0,0,0,.87-3.3q4.38,0.57,8.82,1.19c-1.37,1.57-2.63,3.13-3.86,4.81A133.48,133.48,0,0,0,309.33,2141.19Zm-17.14-71.63c0,0.06-.06.13-0.08,0.19l-0.21-.23A1,1,0,0,1,292.19,2069.56Zm1.13-13.54c-0.57,3.1-2.86,9.51-2.94,11.84-0.73-.8-1.45-1.6-2.14-2.42,1-2.2,1.35-8.57,2.47-10.34a17.54,17.54,0,0,1,2.68.56Zm-38.59,27.62a35.1,35.1,0,0,0,4.36-7.86,20.83,20.83,0,0,0,.66-2.19c0.08,1,.15,2,0.18,3.07-1.75,2.91-2.55,6.69-3,10.81a3.18,3.18,0,0,0-.82-0.41A13.73,13.73,0,0,0,254.73,2083.65Zm-1.37,1.65c0,0.39-.11.8-0.19,1.23l-1-.07A14.57,14.57,0,0,0,253.36,2085.3Zm-42.06-13.13c1.87,3.21,5.16,5.83,9.1,5.62,0,0.14,0,.28.05,0.43l-0.28-.07q-1.84,3.69-3.6,7.36c-0.83-.07-1.65-0.15-2.47-0.24-1.39-5.67-4.11-10.3-4.12-15.63A13.53,13.53,0,0,0,211.3,2072.17ZM220,2159c-2.69-4.77-2.77-10.32-2.52-15.82l4.46-4.15,3.42-3.16c-0.39,6.59,3.18,13.77,3.67,17.83,0.54,4.44-.73,8.4-1.56,12.38a23.45,23.45,0,0,1-5.2-4A16.83,16.83,0,0,1,220,2159Zm27.63-30q-0.09,1.1-.1,2.23c-2.72,2.79-5.29,5.73-7.76,8.75,1-4.53,2.15-8.92,2.42-12.61a29.33,29.33,0,0,0,3.71,1.38C246.44,2128.83,247,2128.76,247.6,2128.92Zm-80.08-72c2.2,0.44,4.43.93,6.62,1.56,0.32,5.3.68,10.23-.76,14.53-0.59.61-1.25,1.17-1.92,1.73C168.57,2068.83,165.86,2062.51,167.52,2056.94ZM180,2083.61l-0.09-.11c0-.16.07-0.32,0.09-0.49a37.56,37.56,0,0,0-.44-10.17c1.86,3.46,4.61,6.3,5.48,9.52s0.37,6.35.67,9.74l-3.51-1.44A9.22,9.22,0,0,0,180,2083.61Zm-1.07,2.67c-0.11.83-.31,1.73-0.37,2.73-0.43-.16-0.87-0.3-1.31-0.44A10.11,10.11,0,0,0,179,2086.27Zm28,76.3a2.58,2.58,0,0,1,.3.36l0.18,0.09a2.49,2.49,0,0,1,.26.31l1.43,0.72c-0.16,1.77-.34,3.49-0.35,5.22a36.69,36.69,0,0,1-13.13-5.9l1.1-1.13a69.38,69.38,0,0,1,6.69-6.13A52,52,0,0,1,206.92,2162.57Zm-77.73-75.4a7.1,7.1,0,0,0,2.47-3.8c0.44,1.1.35,2.51,0.67,4.06C131.3,2087.29,130.25,2087.22,129.2,2087.17Zm2.77-5.59c0.28-3.08-.46-6.63-0.24-10.09,0-.71,1.88-0.31,2-1a80.64,80.64,0,0,1,2.6-10.39V2063h0a34.34,34.34,0,0,0-.71,7.51c0.14,1.73,2.1,3.61,2.23,5.7s-1.5,6.4-2.47,10.47A9.51,9.51,0,0,0,132,2081.58Zm33.28,64q-0.87,1.18-1.63,2.45c0.1-.54.21-1,0.32-1.48,0.29-1.15.77-1.29,1.25-1Zm-2.2,11.82,0.17,0,1,0.85-0.88,1.16Q163.13,2158.46,163,2157.41Zm207.43,2.95c0-.12-0.09-0.24-0.11-0.37a20.91,20.91,0,0,1-.34-2.58l0.24,0a0.87,0.87,0,0,1,.36.27l1.11,1Zm0.25-11.12c-0.16.29-.3,0.58-0.45,0.88a32.89,32.89,0,0,1,.64-3.55c0.42-1.66,1.23-1.23,1.88-.52A27.3,27.3,0,0,0,370.73,2149.24Zm0.75-16.11c-2.35,1.12-5.44,2.42-7.55,4.14-0.62.51,0.65,1.62-.21,2.06a22.88,22.88,0,0,1-4.09,1.39l4.33-4,3.55-3.29c0,0.17.08,0.34,0.13,0.51q1.87-2.12,3.79-4.13c0.92-.86,1.83-1.74,2.74-2.6l1,0.45C373.49,2129.38,371.92,2131.13,371.48,2133.13Zm44.68,36.53a36.59,36.59,0,0,1-13.6-6.25l1.14-1.17a69.73,69.73,0,0,1,6.82-6.24,57.31,57.31,0,0,1,3.83,7,2.59,2.59,0,0,1,.3.36l1.88,1C416.36,2166.12,416.16,2167.88,416.16,2169.66Zm18.62-3.23a21,21,0,0,1-7.84-7.47c-2.69-4.77-2.77-10.32-2.52-15.82l4.46-4.15,3.87-3.58c-0.81,6.8,3.08,14.45,3.59,18.68C436.87,2158.51,435.61,2162.46,434.78,2166.42Zm20-34.78c-2.94,3-5.71,6.19-8.35,9.48,1.09-5,2.4-9.81,2.69-13.84a29.34,29.34,0,0,0,3.71,1.38c0.57,0.16,1.18.08,1.73,0.24l0.34,0.12C454.83,2129.89,454.8,2130.76,454.79,2131.65Zm5.66-44.49c-0.7-.05-1.41-0.09-2.06-0.12a13.57,13.57,0,0,0,2.25-2.06A7.07,7.07,0,0,1,460.45,2087.16Zm3.75,0.95a3.32,3.32,0,0,0-1-.48,9,9,0,0,0-1.55-3.91,35.08,35.08,0,0,0,4.42-7.94,22.6,22.6,0,0,0,.83-2.87c0.12,1.41.24,2.89,0.28,4.42C465.44,2080.24,464.64,2084,464.2,2088.11Zm35.17-17.91c0,0.07-.07.16-0.09,0.24l-0.83-.9C499,2069.53,499.57,2069.4,499.37,2070.2Zm1.11-13.45c-0.57,3.09-2.85,9.48-2.93,11.81-0.85-.93-1.7-1.88-2.5-2.84h0c1.12-1.88,1.44-8.77,2.61-10.62a18.12,18.12,0,0,1,3,.64C500.6,2056.1,500.54,2056.41,500.48,2056.76Zm9.23,26.43a29.92,29.92,0,0,0-4.7-6.6,32.07,32.07,0,0,1-.09-4.32c0-.71,1.87-0.3,2-1a67.43,67.43,0,0,1,3.42-12.48h0.17c-1,4.32-1.93,9.6-1.71,12.4,0.14,1.73,2.1,3.61,2.22,5.69C511.12,2078.35,510.45,2080.64,509.71,2083.19Zm19.44,44.37a130.5,130.5,0,0,0-12.71,14.1l-0.3.39c0.29-4.3,1.1-8.88,1.62-13.4a3.55,3.55,0,0,0,2.78-1.62c0.81-1.23,1-4.49,1.21-6.86,3.62,1.39,7.26,2.82,10.91,4.24C531.46,2125.44,530.29,2126.48,529.15,2127.56Zm17.34-53.75c-0.65.66-1.36,1.26-2.08,1.86-3-6.18-6.08-12.82-4.34-18.64,2.38,0.47,4.78,1,7.13,1.7C547.52,2064.24,548,2069.38,546.49,2073.82Zm5.19,15.93c-0.6-.22-1.21-0.42-1.82-0.61,0-.13-0.07-0.24-0.11-0.36a10,10,0,0,0,2.27-3.47C552.33,2086.56,551.78,2088,551.68,2089.75Zm3.09,1.43a9.22,9.22,0,0,0-2.27-7.56c0-.16.07-0.32,0.09-0.49,0.47-3.61,0-6.88-.51-10.68,1.79,4,5.1,7.1,6.06,10.68,0.83,3.15.37,6.34,0.67,9.71Zm38.41-12.25q-1.84,3.68-3.6,7.35c-0.91-.07-1.82-0.16-2.73-0.26-1.38-6.17-4.47-11.06-4.28-16.83,1.22,4.47,5.42,9.2,10.75,8.71,0,0.37.08,0.73,0.14,1.11Zm32.93,8.36c-0.7-.05-1.41-0.09-2.06-0.12a13.72,13.72,0,0,0,2.24-2.07A7,7,0,0,1,626.1,2087.28Zm3.75,0.95a3.26,3.26,0,0,0-1-.48,8.94,8.94,0,0,0-1.56-3.91,34.8,34.8,0,0,0,4.43-8,21.45,21.45,0,0,0,.83-2.86c0.12,1.41.24,2.89,0.28,4.41C631.09,2080.34,630.29,2084.12,629.85,2088.22Z" transform="translate(-92.81 -1962.09)"/></svg>