<svg id="Layer_1" data-name="Layer 1" xmlns="http://www.w3.org/2000/svg" xmlns:xlink="http://www.w3.org/1999/xlink" viewBox="0 0 655.72 374.47"><defs><style>.cls-1{fill:#94e7db;}.cls-2{fill:#fff;}.cls-3{fill:#3eb9a7;}.cls-4{fill:url(#linear-gradient);}</style><linearGradient id="linear-gradient" x1="1215.28" y1="1988.4" x2="1360.82" y2="2133.95" gradientUnits="userSpaceOnUse"><stop offset="0" stop-color="#3eb9a7" stop-opacity="0"/><stop offset="0.2" stop-color="#3eb9a7" stop-opacity="0.02"/><stop offset="0.41" stop-color="#3eb9a7" stop-opacity="0.09"/><stop offset="0.63" stop-color="#3eb9a7" stop-opacity="0.2"/><stop offset="0.84" stop-color="#3eb9a7" stop-opacity="0.36"/><stop offset="1" stop-color="#3eb9a7" stop-opacity="0.5"/></linearGradient></defs><title>fte-uita-full-logo</title><polygon class="cls-1" points="655.72 235.77 655.72 329.61 610.87 374.46 0 374.46 0 280.62 44.85 235.77 655.72 235.77"/><path class="cls-2" d="M1317.65,2222.2h97.15v92.29h-19.43v-38.86h-58.29v38.86h-19.43V2222.2Zm19.43,19.43v14.57h58.29v-14.57h-58.29Z" transform="translate(-1015.69 -1962.09)"/><path class="cls-2" d="M1453.66,2314.5h-19.43V2222.2h19.43v92.29Z" transform="translate(-1015.69 -1962.09)"/><path class="cls-2" d="M1570.24,2275.64h-19.43l19.43,38.86h-23.07l-19.43-38.86h-35.22v38.86h-19.43V2222.2h97.15v53.43Zm-77.72-34v14.57h58.29v-14.57h-58.29Z" transform="translate(-1015.69 -1962.09)"/><path class="cls-3" d="M1156.56,2259.72h-39.2v-37.24h7.84v29.4h23.52v-29.4h7.84v37.24Z" transform="translate(-1015.69 -1962.09)"/><path class="cls-3" d="M1164.4,2222.49h39.2V2244h-31.36v15.68h-7.84v-37.24Zm31.36,13.72v-5.88h-23.52v5.88h23.52Z" transform="translate(-1015.69 -1962.09)"/><path class="cls-3" d="M1232,2259.72h-7.84v-37.24H1232v37.24Z" transform="translate(-1015.69 -1962.09)"/><path class="cls-3" d="M1279,2259.72h-7.84l-23.52-26v26h-7.84v-37.24h7.84l23.52,26v-26H1279v37.24Z" transform="translate(-1015.69 -1962.09)"/><path class="cls-3" d="M1164.92,2278.83h-19v35.67h-9.51v-35.67h-19v-9.51h47.55v9.51Z" transform="translate(-1015.69 -1962.09)"/><path class="cls-3" d="M1222,2314.5h-9.51v-19h-28.53v19h-9.51v-45.18h9.51V2286h28.53v-16.64H1222v45.18Z" transform="translate(-1015.69 -1962.09)"/><path class="cls-3" d="M1241,2295.47V2305h38v9.51h-47.55v-45.18H1279v9.51h-38V2286h38v9.51h-38Z" transform="translate(-1015.69 -1962.09)"/><path class="cls-4" d="M1148.12,2116.09a5.1,5.1,0,0,1,2.83-1.24q25.57-6.9,51.16-13.73c1.43-.38,2.31-0.73,2.37-2.62,0.07-2.07,1.88-3.5,3.31-4.91,3-2.93,3.16-2,1-6.1l-23.1-43.51c-0.27-.52-0.56-1-0.81-1.56-0.59-1.28-.26-1.88,1.23-2l62.2-20.53a10.35,10.35,0,0,0,.81,2.53c0.29,0.63.62,1.24,0.95,1.86l0.21,0.4,19.44,36.61,9.22,17.36h0l-0.65.63c-1.61,1.54-4.12,3.94-5,7.47-18.75,5-39.07,10.46-62.05,16.66l-0.37.09a11.37,11.37,0,0,0-6.09,3.18l-5.75,5.88a7.58,7.58,0,0,1-1.23-.15l-22.92,1.72-2.73.52a7.66,7.66,0,0,1-3.49,0l0.06,0-15,1.13-2.23.43A7.18,7.18,0,0,1,1148.12,2116.09Zm372.48-141.92h0Zm-125.37,71.36,58.55-10.47a3.34,3.34,0,0,0,2-1.14c11.85-11.79,23.34-24.27,34.17-37.1a130.57,130.57,0,0,0,16-24.28,5.2,5.2,0,0,0,.39-4.7l-0.07-.16a11.53,11.53,0,0,1-.84-3.19l-112.24,31.62a1.55,1.55,0,0,0-1.11.31c-0.86.63-.37,1.6-0.07,2.35a9.42,9.42,0,0,1-.52,8.13,110.1,110.1,0,0,1-13.55,20.52q-11,13.09-23,25.34Zm-40.53,76h0Zm-298.8,26.77q0.77,0.3,1.55.55-0.78-.25-1.55-0.55l-0.42-.14Zm242.48,18.09c-5.71-5.33-8.23-12.89-7.14-21.41-1.74-1.78-3.51-3.69-5.3-5.68-9.29,1.53-19.33,3.14-31.55,5-11.65,1.81-23.46,3.41-35.09,4.93a13.15,13.15,0,0,0,4,7.43,31.16,31.16,0,0,0,16.26,8.15l0,0,0.39,0a34.09,34.09,0,0,0,5.75.44l56.61,4.34A50.1,50.1,0,0,1,1298.39,2166.41Zm-157.13-25.53c9.42-.7,19-2,28.36-3.23l4.54-.6c28.24-3.72,57.22-8.6,88.59-14.91,12.77-2.57,24.62-5.17,35.85-7.87a170.7,170.7,0,0,1-14.65-10,1,1,0,0,0-.76-0.29,5.17,5.17,0,0,0-.65,0c-16.84,2.18-33.79,6.1-50.17,9.89l-3,.69c-1.39.32-2.78,0.61-4.17,0.89a45.2,45.2,0,0,0,9.48,3.79,0.5,0.5,0,0,1,.46.56,2.94,2.94,0,0,1-1.9.75c-13.62,3.56-27.35,6.64-41.14,9.41-23.75,4.78-47.63,8.89-71.66,12.06l-0.75.1C1126.32,2141.89,1133.42,2141.46,1141.26,2140.88Z" transform="translate(-1015.69 -1962.09)"/><g id="Dreamliner"><path class="cls-3" d="M1325.79,2126c2.65,0.79,5.44.52,8.13,1,4.38,0.86,8.79,1.83,12.42,4.57,7.29,5.49,9.08,13.21,8.38,21.83-0.92,11.27-10.07,17.79-20,18.76-12.13,1.19-23-2.19-31.94-10.54-4.6-4.29-6-10.08-5.07-16.27a4.9,4.9,0,0,0-1.5-4.57q-3.06-3.12-6-6.39a5,5,0,0,0-5-1.58q-15.92,2.63-31.88,5.09c-18.63,2.89-37.33,5.22-56,7.64-18.15,2.35-36.39,3.66-54.61,5.07a442.82,442.82,0,0,1-51.22.91c-7.61-.29-15.23,0-22.82-0.73-4.35-.43-8.7-0.91-12.82-2.52-0.79-.31-1.78-0.35-2.24-1.32,0.55-1,1.48-.59,2.14-0.42,14.81,3.93,29.91,2.54,44.94,2.53,13.69,0,27.36-.75,41-1.77,11.12-.83,22.2-2.41,33.27-3.87,29.85-3.93,59.51-9,89-15,17.14-3.45,34.2-7.27,51.12-11.69,0.82-.21,1.79-0.17,2.36-0.93a0.62,0.62,0,0,0-.58-0.7c-11.06-2.93-20.13-9.49-29.14-16.12a7.7,7.7,0,0,0-6.08-1.45c-18.17,2.35-36,6.58-53.78,10.69-4.81,1.11-9.68,2-14.52,2.9a8.92,8.92,0,0,1-4.06,0c1.15-1.18,2.41-1.24,3.51-1.54q31.77-8.57,63.56-17.06c1.77-.47,2.87-0.9,2.95-3.25,0.08-2.58,2.34-4.35,4.11-6.1,3.67-3.64,3.93-2.47,1.22-7.58l-28.7-54.06c-0.34-.64-0.7-1.28-1-1.94-0.74-1.59-.33-2.34,1.53-2.52,3.34-.32,5.38,1.42,7.34,3.81q16.4,20,33,39.88a64.07,64.07,0,0,0,5.7,6,8.25,8.25,0,0,0,8.41,1.69,150.77,150.77,0,0,1,17-4.19,7.27,7.27,0,0,0,2.82-1.37c2.46-1.71,4.9-3.45,7.38-5.13,1.06-.73,2.17-1.44,3.76-0.9-0.31,2.38-3,2.85-3.81,4.78,0.8,1,1.82.35,2.66,0.2q57.11-10.19,114.22-20.43a9.75,9.75,0,0,0,5.4-2.93q18.1-18,34.55-37.51a136.76,136.76,0,0,0,16.84-25.49,11.7,11.7,0,0,0,.64-10.1c-0.37-.93-1-2.13.09-2.91s2.34-.22,3.34.53c3.72,2.79,5.61,6.36,4.83,11.14a42.9,42.9,0,0,1-2.78,9.75,247.78,247.78,0,0,1-27.89,49.92c-0.28.39-.55,0.8-0.82,1.21-0.93,1.42-.48,2.09,1.15,2.12,2.75,0.06,5.51,0,8.26.18a85.18,85.18,0,0,1,31.38,7.76,35.08,35.08,0,0,1,6.52,4.2c8.56,6.65,17.55,12.78,24.79,21a51.1,51.1,0,0,1,6.48,9.06c4.46,8.06,1.24,13.85-5,18.73-4.52,3.53-9.92,5.5-15.31,7.23a190.56,190.56,0,0,1-45.43,8.63c-21.19,1.44-42.39,1.55-63.6,1.36-5.42,0-10.36,1.69-15.46,2.78-22.55,4.83-45.32,5-68.16,3.44-6.87-.48-13.27,1.56-19.91,2.32-3,.34-6,1-9,1.52Z" transform="translate(-1015.69 -1962.09)"/></g></svg>