<svg id="Layer_1" data-name="Layer 1" xmlns="http://www.w3.org/2000/svg" viewBox="0 0 655.72 138.7"><defs><style>.cls-1{fill:#ff6000;}.cls-2{fill:#fff;}.cls-3{fill:#f1e400;}</style></defs><title>fte-asia-expo-logo-bar</title><polygon class="cls-1" points="655.72 0 655.72 93.84 610.87 138.7 0 138.7 0 44.85 44.85 0 655.72 0"/><path class="cls-2" d="M2908,382.93h7.18V397.3h-7.33v18h7.48v52.79h17.89V415.33H2976v25.81q0,5.72-1.69,7.55t-6.08,1.69q-3.81.15-7.18,0.15v17.6h14.66q8.8,0,13-2.93,5.13-3.52,5.13-12.17V365.19H2908v17.74Zm25.37,0H2976V397.3h-42.67V382.93Zm104.07-17.74h52.49v17.74h-47.07q-8.36,0-11.95,3.15t-3.59,11.22h62.46v28.3q0,22-15.69,33.14-13.78,9.82-37.09,9.82-4,0-13.64-.29-8.8-.15-13.78-0.15V450.67h21.11q41.2,0,41.35-28.59l-0.15-6.89h-62.32v-21.7q0-12.76,8.36-20.82A27.32,27.32,0,0,1,3037.4,365.19Zm108.82,0v17.74h7.19V397.3h-7.33v18h7.48v52.79h17.89V415.33h42.82v25.81q0,5.72-1.69,7.55t-6.08,1.69q-3.81.15-7.18,0.15v17.6H3214q8.8,0,13-2.93,5.13-3.52,5.13-12.17V365.19h-85.92Zm68,32.11h-42.67V382.93h42.67V397.3Zm-83.42,52.42-8.28,18.39a18.37,18.37,0,0,1-2.86-1.82,33,33,0,0,1-6.26-6.26,38.08,38.08,0,0,1-6.05-11.61,30.43,30.43,0,0,1-1.7-8.28c-0.2-3.26-.34-7.5-0.34-12.78V364.92h25.41v18h-7.35s-0.16,31.23,0,49.3c0,6.78.36,11.39,1.84,13.3S3130.83,449.72,3130.83,449.72Z" transform="translate(-2854.41 -346.65)"/><path class="cls-3" d="M3304.15,443.44h-17.53a23.62,23.62,0,0,1-14-4.55q-8.35-6.07-8.35-17.53v-5.24h-4.7v-9.33h4.7v-7.44h-4.7v-9.18h44.61v9.18h-30.43v7.44h22.76v9.33h-22.76v4a13.36,13.36,0,0,0,3.72,9.64q4.32,4.63,12.52,4.63l14.19-.08v9.1Z" transform="translate(-2854.41 -346.65)"/><path class="cls-3" d="M3334.67,408.46l11.89-18.36h10.75l-17,26.83,17,26.83h-10.75l-11.89-18.71-11.89,18.71H3312l17-26.83-17-26.83h10.75Z" transform="translate(-2854.41 -346.65)"/><path class="cls-3" d="M3365.2,390.21v53.55h9.46V429h3.59q12.59,0,20.52-7,8.47-7.63,8.47-20.83V390.21h-42Zm32.19,9.23-0.08,2.21q0,7.78-4.2,12.51-4.81,5.42-14.34,5.42h-4.2V399.44h22.81Z" transform="translate(-2854.41 -346.65)"/><path class="cls-3" d="M3415.11,390.21v53.55h42.11V390.21h-42.11Zm32.5,9.23v35.24h-23V399.44h23Z" transform="translate(-2854.41 -346.65)"/></svg>